<?xml version="1.0" encoding="UTF-8" standalone="no"?>
<svg
   xmlns:dc="http://purl.org/dc/elements/1.1/"
   xmlns:cc="http://creativecommons.org/ns#"
   xmlns:rdf="http://www.w3.org/1999/02/22-rdf-syntax-ns#"
   xmlns:svg="http://www.w3.org/2000/svg"
   xmlns="http://www.w3.org/2000/svg"
   xmlns:sodipodi="http://sodipodi.sourceforge.net/DTD/sodipodi-0.dtd"
   xmlns:inkscape="http://www.inkscape.org/namespaces/inkscape"
   version="1.1"
   width="29.7002cm"
   height="21.0007cm"
   viewBox="0 0 116930 82680 "
   id="svg4465"
   sodipodi:docname="relay_jacks-F.Cu.svg"
   inkscape:version="0.92.3 (2405546, 2018-03-11)">
  <metadata
     id="metadata4471">
    <rdf:RDF>
      <cc:Work
         rdf:about="">
        <dc:format>image/svg+xml</dc:format>
        <dc:type
           rdf:resource="http://purl.org/dc/dcmitype/StillImage" />
        <dc:title>SVG Picture created as relay_jacks-F.Cu.svg date 2018/11/16 12:14:35 </dc:title>
      </cc:Work>
    </rdf:RDF>
  </metadata>
  <defs
     id="defs4469" />
  <sodipodi:namedview
     pagecolor="#ffffff"
     bordercolor="#666666"
     borderopacity="1"
     objecttolerance="10"
     gridtolerance="10"
     guidetolerance="10"
     inkscape:pageopacity="0"
     inkscape:pageshadow="2"
     inkscape:window-width="1920"
     inkscape:window-height="1025"
     id="namedview4467"
     showgrid="false"
     inkscape:zoom="8.5067005"
     inkscape:cx="314.09238"
     inkscape:cy="382.24272"
     inkscape:window-x="0"
     inkscape:window-y="27"
     inkscape:window-maximized="1"
     inkscape:current-layer="svg4465" />
  <title
     id="title2941">SVG Picture created as relay_jacks-F.Cu.svg date 2018/11/16 12:14:35 </title>
  <desc
     id="desc2943">Picture generated by PCBNEW </desc>
  <g
     style="fill:#000000; fill-opacity:1;stroke:#000000; stroke-opacity:1; stroke-linecap:round; stroke-linejoin:round; "
     transform="translate(0 0) scale(1 1)"
     id="g2945" />
  <g
     style="fill:#000000; fill-opacity:0.0;  stroke:#000000; stroke-width:-0.000393701; stroke-opacity:1;  stroke-linecap:round; stroke-linejoin:round;"
     id="g2947" />
  <g
     style="fill:#000000; fill-opacity:0.0;  stroke:#000000; stroke-width:39.3701; stroke-opacity:1;  stroke-linecap:round; stroke-linejoin:round;"
     id="g2949" />
  <g
     style="fill:#000000; fill-opacity:0.0;  stroke:#000000; stroke-width:39.3701; stroke-opacity:1;  stroke-linecap:round; stroke-linejoin:round;"
     id="g2955" />
  <g
     style="fill:#000000; fill-opacity:0.0;  stroke:#000000; stroke-width:39.3701; stroke-opacity:1;  stroke-linecap:round; stroke-linejoin:round;"
     id="g2961" />
  <g
     style="fill:#000000; fill-opacity:0.0;  stroke:#000000; stroke-width:39.3701; stroke-opacity:1;  stroke-linecap:round; stroke-linejoin:round;"
     id="g2967" />
  <g
     style="fill:#000000; fill-opacity:0.0;  stroke:#000000; stroke-width:39.3701; stroke-opacity:1;  stroke-linecap:round; stroke-linejoin:round;"
     id="g2973" />
  <g
     style="fill:#000000; fill-opacity:0.0;  stroke:#000000; stroke-width:39.3701; stroke-opacity:1;  stroke-linecap:round; stroke-linejoin:round;"
     id="g2979" />
  <g
     style="fill:#000000; fill-opacity:0.0;  stroke:#000000; stroke-width:39.3701; stroke-opacity:1;  stroke-linecap:round; stroke-linejoin:round;"
     id="g2985" />
  <g
     style="fill:#000000; fill-opacity:0.0;  stroke:#000000; stroke-width:39.3701; stroke-opacity:1;  stroke-linecap:round; stroke-linejoin:round;"
     id="g2991" />
  <g
     style="fill:#000000; fill-opacity:0.0;  stroke:#000000; stroke-width:39.3701; stroke-opacity:1;  stroke-linecap:round; stroke-linejoin:round;"
     id="g2997" />
  <g
     style="fill:#000000; fill-opacity:0.0;  stroke:#000000; stroke-width:39.3701; stroke-opacity:1;  stroke-linecap:round; stroke-linejoin:round;"
     id="g3005" />
  <g
     style="fill:#000000; fill-opacity:0.0;  stroke:#000000; stroke-width:39.3701; stroke-opacity:1;  stroke-linecap:round; stroke-linejoin:round;"
     id="g3011" />
  <g
     style="fill:#000000; fill-opacity:0.0;  stroke:#000000; stroke-width:39.3701; stroke-opacity:1;  stroke-linecap:round; stroke-linejoin:round;"
     id="g3017" />
  <g
     style="fill:#000000; fill-opacity:0.0;  stroke:#000000; stroke-width:39.3701; stroke-opacity:1;  stroke-linecap:round; stroke-linejoin:round;"
     id="g3025" />
  <g
     style="fill:#000000; fill-opacity:0.0;  stroke:#000000; stroke-width:39.3701; stroke-opacity:1;  stroke-linecap:round; stroke-linejoin:round;"
     id="g3031" />
  <g
     style="fill:#000000; fill-opacity:0.0;  stroke:#000000; stroke-width:39.3701; stroke-opacity:1;  stroke-linecap:round; stroke-linejoin:round;"
     id="g3037" />
  <g
     style="fill:#000000; fill-opacity:0.0;  stroke:#000000; stroke-width:39.3701; stroke-opacity:1;  stroke-linecap:round; stroke-linejoin:round;"
     id="g3043" />
  <g
     style="fill:#000000; fill-opacity:0.0;  stroke:#000000; stroke-width:39.3701; stroke-opacity:1;  stroke-linecap:round; stroke-linejoin:round;"
     id="g3049" />
  <g
     style="fill:#000000; fill-opacity:0.0;  stroke:#000000; stroke-width:39.3701; stroke-opacity:1;  stroke-linecap:round; stroke-linejoin:round;"
     id="g3055" />
  <g
     style="fill:#000000; fill-opacity:0.0;  stroke:#000000; stroke-width:39.3701; stroke-opacity:1;  stroke-linecap:round; stroke-linejoin:round;"
     id="g3061" />
  <g
     style="fill:#000000; fill-opacity:0.0;  stroke:#000000; stroke-width:39.3701; stroke-opacity:1;  stroke-linecap:round; stroke-linejoin:round;"
     id="g3067" />
  <g
     style="fill:#000000; fill-opacity:0.0;  stroke:#000000; stroke-width:39.3701; stroke-opacity:1;  stroke-linecap:round; stroke-linejoin:round;"
     id="g3075" />
  <g
     style="fill:#000000; fill-opacity:0.0;  stroke:#000000; stroke-width:39.3701; stroke-opacity:1;  stroke-linecap:round; stroke-linejoin:round;"
     id="g3081" />
  <g
     style="fill:#000000; fill-opacity:0.0;  stroke:#000000; stroke-width:39.3701; stroke-opacity:1;  stroke-linecap:round; stroke-linejoin:round;"
     id="g3087" />
  <g
     style="fill:#000000; fill-opacity:0.0;  stroke:#000000; stroke-width:39.3701; stroke-opacity:1;  stroke-linecap:round; stroke-linejoin:round;"
     id="g3095" />
  <g
     style="fill:#000000; fill-opacity:0.0;  stroke:#000000; stroke-width:39.3701; stroke-opacity:1;  stroke-linecap:round; stroke-linejoin:round;"
     id="g3101" />
  <g
     style="fill:#000000; fill-opacity:0.0;  stroke:#000000; stroke-width:39.3701; stroke-opacity:1;  stroke-linecap:round; stroke-linejoin:round;"
     id="g3107" />
  <g
     style="fill:#000000; fill-opacity:0.0;  stroke:#000000; stroke-width:39.3701; stroke-opacity:1;  stroke-linecap:round; stroke-linejoin:round;"
     id="g3113" />
  <g
     style="fill:#000000; fill-opacity:0.0;  stroke:#000000; stroke-width:39.3701; stroke-opacity:1;  stroke-linecap:round; stroke-linejoin:round;"
     id="g3119" />
  <g
     style="fill:#000000; fill-opacity:0.0;  stroke:#000000; stroke-width:39.3701; stroke-opacity:1;  stroke-linecap:round; stroke-linejoin:round;"
     id="g3125" />
  <g
     style="fill:#000000; fill-opacity:0.0;  stroke:#000000; stroke-width:39.3701; stroke-opacity:1;  stroke-linecap:round; stroke-linejoin:round;"
     id="g3133" />
  <g
     style="fill:#000000; fill-opacity:0.0;  stroke:#000000; stroke-width:39.3701; stroke-opacity:1;  stroke-linecap:round; stroke-linejoin:round;"
     id="g3139" />
  <g
     style="fill:#000000; fill-opacity:0.0;  stroke:#000000; stroke-width:39.3701; stroke-opacity:1;  stroke-linecap:round; stroke-linejoin:round;"
     id="g3145" />
  <g
     style="fill:#000000; fill-opacity:0.0;  stroke:#000000; stroke-width:39.3701; stroke-opacity:1;  stroke-linecap:round; stroke-linejoin:round;"
     id="g3151" />
  <g
     style="fill:#000000; fill-opacity:0.0;  stroke:#000000; stroke-width:39.3701; stroke-opacity:1;  stroke-linecap:round; stroke-linejoin:round;"
     id="g3157" />
  <g
     style="fill:#000000; fill-opacity:0.0;  stroke:#000000; stroke-width:39.3701; stroke-opacity:1;  stroke-linecap:round; stroke-linejoin:round;"
     id="g3163" />
  <g
     style="fill:#000000; fill-opacity:0.0;  stroke:#000000; stroke-width:39.3701; stroke-opacity:1;  stroke-linecap:round; stroke-linejoin:round;"
     id="g3169" />
  <g
     style="fill:#000000; fill-opacity:0.0;  stroke:#000000; stroke-width:39.3701; stroke-opacity:1;  stroke-linecap:round; stroke-linejoin:round;"
     id="g3177" />
  <g
     style="fill:#000000; fill-opacity:0.0;  stroke:#000000; stroke-width:39.3701; stroke-opacity:1;  stroke-linecap:round; stroke-linejoin:round;"
     id="g3183" />
  <g
     style="fill:#000000; fill-opacity:0.0;  stroke:#000000; stroke-width:39.3701; stroke-opacity:1;  stroke-linecap:round; stroke-linejoin:round;"
     id="g3189" />
  <g
     style="fill:#000000; fill-opacity:0.0;  stroke:#000000; stroke-width:39.3701; stroke-opacity:1;  stroke-linecap:round; stroke-linejoin:round;"
     id="g3195" />
  <g
     style="fill:#000000; fill-opacity:0.0;  stroke:#000000; stroke-width:39.3701; stroke-opacity:1;  stroke-linecap:round; stroke-linejoin:round;"
     id="g3215" />
  <g
     style="fill:#000000; fill-opacity:0.0;  stroke:#000000; stroke-width:39.3701; stroke-opacity:1;  stroke-linecap:round; stroke-linejoin:round;"
     id="g3221" />
  <g
     style="fill:#000000; fill-opacity:0.0;  stroke:#000000; stroke-width:39.3701; stroke-opacity:1;  stroke-linecap:round; stroke-linejoin:round;"
     id="g3363" />
  <g
     style="fill:#000000; fill-opacity:0.0;  stroke:#000000; stroke-width:39.3701; stroke-opacity:1;  stroke-linecap:round; stroke-linejoin:round;"
     id="g3369" />
  <g
     style="fill:#000000; fill-opacity:0.0;  stroke:#000000; stroke-width:39.3701; stroke-opacity:1;  stroke-linecap:round; stroke-linejoin:round;"
     id="g3385" />
  <g
     style="fill:#000000; fill-opacity:0.0;  stroke:#000000; stroke-width:39.3701; stroke-opacity:1;  stroke-linecap:round; stroke-linejoin:round;"
     id="g3411" />
  <g
     style="fill:#000000; fill-opacity:0.0;  stroke:#000000; stroke-width:39.3701; stroke-opacity:1;  stroke-linecap:round; stroke-linejoin:round;"
     id="g3435" />
  <g
     style="fill:#000000; fill-opacity:0.0;  stroke:#000000; stroke-width:39.3701; stroke-opacity:1;  stroke-linecap:round; stroke-linejoin:round;"
     id="g3441" />
  <g
     style="fill:#000000; fill-opacity:0.0;  stroke:#000000; stroke-width:39.3701; stroke-opacity:1;  stroke-linecap:round; stroke-linejoin:round;"
     id="g3465" />
  <g
     style="fill:#000000; fill-opacity:0.0;  stroke:#000000; stroke-width:39.3701; stroke-opacity:1;  stroke-linecap:round; stroke-linejoin:round;"
     id="g3555" />
  <g
     style="fill:#000000; fill-opacity:0.0;  stroke:#000000; stroke-width:39.3701; stroke-opacity:1;  stroke-linecap:round; stroke-linejoin:round;"
     id="g3561" />
  <g
     style="fill:#000000; fill-opacity:0.0;  stroke:#000000; stroke-width:39.3701; stroke-opacity:1;  stroke-linecap:round; stroke-linejoin:round;"
     id="g3583" />
  <g
     style="fill:#000000; fill-opacity:0.0;  stroke:#000000; stroke-width:39.3701; stroke-opacity:1;  stroke-linecap:round; stroke-linejoin:round;"
     id="g3589" />
  <g
     style="fill:#848400; fill-opacity:0.0;  stroke:#848400; stroke-width:59.0551; stroke-opacity:1;  stroke-linecap:round; stroke-linejoin:round;"
     id="g3595" />
  <g
     style="fill:#848400; fill-opacity:0.0;  stroke:#848400; stroke-width:0; stroke-opacity:1;  stroke-linecap:round; stroke-linejoin:round;"
     id="g3597" />
  <g
     style="fill:#848400; fill-opacity:1.0;  stroke:#848400; stroke-width:39.3701; stroke-opacity:1;  stroke-linecap:round; stroke-linejoin:round;"
     id="g3605" />
  <g
     style="fill:#848400; fill-opacity:1.0;  stroke:#848400; stroke-width:39.3701; stroke-opacity:1;  stroke-linecap:round; stroke-linejoin:round;"
     id="g3611" />
  <g
     style="fill:#848400; fill-opacity:1.0;  stroke:#848400; stroke-width:39.3701; stroke-opacity:1;  stroke-linecap:round; stroke-linejoin:round;"
     id="g3617" />
  <g
     style="fill:#848400; fill-opacity:1.0;  stroke:#848400; stroke-width:39.3701; stroke-opacity:1;  stroke-linecap:round; stroke-linejoin:round;"
     id="g3623" />
  <g
     style="fill:#848400; fill-opacity:1.0;  stroke:#848400; stroke-width:39.3701; stroke-opacity:1;  stroke-linecap:round; stroke-linejoin:round;"
     id="g3629" />
  <g
     style="fill:#848400; fill-opacity:1.0;  stroke:#848400; stroke-width:39.3701; stroke-opacity:1;  stroke-linecap:round; stroke-linejoin:round;"
     id="g3635" />
  <g
     style="fill:#848400; fill-opacity:1.0;  stroke:#848400; stroke-width:39.3701; stroke-opacity:1;  stroke-linecap:round; stroke-linejoin:round;"
     id="g3643" />
  <g
     style="fill:#848400; fill-opacity:1.0;  stroke:#848400; stroke-width:39.3701; stroke-opacity:1;  stroke-linecap:round; stroke-linejoin:round;"
     id="g3649" />
  <g
     style="fill:#848400; fill-opacity:1.0;  stroke:#848400; stroke-width:39.3701; stroke-opacity:1;  stroke-linecap:round; stroke-linejoin:round;"
     id="g3655" />
  <g
     style="fill:#848400; fill-opacity:1.0;  stroke:#848400; stroke-width:39.3701; stroke-opacity:1;  stroke-linecap:round; stroke-linejoin:round;"
     id="g3663" />
  <g
     style="fill:#848400; fill-opacity:1.0;  stroke:#848400; stroke-width:39.3701; stroke-opacity:1;  stroke-linecap:round; stroke-linejoin:round;"
     id="g3669" />
  <g
     style="fill:#848400; fill-opacity:1.0;  stroke:#848400; stroke-width:39.3701; stroke-opacity:1;  stroke-linecap:round; stroke-linejoin:round;"
     id="g3675" />
  <g
     style="fill:#848400; fill-opacity:1.0;  stroke:#848400; stroke-width:39.3701; stroke-opacity:1;  stroke-linecap:round; stroke-linejoin:round;"
     id="g3681" />
  <g
     style="fill:#848400; fill-opacity:1.0;  stroke:#848400; stroke-width:39.3701; stroke-opacity:1;  stroke-linecap:round; stroke-linejoin:round;"
     id="g3687" />
  <g
     style="fill:#848400; fill-opacity:1.0;  stroke:#848400; stroke-width:39.3701; stroke-opacity:1;  stroke-linecap:round; stroke-linejoin:round;"
     id="g3693" />
  <g
     style="fill:#848400; fill-opacity:1.0;  stroke:#848400; stroke-width:39.3701; stroke-opacity:1;  stroke-linecap:round; stroke-linejoin:round;"
     id="g3699" />
  <g
     style="fill:#848400; fill-opacity:1.0;  stroke:#848400; stroke-width:39.3701; stroke-opacity:1;  stroke-linecap:round; stroke-linejoin:round;"
     id="g3707" />
  <g
     style="fill:#848400; fill-opacity:1.0;  stroke:#848400; stroke-width:39.3701; stroke-opacity:1;  stroke-linecap:round; stroke-linejoin:round;"
     id="g3715" />
  <g
     style="fill:#848400; fill-opacity:1.0;  stroke:#848400; stroke-width:39.3701; stroke-opacity:1;  stroke-linecap:round; stroke-linejoin:round;"
     id="g3721" />
  <g
     style="fill:#840000; fill-opacity:1.0;  stroke:#840000; stroke-width:39.3701; stroke-opacity:1;  stroke-linecap:round; stroke-linejoin:round;"
     id="g3723" />
  <g
     style="fill:#840000; fill-opacity:1.0;  stroke:#840000; stroke-width:0; stroke-opacity:1;  stroke-linecap:round; stroke-linejoin:round;"
     id="g3733">
    <polyline
       style="fill-rule:evenodd;"
       points="30253,40509 30262,40510 30270,40512 30278,40515 30285,40519 30293,40523 30300,40528 30306,40534 30311,40540 30316,40547 30321,40554 30324,40562 30327,40570 30329,40578 30331,40586 30331,40595 30331,40796 30331,40805 30329,40813 30327,40821 30324,40829 30321,40837 30316,40844 30311,40851 30306,40857 30300,40863 30293,40868 30285,40872 30278,40876 30270,40879 30262,40881 30253,40882 30245,40883 30073,40883 30064,40882 30056,40881 30048,40879 30040,40876 30032,40872 30025,40868 30018,40863 30012,40857 30006,40851 30001,40844 29997,40837 29993,40829 29990,40821 29988,40813 29987,40805 29987,40796 29987,40595 29987,40586 29988,40578 29990,40570 29993,40562 29997,40554 30001,40547 30006,40540 30012,40534 30018,40528 30025,40523 30032,40519 30040,40515 30048,40512 30056,40510 30064,40509 30073,40509 30245,40509 30253,40509 "
       id="polyline3725" />
    <polyline
       style="fill-rule:evenodd;"
       points="30873,40509 30882,40510 30890,40512 30898,40515 30906,40519 30913,40523 30920,40528 30926,40534 30932,40540 30937,40547 30941,40554 30945,40562 30947,40570 30949,40578 30951,40586 30951,40595 30951,40796 30951,40805 30949,40813 30947,40821 30945,40829 30941,40837 30937,40844 30932,40851 30926,40857 30920,40863 30913,40868 30906,40872 30898,40876 30890,40879 30882,40881 30873,40882 30865,40883 30693,40883 30684,40882 30676,40881 30668,40879 30660,40876 30652,40872 30645,40868 30638,40863 30632,40857 30626,40851 30621,40844 30617,40837 30613,40829 30610,40821 30608,40813 30607,40805 30607,40796 30607,40595 30607,40586 30608,40578 30610,40570 30613,40562 30617,40554 30621,40547 30626,40540 30632,40534 30638,40528 30645,40523 30652,40519 30660,40515 30668,40512 30676,40510 30684,40509 30693,40509 30865,40509 30873,40509 "
       id="polyline3727" />
    <polyline
       style="fill-rule:evenodd;"
       points="30908,42392 30908,42667 30672,42667 30672,42392 30908,42392 "
       id="polyline3729" />
    <polyline
       style="fill-rule:evenodd;"
       points="30357,42392 30357,42667 30121,42667 30121,42392 30357,42392 "
       id="polyline3731" />
  </g>
  <g
     style="fill:#848400; fill-opacity:1.0;  stroke:#848400; stroke-width:669.291; stroke-opacity:1;  stroke-linecap:round; stroke-linejoin:round;"
     id="g3739" />
  <g
     style="fill:#848400; fill-opacity:0.0;  stroke:#848400; stroke-width:0; stroke-opacity:1;  stroke-linecap:round; stroke-linejoin:round;"
     id="g3747" />
  <g
     style="fill:#848400; fill-opacity:1.0;  stroke:#848400; stroke-width:669.291; stroke-opacity:1;  stroke-linecap:round; stroke-linejoin:round;"
     id="g3753" />
  <g
     style="fill:#848400; fill-opacity:0.0;  stroke:#848400; stroke-width:0; stroke-opacity:1;  stroke-linecap:round; stroke-linejoin:round;"
     id="g3761" />
  <g
     style="fill:#840000; fill-opacity:1.0;  stroke:#840000; stroke-width:0; stroke-opacity:1;  stroke-linecap:round; stroke-linejoin:round;"
     id="g3797">
    <polyline
       style="fill-rule:evenodd;"
       points="31015,43791 31015,44106 30661,44106 30661,43791 31015,43791 "
       id="polyline3767" />
    <polyline
       style="fill-rule:evenodd;"
       points="31015,43043 31015,43358 30661,43358 30661,43043 31015,43043 "
       id="polyline3769" />
    <polyline
       style="fill-rule:evenodd;"
       points="30228,43417 30228,43732 29874,43732 29874,43417 30228,43417 "
       id="polyline3771" />
    <polyline
       style="fill-rule:evenodd;"
       points="30264,39838 30272,39839 30281,39841 30289,39844 30296,39848 30303,39852 30310,39857 30316,39863 30322,39869 30327,39876 30331,39883 30335,39891 30338,39899 30340,39907 30341,39915 30342,39924 30342,40126 30341,40134 30340,40142 30338,40151 30335,40159 30331,40166 30327,40173 30322,40180 30316,40186 30310,40192 30303,40197 30296,40202 30289,40205 30281,40208 30272,40210 30264,40211 30256,40212 30083,40212 30075,40211 30066,40210 30058,40208 30050,40205 30043,40202 30035,40197 30029,40192 30022,40186 30017,40180 30012,40173 30007,40166 30004,40159 30001,40151 29999,40142 29998,40134 29997,40126 29997,39924 29998,39915 29999,39907 30001,39899 30004,39891 30007,39883 30012,39876 30017,39869 30022,39863 30029,39857 30035,39852 30043,39848 30050,39844 30058,39841 30066,39839 30075,39838 30083,39838 30256,39838 30264,39838 "
       id="polyline3773" />
    <polyline
       style="fill-rule:evenodd;"
       points="30884,39838 30892,39839 30901,39841 30909,39844 30916,39848 30923,39852 30930,39857 30937,39863 30942,39869 30947,39876 30952,39883 30955,39891 30958,39899 30960,39907 30961,39915 30962,39924 30962,40126 30961,40134 30960,40142 30958,40151 30955,40159 30952,40166 30947,40173 30942,40180 30937,40186 30930,40192 30923,40197 30916,40202 30909,40205 30901,40208 30892,40210 30884,40211 30876,40212 30703,40212 30695,40211 30687,40210 30678,40208 30670,40205 30663,40202 30656,40197 30649,40192 30642,40186 30637,40180 30632,40173 30627,40166 30624,40159 30621,40151 30619,40142 30618,40134 30617,40126 30617,39924 30618,39915 30619,39907 30621,39899 30624,39891 30627,39883 30632,39876 30637,39869 30642,39863 30649,39857 30656,39852 30663,39848 30670,39844 30678,39841 30687,39839 30695,39838 30703,39838 30876,39838 30884,39838 "
       id="polyline3775" />
    <polyline
       style="fill-rule:evenodd;"
       points="31579,43813 31587,43814 31595,43816 31603,43819 31611,43822 31618,43827 31625,43832 31631,43837 31637,43844 31642,43850 31646,43858 31650,43865 31653,43873 31655,43881 31656,43890 31657,43898 31657,44070 31656,44079 31655,44087 31653,44095 31650,44103 31646,44111 31642,44118 31637,44125 31631,44131 31625,44137 31618,44142 31611,44146 31603,44150 31595,44153 31587,44155 31579,44156 31570,44157 31369,44157 31360,44156 31352,44155 31344,44153 31336,44150 31328,44146 31321,44142 31314,44137 31308,44131 31302,44125 31297,44118 31293,44111 31289,44103 31286,44095 31284,44087 31283,44079 31282,44070 31282,43898 31283,43890 31284,43881 31286,43873 31289,43865 31293,43858 31297,43850 31302,43844 31308,43837 31314,43832 31321,43827 31328,43822 31336,43819 31344,43816 31352,43814 31360,43813 31369,43812 31570,43812 31579,43813 "
       id="polyline3777" />
    <polyline
       style="fill-rule:evenodd;"
       points="31579,43192 31587,43194 31595,43196 31603,43199 31611,43202 31618,43207 31625,43212 31631,43217 31637,43224 31642,43230 31646,43238 31650,43245 31653,43253 31655,43261 31656,43270 31657,43278 31657,43450 31656,43459 31655,43467 31653,43475 31650,43483 31646,43491 31642,43498 31637,43505 31631,43511 31625,43517 31618,43522 31611,43526 31603,43530 31595,43533 31587,43535 31579,43536 31570,43537 31369,43537 31360,43536 31352,43535 31344,43533 31336,43530 31328,43526 31321,43522 31314,43517 31308,43511 31302,43505 31297,43498 31293,43491 31289,43483 31286,43475 31284,43467 31283,43459 31282,43450 31282,43278 31283,43270 31284,43261 31286,43253 31289,43245 31293,43238 31297,43230 31302,43224 31308,43217 31314,43212 31321,43207 31328,43202 31336,43199 31344,43196 31352,43194 31360,43192 31369,43192 31570,43192 31579,43192 "
       id="polyline3779" />
    <polyline
       style="fill-rule:evenodd;"
       points="34584,40509 34592,40510 34601,40512 34609,40515 34616,40519 34623,40523 34630,40528 34636,40534 34642,40540 34647,40547 34652,40554 34655,40562 34658,40570 34660,40578 34661,40586 34662,40595 34662,40796 34661,40805 34660,40813 34658,40821 34655,40829 34652,40837 34647,40844 34642,40851 34636,40857 34630,40863 34623,40868 34616,40872 34609,40876 34601,40879 34592,40881 34584,40882 34576,40883 34403,40883 34395,40882 34387,40881 34378,40879 34370,40876 34363,40872 34355,40868 34349,40863 34342,40857 34337,40851 34332,40844 34327,40837 34324,40829 34321,40821 34319,40813 34318,40805 34317,40796 34317,40595 34318,40586 34319,40578 34321,40570 34324,40562 34327,40554 34332,40547 34337,40540 34342,40534 34349,40528 34355,40523 34363,40519 34370,40515 34378,40512 34387,40510 34395,40509 34403,40509 34576,40509 34584,40509 "
       id="polyline3781" />
    <polyline
       style="fill-rule:evenodd;"
       points="35204,40509 35212,40510 35221,40512 35229,40515 35236,40519 35244,40523 35250,40528 35257,40534 35262,40540 35267,40547 35272,40554 35275,40562 35278,40570 35280,40578 35281,40586 35282,40595 35282,40796 35281,40805 35280,40813 35278,40821 35275,40829 35272,40837 35267,40844 35262,40851 35257,40857 35250,40863 35244,40868 35236,40872 35229,40876 35221,40879 35212,40881 35204,40882 35196,40883 35023,40883 35015,40882 35007,40881 34998,40879 34990,40876 34983,40872 34976,40868 34969,40863 34963,40857 34957,40851 34952,40844 34947,40837 34944,40829 34941,40821 34939,40813 34938,40805 34937,40796 34937,40595 34938,40586 34939,40578 34941,40570 34944,40562 34947,40554 34952,40547 34957,40540 34963,40534 34969,40528 34976,40523 34983,40519 34990,40515 34998,40512 35007,40510 35015,40509 35023,40509 35196,40509 35204,40509 "
       id="polyline3783" />
    <polyline
       style="fill-rule:evenodd;"
       points="35188,42362 35188,42637 34951,42637 34951,42362 35188,42362 "
       id="polyline3785" />
    <polyline
       style="fill-rule:evenodd;"
       points="34636,42362 34636,42637 34400,42637 34400,42362 34636,42362 "
       id="polyline3787" />
    <polyline
       style="fill-rule:evenodd;"
       points="39535,40509 39543,40510 39551,40512 39559,40515 39567,40519 39574,40523 39581,40528 39587,40534 39593,40540 39598,40547 39602,40554 39606,40562 39609,40570 39611,40578 39612,40586 39612,40595 39612,40796 39612,40805 39611,40813 39609,40821 39606,40829 39602,40837 39598,40844 39593,40851 39587,40857 39581,40863 39574,40868 39567,40872 39559,40876 39551,40879 39543,40881 39535,40882 39526,40883 39354,40883 39346,40882 39337,40881 39329,40879 39321,40876 39314,40872 39306,40868 39299,40863 39293,40857 39288,40851 39283,40844 39278,40837 39275,40829 39272,40821 39270,40813 39268,40805 39268,40796 39268,40595 39268,40586 39270,40578 39272,40570 39275,40562 39278,40554 39283,40547 39288,40540 39293,40534 39299,40528 39306,40523 39314,40519 39321,40515 39329,40512 39337,40510 39346,40509 39354,40509 39526,40509 39535,40509 "
       id="polyline3789" />
    <polyline
       style="fill-rule:evenodd;"
       points="38915,40509 38923,40510 38931,40512 38939,40515 38947,40519 38954,40523 38961,40528 38967,40534 38973,40540 38978,40547 38982,40554 38986,40562 38989,40570 38991,40578 38992,40586 38992,40595 38992,40796 38992,40805 38991,40813 38989,40821 38986,40829 38982,40837 38978,40844 38973,40851 38967,40857 38961,40863 38954,40868 38947,40872 38939,40876 38931,40879 38923,40881 38915,40882 38906,40883 38734,40883 38726,40882 38717,40881 38709,40879 38701,40876 38693,40872 38686,40868 38679,40863 38673,40857 38667,40851 38662,40844 38658,40837 38654,40829 38652,40821 38650,40813 38648,40805 38648,40796 38648,40595 38648,40586 38650,40578 38652,40570 38654,40562 38658,40554 38662,40547 38667,40540 38673,40534 38679,40528 38686,40523 38693,40519 38701,40515 38709,40512 38717,40510 38726,40509 38734,40509 38906,40509 38915,40509 "
       id="polyline3791" />
    <polyline
       style="fill-rule:evenodd;"
       points="38967,42472 38967,42747 38731,42747 38731,42472 38967,42472 "
       id="polyline3793" />
    <polyline
       style="fill-rule:evenodd;"
       points="39518,42472 39518,42747 39282,42747 39282,42472 39518,42472 "
       id="polyline3795" />
  </g>
  <g
     style="fill:#848400; fill-opacity:1.0;  stroke:#848400; stroke-width:39.3701; stroke-opacity:1;  stroke-linecap:round; stroke-linejoin:round;"
     id="g3805" />
  <g
     style="fill:#848400; fill-opacity:1.0;  stroke:#848400; stroke-width:39.3701; stroke-opacity:1;  stroke-linecap:round; stroke-linejoin:round;"
     id="g3811" />
  <g
     style="fill:#848400; fill-opacity:1.0;  stroke:#848400; stroke-width:39.3701; stroke-opacity:1;  stroke-linecap:round; stroke-linejoin:round;"
     id="g3817" />
  <g
     style="fill:#848400; fill-opacity:1.0;  stroke:#848400; stroke-width:39.3701; stroke-opacity:1;  stroke-linecap:round; stroke-linejoin:round;"
     id="g3823" />
  <g
     style="fill:#848400; fill-opacity:1.0;  stroke:#848400; stroke-width:39.3701; stroke-opacity:1;  stroke-linecap:round; stroke-linejoin:round;"
     id="g3829" />
  <g
     style="fill:#840000; fill-opacity:1.0;  stroke:#840000; stroke-width:39.3701; stroke-opacity:1;  stroke-linecap:round; stroke-linejoin:round;"
     id="g3831" />
  <g
     style="fill:#840000; fill-opacity:1.0;  stroke:#840000; stroke-width:0; stroke-opacity:1;  stroke-linecap:round; stroke-linejoin:round;"
     id="g3861">
    <polyline
       style="fill-rule:evenodd;"
       points="35375,43761 35375,44076 35021,44076 35021,43761 35375,43761 "
       id="polyline3833" />
    <polyline
       style="fill-rule:evenodd;"
       points="35375,43013 35375,43328 35021,43328 35021,43013 35375,43013 "
       id="polyline3835" />
    <polyline
       style="fill-rule:evenodd;"
       points="34588,43387 34588,43702 34234,43702 34234,43387 34588,43387 "
       id="polyline3837" />
    <polyline
       style="fill-rule:evenodd;"
       points="38848,43572 38848,43887 38494,43887 38494,43572 38848,43572 "
       id="polyline3839" />
    <polyline
       style="fill-rule:evenodd;"
       points="39635,43198 39635,43513 39281,43513 39281,43198 39635,43198 "
       id="polyline3841" />
    <polyline
       style="fill-rule:evenodd;"
       points="39635,43946 39635,44261 39281,44261 39281,43946 39635,43946 "
       id="polyline3843" />
    <polyline
       style="fill-rule:evenodd;"
       points="35959,43153 35967,43154 35975,43156 35983,43159 35991,43162 35998,43167 36005,43172 36011,43177 36017,43184 36022,43191 36026,43198 36030,43205 36033,43213 36035,43222 36036,43230 36037,43238 36037,43411 36036,43419 36035,43427 36033,43436 36030,43444 36026,43451 36022,43458 36017,43465 36011,43472 36005,43477 35998,43482 35991,43487 35983,43490 35975,43493 35967,43495 35959,43496 35950,43497 35749,43497 35740,43496 35732,43495 35724,43493 35716,43490 35708,43487 35701,43482 35694,43477 35688,43472 35682,43465 35677,43458 35673,43451 35669,43444 35666,43436 35664,43427 35663,43419 35662,43411 35662,43238 35663,43230 35664,43222 35666,43213 35669,43205 35673,43198 35677,43191 35682,43184 35688,43177 35694,43172 35701,43167 35708,43162 35716,43159 35724,43156 35732,43154 35740,43153 35749,43152 35950,43152 35959,43153 "
       id="polyline3845" />
    <polyline
       style="fill-rule:evenodd;"
       points="35959,43773 35967,43774 35975,43776 35983,43779 35991,43783 35998,43787 36005,43792 36011,43798 36017,43804 36022,43811 36026,43818 36030,43825 36033,43833 36035,43842 36036,43850 36037,43858 36037,44031 36036,44039 36035,44048 36033,44056 36030,44064 36026,44071 36022,44079 36017,44085 36011,44092 36005,44097 35998,44102 35991,44107 35983,44110 35975,44113 35967,44115 35959,44116 35950,44117 35749,44117 35740,44116 35732,44115 35724,44113 35716,44110 35708,44107 35701,44102 35694,44097 35688,44092 35682,44085 35677,44079 35673,44071 35669,44064 35666,44056 35664,44048 35663,44039 35662,44031 35662,43858 35663,43850 35664,43842 35666,43833 35669,43825 35673,43818 35677,43811 35682,43804 35688,43798 35694,43792 35701,43787 35708,43783 35716,43779 35724,43776 35732,43774 35740,43773 35749,43772 35950,43772 35959,43773 "
       id="polyline3847" />
    <polyline
       style="fill-rule:evenodd;"
       points="35194,39838 35202,39839 35211,39841 35219,39844 35226,39848 35234,39852 35240,39857 35247,39863 35252,39869 35257,39876 35262,39883 35265,39891 35268,39899 35270,39907 35271,39915 35272,39924 35272,40126 35271,40134 35270,40142 35268,40151 35265,40159 35262,40166 35257,40173 35252,40180 35247,40186 35240,40192 35234,40197 35226,40202 35219,40205 35211,40208 35202,40210 35194,40211 35186,40212 35013,40212 35005,40211 34997,40210 34988,40208 34980,40205 34973,40202 34966,40197 34959,40192 34953,40186 34947,40180 34942,40173 34937,40166 34934,40159 34931,40151 34929,40142 34928,40134 34927,40126 34927,39924 34928,39915 34929,39907 34931,39899 34934,39891 34937,39883 34942,39876 34947,39869 34953,39863 34959,39857 34966,39852 34973,39848 34980,39844 34988,39841 34997,39839 35005,39838 35013,39838 35186,39838 35194,39838 "
       id="polyline3849" />
    <polyline
       style="fill-rule:evenodd;"
       points="34574,39838 34582,39839 34591,39841 34599,39844 34606,39848 34613,39852 34620,39857 34626,39863 34632,39869 34637,39876 34642,39883 34645,39891 34648,39899 34650,39907 34651,39915 34652,39924 34652,40126 34651,40134 34650,40142 34648,40151 34645,40159 34642,40166 34637,40173 34632,40180 34626,40186 34620,40192 34613,40197 34606,40202 34599,40205 34591,40208 34582,40210 34574,40211 34566,40212 34393,40212 34385,40211 34377,40210 34368,40208 34360,40205 34353,40202 34345,40197 34339,40192 34332,40186 34327,40180 34322,40173 34317,40166 34314,40159 34311,40151 34309,40142 34308,40134 34307,40126 34307,39924 34308,39915 34309,39907 34311,39899 34314,39891 34317,39883 34322,39876 34327,39869 34332,39863 34339,39857 34345,39852 34353,39848 34360,39844 34368,39841 34377,39839 34385,39838 34393,39838 34566,39838 34574,39838 "
       id="polyline3851" />
    <polyline
       style="fill-rule:evenodd;"
       points="40264,43233 40272,43234 40281,43236 40288,43239 40296,43242 40303,43247 40310,43252 40316,43257 40322,43264 40327,43270 40331,43278 40335,43285 40338,43293 40340,43301 40341,43310 40342,43318 40342,43491 40341,43499 40340,43507 40338,43516 40335,43524 40331,43531 40327,43538 40322,43545 40316,43551 40310,43557 40303,43562 40296,43566 40288,43570 40281,43573 40272,43575 40264,43576 40256,43577 40054,43577 40045,43576 40037,43575 40029,43573 40021,43570 40013,43566 40006,43562 39999,43557 39993,43551 39987,43545 39982,43538 39978,43531 39974,43524 39971,43516 39969,43507 39968,43499 39968,43491 39968,43318 39968,43310 39969,43301 39971,43293 39974,43285 39978,43278 39982,43270 39987,43264 39993,43257 39999,43252 40006,43247 40013,43242 40021,43239 40029,43236 40037,43234 40045,43233 40054,43232 40256,43232 40264,43233 "
       id="polyline3853" />
    <polyline
       style="fill-rule:evenodd;"
       points="40264,43853 40272,43854 40281,43856 40288,43859 40296,43862 40303,43867 40310,43872 40316,43877 40322,43884 40327,43891 40331,43898 40335,43905 40338,43913 40340,43922 40341,43930 40342,43938 40342,44111 40341,44119 40340,44127 40338,44136 40335,44144 40331,44151 40327,44158 40322,44165 40316,44172 40310,44177 40303,44182 40296,44187 40288,44190 40281,44193 40272,44195 40264,44196 40256,44197 40054,44197 40045,44196 40037,44195 40029,44193 40021,44190 40013,44187 40006,44182 39999,44177 39993,44172 39987,44165 39982,44158 39978,44151 39974,44144 39971,44136 39969,44127 39968,44119 39968,44111 39968,43938 39968,43930 39969,43922 39971,43913 39974,43905 39978,43898 39982,43891 39987,43884 39993,43877 39999,43872 40006,43867 40013,43862 40021,43859 40029,43856 40037,43854 40045,43853 40054,43852 40256,43852 40264,43853 "
       id="polyline3855" />
    <polyline
       style="fill-rule:evenodd;"
       points="39529,39858 39537,39859 39546,39861 39554,39864 39561,39868 39569,39872 39575,39877 39582,39883 39587,39889 39592,39896 39597,39903 39600,39911 39603,39918 39605,39927 39606,39935 39607,39943 39607,40145 39606,40154 39605,40162 39603,40170 39600,40178 39597,40186 39592,40193 39587,40200 39582,40206 39575,40212 39569,40217 39561,40221 39554,40225 39546,40228 39537,40230 39529,40231 39521,40231 39348,40231 39340,40231 39332,40230 39323,40228 39315,40225 39308,40221 39301,40217 39294,40212 39288,40206 39282,40200 39277,40193 39272,40186 39269,40178 39266,40170 39264,40162 39263,40154 39262,40145 39262,39943 39263,39935 39264,39927 39266,39918 39269,39911 39272,39903 39277,39896 39282,39889 39288,39883 39294,39877 39301,39872 39308,39868 39315,39864 39323,39861 39332,39859 39340,39858 39348,39857 39521,39857 39529,39858 "
       id="polyline3857" />
    <polyline
       style="fill-rule:evenodd;"
       points="38909,39858 38917,39859 38926,39861 38934,39864 38941,39868 38948,39872 38955,39877 38961,39883 38967,39889 38972,39896 38977,39903 38980,39911 38983,39918 38985,39927 38986,39935 38987,39943 38987,40145 38986,40154 38985,40162 38983,40170 38980,40178 38977,40186 38972,40193 38967,40200 38961,40206 38955,40212 38948,40217 38941,40221 38934,40225 38926,40228 38917,40230 38909,40231 38901,40231 38728,40231 38720,40231 38712,40230 38703,40228 38695,40225 38688,40221 38680,40217 38674,40212 38667,40206 38662,40200 38657,40193 38652,40186 38649,40178 38646,40170 38644,40162 38643,40154 38642,40145 38642,39943 38643,39935 38644,39927 38646,39918 38649,39911 38652,39903 38657,39896 38662,39889 38667,39883 38674,39877 38680,39872 38688,39868 38695,39864 38703,39861 38712,39859 38720,39858 38728,39857 38901,39857 38909,39858 "
       id="polyline3859" />
  </g>
  <g
     style="fill:#C2C2C2; fill-opacity:1.0;  stroke:#C2C2C2; stroke-width:39.3701; stroke-opacity:1;  stroke-linecap:round; stroke-linejoin:round;"
     id="g3867" />
  <g
     style="fill:#C2C2C2; fill-opacity:1.0;  stroke:#C2C2C2; stroke-width:39.3701; stroke-opacity:1;  stroke-linecap:round; stroke-linejoin:round;"
     id="g3873" />
  <g
     style="fill:#C2C2C2; fill-opacity:1.0;  stroke:#C2C2C2; stroke-width:39.3701; stroke-opacity:1;  stroke-linecap:round; stroke-linejoin:round;"
     id="g3879" />
  <g
     style="fill:#C2C2C2; fill-opacity:1.0;  stroke:#C2C2C2; stroke-width:39.3701; stroke-opacity:1;  stroke-linecap:round; stroke-linejoin:round;"
     id="g3885" />
  <g
     style="fill:#C2C2C2; fill-opacity:1.0;  stroke:#C2C2C2; stroke-width:39.3701; stroke-opacity:1;  stroke-linecap:round; stroke-linejoin:round;"
     id="g3891" />
  <g
     style="fill:#C2C2C2; fill-opacity:1.0;  stroke:#C2C2C2; stroke-width:39.3701; stroke-opacity:1;  stroke-linecap:round; stroke-linejoin:round;"
     id="g3897" />
  <g
     style="fill:#840000; fill-opacity:1.0;  stroke:#840000; stroke-width:39.3701; stroke-opacity:1;  stroke-linecap:round; stroke-linejoin:round;"
     id="g3899" />
  <g
     style="fill:#840000; fill-opacity:1.0;  stroke:#840000; stroke-width:98.4252; stroke-opacity:1;  stroke-linecap:round; stroke-linejoin:round;"
     id="g3901" />
  <g
     style="fill:#FFFFFF; fill-opacity:1.0;  stroke:#FFFFFF; stroke-width:100; stroke-opacity:1;  stroke-linecap:round; stroke-linejoin:round;"
     id="g4141" />
  <g
     style="fill:#FFFFFF; fill-opacity:1.0;  stroke:#FFFFFF; stroke-width:39.3701; stroke-opacity:1;  stroke-linecap:round; stroke-linejoin:round;"
     id="g4147" />
  <g
     style="fill:#FFFFFF; fill-opacity:1.0;  stroke:#FFFFFF; stroke-width:39.3701; stroke-opacity:1;  stroke-linecap:round; stroke-linejoin:round;"
     id="g4153" />
  <g
     style="fill:#FFFFFF; fill-opacity:1.0;  stroke:#FFFFFF; stroke-width:39.3701; stroke-opacity:1;  stroke-linecap:round; stroke-linejoin:round;"
     id="g4159" />
  <g
     style="fill:#FFFFFF; fill-opacity:1.0;  stroke:#FFFFFF; stroke-width:39.3701; stroke-opacity:1;  stroke-linecap:round; stroke-linejoin:round;"
     id="g4165" />
  <g
     style="fill:#FFFFFF; fill-opacity:1.0;  stroke:#FFFFFF; stroke-width:39.3701; stroke-opacity:1;  stroke-linecap:round; stroke-linejoin:round;"
     id="g4171" />
  <g
     style="fill:#FFFFFF; fill-opacity:1.0;  stroke:#FFFFFF; stroke-width:39.3701; stroke-opacity:1;  stroke-linecap:round; stroke-linejoin:round;"
     id="g4177" />
  <g
     style="fill:#FFFFFF; fill-opacity:1.0;  stroke:#FFFFFF; stroke-width:39.3701; stroke-opacity:1;  stroke-linecap:round; stroke-linejoin:round;"
     id="g4183" />
  <g
     style="fill:#FFFFFF; fill-opacity:1.0;  stroke:#FFFFFF; stroke-width:39.3701; stroke-opacity:1;  stroke-linecap:round; stroke-linejoin:round;"
     id="g4189" />
  <g
     style="fill:#FFFFFF; fill-opacity:1.0;  stroke:#FFFFFF; stroke-width:39.3701; stroke-opacity:1;  stroke-linecap:round; stroke-linejoin:round;"
     id="g4195" />
  <g
     style="fill:#FFFFFF; fill-opacity:1.0;  stroke:#FFFFFF; stroke-width:39.3701; stroke-opacity:1;  stroke-linecap:round; stroke-linejoin:round;"
     id="g4201" />
  <g
     style="fill:#FFFFFF; fill-opacity:1.0;  stroke:#FFFFFF; stroke-width:39.3701; stroke-opacity:1;  stroke-linecap:round; stroke-linejoin:round;"
     id="g4207" />
  <g
     style="fill:#FFFFFF; fill-opacity:1.0;  stroke:#FFFFFF; stroke-width:39.3701; stroke-opacity:1;  stroke-linecap:round; stroke-linejoin:round;"
     id="g4213" />
  <g
     style="fill:#FFFFFF; fill-opacity:1.0;  stroke:#FFFFFF; stroke-width:39.3701; stroke-opacity:1;  stroke-linecap:round; stroke-linejoin:round;"
     id="g4219" />
  <g
     style="fill:#FFFFFF; fill-opacity:1.0;  stroke:#FFFFFF; stroke-width:39.3701; stroke-opacity:1;  stroke-linecap:round; stroke-linejoin:round;"
     id="g4225" />
  <g
     style="fill:#FFFFFF; fill-opacity:1.0;  stroke:#FFFFFF; stroke-width:39.3701; stroke-opacity:1;  stroke-linecap:round; stroke-linejoin:round;"
     id="g4231" />
  <g
     style="fill:#FFFFFF; fill-opacity:1.0;  stroke:#FFFFFF; stroke-width:39.3701; stroke-opacity:1;  stroke-linecap:round; stroke-linejoin:round;"
     id="g4237" />
  <g
     style="fill:#FFFFFF; fill-opacity:1.0;  stroke:#FFFFFF; stroke-width:39.3701; stroke-opacity:1;  stroke-linecap:round; stroke-linejoin:round;"
     id="g4243" />
  <g
     style="fill:#FFFFFF; fill-opacity:1.0;  stroke:#FFFFFF; stroke-width:39.3701; stroke-opacity:1;  stroke-linecap:round; stroke-linejoin:round;"
     id="g4249" />
  <g
     style="fill:#FFFFFF; fill-opacity:1.0;  stroke:#FFFFFF; stroke-width:39.3701; stroke-opacity:1;  stroke-linecap:round; stroke-linejoin:round;"
     id="g4255" />
  <g
     style="fill:#FFFFFF; fill-opacity:1.0;  stroke:#FFFFFF; stroke-width:39.3701; stroke-opacity:1;  stroke-linecap:round; stroke-linejoin:round;"
     id="g4261" />
  <g
     style="fill:#FFFFFF; fill-opacity:1.0;  stroke:#FFFFFF; stroke-width:39.3701; stroke-opacity:1;  stroke-linecap:round; stroke-linejoin:round;"
     id="g4267" />
  <g
     style="fill:#FFFFFF; fill-opacity:1.0;  stroke:#FFFFFF; stroke-width:39.3701; stroke-opacity:1;  stroke-linecap:round; stroke-linejoin:round;"
     id="g4273" />
  <g
     style="fill:#FFFFFF; fill-opacity:1.0;  stroke:#FFFFFF; stroke-width:39.3701; stroke-opacity:1;  stroke-linecap:round; stroke-linejoin:round;"
     id="g4279" />
  <g
     style="fill:#FFFFFF; fill-opacity:1.0;  stroke:#FFFFFF; stroke-width:39.3701; stroke-opacity:1;  stroke-linecap:round; stroke-linejoin:round;"
     id="g4285" />
  <g
     style="fill:#FFFFFF; fill-opacity:1.0;  stroke:#FFFFFF; stroke-width:39.3701; stroke-opacity:1;  stroke-linecap:round; stroke-linejoin:round;"
     id="g4291" />
  <g
     style="fill:#FFFFFF; fill-opacity:1.0;  stroke:#FFFFFF; stroke-width:39.3701; stroke-opacity:1;  stroke-linecap:round; stroke-linejoin:round;"
     id="g4297" />
  <g
     style="fill:#FFFFFF; fill-opacity:1.0;  stroke:#FFFFFF; stroke-width:39.3701; stroke-opacity:1;  stroke-linecap:round; stroke-linejoin:round;"
     id="g4303" />
  <g
     style="fill:#FFFFFF; fill-opacity:1.0;  stroke:#FFFFFF; stroke-width:39.3701; stroke-opacity:1;  stroke-linecap:round; stroke-linejoin:round;"
     id="g4309" />
  <g
     style="fill:#FFFFFF; fill-opacity:1.0;  stroke:#FFFFFF; stroke-width:39.3701; stroke-opacity:1;  stroke-linecap:round; stroke-linejoin:round;"
     id="g4315" />
  <g
     style="fill:#FFFFFF; fill-opacity:1.0;  stroke:#FFFFFF; stroke-width:39.3701; stroke-opacity:1;  stroke-linecap:round; stroke-linejoin:round;"
     id="g4321" />
  <g
     style="fill:#FFFFFF; fill-opacity:1.0;  stroke:#FFFFFF; stroke-width:39.3701; stroke-opacity:1;  stroke-linecap:round; stroke-linejoin:round;"
     id="g4327" />
  <g
     style="fill:#FFFFFF; fill-opacity:1.0;  stroke:#FFFFFF; stroke-width:39.3701; stroke-opacity:1;  stroke-linecap:round; stroke-linejoin:round;"
     id="g4333" />
  <g
     style="fill:#FFFFFF; fill-opacity:1.0;  stroke:#FFFFFF; stroke-width:39.3701; stroke-opacity:1;  stroke-linecap:round; stroke-linejoin:round;"
     id="g4339" />
  <g
     style="fill:#FFFFFF; fill-opacity:1.0;  stroke:#FFFFFF; stroke-width:39.3701; stroke-opacity:1;  stroke-linecap:round; stroke-linejoin:round;"
     id="g4345" />
  <g
     style="fill:#FFFFFF; fill-opacity:1.0;  stroke:#FFFFFF; stroke-width:39.3701; stroke-opacity:1;  stroke-linecap:round; stroke-linejoin:round;"
     id="g4351" />
  <g
     style="fill:#FFFFFF; fill-opacity:1.0;  stroke:#FFFFFF; stroke-width:39.3701; stroke-opacity:1;  stroke-linecap:round; stroke-linejoin:round;"
     id="g4357" />
  <g
     style="fill:#FFFFFF; fill-opacity:1.0;  stroke:#FFFFFF; stroke-width:39.3701; stroke-opacity:1;  stroke-linecap:round; stroke-linejoin:round;"
     id="g4363" />
  <g
     style="fill:#FFFFFF; fill-opacity:1.0;  stroke:#FFFFFF; stroke-width:39.3701; stroke-opacity:1;  stroke-linecap:round; stroke-linejoin:round;"
     id="g4369" />
  <g
     style="fill:#FFFFFF; fill-opacity:1.0;  stroke:#FFFFFF; stroke-width:39.3701; stroke-opacity:1;  stroke-linecap:round; stroke-linejoin:round;"
     id="g4375" />
  <g
     style="fill:#FFFFFF; fill-opacity:1.0;  stroke:#FFFFFF; stroke-width:39.3701; stroke-opacity:1;  stroke-linecap:round; stroke-linejoin:round;"
     id="g4381" />
  <g
     style="fill:#FFFFFF; fill-opacity:1.0;  stroke:#FFFFFF; stroke-width:39.3701; stroke-opacity:1;  stroke-linecap:round; stroke-linejoin:round;"
     id="g4387" />
  <g
     style="fill:#FFFFFF; fill-opacity:1.0;  stroke:#FFFFFF; stroke-width:39.3701; stroke-opacity:1;  stroke-linecap:round; stroke-linejoin:round;"
     id="g4393" />
  <g
     style="fill:#FFFFFF; fill-opacity:1.0;  stroke:#FFFFFF; stroke-width:39.3701; stroke-opacity:1;  stroke-linecap:round; stroke-linejoin:round;"
     id="g4399" />
  <g
     style="fill:#FFFFFF; fill-opacity:1.0;  stroke:#FFFFFF; stroke-width:39.3701; stroke-opacity:1;  stroke-linecap:round; stroke-linejoin:round;"
     id="g4405" />
  <g
     style="fill:#FFFFFF; fill-opacity:1.0;  stroke:#FFFFFF; stroke-width:39.3701; stroke-opacity:1;  stroke-linecap:round; stroke-linejoin:round;"
     id="g4411" />
  <g
     style="fill:#FFFFFF; fill-opacity:1.0;  stroke:#FFFFFF; stroke-width:39.3701; stroke-opacity:1;  stroke-linecap:round; stroke-linejoin:round;"
     id="g4417" />
  <g
     style="fill:#FFFFFF; fill-opacity:1.0;  stroke:#FFFFFF; stroke-width:39.3701; stroke-opacity:1;  stroke-linecap:round; stroke-linejoin:round;"
     id="g4423" />
  <g
     style="fill:#FFFFFF; fill-opacity:1.0;  stroke:#FFFFFF; stroke-width:39.3701; stroke-opacity:1;  stroke-linecap:round; stroke-linejoin:round;"
     id="g4429" />
  <g
     style="fill:#FFFFFF; fill-opacity:1.0;  stroke:#FFFFFF; stroke-width:39.3701; stroke-opacity:1;  stroke-linecap:round; stroke-linejoin:round;"
     id="g4435" />
  <g
     style="fill:#FFFFFF; fill-opacity:1.0;  stroke:#FFFFFF; stroke-width:39.3701; stroke-opacity:1;  stroke-linecap:round; stroke-linejoin:round;"
     id="g4441" />
  <g
     style="fill:#FFFFFF; fill-opacity:1.0;  stroke:#FFFFFF; stroke-width:39.3701; stroke-opacity:1;  stroke-linecap:round; stroke-linejoin:round;"
     id="g4447" />
  <g
     style="fill:#000000; fill-opacity:1.0;  stroke:#000000; stroke-width:39.3701; stroke-opacity:1;  stroke-linecap:round; stroke-linejoin:round;"
     id="g4449" />
  <g
     style="fill:#C2C200; fill-opacity:1.0;  stroke:#C2C200; stroke-width:39.3701; stroke-opacity:1;  stroke-linecap:round; stroke-linejoin:round;"
     id="g4451" />
  <g
     style="fill:#C2C200; fill-opacity:1.0;  stroke:#C2C200; stroke-width:78.7402; stroke-opacity:1;  stroke-linecap:round; stroke-linejoin:round;"
     id="g4453" />
</svg>
