M48
;DRILL file {KiCad 5.0.1-33cea8e~68~ubuntu18.04.1} date 2018年11月09日 17時01分58秒
;FORMAT={-:-/ absolute / inch / decimal}
FMAT,2
INCH,TZ
T1C0.0157
T2C0.0300
T3C0.0394
T4C0.0472
%
G90
G05
M72
T1
X2.935Y-4.4345
X3.0234Y-4.437
X3.1055Y-4.3465
X3.3649Y-4.3775
X3.5667Y-4.3538
X3.9405Y-4.3585
T2
X3.38Y-4.1613
X3.38Y-4.2613
X3.38Y-4.5613
X3.58Y-4.1613
X3.58Y-4.2613
X3.58Y-4.5613
X3.8131Y-4.1613
X3.8131Y-4.2613
X3.8131Y-4.5613
X4.0131Y-4.1613
X4.0131Y-4.2613
X4.0131Y-4.5613
X2.9469Y-4.1613
X2.9469Y-4.2613
X2.9469Y-4.5613
X3.1469Y-4.1613
X3.1469Y-4.2613
X3.1469Y-4.5613
T3
X2.946Y-4.668
X3.046Y-4.668
X3.914Y-4.668
X4.014Y-4.668
X3.379Y-4.668
X3.479Y-4.668
X3.579Y-4.668
T4
X3.3658Y-3.5709
X3.3914Y-3.8662
X3.5686Y-3.8662
X3.5942Y-3.5709
X3.7989Y-3.5709
X3.8245Y-3.8662
X4.0017Y-3.8662
X4.0272Y-3.5709
X2.9328Y-3.5709
X2.9583Y-3.8662
X3.1355Y-3.8662
X3.1611Y-3.5709
T0
M30
