M48
;DRILL file {KiCad 5.0.1-33cea8e~66~ubuntu18.04.1} date 2018年10月18日 18時44分24秒
;FORMAT={-:-/ absolute / inch / decimal}
FMAT,2
INCH,TZ
T1C0.0157
T2C0.0300
T3C0.0394
T4C0.0472
%
G90
G05
M72
T1
X3.08Y-3.83
X3.1499Y-4.0826
X3.29Y-3.79
X3.45Y-3.79
X3.66Y-3.79
X3.92Y-3.79
T2
X2.98Y-4.24
X2.98Y-4.34
X2.98Y-4.64
X3.18Y-4.24
X3.18Y-4.34
X3.18Y-4.64
X3.78Y-4.24
X3.78Y-4.34
X3.78Y-4.64
X3.98Y-4.24
X3.98Y-4.34
X3.98Y-4.64
X3.38Y-4.24
X3.38Y-4.34
X3.38Y-4.64
X3.58Y-4.24
X3.58Y-4.34
X3.58Y-4.64
T3
X2.98Y-4.75
X3.08Y-4.75
X3.38Y-4.75
X3.48Y-4.75
X3.58Y-4.75
X3.88Y-4.75
X3.98Y-4.75
T4
X3.3658Y-3.5906
X3.3914Y-3.8859
X3.5686Y-3.8859
X3.5942Y-3.5906
X2.9658Y-3.5906
X2.9914Y-3.8859
X3.1686Y-3.8859
X3.1942Y-3.5906
X3.7658Y-3.5906
X3.7914Y-3.8859
X3.9686Y-3.8859
X3.9942Y-3.5906
T0
M30
