G04 #@! TF.GenerationSoftware,KiCad,Pcbnew,5.0.1-33cea8e~68~ubuntu18.04.1*
G04 #@! TF.CreationDate,2018-11-09T17:01:54+09:00*
G04 #@! TF.ProjectId,relay_jacks,72656C61795F6A61636B732E6B696361,rev?*
G04 #@! TF.SameCoordinates,Original*
G04 #@! TF.FileFunction,Legend,Bot*
G04 #@! TF.FilePolarity,Positive*
%FSLAX46Y46*%
G04 Gerber Fmt 4.6, Leading zero omitted, Abs format (unit mm)*
G04 Created by KiCad (PCBNEW 5.0.1-33cea8e~68~ubuntu18.04.1) date 2018年11月09日 17時01分54秒*
%MOMM*%
%LPD*%
G01*
G04 APERTURE LIST*
%ADD10C,0.150000*%
%ADD11C,0.120000*%
G04 APERTURE END LIST*
D10*
G04 #@! TO.C,K1*
X73482000Y-104516000D02*
X81302000Y-104516000D01*
X81302000Y-104516000D02*
X81302000Y-117036000D01*
X81302000Y-117036000D02*
X73482000Y-117036000D01*
X73482000Y-117036000D02*
X73482000Y-104516000D01*
X73226400Y-105391200D02*
X73226400Y-104248200D01*
X73226400Y-104248200D02*
X74559900Y-104248200D01*
X74852000Y-109252000D02*
X74852000Y-109760000D01*
X74852000Y-109760000D02*
X76122000Y-109760000D01*
X78662000Y-109760000D02*
X79932000Y-109760000D01*
X79932000Y-109760000D02*
X79932000Y-109252000D01*
X76122000Y-108998000D02*
X76122000Y-110522000D01*
X76122000Y-110522000D02*
X78662000Y-110522000D01*
X78662000Y-110522000D02*
X78662000Y-108998000D01*
X78662000Y-108998000D02*
X76122000Y-108998000D01*
X76884000Y-108998000D02*
X77900000Y-110522000D01*
D11*
G04 #@! TO.C,J5*
X87342000Y-98902000D02*
X89442000Y-98902000D01*
X91842000Y-91902000D02*
X91842000Y-98902000D01*
X84942000Y-91902000D02*
X84942000Y-97002000D01*
X84942000Y-87002000D02*
X84942000Y-89502000D01*
X85692000Y-87002000D02*
X84942000Y-87002000D01*
X91842000Y-87002000D02*
X91092000Y-87002000D01*
X91842000Y-89502000D02*
X91842000Y-87002000D01*
G04 #@! TO.C,J6*
X98342000Y-98902000D02*
X100442000Y-98902000D01*
X102842000Y-91902000D02*
X102842000Y-98902000D01*
X95942000Y-91902000D02*
X95942000Y-97002000D01*
X95942000Y-87002000D02*
X95942000Y-89502000D01*
X96692000Y-87002000D02*
X95942000Y-87002000D01*
X102842000Y-87002000D02*
X102092000Y-87002000D01*
X102842000Y-89502000D02*
X102842000Y-87002000D01*
D10*
G04 #@! TO.C,K2*
X87884000Y-108998000D02*
X88900000Y-110522000D01*
X89662000Y-108998000D02*
X87122000Y-108998000D01*
X89662000Y-110522000D02*
X89662000Y-108998000D01*
X87122000Y-110522000D02*
X89662000Y-110522000D01*
X87122000Y-108998000D02*
X87122000Y-110522000D01*
X90932000Y-109760000D02*
X90932000Y-109252000D01*
X89662000Y-109760000D02*
X90932000Y-109760000D01*
X85852000Y-109760000D02*
X87122000Y-109760000D01*
X85852000Y-109252000D02*
X85852000Y-109760000D01*
X84226400Y-104248200D02*
X85559900Y-104248200D01*
X84226400Y-105391200D02*
X84226400Y-104248200D01*
X84482000Y-117036000D02*
X84482000Y-104516000D01*
X92302000Y-117036000D02*
X84482000Y-117036000D01*
X92302000Y-104516000D02*
X92302000Y-117036000D01*
X84482000Y-104516000D02*
X92302000Y-104516000D01*
D11*
G04 #@! TO.C,J1*
X76342000Y-98902000D02*
X78442000Y-98902000D01*
X80842000Y-91902000D02*
X80842000Y-98902000D01*
X73942000Y-91902000D02*
X73942000Y-97002000D01*
X73942000Y-87002000D02*
X73942000Y-89502000D01*
X74692000Y-87002000D02*
X73942000Y-87002000D01*
X80842000Y-87002000D02*
X80092000Y-87002000D01*
X80842000Y-89502000D02*
X80842000Y-87002000D01*
D10*
G04 #@! TO.C,K3*
X95482000Y-104516000D02*
X103302000Y-104516000D01*
X103302000Y-104516000D02*
X103302000Y-117036000D01*
X103302000Y-117036000D02*
X95482000Y-117036000D01*
X95482000Y-117036000D02*
X95482000Y-104516000D01*
X95226400Y-105391200D02*
X95226400Y-104248200D01*
X95226400Y-104248200D02*
X96559900Y-104248200D01*
X96852000Y-109252000D02*
X96852000Y-109760000D01*
X96852000Y-109760000D02*
X98122000Y-109760000D01*
X100662000Y-109760000D02*
X101932000Y-109760000D01*
X101932000Y-109760000D02*
X101932000Y-109252000D01*
X98122000Y-108998000D02*
X98122000Y-110522000D01*
X98122000Y-110522000D02*
X100662000Y-110522000D01*
X100662000Y-110522000D02*
X100662000Y-108998000D01*
X100662000Y-108998000D02*
X98122000Y-108998000D01*
X98884000Y-108998000D02*
X99900000Y-110522000D01*
G04 #@! TD*
M02*
