G04 #@! TF.GenerationSoftware,KiCad,Pcbnew,5.0.1-33cea8e~68~ubuntu18.04.1*
G04 #@! TF.CreationDate,2018-11-09T17:01:54+09:00*
G04 #@! TF.ProjectId,relay_jacks,72656C61795F6A61636B732E6B696361,rev?*
G04 #@! TF.SameCoordinates,Original*
G04 #@! TF.FileFunction,Paste,Top*
G04 #@! TF.FilePolarity,Positive*
%FSLAX46Y46*%
G04 Gerber Fmt 4.6, Leading zero omitted, Abs format (unit mm)*
G04 Created by KiCad (PCBNEW 5.0.1-33cea8e~68~ubuntu18.04.1) date 2018年11月09日 17時01分54秒*
%MOMM*%
%LPD*%
G01*
G04 APERTURE LIST*
%ADD10C,0.100000*%
%ADD11C,0.875000*%
%ADD12R,0.600000X0.700000*%
%ADD13R,0.900000X0.800000*%
G04 APERTURE END LIST*
D10*
G04 #@! TO.C,D1*
G36*
X76844691Y-102894053D02*
X76865926Y-102897203D01*
X76886750Y-102902419D01*
X76906962Y-102909651D01*
X76926368Y-102918830D01*
X76944781Y-102929866D01*
X76962024Y-102942654D01*
X76977930Y-102957070D01*
X76992346Y-102972976D01*
X77005134Y-102990219D01*
X77016170Y-103008632D01*
X77025349Y-103028038D01*
X77032581Y-103048250D01*
X77037797Y-103069074D01*
X77040947Y-103090309D01*
X77042000Y-103111750D01*
X77042000Y-103624250D01*
X77040947Y-103645691D01*
X77037797Y-103666926D01*
X77032581Y-103687750D01*
X77025349Y-103707962D01*
X77016170Y-103727368D01*
X77005134Y-103745781D01*
X76992346Y-103763024D01*
X76977930Y-103778930D01*
X76962024Y-103793346D01*
X76944781Y-103806134D01*
X76926368Y-103817170D01*
X76906962Y-103826349D01*
X76886750Y-103833581D01*
X76865926Y-103838797D01*
X76844691Y-103841947D01*
X76823250Y-103843000D01*
X76385750Y-103843000D01*
X76364309Y-103841947D01*
X76343074Y-103838797D01*
X76322250Y-103833581D01*
X76302038Y-103826349D01*
X76282632Y-103817170D01*
X76264219Y-103806134D01*
X76246976Y-103793346D01*
X76231070Y-103778930D01*
X76216654Y-103763024D01*
X76203866Y-103745781D01*
X76192830Y-103727368D01*
X76183651Y-103707962D01*
X76176419Y-103687750D01*
X76171203Y-103666926D01*
X76168053Y-103645691D01*
X76167000Y-103624250D01*
X76167000Y-103111750D01*
X76168053Y-103090309D01*
X76171203Y-103069074D01*
X76176419Y-103048250D01*
X76183651Y-103028038D01*
X76192830Y-103008632D01*
X76203866Y-102990219D01*
X76216654Y-102972976D01*
X76231070Y-102957070D01*
X76246976Y-102942654D01*
X76264219Y-102929866D01*
X76282632Y-102918830D01*
X76302038Y-102909651D01*
X76322250Y-102902419D01*
X76343074Y-102897203D01*
X76364309Y-102894053D01*
X76385750Y-102893000D01*
X76823250Y-102893000D01*
X76844691Y-102894053D01*
X76844691Y-102894053D01*
G37*
D11*
X76604500Y-103368000D03*
D10*
G36*
X78419691Y-102894053D02*
X78440926Y-102897203D01*
X78461750Y-102902419D01*
X78481962Y-102909651D01*
X78501368Y-102918830D01*
X78519781Y-102929866D01*
X78537024Y-102942654D01*
X78552930Y-102957070D01*
X78567346Y-102972976D01*
X78580134Y-102990219D01*
X78591170Y-103008632D01*
X78600349Y-103028038D01*
X78607581Y-103048250D01*
X78612797Y-103069074D01*
X78615947Y-103090309D01*
X78617000Y-103111750D01*
X78617000Y-103624250D01*
X78615947Y-103645691D01*
X78612797Y-103666926D01*
X78607581Y-103687750D01*
X78600349Y-103707962D01*
X78591170Y-103727368D01*
X78580134Y-103745781D01*
X78567346Y-103763024D01*
X78552930Y-103778930D01*
X78537024Y-103793346D01*
X78519781Y-103806134D01*
X78501368Y-103817170D01*
X78481962Y-103826349D01*
X78461750Y-103833581D01*
X78440926Y-103838797D01*
X78419691Y-103841947D01*
X78398250Y-103843000D01*
X77960750Y-103843000D01*
X77939309Y-103841947D01*
X77918074Y-103838797D01*
X77897250Y-103833581D01*
X77877038Y-103826349D01*
X77857632Y-103817170D01*
X77839219Y-103806134D01*
X77821976Y-103793346D01*
X77806070Y-103778930D01*
X77791654Y-103763024D01*
X77778866Y-103745781D01*
X77767830Y-103727368D01*
X77758651Y-103707962D01*
X77751419Y-103687750D01*
X77746203Y-103666926D01*
X77743053Y-103645691D01*
X77742000Y-103624250D01*
X77742000Y-103111750D01*
X77743053Y-103090309D01*
X77746203Y-103069074D01*
X77751419Y-103048250D01*
X77758651Y-103028038D01*
X77767830Y-103008632D01*
X77778866Y-102990219D01*
X77791654Y-102972976D01*
X77806070Y-102957070D01*
X77821976Y-102942654D01*
X77839219Y-102929866D01*
X77857632Y-102918830D01*
X77877038Y-102909651D01*
X77897250Y-102902419D01*
X77918074Y-102897203D01*
X77939309Y-102894053D01*
X77960750Y-102893000D01*
X78398250Y-102893000D01*
X78419691Y-102894053D01*
X78419691Y-102894053D01*
G37*
D11*
X78179500Y-103368000D03*
G04 #@! TD*
D12*
G04 #@! TO.C,D2*
X78208100Y-108026000D03*
X76808100Y-108026000D03*
G04 #@! TD*
D13*
G04 #@! TO.C,Q1*
X78330300Y-111630000D03*
X78330300Y-109730000D03*
X76330300Y-110680000D03*
G04 #@! TD*
D10*
G04 #@! TO.C,R1*
G36*
X76871791Y-101190053D02*
X76893026Y-101193203D01*
X76913850Y-101198419D01*
X76934062Y-101205651D01*
X76953468Y-101214830D01*
X76971881Y-101225866D01*
X76989124Y-101238654D01*
X77005030Y-101253070D01*
X77019446Y-101268976D01*
X77032234Y-101286219D01*
X77043270Y-101304632D01*
X77052449Y-101324038D01*
X77059681Y-101344250D01*
X77064897Y-101365074D01*
X77068047Y-101386309D01*
X77069100Y-101407750D01*
X77069100Y-101920250D01*
X77068047Y-101941691D01*
X77064897Y-101962926D01*
X77059681Y-101983750D01*
X77052449Y-102003962D01*
X77043270Y-102023368D01*
X77032234Y-102041781D01*
X77019446Y-102059024D01*
X77005030Y-102074930D01*
X76989124Y-102089346D01*
X76971881Y-102102134D01*
X76953468Y-102113170D01*
X76934062Y-102122349D01*
X76913850Y-102129581D01*
X76893026Y-102134797D01*
X76871791Y-102137947D01*
X76850350Y-102139000D01*
X76412850Y-102139000D01*
X76391409Y-102137947D01*
X76370174Y-102134797D01*
X76349350Y-102129581D01*
X76329138Y-102122349D01*
X76309732Y-102113170D01*
X76291319Y-102102134D01*
X76274076Y-102089346D01*
X76258170Y-102074930D01*
X76243754Y-102059024D01*
X76230966Y-102041781D01*
X76219930Y-102023368D01*
X76210751Y-102003962D01*
X76203519Y-101983750D01*
X76198303Y-101962926D01*
X76195153Y-101941691D01*
X76194100Y-101920250D01*
X76194100Y-101407750D01*
X76195153Y-101386309D01*
X76198303Y-101365074D01*
X76203519Y-101344250D01*
X76210751Y-101324038D01*
X76219930Y-101304632D01*
X76230966Y-101286219D01*
X76243754Y-101268976D01*
X76258170Y-101253070D01*
X76274076Y-101238654D01*
X76291319Y-101225866D01*
X76309732Y-101214830D01*
X76329138Y-101205651D01*
X76349350Y-101198419D01*
X76370174Y-101193203D01*
X76391409Y-101190053D01*
X76412850Y-101189000D01*
X76850350Y-101189000D01*
X76871791Y-101190053D01*
X76871791Y-101190053D01*
G37*
D11*
X76631600Y-101664000D03*
D10*
G36*
X78446791Y-101190053D02*
X78468026Y-101193203D01*
X78488850Y-101198419D01*
X78509062Y-101205651D01*
X78528468Y-101214830D01*
X78546881Y-101225866D01*
X78564124Y-101238654D01*
X78580030Y-101253070D01*
X78594446Y-101268976D01*
X78607234Y-101286219D01*
X78618270Y-101304632D01*
X78627449Y-101324038D01*
X78634681Y-101344250D01*
X78639897Y-101365074D01*
X78643047Y-101386309D01*
X78644100Y-101407750D01*
X78644100Y-101920250D01*
X78643047Y-101941691D01*
X78639897Y-101962926D01*
X78634681Y-101983750D01*
X78627449Y-102003962D01*
X78618270Y-102023368D01*
X78607234Y-102041781D01*
X78594446Y-102059024D01*
X78580030Y-102074930D01*
X78564124Y-102089346D01*
X78546881Y-102102134D01*
X78528468Y-102113170D01*
X78509062Y-102122349D01*
X78488850Y-102129581D01*
X78468026Y-102134797D01*
X78446791Y-102137947D01*
X78425350Y-102139000D01*
X77987850Y-102139000D01*
X77966409Y-102137947D01*
X77945174Y-102134797D01*
X77924350Y-102129581D01*
X77904138Y-102122349D01*
X77884732Y-102113170D01*
X77866319Y-102102134D01*
X77849076Y-102089346D01*
X77833170Y-102074930D01*
X77818754Y-102059024D01*
X77805966Y-102041781D01*
X77794930Y-102023368D01*
X77785751Y-102003962D01*
X77778519Y-101983750D01*
X77773303Y-101962926D01*
X77770153Y-101941691D01*
X77769100Y-101920250D01*
X77769100Y-101407750D01*
X77770153Y-101386309D01*
X77773303Y-101365074D01*
X77778519Y-101344250D01*
X77785751Y-101324038D01*
X77794930Y-101304632D01*
X77805966Y-101286219D01*
X77818754Y-101268976D01*
X77833170Y-101253070D01*
X77849076Y-101238654D01*
X77866319Y-101225866D01*
X77884732Y-101214830D01*
X77904138Y-101205651D01*
X77924350Y-101198419D01*
X77945174Y-101193203D01*
X77966409Y-101190053D01*
X77987850Y-101189000D01*
X78425350Y-101189000D01*
X78446791Y-101190053D01*
X78446791Y-101190053D01*
G37*
D11*
X78206600Y-101664000D03*
G04 #@! TD*
D10*
G04 #@! TO.C,R2*
G36*
X80211491Y-111285053D02*
X80232726Y-111288203D01*
X80253550Y-111293419D01*
X80273762Y-111300651D01*
X80293168Y-111309830D01*
X80311581Y-111320866D01*
X80328824Y-111333654D01*
X80344730Y-111348070D01*
X80359146Y-111363976D01*
X80371934Y-111381219D01*
X80382970Y-111399632D01*
X80392149Y-111419038D01*
X80399381Y-111439250D01*
X80404597Y-111460074D01*
X80407747Y-111481309D01*
X80408800Y-111502750D01*
X80408800Y-111940250D01*
X80407747Y-111961691D01*
X80404597Y-111982926D01*
X80399381Y-112003750D01*
X80392149Y-112023962D01*
X80382970Y-112043368D01*
X80371934Y-112061781D01*
X80359146Y-112079024D01*
X80344730Y-112094930D01*
X80328824Y-112109346D01*
X80311581Y-112122134D01*
X80293168Y-112133170D01*
X80273762Y-112142349D01*
X80253550Y-112149581D01*
X80232726Y-112154797D01*
X80211491Y-112157947D01*
X80190050Y-112159000D01*
X79677550Y-112159000D01*
X79656109Y-112157947D01*
X79634874Y-112154797D01*
X79614050Y-112149581D01*
X79593838Y-112142349D01*
X79574432Y-112133170D01*
X79556019Y-112122134D01*
X79538776Y-112109346D01*
X79522870Y-112094930D01*
X79508454Y-112079024D01*
X79495666Y-112061781D01*
X79484630Y-112043368D01*
X79475451Y-112023962D01*
X79468219Y-112003750D01*
X79463003Y-111982926D01*
X79459853Y-111961691D01*
X79458800Y-111940250D01*
X79458800Y-111502750D01*
X79459853Y-111481309D01*
X79463003Y-111460074D01*
X79468219Y-111439250D01*
X79475451Y-111419038D01*
X79484630Y-111399632D01*
X79495666Y-111381219D01*
X79508454Y-111363976D01*
X79522870Y-111348070D01*
X79538776Y-111333654D01*
X79556019Y-111320866D01*
X79574432Y-111309830D01*
X79593838Y-111300651D01*
X79614050Y-111293419D01*
X79634874Y-111288203D01*
X79656109Y-111285053D01*
X79677550Y-111284000D01*
X80190050Y-111284000D01*
X80211491Y-111285053D01*
X80211491Y-111285053D01*
G37*
D11*
X79933800Y-111721500D03*
D10*
G36*
X80211491Y-109710053D02*
X80232726Y-109713203D01*
X80253550Y-109718419D01*
X80273762Y-109725651D01*
X80293168Y-109734830D01*
X80311581Y-109745866D01*
X80328824Y-109758654D01*
X80344730Y-109773070D01*
X80359146Y-109788976D01*
X80371934Y-109806219D01*
X80382970Y-109824632D01*
X80392149Y-109844038D01*
X80399381Y-109864250D01*
X80404597Y-109885074D01*
X80407747Y-109906309D01*
X80408800Y-109927750D01*
X80408800Y-110365250D01*
X80407747Y-110386691D01*
X80404597Y-110407926D01*
X80399381Y-110428750D01*
X80392149Y-110448962D01*
X80382970Y-110468368D01*
X80371934Y-110486781D01*
X80359146Y-110504024D01*
X80344730Y-110519930D01*
X80328824Y-110534346D01*
X80311581Y-110547134D01*
X80293168Y-110558170D01*
X80273762Y-110567349D01*
X80253550Y-110574581D01*
X80232726Y-110579797D01*
X80211491Y-110582947D01*
X80190050Y-110584000D01*
X79677550Y-110584000D01*
X79656109Y-110582947D01*
X79634874Y-110579797D01*
X79614050Y-110574581D01*
X79593838Y-110567349D01*
X79574432Y-110558170D01*
X79556019Y-110547134D01*
X79538776Y-110534346D01*
X79522870Y-110519930D01*
X79508454Y-110504024D01*
X79495666Y-110486781D01*
X79484630Y-110468368D01*
X79475451Y-110448962D01*
X79468219Y-110428750D01*
X79463003Y-110407926D01*
X79459853Y-110386691D01*
X79458800Y-110365250D01*
X79458800Y-109927750D01*
X79459853Y-109906309D01*
X79463003Y-109885074D01*
X79468219Y-109864250D01*
X79475451Y-109844038D01*
X79484630Y-109824632D01*
X79495666Y-109806219D01*
X79508454Y-109788976D01*
X79522870Y-109773070D01*
X79538776Y-109758654D01*
X79556019Y-109745866D01*
X79574432Y-109734830D01*
X79593838Y-109725651D01*
X79614050Y-109718419D01*
X79634874Y-109713203D01*
X79656109Y-109710053D01*
X79677550Y-109709000D01*
X80190050Y-109709000D01*
X80211491Y-109710053D01*
X80211491Y-109710053D01*
G37*
D11*
X79933800Y-110146500D03*
G04 #@! TD*
D10*
G04 #@! TO.C,D3*
G36*
X87844691Y-102894053D02*
X87865926Y-102897203D01*
X87886750Y-102902419D01*
X87906962Y-102909651D01*
X87926368Y-102918830D01*
X87944781Y-102929866D01*
X87962024Y-102942654D01*
X87977930Y-102957070D01*
X87992346Y-102972976D01*
X88005134Y-102990219D01*
X88016170Y-103008632D01*
X88025349Y-103028038D01*
X88032581Y-103048250D01*
X88037797Y-103069074D01*
X88040947Y-103090309D01*
X88042000Y-103111750D01*
X88042000Y-103624250D01*
X88040947Y-103645691D01*
X88037797Y-103666926D01*
X88032581Y-103687750D01*
X88025349Y-103707962D01*
X88016170Y-103727368D01*
X88005134Y-103745781D01*
X87992346Y-103763024D01*
X87977930Y-103778930D01*
X87962024Y-103793346D01*
X87944781Y-103806134D01*
X87926368Y-103817170D01*
X87906962Y-103826349D01*
X87886750Y-103833581D01*
X87865926Y-103838797D01*
X87844691Y-103841947D01*
X87823250Y-103843000D01*
X87385750Y-103843000D01*
X87364309Y-103841947D01*
X87343074Y-103838797D01*
X87322250Y-103833581D01*
X87302038Y-103826349D01*
X87282632Y-103817170D01*
X87264219Y-103806134D01*
X87246976Y-103793346D01*
X87231070Y-103778930D01*
X87216654Y-103763024D01*
X87203866Y-103745781D01*
X87192830Y-103727368D01*
X87183651Y-103707962D01*
X87176419Y-103687750D01*
X87171203Y-103666926D01*
X87168053Y-103645691D01*
X87167000Y-103624250D01*
X87167000Y-103111750D01*
X87168053Y-103090309D01*
X87171203Y-103069074D01*
X87176419Y-103048250D01*
X87183651Y-103028038D01*
X87192830Y-103008632D01*
X87203866Y-102990219D01*
X87216654Y-102972976D01*
X87231070Y-102957070D01*
X87246976Y-102942654D01*
X87264219Y-102929866D01*
X87282632Y-102918830D01*
X87302038Y-102909651D01*
X87322250Y-102902419D01*
X87343074Y-102897203D01*
X87364309Y-102894053D01*
X87385750Y-102893000D01*
X87823250Y-102893000D01*
X87844691Y-102894053D01*
X87844691Y-102894053D01*
G37*
D11*
X87604500Y-103368000D03*
D10*
G36*
X89419691Y-102894053D02*
X89440926Y-102897203D01*
X89461750Y-102902419D01*
X89481962Y-102909651D01*
X89501368Y-102918830D01*
X89519781Y-102929866D01*
X89537024Y-102942654D01*
X89552930Y-102957070D01*
X89567346Y-102972976D01*
X89580134Y-102990219D01*
X89591170Y-103008632D01*
X89600349Y-103028038D01*
X89607581Y-103048250D01*
X89612797Y-103069074D01*
X89615947Y-103090309D01*
X89617000Y-103111750D01*
X89617000Y-103624250D01*
X89615947Y-103645691D01*
X89612797Y-103666926D01*
X89607581Y-103687750D01*
X89600349Y-103707962D01*
X89591170Y-103727368D01*
X89580134Y-103745781D01*
X89567346Y-103763024D01*
X89552930Y-103778930D01*
X89537024Y-103793346D01*
X89519781Y-103806134D01*
X89501368Y-103817170D01*
X89481962Y-103826349D01*
X89461750Y-103833581D01*
X89440926Y-103838797D01*
X89419691Y-103841947D01*
X89398250Y-103843000D01*
X88960750Y-103843000D01*
X88939309Y-103841947D01*
X88918074Y-103838797D01*
X88897250Y-103833581D01*
X88877038Y-103826349D01*
X88857632Y-103817170D01*
X88839219Y-103806134D01*
X88821976Y-103793346D01*
X88806070Y-103778930D01*
X88791654Y-103763024D01*
X88778866Y-103745781D01*
X88767830Y-103727368D01*
X88758651Y-103707962D01*
X88751419Y-103687750D01*
X88746203Y-103666926D01*
X88743053Y-103645691D01*
X88742000Y-103624250D01*
X88742000Y-103111750D01*
X88743053Y-103090309D01*
X88746203Y-103069074D01*
X88751419Y-103048250D01*
X88758651Y-103028038D01*
X88767830Y-103008632D01*
X88778866Y-102990219D01*
X88791654Y-102972976D01*
X88806070Y-102957070D01*
X88821976Y-102942654D01*
X88839219Y-102929866D01*
X88857632Y-102918830D01*
X88877038Y-102909651D01*
X88897250Y-102902419D01*
X88918074Y-102897203D01*
X88939309Y-102894053D01*
X88960750Y-102893000D01*
X89398250Y-102893000D01*
X89419691Y-102894053D01*
X89419691Y-102894053D01*
G37*
D11*
X89179500Y-103368000D03*
G04 #@! TD*
D12*
G04 #@! TO.C,D4*
X89077800Y-107950000D03*
X87677800Y-107950000D03*
G04 #@! TD*
D10*
G04 #@! TO.C,D5*
G36*
X100419691Y-102894053D02*
X100440926Y-102897203D01*
X100461750Y-102902419D01*
X100481962Y-102909651D01*
X100501368Y-102918830D01*
X100519781Y-102929866D01*
X100537024Y-102942654D01*
X100552930Y-102957070D01*
X100567346Y-102972976D01*
X100580134Y-102990219D01*
X100591170Y-103008632D01*
X100600349Y-103028038D01*
X100607581Y-103048250D01*
X100612797Y-103069074D01*
X100615947Y-103090309D01*
X100617000Y-103111750D01*
X100617000Y-103624250D01*
X100615947Y-103645691D01*
X100612797Y-103666926D01*
X100607581Y-103687750D01*
X100600349Y-103707962D01*
X100591170Y-103727368D01*
X100580134Y-103745781D01*
X100567346Y-103763024D01*
X100552930Y-103778930D01*
X100537024Y-103793346D01*
X100519781Y-103806134D01*
X100501368Y-103817170D01*
X100481962Y-103826349D01*
X100461750Y-103833581D01*
X100440926Y-103838797D01*
X100419691Y-103841947D01*
X100398250Y-103843000D01*
X99960750Y-103843000D01*
X99939309Y-103841947D01*
X99918074Y-103838797D01*
X99897250Y-103833581D01*
X99877038Y-103826349D01*
X99857632Y-103817170D01*
X99839219Y-103806134D01*
X99821976Y-103793346D01*
X99806070Y-103778930D01*
X99791654Y-103763024D01*
X99778866Y-103745781D01*
X99767830Y-103727368D01*
X99758651Y-103707962D01*
X99751419Y-103687750D01*
X99746203Y-103666926D01*
X99743053Y-103645691D01*
X99742000Y-103624250D01*
X99742000Y-103111750D01*
X99743053Y-103090309D01*
X99746203Y-103069074D01*
X99751419Y-103048250D01*
X99758651Y-103028038D01*
X99767830Y-103008632D01*
X99778866Y-102990219D01*
X99791654Y-102972976D01*
X99806070Y-102957070D01*
X99821976Y-102942654D01*
X99839219Y-102929866D01*
X99857632Y-102918830D01*
X99877038Y-102909651D01*
X99897250Y-102902419D01*
X99918074Y-102897203D01*
X99939309Y-102894053D01*
X99960750Y-102893000D01*
X100398250Y-102893000D01*
X100419691Y-102894053D01*
X100419691Y-102894053D01*
G37*
D11*
X100179500Y-103368000D03*
D10*
G36*
X98844691Y-102894053D02*
X98865926Y-102897203D01*
X98886750Y-102902419D01*
X98906962Y-102909651D01*
X98926368Y-102918830D01*
X98944781Y-102929866D01*
X98962024Y-102942654D01*
X98977930Y-102957070D01*
X98992346Y-102972976D01*
X99005134Y-102990219D01*
X99016170Y-103008632D01*
X99025349Y-103028038D01*
X99032581Y-103048250D01*
X99037797Y-103069074D01*
X99040947Y-103090309D01*
X99042000Y-103111750D01*
X99042000Y-103624250D01*
X99040947Y-103645691D01*
X99037797Y-103666926D01*
X99032581Y-103687750D01*
X99025349Y-103707962D01*
X99016170Y-103727368D01*
X99005134Y-103745781D01*
X98992346Y-103763024D01*
X98977930Y-103778930D01*
X98962024Y-103793346D01*
X98944781Y-103806134D01*
X98926368Y-103817170D01*
X98906962Y-103826349D01*
X98886750Y-103833581D01*
X98865926Y-103838797D01*
X98844691Y-103841947D01*
X98823250Y-103843000D01*
X98385750Y-103843000D01*
X98364309Y-103841947D01*
X98343074Y-103838797D01*
X98322250Y-103833581D01*
X98302038Y-103826349D01*
X98282632Y-103817170D01*
X98264219Y-103806134D01*
X98246976Y-103793346D01*
X98231070Y-103778930D01*
X98216654Y-103763024D01*
X98203866Y-103745781D01*
X98192830Y-103727368D01*
X98183651Y-103707962D01*
X98176419Y-103687750D01*
X98171203Y-103666926D01*
X98168053Y-103645691D01*
X98167000Y-103624250D01*
X98167000Y-103111750D01*
X98168053Y-103090309D01*
X98171203Y-103069074D01*
X98176419Y-103048250D01*
X98183651Y-103028038D01*
X98192830Y-103008632D01*
X98203866Y-102990219D01*
X98216654Y-102972976D01*
X98231070Y-102957070D01*
X98246976Y-102942654D01*
X98264219Y-102929866D01*
X98282632Y-102918830D01*
X98302038Y-102909651D01*
X98322250Y-102902419D01*
X98343074Y-102897203D01*
X98364309Y-102894053D01*
X98385750Y-102893000D01*
X98823250Y-102893000D01*
X98844691Y-102894053D01*
X98844691Y-102894053D01*
G37*
D11*
X98604500Y-103368000D03*
G04 #@! TD*
D12*
G04 #@! TO.C,D6*
X98677500Y-108229000D03*
X100077500Y-108229000D03*
G04 #@! TD*
D13*
G04 #@! TO.C,Q2*
X89404700Y-111554000D03*
X89404700Y-109654000D03*
X87404700Y-110604000D03*
G04 #@! TD*
G04 #@! TO.C,Q3*
X98225100Y-111074000D03*
X100225100Y-110124000D03*
X100225100Y-112024000D03*
G04 #@! TD*
D10*
G04 #@! TO.C,R3*
G36*
X91336691Y-109609053D02*
X91357926Y-109612203D01*
X91378750Y-109617419D01*
X91398962Y-109624651D01*
X91418368Y-109633830D01*
X91436781Y-109644866D01*
X91454024Y-109657654D01*
X91469930Y-109672070D01*
X91484346Y-109687976D01*
X91497134Y-109705219D01*
X91508170Y-109723632D01*
X91517349Y-109743038D01*
X91524581Y-109763250D01*
X91529797Y-109784074D01*
X91532947Y-109805309D01*
X91534000Y-109826750D01*
X91534000Y-110264250D01*
X91532947Y-110285691D01*
X91529797Y-110306926D01*
X91524581Y-110327750D01*
X91517349Y-110347962D01*
X91508170Y-110367368D01*
X91497134Y-110385781D01*
X91484346Y-110403024D01*
X91469930Y-110418930D01*
X91454024Y-110433346D01*
X91436781Y-110446134D01*
X91418368Y-110457170D01*
X91398962Y-110466349D01*
X91378750Y-110473581D01*
X91357926Y-110478797D01*
X91336691Y-110481947D01*
X91315250Y-110483000D01*
X90802750Y-110483000D01*
X90781309Y-110481947D01*
X90760074Y-110478797D01*
X90739250Y-110473581D01*
X90719038Y-110466349D01*
X90699632Y-110457170D01*
X90681219Y-110446134D01*
X90663976Y-110433346D01*
X90648070Y-110418930D01*
X90633654Y-110403024D01*
X90620866Y-110385781D01*
X90609830Y-110367368D01*
X90600651Y-110347962D01*
X90593419Y-110327750D01*
X90588203Y-110306926D01*
X90585053Y-110285691D01*
X90584000Y-110264250D01*
X90584000Y-109826750D01*
X90585053Y-109805309D01*
X90588203Y-109784074D01*
X90593419Y-109763250D01*
X90600651Y-109743038D01*
X90609830Y-109723632D01*
X90620866Y-109705219D01*
X90633654Y-109687976D01*
X90648070Y-109672070D01*
X90663976Y-109657654D01*
X90681219Y-109644866D01*
X90699632Y-109633830D01*
X90719038Y-109624651D01*
X90739250Y-109617419D01*
X90760074Y-109612203D01*
X90781309Y-109609053D01*
X90802750Y-109608000D01*
X91315250Y-109608000D01*
X91336691Y-109609053D01*
X91336691Y-109609053D01*
G37*
D11*
X91059000Y-110045500D03*
D10*
G36*
X91336691Y-111184053D02*
X91357926Y-111187203D01*
X91378750Y-111192419D01*
X91398962Y-111199651D01*
X91418368Y-111208830D01*
X91436781Y-111219866D01*
X91454024Y-111232654D01*
X91469930Y-111247070D01*
X91484346Y-111262976D01*
X91497134Y-111280219D01*
X91508170Y-111298632D01*
X91517349Y-111318038D01*
X91524581Y-111338250D01*
X91529797Y-111359074D01*
X91532947Y-111380309D01*
X91534000Y-111401750D01*
X91534000Y-111839250D01*
X91532947Y-111860691D01*
X91529797Y-111881926D01*
X91524581Y-111902750D01*
X91517349Y-111922962D01*
X91508170Y-111942368D01*
X91497134Y-111960781D01*
X91484346Y-111978024D01*
X91469930Y-111993930D01*
X91454024Y-112008346D01*
X91436781Y-112021134D01*
X91418368Y-112032170D01*
X91398962Y-112041349D01*
X91378750Y-112048581D01*
X91357926Y-112053797D01*
X91336691Y-112056947D01*
X91315250Y-112058000D01*
X90802750Y-112058000D01*
X90781309Y-112056947D01*
X90760074Y-112053797D01*
X90739250Y-112048581D01*
X90719038Y-112041349D01*
X90699632Y-112032170D01*
X90681219Y-112021134D01*
X90663976Y-112008346D01*
X90648070Y-111993930D01*
X90633654Y-111978024D01*
X90620866Y-111960781D01*
X90609830Y-111942368D01*
X90600651Y-111922962D01*
X90593419Y-111902750D01*
X90588203Y-111881926D01*
X90585053Y-111860691D01*
X90584000Y-111839250D01*
X90584000Y-111401750D01*
X90585053Y-111380309D01*
X90588203Y-111359074D01*
X90593419Y-111338250D01*
X90600651Y-111318038D01*
X90609830Y-111298632D01*
X90620866Y-111280219D01*
X90633654Y-111262976D01*
X90648070Y-111247070D01*
X90663976Y-111232654D01*
X90681219Y-111219866D01*
X90699632Y-111208830D01*
X90719038Y-111199651D01*
X90739250Y-111192419D01*
X90760074Y-111187203D01*
X90781309Y-111184053D01*
X90802750Y-111183000D01*
X91315250Y-111183000D01*
X91336691Y-111184053D01*
X91336691Y-111184053D01*
G37*
D11*
X91059000Y-111620500D03*
G04 #@! TD*
D10*
G04 #@! TO.C,R4*
G36*
X89394291Y-101190053D02*
X89415526Y-101193203D01*
X89436350Y-101198419D01*
X89456562Y-101205651D01*
X89475968Y-101214830D01*
X89494381Y-101225866D01*
X89511624Y-101238654D01*
X89527530Y-101253070D01*
X89541946Y-101268976D01*
X89554734Y-101286219D01*
X89565770Y-101304632D01*
X89574949Y-101324038D01*
X89582181Y-101344250D01*
X89587397Y-101365074D01*
X89590547Y-101386309D01*
X89591600Y-101407750D01*
X89591600Y-101920250D01*
X89590547Y-101941691D01*
X89587397Y-101962926D01*
X89582181Y-101983750D01*
X89574949Y-102003962D01*
X89565770Y-102023368D01*
X89554734Y-102041781D01*
X89541946Y-102059024D01*
X89527530Y-102074930D01*
X89511624Y-102089346D01*
X89494381Y-102102134D01*
X89475968Y-102113170D01*
X89456562Y-102122349D01*
X89436350Y-102129581D01*
X89415526Y-102134797D01*
X89394291Y-102137947D01*
X89372850Y-102139000D01*
X88935350Y-102139000D01*
X88913909Y-102137947D01*
X88892674Y-102134797D01*
X88871850Y-102129581D01*
X88851638Y-102122349D01*
X88832232Y-102113170D01*
X88813819Y-102102134D01*
X88796576Y-102089346D01*
X88780670Y-102074930D01*
X88766254Y-102059024D01*
X88753466Y-102041781D01*
X88742430Y-102023368D01*
X88733251Y-102003962D01*
X88726019Y-101983750D01*
X88720803Y-101962926D01*
X88717653Y-101941691D01*
X88716600Y-101920250D01*
X88716600Y-101407750D01*
X88717653Y-101386309D01*
X88720803Y-101365074D01*
X88726019Y-101344250D01*
X88733251Y-101324038D01*
X88742430Y-101304632D01*
X88753466Y-101286219D01*
X88766254Y-101268976D01*
X88780670Y-101253070D01*
X88796576Y-101238654D01*
X88813819Y-101225866D01*
X88832232Y-101214830D01*
X88851638Y-101205651D01*
X88871850Y-101198419D01*
X88892674Y-101193203D01*
X88913909Y-101190053D01*
X88935350Y-101189000D01*
X89372850Y-101189000D01*
X89394291Y-101190053D01*
X89394291Y-101190053D01*
G37*
D11*
X89154100Y-101664000D03*
D10*
G36*
X87819291Y-101190053D02*
X87840526Y-101193203D01*
X87861350Y-101198419D01*
X87881562Y-101205651D01*
X87900968Y-101214830D01*
X87919381Y-101225866D01*
X87936624Y-101238654D01*
X87952530Y-101253070D01*
X87966946Y-101268976D01*
X87979734Y-101286219D01*
X87990770Y-101304632D01*
X87999949Y-101324038D01*
X88007181Y-101344250D01*
X88012397Y-101365074D01*
X88015547Y-101386309D01*
X88016600Y-101407750D01*
X88016600Y-101920250D01*
X88015547Y-101941691D01*
X88012397Y-101962926D01*
X88007181Y-101983750D01*
X87999949Y-102003962D01*
X87990770Y-102023368D01*
X87979734Y-102041781D01*
X87966946Y-102059024D01*
X87952530Y-102074930D01*
X87936624Y-102089346D01*
X87919381Y-102102134D01*
X87900968Y-102113170D01*
X87881562Y-102122349D01*
X87861350Y-102129581D01*
X87840526Y-102134797D01*
X87819291Y-102137947D01*
X87797850Y-102139000D01*
X87360350Y-102139000D01*
X87338909Y-102137947D01*
X87317674Y-102134797D01*
X87296850Y-102129581D01*
X87276638Y-102122349D01*
X87257232Y-102113170D01*
X87238819Y-102102134D01*
X87221576Y-102089346D01*
X87205670Y-102074930D01*
X87191254Y-102059024D01*
X87178466Y-102041781D01*
X87167430Y-102023368D01*
X87158251Y-102003962D01*
X87151019Y-101983750D01*
X87145803Y-101962926D01*
X87142653Y-101941691D01*
X87141600Y-101920250D01*
X87141600Y-101407750D01*
X87142653Y-101386309D01*
X87145803Y-101365074D01*
X87151019Y-101344250D01*
X87158251Y-101324038D01*
X87167430Y-101304632D01*
X87178466Y-101286219D01*
X87191254Y-101268976D01*
X87205670Y-101253070D01*
X87221576Y-101238654D01*
X87238819Y-101225866D01*
X87257232Y-101214830D01*
X87276638Y-101205651D01*
X87296850Y-101198419D01*
X87317674Y-101193203D01*
X87338909Y-101190053D01*
X87360350Y-101189000D01*
X87797850Y-101189000D01*
X87819291Y-101190053D01*
X87819291Y-101190053D01*
G37*
D11*
X87579100Y-101664000D03*
G04 #@! TD*
D10*
G04 #@! TO.C,R5*
G36*
X102271691Y-109812053D02*
X102292926Y-109815203D01*
X102313750Y-109820419D01*
X102333962Y-109827651D01*
X102353368Y-109836830D01*
X102371781Y-109847866D01*
X102389024Y-109860654D01*
X102404930Y-109875070D01*
X102419346Y-109890976D01*
X102432134Y-109908219D01*
X102443170Y-109926632D01*
X102452349Y-109946038D01*
X102459581Y-109966250D01*
X102464797Y-109987074D01*
X102467947Y-110008309D01*
X102469000Y-110029750D01*
X102469000Y-110467250D01*
X102467947Y-110488691D01*
X102464797Y-110509926D01*
X102459581Y-110530750D01*
X102452349Y-110550962D01*
X102443170Y-110570368D01*
X102432134Y-110588781D01*
X102419346Y-110606024D01*
X102404930Y-110621930D01*
X102389024Y-110636346D01*
X102371781Y-110649134D01*
X102353368Y-110660170D01*
X102333962Y-110669349D01*
X102313750Y-110676581D01*
X102292926Y-110681797D01*
X102271691Y-110684947D01*
X102250250Y-110686000D01*
X101737750Y-110686000D01*
X101716309Y-110684947D01*
X101695074Y-110681797D01*
X101674250Y-110676581D01*
X101654038Y-110669349D01*
X101634632Y-110660170D01*
X101616219Y-110649134D01*
X101598976Y-110636346D01*
X101583070Y-110621930D01*
X101568654Y-110606024D01*
X101555866Y-110588781D01*
X101544830Y-110570368D01*
X101535651Y-110550962D01*
X101528419Y-110530750D01*
X101523203Y-110509926D01*
X101520053Y-110488691D01*
X101519000Y-110467250D01*
X101519000Y-110029750D01*
X101520053Y-110008309D01*
X101523203Y-109987074D01*
X101528419Y-109966250D01*
X101535651Y-109946038D01*
X101544830Y-109926632D01*
X101555866Y-109908219D01*
X101568654Y-109890976D01*
X101583070Y-109875070D01*
X101598976Y-109860654D01*
X101616219Y-109847866D01*
X101634632Y-109836830D01*
X101654038Y-109827651D01*
X101674250Y-109820419D01*
X101695074Y-109815203D01*
X101716309Y-109812053D01*
X101737750Y-109811000D01*
X102250250Y-109811000D01*
X102271691Y-109812053D01*
X102271691Y-109812053D01*
G37*
D11*
X101994000Y-110248500D03*
D10*
G36*
X102271691Y-111387053D02*
X102292926Y-111390203D01*
X102313750Y-111395419D01*
X102333962Y-111402651D01*
X102353368Y-111411830D01*
X102371781Y-111422866D01*
X102389024Y-111435654D01*
X102404930Y-111450070D01*
X102419346Y-111465976D01*
X102432134Y-111483219D01*
X102443170Y-111501632D01*
X102452349Y-111521038D01*
X102459581Y-111541250D01*
X102464797Y-111562074D01*
X102467947Y-111583309D01*
X102469000Y-111604750D01*
X102469000Y-112042250D01*
X102467947Y-112063691D01*
X102464797Y-112084926D01*
X102459581Y-112105750D01*
X102452349Y-112125962D01*
X102443170Y-112145368D01*
X102432134Y-112163781D01*
X102419346Y-112181024D01*
X102404930Y-112196930D01*
X102389024Y-112211346D01*
X102371781Y-112224134D01*
X102353368Y-112235170D01*
X102333962Y-112244349D01*
X102313750Y-112251581D01*
X102292926Y-112256797D01*
X102271691Y-112259947D01*
X102250250Y-112261000D01*
X101737750Y-112261000D01*
X101716309Y-112259947D01*
X101695074Y-112256797D01*
X101674250Y-112251581D01*
X101654038Y-112244349D01*
X101634632Y-112235170D01*
X101616219Y-112224134D01*
X101598976Y-112211346D01*
X101583070Y-112196930D01*
X101568654Y-112181024D01*
X101555866Y-112163781D01*
X101544830Y-112145368D01*
X101535651Y-112125962D01*
X101528419Y-112105750D01*
X101523203Y-112084926D01*
X101520053Y-112063691D01*
X101519000Y-112042250D01*
X101519000Y-111604750D01*
X101520053Y-111583309D01*
X101523203Y-111562074D01*
X101528419Y-111541250D01*
X101535651Y-111521038D01*
X101544830Y-111501632D01*
X101555866Y-111483219D01*
X101568654Y-111465976D01*
X101583070Y-111450070D01*
X101598976Y-111435654D01*
X101616219Y-111422866D01*
X101634632Y-111411830D01*
X101654038Y-111402651D01*
X101674250Y-111395419D01*
X101695074Y-111390203D01*
X101716309Y-111387053D01*
X101737750Y-111386000D01*
X102250250Y-111386000D01*
X102271691Y-111387053D01*
X102271691Y-111387053D01*
G37*
D11*
X101994000Y-111823500D03*
G04 #@! TD*
D10*
G04 #@! TO.C,R6*
G36*
X100405191Y-101240053D02*
X100426426Y-101243203D01*
X100447250Y-101248419D01*
X100467462Y-101255651D01*
X100486868Y-101264830D01*
X100505281Y-101275866D01*
X100522524Y-101288654D01*
X100538430Y-101303070D01*
X100552846Y-101318976D01*
X100565634Y-101336219D01*
X100576670Y-101354632D01*
X100585849Y-101374038D01*
X100593081Y-101394250D01*
X100598297Y-101415074D01*
X100601447Y-101436309D01*
X100602500Y-101457750D01*
X100602500Y-101970250D01*
X100601447Y-101991691D01*
X100598297Y-102012926D01*
X100593081Y-102033750D01*
X100585849Y-102053962D01*
X100576670Y-102073368D01*
X100565634Y-102091781D01*
X100552846Y-102109024D01*
X100538430Y-102124930D01*
X100522524Y-102139346D01*
X100505281Y-102152134D01*
X100486868Y-102163170D01*
X100467462Y-102172349D01*
X100447250Y-102179581D01*
X100426426Y-102184797D01*
X100405191Y-102187947D01*
X100383750Y-102189000D01*
X99946250Y-102189000D01*
X99924809Y-102187947D01*
X99903574Y-102184797D01*
X99882750Y-102179581D01*
X99862538Y-102172349D01*
X99843132Y-102163170D01*
X99824719Y-102152134D01*
X99807476Y-102139346D01*
X99791570Y-102124930D01*
X99777154Y-102109024D01*
X99764366Y-102091781D01*
X99753330Y-102073368D01*
X99744151Y-102053962D01*
X99736919Y-102033750D01*
X99731703Y-102012926D01*
X99728553Y-101991691D01*
X99727500Y-101970250D01*
X99727500Y-101457750D01*
X99728553Y-101436309D01*
X99731703Y-101415074D01*
X99736919Y-101394250D01*
X99744151Y-101374038D01*
X99753330Y-101354632D01*
X99764366Y-101336219D01*
X99777154Y-101318976D01*
X99791570Y-101303070D01*
X99807476Y-101288654D01*
X99824719Y-101275866D01*
X99843132Y-101264830D01*
X99862538Y-101255651D01*
X99882750Y-101248419D01*
X99903574Y-101243203D01*
X99924809Y-101240053D01*
X99946250Y-101239000D01*
X100383750Y-101239000D01*
X100405191Y-101240053D01*
X100405191Y-101240053D01*
G37*
D11*
X100165000Y-101714000D03*
D10*
G36*
X98830191Y-101240053D02*
X98851426Y-101243203D01*
X98872250Y-101248419D01*
X98892462Y-101255651D01*
X98911868Y-101264830D01*
X98930281Y-101275866D01*
X98947524Y-101288654D01*
X98963430Y-101303070D01*
X98977846Y-101318976D01*
X98990634Y-101336219D01*
X99001670Y-101354632D01*
X99010849Y-101374038D01*
X99018081Y-101394250D01*
X99023297Y-101415074D01*
X99026447Y-101436309D01*
X99027500Y-101457750D01*
X99027500Y-101970250D01*
X99026447Y-101991691D01*
X99023297Y-102012926D01*
X99018081Y-102033750D01*
X99010849Y-102053962D01*
X99001670Y-102073368D01*
X98990634Y-102091781D01*
X98977846Y-102109024D01*
X98963430Y-102124930D01*
X98947524Y-102139346D01*
X98930281Y-102152134D01*
X98911868Y-102163170D01*
X98892462Y-102172349D01*
X98872250Y-102179581D01*
X98851426Y-102184797D01*
X98830191Y-102187947D01*
X98808750Y-102189000D01*
X98371250Y-102189000D01*
X98349809Y-102187947D01*
X98328574Y-102184797D01*
X98307750Y-102179581D01*
X98287538Y-102172349D01*
X98268132Y-102163170D01*
X98249719Y-102152134D01*
X98232476Y-102139346D01*
X98216570Y-102124930D01*
X98202154Y-102109024D01*
X98189366Y-102091781D01*
X98178330Y-102073368D01*
X98169151Y-102053962D01*
X98161919Y-102033750D01*
X98156703Y-102012926D01*
X98153553Y-101991691D01*
X98152500Y-101970250D01*
X98152500Y-101457750D01*
X98153553Y-101436309D01*
X98156703Y-101415074D01*
X98161919Y-101394250D01*
X98169151Y-101374038D01*
X98178330Y-101354632D01*
X98189366Y-101336219D01*
X98202154Y-101318976D01*
X98216570Y-101303070D01*
X98232476Y-101288654D01*
X98249719Y-101275866D01*
X98268132Y-101264830D01*
X98287538Y-101255651D01*
X98307750Y-101248419D01*
X98328574Y-101243203D01*
X98349809Y-101240053D01*
X98371250Y-101239000D01*
X98808750Y-101239000D01*
X98830191Y-101240053D01*
X98830191Y-101240053D01*
G37*
D11*
X98590000Y-101714000D03*
G04 #@! TD*
M02*
