G04 #@! TF.GenerationSoftware,KiCad,Pcbnew,5.0.1-33cea8e~66~ubuntu18.04.1*
G04 #@! TF.CreationDate,2018-10-18T18:44:20+09:00*
G04 #@! TF.ProjectId,relay_jacks,72656C61795F6A61636B732E6B696361,rev?*
G04 #@! TF.SameCoordinates,Original*
G04 #@! TF.FileFunction,Paste,Top*
G04 #@! TF.FilePolarity,Positive*
%FSLAX46Y46*%
G04 Gerber Fmt 4.6, Leading zero omitted, Abs format (unit mm)*
G04 Created by KiCad (PCBNEW 5.0.1-33cea8e~66~ubuntu18.04.1) date 2018年10月18日 18時44分20秒*
%MOMM*%
%LPD*%
G01*
G04 APERTURE LIST*
%ADD10C,0.100000*%
%ADD11C,0.875000*%
%ADD12R,0.700000X0.600000*%
%ADD13R,0.900000X0.800000*%
G04 APERTURE END LIST*
D10*
G04 #@! TO.C,D1*
G36*
X77938691Y-101634053D02*
X77959926Y-101637203D01*
X77980750Y-101642419D01*
X78000962Y-101649651D01*
X78020368Y-101658830D01*
X78038781Y-101669866D01*
X78056024Y-101682654D01*
X78071930Y-101697070D01*
X78086346Y-101712976D01*
X78099134Y-101730219D01*
X78110170Y-101748632D01*
X78119349Y-101768038D01*
X78126581Y-101788250D01*
X78131797Y-101809074D01*
X78134947Y-101830309D01*
X78136000Y-101851750D01*
X78136000Y-102364250D01*
X78134947Y-102385691D01*
X78131797Y-102406926D01*
X78126581Y-102427750D01*
X78119349Y-102447962D01*
X78110170Y-102467368D01*
X78099134Y-102485781D01*
X78086346Y-102503024D01*
X78071930Y-102518930D01*
X78056024Y-102533346D01*
X78038781Y-102546134D01*
X78020368Y-102557170D01*
X78000962Y-102566349D01*
X77980750Y-102573581D01*
X77959926Y-102578797D01*
X77938691Y-102581947D01*
X77917250Y-102583000D01*
X77479750Y-102583000D01*
X77458309Y-102581947D01*
X77437074Y-102578797D01*
X77416250Y-102573581D01*
X77396038Y-102566349D01*
X77376632Y-102557170D01*
X77358219Y-102546134D01*
X77340976Y-102533346D01*
X77325070Y-102518930D01*
X77310654Y-102503024D01*
X77297866Y-102485781D01*
X77286830Y-102467368D01*
X77277651Y-102447962D01*
X77270419Y-102427750D01*
X77265203Y-102406926D01*
X77262053Y-102385691D01*
X77261000Y-102364250D01*
X77261000Y-101851750D01*
X77262053Y-101830309D01*
X77265203Y-101809074D01*
X77270419Y-101788250D01*
X77277651Y-101768038D01*
X77286830Y-101748632D01*
X77297866Y-101730219D01*
X77310654Y-101712976D01*
X77325070Y-101697070D01*
X77340976Y-101682654D01*
X77358219Y-101669866D01*
X77376632Y-101658830D01*
X77396038Y-101649651D01*
X77416250Y-101642419D01*
X77437074Y-101637203D01*
X77458309Y-101634053D01*
X77479750Y-101633000D01*
X77917250Y-101633000D01*
X77938691Y-101634053D01*
X77938691Y-101634053D01*
G37*
D11*
X77698500Y-102108000D03*
D10*
G36*
X79513691Y-101634053D02*
X79534926Y-101637203D01*
X79555750Y-101642419D01*
X79575962Y-101649651D01*
X79595368Y-101658830D01*
X79613781Y-101669866D01*
X79631024Y-101682654D01*
X79646930Y-101697070D01*
X79661346Y-101712976D01*
X79674134Y-101730219D01*
X79685170Y-101748632D01*
X79694349Y-101768038D01*
X79701581Y-101788250D01*
X79706797Y-101809074D01*
X79709947Y-101830309D01*
X79711000Y-101851750D01*
X79711000Y-102364250D01*
X79709947Y-102385691D01*
X79706797Y-102406926D01*
X79701581Y-102427750D01*
X79694349Y-102447962D01*
X79685170Y-102467368D01*
X79674134Y-102485781D01*
X79661346Y-102503024D01*
X79646930Y-102518930D01*
X79631024Y-102533346D01*
X79613781Y-102546134D01*
X79595368Y-102557170D01*
X79575962Y-102566349D01*
X79555750Y-102573581D01*
X79534926Y-102578797D01*
X79513691Y-102581947D01*
X79492250Y-102583000D01*
X79054750Y-102583000D01*
X79033309Y-102581947D01*
X79012074Y-102578797D01*
X78991250Y-102573581D01*
X78971038Y-102566349D01*
X78951632Y-102557170D01*
X78933219Y-102546134D01*
X78915976Y-102533346D01*
X78900070Y-102518930D01*
X78885654Y-102503024D01*
X78872866Y-102485781D01*
X78861830Y-102467368D01*
X78852651Y-102447962D01*
X78845419Y-102427750D01*
X78840203Y-102406926D01*
X78837053Y-102385691D01*
X78836000Y-102364250D01*
X78836000Y-101851750D01*
X78837053Y-101830309D01*
X78840203Y-101809074D01*
X78845419Y-101788250D01*
X78852651Y-101768038D01*
X78861830Y-101748632D01*
X78872866Y-101730219D01*
X78885654Y-101712976D01*
X78900070Y-101697070D01*
X78915976Y-101682654D01*
X78933219Y-101669866D01*
X78951632Y-101658830D01*
X78971038Y-101649651D01*
X78991250Y-101642419D01*
X79012074Y-101637203D01*
X79033309Y-101634053D01*
X79054750Y-101633000D01*
X79492250Y-101633000D01*
X79513691Y-101634053D01*
X79513691Y-101634053D01*
G37*
D11*
X79273500Y-102108000D03*
G04 #@! TD*
D12*
G04 #@! TO.C,D2*
X75692000Y-103886000D03*
X75692000Y-105286000D03*
G04 #@! TD*
D13*
G04 #@! TO.C,Q1*
X79232000Y-105598000D03*
X79232000Y-103698000D03*
X77232000Y-104648000D03*
G04 #@! TD*
D10*
G04 #@! TO.C,R1*
G36*
X77938691Y-100110053D02*
X77959926Y-100113203D01*
X77980750Y-100118419D01*
X78000962Y-100125651D01*
X78020368Y-100134830D01*
X78038781Y-100145866D01*
X78056024Y-100158654D01*
X78071930Y-100173070D01*
X78086346Y-100188976D01*
X78099134Y-100206219D01*
X78110170Y-100224632D01*
X78119349Y-100244038D01*
X78126581Y-100264250D01*
X78131797Y-100285074D01*
X78134947Y-100306309D01*
X78136000Y-100327750D01*
X78136000Y-100840250D01*
X78134947Y-100861691D01*
X78131797Y-100882926D01*
X78126581Y-100903750D01*
X78119349Y-100923962D01*
X78110170Y-100943368D01*
X78099134Y-100961781D01*
X78086346Y-100979024D01*
X78071930Y-100994930D01*
X78056024Y-101009346D01*
X78038781Y-101022134D01*
X78020368Y-101033170D01*
X78000962Y-101042349D01*
X77980750Y-101049581D01*
X77959926Y-101054797D01*
X77938691Y-101057947D01*
X77917250Y-101059000D01*
X77479750Y-101059000D01*
X77458309Y-101057947D01*
X77437074Y-101054797D01*
X77416250Y-101049581D01*
X77396038Y-101042349D01*
X77376632Y-101033170D01*
X77358219Y-101022134D01*
X77340976Y-101009346D01*
X77325070Y-100994930D01*
X77310654Y-100979024D01*
X77297866Y-100961781D01*
X77286830Y-100943368D01*
X77277651Y-100923962D01*
X77270419Y-100903750D01*
X77265203Y-100882926D01*
X77262053Y-100861691D01*
X77261000Y-100840250D01*
X77261000Y-100327750D01*
X77262053Y-100306309D01*
X77265203Y-100285074D01*
X77270419Y-100264250D01*
X77277651Y-100244038D01*
X77286830Y-100224632D01*
X77297866Y-100206219D01*
X77310654Y-100188976D01*
X77325070Y-100173070D01*
X77340976Y-100158654D01*
X77358219Y-100145866D01*
X77376632Y-100134830D01*
X77396038Y-100125651D01*
X77416250Y-100118419D01*
X77437074Y-100113203D01*
X77458309Y-100110053D01*
X77479750Y-100109000D01*
X77917250Y-100109000D01*
X77938691Y-100110053D01*
X77938691Y-100110053D01*
G37*
D11*
X77698500Y-100584000D03*
D10*
G36*
X79513691Y-100110053D02*
X79534926Y-100113203D01*
X79555750Y-100118419D01*
X79575962Y-100125651D01*
X79595368Y-100134830D01*
X79613781Y-100145866D01*
X79631024Y-100158654D01*
X79646930Y-100173070D01*
X79661346Y-100188976D01*
X79674134Y-100206219D01*
X79685170Y-100224632D01*
X79694349Y-100244038D01*
X79701581Y-100264250D01*
X79706797Y-100285074D01*
X79709947Y-100306309D01*
X79711000Y-100327750D01*
X79711000Y-100840250D01*
X79709947Y-100861691D01*
X79706797Y-100882926D01*
X79701581Y-100903750D01*
X79694349Y-100923962D01*
X79685170Y-100943368D01*
X79674134Y-100961781D01*
X79661346Y-100979024D01*
X79646930Y-100994930D01*
X79631024Y-101009346D01*
X79613781Y-101022134D01*
X79595368Y-101033170D01*
X79575962Y-101042349D01*
X79555750Y-101049581D01*
X79534926Y-101054797D01*
X79513691Y-101057947D01*
X79492250Y-101059000D01*
X79054750Y-101059000D01*
X79033309Y-101057947D01*
X79012074Y-101054797D01*
X78991250Y-101049581D01*
X78971038Y-101042349D01*
X78951632Y-101033170D01*
X78933219Y-101022134D01*
X78915976Y-101009346D01*
X78900070Y-100994930D01*
X78885654Y-100979024D01*
X78872866Y-100961781D01*
X78861830Y-100943368D01*
X78852651Y-100923962D01*
X78845419Y-100903750D01*
X78840203Y-100882926D01*
X78837053Y-100861691D01*
X78836000Y-100840250D01*
X78836000Y-100327750D01*
X78837053Y-100306309D01*
X78840203Y-100285074D01*
X78845419Y-100264250D01*
X78852651Y-100244038D01*
X78861830Y-100224632D01*
X78872866Y-100206219D01*
X78885654Y-100188976D01*
X78900070Y-100173070D01*
X78915976Y-100158654D01*
X78933219Y-100145866D01*
X78951632Y-100134830D01*
X78971038Y-100125651D01*
X78991250Y-100118419D01*
X79012074Y-100113203D01*
X79033309Y-100110053D01*
X79054750Y-100109000D01*
X79492250Y-100109000D01*
X79513691Y-100110053D01*
X79513691Y-100110053D01*
G37*
D11*
X79273500Y-100584000D03*
G04 #@! TD*
D10*
G04 #@! TO.C,R2*
G36*
X81557691Y-104999053D02*
X81578926Y-105002203D01*
X81599750Y-105007419D01*
X81619962Y-105014651D01*
X81639368Y-105023830D01*
X81657781Y-105034866D01*
X81675024Y-105047654D01*
X81690930Y-105062070D01*
X81705346Y-105077976D01*
X81718134Y-105095219D01*
X81729170Y-105113632D01*
X81738349Y-105133038D01*
X81745581Y-105153250D01*
X81750797Y-105174074D01*
X81753947Y-105195309D01*
X81755000Y-105216750D01*
X81755000Y-105654250D01*
X81753947Y-105675691D01*
X81750797Y-105696926D01*
X81745581Y-105717750D01*
X81738349Y-105737962D01*
X81729170Y-105757368D01*
X81718134Y-105775781D01*
X81705346Y-105793024D01*
X81690930Y-105808930D01*
X81675024Y-105823346D01*
X81657781Y-105836134D01*
X81639368Y-105847170D01*
X81619962Y-105856349D01*
X81599750Y-105863581D01*
X81578926Y-105868797D01*
X81557691Y-105871947D01*
X81536250Y-105873000D01*
X81023750Y-105873000D01*
X81002309Y-105871947D01*
X80981074Y-105868797D01*
X80960250Y-105863581D01*
X80940038Y-105856349D01*
X80920632Y-105847170D01*
X80902219Y-105836134D01*
X80884976Y-105823346D01*
X80869070Y-105808930D01*
X80854654Y-105793024D01*
X80841866Y-105775781D01*
X80830830Y-105757368D01*
X80821651Y-105737962D01*
X80814419Y-105717750D01*
X80809203Y-105696926D01*
X80806053Y-105675691D01*
X80805000Y-105654250D01*
X80805000Y-105216750D01*
X80806053Y-105195309D01*
X80809203Y-105174074D01*
X80814419Y-105153250D01*
X80821651Y-105133038D01*
X80830830Y-105113632D01*
X80841866Y-105095219D01*
X80854654Y-105077976D01*
X80869070Y-105062070D01*
X80884976Y-105047654D01*
X80902219Y-105034866D01*
X80920632Y-105023830D01*
X80940038Y-105014651D01*
X80960250Y-105007419D01*
X80981074Y-105002203D01*
X81002309Y-104999053D01*
X81023750Y-104998000D01*
X81536250Y-104998000D01*
X81557691Y-104999053D01*
X81557691Y-104999053D01*
G37*
D11*
X81280000Y-105435500D03*
D10*
G36*
X81557691Y-103424053D02*
X81578926Y-103427203D01*
X81599750Y-103432419D01*
X81619962Y-103439651D01*
X81639368Y-103448830D01*
X81657781Y-103459866D01*
X81675024Y-103472654D01*
X81690930Y-103487070D01*
X81705346Y-103502976D01*
X81718134Y-103520219D01*
X81729170Y-103538632D01*
X81738349Y-103558038D01*
X81745581Y-103578250D01*
X81750797Y-103599074D01*
X81753947Y-103620309D01*
X81755000Y-103641750D01*
X81755000Y-104079250D01*
X81753947Y-104100691D01*
X81750797Y-104121926D01*
X81745581Y-104142750D01*
X81738349Y-104162962D01*
X81729170Y-104182368D01*
X81718134Y-104200781D01*
X81705346Y-104218024D01*
X81690930Y-104233930D01*
X81675024Y-104248346D01*
X81657781Y-104261134D01*
X81639368Y-104272170D01*
X81619962Y-104281349D01*
X81599750Y-104288581D01*
X81578926Y-104293797D01*
X81557691Y-104296947D01*
X81536250Y-104298000D01*
X81023750Y-104298000D01*
X81002309Y-104296947D01*
X80981074Y-104293797D01*
X80960250Y-104288581D01*
X80940038Y-104281349D01*
X80920632Y-104272170D01*
X80902219Y-104261134D01*
X80884976Y-104248346D01*
X80869070Y-104233930D01*
X80854654Y-104218024D01*
X80841866Y-104200781D01*
X80830830Y-104182368D01*
X80821651Y-104162962D01*
X80814419Y-104142750D01*
X80809203Y-104121926D01*
X80806053Y-104100691D01*
X80805000Y-104079250D01*
X80805000Y-103641750D01*
X80806053Y-103620309D01*
X80809203Y-103599074D01*
X80814419Y-103578250D01*
X80821651Y-103558038D01*
X80830830Y-103538632D01*
X80841866Y-103520219D01*
X80854654Y-103502976D01*
X80869070Y-103487070D01*
X80884976Y-103472654D01*
X80902219Y-103459866D01*
X80920632Y-103448830D01*
X80940038Y-103439651D01*
X80960250Y-103432419D01*
X80981074Y-103427203D01*
X81002309Y-103424053D01*
X81023750Y-103423000D01*
X81536250Y-103423000D01*
X81557691Y-103424053D01*
X81557691Y-103424053D01*
G37*
D11*
X81280000Y-103860500D03*
G04 #@! TD*
D10*
G04 #@! TO.C,D3*
G36*
X88098691Y-101634053D02*
X88119926Y-101637203D01*
X88140750Y-101642419D01*
X88160962Y-101649651D01*
X88180368Y-101658830D01*
X88198781Y-101669866D01*
X88216024Y-101682654D01*
X88231930Y-101697070D01*
X88246346Y-101712976D01*
X88259134Y-101730219D01*
X88270170Y-101748632D01*
X88279349Y-101768038D01*
X88286581Y-101788250D01*
X88291797Y-101809074D01*
X88294947Y-101830309D01*
X88296000Y-101851750D01*
X88296000Y-102364250D01*
X88294947Y-102385691D01*
X88291797Y-102406926D01*
X88286581Y-102427750D01*
X88279349Y-102447962D01*
X88270170Y-102467368D01*
X88259134Y-102485781D01*
X88246346Y-102503024D01*
X88231930Y-102518930D01*
X88216024Y-102533346D01*
X88198781Y-102546134D01*
X88180368Y-102557170D01*
X88160962Y-102566349D01*
X88140750Y-102573581D01*
X88119926Y-102578797D01*
X88098691Y-102581947D01*
X88077250Y-102583000D01*
X87639750Y-102583000D01*
X87618309Y-102581947D01*
X87597074Y-102578797D01*
X87576250Y-102573581D01*
X87556038Y-102566349D01*
X87536632Y-102557170D01*
X87518219Y-102546134D01*
X87500976Y-102533346D01*
X87485070Y-102518930D01*
X87470654Y-102503024D01*
X87457866Y-102485781D01*
X87446830Y-102467368D01*
X87437651Y-102447962D01*
X87430419Y-102427750D01*
X87425203Y-102406926D01*
X87422053Y-102385691D01*
X87421000Y-102364250D01*
X87421000Y-101851750D01*
X87422053Y-101830309D01*
X87425203Y-101809074D01*
X87430419Y-101788250D01*
X87437651Y-101768038D01*
X87446830Y-101748632D01*
X87457866Y-101730219D01*
X87470654Y-101712976D01*
X87485070Y-101697070D01*
X87500976Y-101682654D01*
X87518219Y-101669866D01*
X87536632Y-101658830D01*
X87556038Y-101649651D01*
X87576250Y-101642419D01*
X87597074Y-101637203D01*
X87618309Y-101634053D01*
X87639750Y-101633000D01*
X88077250Y-101633000D01*
X88098691Y-101634053D01*
X88098691Y-101634053D01*
G37*
D11*
X87858500Y-102108000D03*
D10*
G36*
X89673691Y-101634053D02*
X89694926Y-101637203D01*
X89715750Y-101642419D01*
X89735962Y-101649651D01*
X89755368Y-101658830D01*
X89773781Y-101669866D01*
X89791024Y-101682654D01*
X89806930Y-101697070D01*
X89821346Y-101712976D01*
X89834134Y-101730219D01*
X89845170Y-101748632D01*
X89854349Y-101768038D01*
X89861581Y-101788250D01*
X89866797Y-101809074D01*
X89869947Y-101830309D01*
X89871000Y-101851750D01*
X89871000Y-102364250D01*
X89869947Y-102385691D01*
X89866797Y-102406926D01*
X89861581Y-102427750D01*
X89854349Y-102447962D01*
X89845170Y-102467368D01*
X89834134Y-102485781D01*
X89821346Y-102503024D01*
X89806930Y-102518930D01*
X89791024Y-102533346D01*
X89773781Y-102546134D01*
X89755368Y-102557170D01*
X89735962Y-102566349D01*
X89715750Y-102573581D01*
X89694926Y-102578797D01*
X89673691Y-102581947D01*
X89652250Y-102583000D01*
X89214750Y-102583000D01*
X89193309Y-102581947D01*
X89172074Y-102578797D01*
X89151250Y-102573581D01*
X89131038Y-102566349D01*
X89111632Y-102557170D01*
X89093219Y-102546134D01*
X89075976Y-102533346D01*
X89060070Y-102518930D01*
X89045654Y-102503024D01*
X89032866Y-102485781D01*
X89021830Y-102467368D01*
X89012651Y-102447962D01*
X89005419Y-102427750D01*
X89000203Y-102406926D01*
X88997053Y-102385691D01*
X88996000Y-102364250D01*
X88996000Y-101851750D01*
X88997053Y-101830309D01*
X89000203Y-101809074D01*
X89005419Y-101788250D01*
X89012651Y-101768038D01*
X89021830Y-101748632D01*
X89032866Y-101730219D01*
X89045654Y-101712976D01*
X89060070Y-101697070D01*
X89075976Y-101682654D01*
X89093219Y-101669866D01*
X89111632Y-101658830D01*
X89131038Y-101649651D01*
X89151250Y-101642419D01*
X89172074Y-101637203D01*
X89193309Y-101634053D01*
X89214750Y-101633000D01*
X89652250Y-101633000D01*
X89673691Y-101634053D01*
X89673691Y-101634053D01*
G37*
D11*
X89433500Y-102108000D03*
G04 #@! TD*
D12*
G04 #@! TO.C,D4*
X85852000Y-103948000D03*
X85852000Y-105348000D03*
G04 #@! TD*
D10*
G04 #@! TO.C,D5*
G36*
X99554191Y-101888053D02*
X99575426Y-101891203D01*
X99596250Y-101896419D01*
X99616462Y-101903651D01*
X99635868Y-101912830D01*
X99654281Y-101923866D01*
X99671524Y-101936654D01*
X99687430Y-101951070D01*
X99701846Y-101966976D01*
X99714634Y-101984219D01*
X99725670Y-102002632D01*
X99734849Y-102022038D01*
X99742081Y-102042250D01*
X99747297Y-102063074D01*
X99750447Y-102084309D01*
X99751500Y-102105750D01*
X99751500Y-102618250D01*
X99750447Y-102639691D01*
X99747297Y-102660926D01*
X99742081Y-102681750D01*
X99734849Y-102701962D01*
X99725670Y-102721368D01*
X99714634Y-102739781D01*
X99701846Y-102757024D01*
X99687430Y-102772930D01*
X99671524Y-102787346D01*
X99654281Y-102800134D01*
X99635868Y-102811170D01*
X99616462Y-102820349D01*
X99596250Y-102827581D01*
X99575426Y-102832797D01*
X99554191Y-102835947D01*
X99532750Y-102837000D01*
X99095250Y-102837000D01*
X99073809Y-102835947D01*
X99052574Y-102832797D01*
X99031750Y-102827581D01*
X99011538Y-102820349D01*
X98992132Y-102811170D01*
X98973719Y-102800134D01*
X98956476Y-102787346D01*
X98940570Y-102772930D01*
X98926154Y-102757024D01*
X98913366Y-102739781D01*
X98902330Y-102721368D01*
X98893151Y-102701962D01*
X98885919Y-102681750D01*
X98880703Y-102660926D01*
X98877553Y-102639691D01*
X98876500Y-102618250D01*
X98876500Y-102105750D01*
X98877553Y-102084309D01*
X98880703Y-102063074D01*
X98885919Y-102042250D01*
X98893151Y-102022038D01*
X98902330Y-102002632D01*
X98913366Y-101984219D01*
X98926154Y-101966976D01*
X98940570Y-101951070D01*
X98956476Y-101936654D01*
X98973719Y-101923866D01*
X98992132Y-101912830D01*
X99011538Y-101903651D01*
X99031750Y-101896419D01*
X99052574Y-101891203D01*
X99073809Y-101888053D01*
X99095250Y-101887000D01*
X99532750Y-101887000D01*
X99554191Y-101888053D01*
X99554191Y-101888053D01*
G37*
D11*
X99314000Y-102362000D03*
D10*
G36*
X97979191Y-101888053D02*
X98000426Y-101891203D01*
X98021250Y-101896419D01*
X98041462Y-101903651D01*
X98060868Y-101912830D01*
X98079281Y-101923866D01*
X98096524Y-101936654D01*
X98112430Y-101951070D01*
X98126846Y-101966976D01*
X98139634Y-101984219D01*
X98150670Y-102002632D01*
X98159849Y-102022038D01*
X98167081Y-102042250D01*
X98172297Y-102063074D01*
X98175447Y-102084309D01*
X98176500Y-102105750D01*
X98176500Y-102618250D01*
X98175447Y-102639691D01*
X98172297Y-102660926D01*
X98167081Y-102681750D01*
X98159849Y-102701962D01*
X98150670Y-102721368D01*
X98139634Y-102739781D01*
X98126846Y-102757024D01*
X98112430Y-102772930D01*
X98096524Y-102787346D01*
X98079281Y-102800134D01*
X98060868Y-102811170D01*
X98041462Y-102820349D01*
X98021250Y-102827581D01*
X98000426Y-102832797D01*
X97979191Y-102835947D01*
X97957750Y-102837000D01*
X97520250Y-102837000D01*
X97498809Y-102835947D01*
X97477574Y-102832797D01*
X97456750Y-102827581D01*
X97436538Y-102820349D01*
X97417132Y-102811170D01*
X97398719Y-102800134D01*
X97381476Y-102787346D01*
X97365570Y-102772930D01*
X97351154Y-102757024D01*
X97338366Y-102739781D01*
X97327330Y-102721368D01*
X97318151Y-102701962D01*
X97310919Y-102681750D01*
X97305703Y-102660926D01*
X97302553Y-102639691D01*
X97301500Y-102618250D01*
X97301500Y-102105750D01*
X97302553Y-102084309D01*
X97305703Y-102063074D01*
X97310919Y-102042250D01*
X97318151Y-102022038D01*
X97327330Y-102002632D01*
X97338366Y-101984219D01*
X97351154Y-101966976D01*
X97365570Y-101951070D01*
X97381476Y-101936654D01*
X97398719Y-101923866D01*
X97417132Y-101912830D01*
X97436538Y-101903651D01*
X97456750Y-101896419D01*
X97477574Y-101891203D01*
X97498809Y-101888053D01*
X97520250Y-101887000D01*
X97957750Y-101887000D01*
X97979191Y-101888053D01*
X97979191Y-101888053D01*
G37*
D11*
X97739000Y-102362000D03*
G04 #@! TD*
D12*
G04 #@! TO.C,D6*
X96012000Y-105410000D03*
X96012000Y-104010000D03*
G04 #@! TD*
D13*
G04 #@! TO.C,Q2*
X89392000Y-105598000D03*
X89392000Y-103698000D03*
X87392000Y-104648000D03*
G04 #@! TD*
G04 #@! TO.C,Q3*
X97552000Y-104648000D03*
X99552000Y-103698000D03*
X99552000Y-105598000D03*
G04 #@! TD*
D10*
G04 #@! TO.C,R3*
G36*
X91717691Y-103398053D02*
X91738926Y-103401203D01*
X91759750Y-103406419D01*
X91779962Y-103413651D01*
X91799368Y-103422830D01*
X91817781Y-103433866D01*
X91835024Y-103446654D01*
X91850930Y-103461070D01*
X91865346Y-103476976D01*
X91878134Y-103494219D01*
X91889170Y-103512632D01*
X91898349Y-103532038D01*
X91905581Y-103552250D01*
X91910797Y-103573074D01*
X91913947Y-103594309D01*
X91915000Y-103615750D01*
X91915000Y-104053250D01*
X91913947Y-104074691D01*
X91910797Y-104095926D01*
X91905581Y-104116750D01*
X91898349Y-104136962D01*
X91889170Y-104156368D01*
X91878134Y-104174781D01*
X91865346Y-104192024D01*
X91850930Y-104207930D01*
X91835024Y-104222346D01*
X91817781Y-104235134D01*
X91799368Y-104246170D01*
X91779962Y-104255349D01*
X91759750Y-104262581D01*
X91738926Y-104267797D01*
X91717691Y-104270947D01*
X91696250Y-104272000D01*
X91183750Y-104272000D01*
X91162309Y-104270947D01*
X91141074Y-104267797D01*
X91120250Y-104262581D01*
X91100038Y-104255349D01*
X91080632Y-104246170D01*
X91062219Y-104235134D01*
X91044976Y-104222346D01*
X91029070Y-104207930D01*
X91014654Y-104192024D01*
X91001866Y-104174781D01*
X90990830Y-104156368D01*
X90981651Y-104136962D01*
X90974419Y-104116750D01*
X90969203Y-104095926D01*
X90966053Y-104074691D01*
X90965000Y-104053250D01*
X90965000Y-103615750D01*
X90966053Y-103594309D01*
X90969203Y-103573074D01*
X90974419Y-103552250D01*
X90981651Y-103532038D01*
X90990830Y-103512632D01*
X91001866Y-103494219D01*
X91014654Y-103476976D01*
X91029070Y-103461070D01*
X91044976Y-103446654D01*
X91062219Y-103433866D01*
X91080632Y-103422830D01*
X91100038Y-103413651D01*
X91120250Y-103406419D01*
X91141074Y-103401203D01*
X91162309Y-103398053D01*
X91183750Y-103397000D01*
X91696250Y-103397000D01*
X91717691Y-103398053D01*
X91717691Y-103398053D01*
G37*
D11*
X91440000Y-103834500D03*
D10*
G36*
X91717691Y-104973053D02*
X91738926Y-104976203D01*
X91759750Y-104981419D01*
X91779962Y-104988651D01*
X91799368Y-104997830D01*
X91817781Y-105008866D01*
X91835024Y-105021654D01*
X91850930Y-105036070D01*
X91865346Y-105051976D01*
X91878134Y-105069219D01*
X91889170Y-105087632D01*
X91898349Y-105107038D01*
X91905581Y-105127250D01*
X91910797Y-105148074D01*
X91913947Y-105169309D01*
X91915000Y-105190750D01*
X91915000Y-105628250D01*
X91913947Y-105649691D01*
X91910797Y-105670926D01*
X91905581Y-105691750D01*
X91898349Y-105711962D01*
X91889170Y-105731368D01*
X91878134Y-105749781D01*
X91865346Y-105767024D01*
X91850930Y-105782930D01*
X91835024Y-105797346D01*
X91817781Y-105810134D01*
X91799368Y-105821170D01*
X91779962Y-105830349D01*
X91759750Y-105837581D01*
X91738926Y-105842797D01*
X91717691Y-105845947D01*
X91696250Y-105847000D01*
X91183750Y-105847000D01*
X91162309Y-105845947D01*
X91141074Y-105842797D01*
X91120250Y-105837581D01*
X91100038Y-105830349D01*
X91080632Y-105821170D01*
X91062219Y-105810134D01*
X91044976Y-105797346D01*
X91029070Y-105782930D01*
X91014654Y-105767024D01*
X91001866Y-105749781D01*
X90990830Y-105731368D01*
X90981651Y-105711962D01*
X90974419Y-105691750D01*
X90969203Y-105670926D01*
X90966053Y-105649691D01*
X90965000Y-105628250D01*
X90965000Y-105190750D01*
X90966053Y-105169309D01*
X90969203Y-105148074D01*
X90974419Y-105127250D01*
X90981651Y-105107038D01*
X90990830Y-105087632D01*
X91001866Y-105069219D01*
X91014654Y-105051976D01*
X91029070Y-105036070D01*
X91044976Y-105021654D01*
X91062219Y-105008866D01*
X91080632Y-104997830D01*
X91100038Y-104988651D01*
X91120250Y-104981419D01*
X91141074Y-104976203D01*
X91162309Y-104973053D01*
X91183750Y-104972000D01*
X91696250Y-104972000D01*
X91717691Y-104973053D01*
X91717691Y-104973053D01*
G37*
D11*
X91440000Y-105409500D03*
G04 #@! TD*
D10*
G04 #@! TO.C,R4*
G36*
X89673691Y-100110053D02*
X89694926Y-100113203D01*
X89715750Y-100118419D01*
X89735962Y-100125651D01*
X89755368Y-100134830D01*
X89773781Y-100145866D01*
X89791024Y-100158654D01*
X89806930Y-100173070D01*
X89821346Y-100188976D01*
X89834134Y-100206219D01*
X89845170Y-100224632D01*
X89854349Y-100244038D01*
X89861581Y-100264250D01*
X89866797Y-100285074D01*
X89869947Y-100306309D01*
X89871000Y-100327750D01*
X89871000Y-100840250D01*
X89869947Y-100861691D01*
X89866797Y-100882926D01*
X89861581Y-100903750D01*
X89854349Y-100923962D01*
X89845170Y-100943368D01*
X89834134Y-100961781D01*
X89821346Y-100979024D01*
X89806930Y-100994930D01*
X89791024Y-101009346D01*
X89773781Y-101022134D01*
X89755368Y-101033170D01*
X89735962Y-101042349D01*
X89715750Y-101049581D01*
X89694926Y-101054797D01*
X89673691Y-101057947D01*
X89652250Y-101059000D01*
X89214750Y-101059000D01*
X89193309Y-101057947D01*
X89172074Y-101054797D01*
X89151250Y-101049581D01*
X89131038Y-101042349D01*
X89111632Y-101033170D01*
X89093219Y-101022134D01*
X89075976Y-101009346D01*
X89060070Y-100994930D01*
X89045654Y-100979024D01*
X89032866Y-100961781D01*
X89021830Y-100943368D01*
X89012651Y-100923962D01*
X89005419Y-100903750D01*
X89000203Y-100882926D01*
X88997053Y-100861691D01*
X88996000Y-100840250D01*
X88996000Y-100327750D01*
X88997053Y-100306309D01*
X89000203Y-100285074D01*
X89005419Y-100264250D01*
X89012651Y-100244038D01*
X89021830Y-100224632D01*
X89032866Y-100206219D01*
X89045654Y-100188976D01*
X89060070Y-100173070D01*
X89075976Y-100158654D01*
X89093219Y-100145866D01*
X89111632Y-100134830D01*
X89131038Y-100125651D01*
X89151250Y-100118419D01*
X89172074Y-100113203D01*
X89193309Y-100110053D01*
X89214750Y-100109000D01*
X89652250Y-100109000D01*
X89673691Y-100110053D01*
X89673691Y-100110053D01*
G37*
D11*
X89433500Y-100584000D03*
D10*
G36*
X88098691Y-100110053D02*
X88119926Y-100113203D01*
X88140750Y-100118419D01*
X88160962Y-100125651D01*
X88180368Y-100134830D01*
X88198781Y-100145866D01*
X88216024Y-100158654D01*
X88231930Y-100173070D01*
X88246346Y-100188976D01*
X88259134Y-100206219D01*
X88270170Y-100224632D01*
X88279349Y-100244038D01*
X88286581Y-100264250D01*
X88291797Y-100285074D01*
X88294947Y-100306309D01*
X88296000Y-100327750D01*
X88296000Y-100840250D01*
X88294947Y-100861691D01*
X88291797Y-100882926D01*
X88286581Y-100903750D01*
X88279349Y-100923962D01*
X88270170Y-100943368D01*
X88259134Y-100961781D01*
X88246346Y-100979024D01*
X88231930Y-100994930D01*
X88216024Y-101009346D01*
X88198781Y-101022134D01*
X88180368Y-101033170D01*
X88160962Y-101042349D01*
X88140750Y-101049581D01*
X88119926Y-101054797D01*
X88098691Y-101057947D01*
X88077250Y-101059000D01*
X87639750Y-101059000D01*
X87618309Y-101057947D01*
X87597074Y-101054797D01*
X87576250Y-101049581D01*
X87556038Y-101042349D01*
X87536632Y-101033170D01*
X87518219Y-101022134D01*
X87500976Y-101009346D01*
X87485070Y-100994930D01*
X87470654Y-100979024D01*
X87457866Y-100961781D01*
X87446830Y-100943368D01*
X87437651Y-100923962D01*
X87430419Y-100903750D01*
X87425203Y-100882926D01*
X87422053Y-100861691D01*
X87421000Y-100840250D01*
X87421000Y-100327750D01*
X87422053Y-100306309D01*
X87425203Y-100285074D01*
X87430419Y-100264250D01*
X87437651Y-100244038D01*
X87446830Y-100224632D01*
X87457866Y-100206219D01*
X87470654Y-100188976D01*
X87485070Y-100173070D01*
X87500976Y-100158654D01*
X87518219Y-100145866D01*
X87536632Y-100134830D01*
X87556038Y-100125651D01*
X87576250Y-100118419D01*
X87597074Y-100113203D01*
X87618309Y-100110053D01*
X87639750Y-100109000D01*
X88077250Y-100109000D01*
X88098691Y-100110053D01*
X88098691Y-100110053D01*
G37*
D11*
X87858500Y-100584000D03*
G04 #@! TD*
D10*
G04 #@! TO.C,R5*
G36*
X101369691Y-103704053D02*
X101390926Y-103707203D01*
X101411750Y-103712419D01*
X101431962Y-103719651D01*
X101451368Y-103728830D01*
X101469781Y-103739866D01*
X101487024Y-103752654D01*
X101502930Y-103767070D01*
X101517346Y-103782976D01*
X101530134Y-103800219D01*
X101541170Y-103818632D01*
X101550349Y-103838038D01*
X101557581Y-103858250D01*
X101562797Y-103879074D01*
X101565947Y-103900309D01*
X101567000Y-103921750D01*
X101567000Y-104359250D01*
X101565947Y-104380691D01*
X101562797Y-104401926D01*
X101557581Y-104422750D01*
X101550349Y-104442962D01*
X101541170Y-104462368D01*
X101530134Y-104480781D01*
X101517346Y-104498024D01*
X101502930Y-104513930D01*
X101487024Y-104528346D01*
X101469781Y-104541134D01*
X101451368Y-104552170D01*
X101431962Y-104561349D01*
X101411750Y-104568581D01*
X101390926Y-104573797D01*
X101369691Y-104576947D01*
X101348250Y-104578000D01*
X100835750Y-104578000D01*
X100814309Y-104576947D01*
X100793074Y-104573797D01*
X100772250Y-104568581D01*
X100752038Y-104561349D01*
X100732632Y-104552170D01*
X100714219Y-104541134D01*
X100696976Y-104528346D01*
X100681070Y-104513930D01*
X100666654Y-104498024D01*
X100653866Y-104480781D01*
X100642830Y-104462368D01*
X100633651Y-104442962D01*
X100626419Y-104422750D01*
X100621203Y-104401926D01*
X100618053Y-104380691D01*
X100617000Y-104359250D01*
X100617000Y-103921750D01*
X100618053Y-103900309D01*
X100621203Y-103879074D01*
X100626419Y-103858250D01*
X100633651Y-103838038D01*
X100642830Y-103818632D01*
X100653866Y-103800219D01*
X100666654Y-103782976D01*
X100681070Y-103767070D01*
X100696976Y-103752654D01*
X100714219Y-103739866D01*
X100732632Y-103728830D01*
X100752038Y-103719651D01*
X100772250Y-103712419D01*
X100793074Y-103707203D01*
X100814309Y-103704053D01*
X100835750Y-103703000D01*
X101348250Y-103703000D01*
X101369691Y-103704053D01*
X101369691Y-103704053D01*
G37*
D11*
X101092000Y-104140500D03*
D10*
G36*
X101369691Y-105279053D02*
X101390926Y-105282203D01*
X101411750Y-105287419D01*
X101431962Y-105294651D01*
X101451368Y-105303830D01*
X101469781Y-105314866D01*
X101487024Y-105327654D01*
X101502930Y-105342070D01*
X101517346Y-105357976D01*
X101530134Y-105375219D01*
X101541170Y-105393632D01*
X101550349Y-105413038D01*
X101557581Y-105433250D01*
X101562797Y-105454074D01*
X101565947Y-105475309D01*
X101567000Y-105496750D01*
X101567000Y-105934250D01*
X101565947Y-105955691D01*
X101562797Y-105976926D01*
X101557581Y-105997750D01*
X101550349Y-106017962D01*
X101541170Y-106037368D01*
X101530134Y-106055781D01*
X101517346Y-106073024D01*
X101502930Y-106088930D01*
X101487024Y-106103346D01*
X101469781Y-106116134D01*
X101451368Y-106127170D01*
X101431962Y-106136349D01*
X101411750Y-106143581D01*
X101390926Y-106148797D01*
X101369691Y-106151947D01*
X101348250Y-106153000D01*
X100835750Y-106153000D01*
X100814309Y-106151947D01*
X100793074Y-106148797D01*
X100772250Y-106143581D01*
X100752038Y-106136349D01*
X100732632Y-106127170D01*
X100714219Y-106116134D01*
X100696976Y-106103346D01*
X100681070Y-106088930D01*
X100666654Y-106073024D01*
X100653866Y-106055781D01*
X100642830Y-106037368D01*
X100633651Y-106017962D01*
X100626419Y-105997750D01*
X100621203Y-105976926D01*
X100618053Y-105955691D01*
X100617000Y-105934250D01*
X100617000Y-105496750D01*
X100618053Y-105475309D01*
X100621203Y-105454074D01*
X100626419Y-105433250D01*
X100633651Y-105413038D01*
X100642830Y-105393632D01*
X100653866Y-105375219D01*
X100666654Y-105357976D01*
X100681070Y-105342070D01*
X100696976Y-105327654D01*
X100714219Y-105314866D01*
X100732632Y-105303830D01*
X100752038Y-105294651D01*
X100772250Y-105287419D01*
X100793074Y-105282203D01*
X100814309Y-105279053D01*
X100835750Y-105278000D01*
X101348250Y-105278000D01*
X101369691Y-105279053D01*
X101369691Y-105279053D01*
G37*
D11*
X101092000Y-105715500D03*
G04 #@! TD*
D10*
G04 #@! TO.C,R6*
G36*
X99605191Y-100364053D02*
X99626426Y-100367203D01*
X99647250Y-100372419D01*
X99667462Y-100379651D01*
X99686868Y-100388830D01*
X99705281Y-100399866D01*
X99722524Y-100412654D01*
X99738430Y-100427070D01*
X99752846Y-100442976D01*
X99765634Y-100460219D01*
X99776670Y-100478632D01*
X99785849Y-100498038D01*
X99793081Y-100518250D01*
X99798297Y-100539074D01*
X99801447Y-100560309D01*
X99802500Y-100581750D01*
X99802500Y-101094250D01*
X99801447Y-101115691D01*
X99798297Y-101136926D01*
X99793081Y-101157750D01*
X99785849Y-101177962D01*
X99776670Y-101197368D01*
X99765634Y-101215781D01*
X99752846Y-101233024D01*
X99738430Y-101248930D01*
X99722524Y-101263346D01*
X99705281Y-101276134D01*
X99686868Y-101287170D01*
X99667462Y-101296349D01*
X99647250Y-101303581D01*
X99626426Y-101308797D01*
X99605191Y-101311947D01*
X99583750Y-101313000D01*
X99146250Y-101313000D01*
X99124809Y-101311947D01*
X99103574Y-101308797D01*
X99082750Y-101303581D01*
X99062538Y-101296349D01*
X99043132Y-101287170D01*
X99024719Y-101276134D01*
X99007476Y-101263346D01*
X98991570Y-101248930D01*
X98977154Y-101233024D01*
X98964366Y-101215781D01*
X98953330Y-101197368D01*
X98944151Y-101177962D01*
X98936919Y-101157750D01*
X98931703Y-101136926D01*
X98928553Y-101115691D01*
X98927500Y-101094250D01*
X98927500Y-100581750D01*
X98928553Y-100560309D01*
X98931703Y-100539074D01*
X98936919Y-100518250D01*
X98944151Y-100498038D01*
X98953330Y-100478632D01*
X98964366Y-100460219D01*
X98977154Y-100442976D01*
X98991570Y-100427070D01*
X99007476Y-100412654D01*
X99024719Y-100399866D01*
X99043132Y-100388830D01*
X99062538Y-100379651D01*
X99082750Y-100372419D01*
X99103574Y-100367203D01*
X99124809Y-100364053D01*
X99146250Y-100363000D01*
X99583750Y-100363000D01*
X99605191Y-100364053D01*
X99605191Y-100364053D01*
G37*
D11*
X99365000Y-100838000D03*
D10*
G36*
X98030191Y-100364053D02*
X98051426Y-100367203D01*
X98072250Y-100372419D01*
X98092462Y-100379651D01*
X98111868Y-100388830D01*
X98130281Y-100399866D01*
X98147524Y-100412654D01*
X98163430Y-100427070D01*
X98177846Y-100442976D01*
X98190634Y-100460219D01*
X98201670Y-100478632D01*
X98210849Y-100498038D01*
X98218081Y-100518250D01*
X98223297Y-100539074D01*
X98226447Y-100560309D01*
X98227500Y-100581750D01*
X98227500Y-101094250D01*
X98226447Y-101115691D01*
X98223297Y-101136926D01*
X98218081Y-101157750D01*
X98210849Y-101177962D01*
X98201670Y-101197368D01*
X98190634Y-101215781D01*
X98177846Y-101233024D01*
X98163430Y-101248930D01*
X98147524Y-101263346D01*
X98130281Y-101276134D01*
X98111868Y-101287170D01*
X98092462Y-101296349D01*
X98072250Y-101303581D01*
X98051426Y-101308797D01*
X98030191Y-101311947D01*
X98008750Y-101313000D01*
X97571250Y-101313000D01*
X97549809Y-101311947D01*
X97528574Y-101308797D01*
X97507750Y-101303581D01*
X97487538Y-101296349D01*
X97468132Y-101287170D01*
X97449719Y-101276134D01*
X97432476Y-101263346D01*
X97416570Y-101248930D01*
X97402154Y-101233024D01*
X97389366Y-101215781D01*
X97378330Y-101197368D01*
X97369151Y-101177962D01*
X97361919Y-101157750D01*
X97356703Y-101136926D01*
X97353553Y-101115691D01*
X97352500Y-101094250D01*
X97352500Y-100581750D01*
X97353553Y-100560309D01*
X97356703Y-100539074D01*
X97361919Y-100518250D01*
X97369151Y-100498038D01*
X97378330Y-100478632D01*
X97389366Y-100460219D01*
X97402154Y-100442976D01*
X97416570Y-100427070D01*
X97432476Y-100412654D01*
X97449719Y-100399866D01*
X97468132Y-100388830D01*
X97487538Y-100379651D01*
X97507750Y-100372419D01*
X97528574Y-100367203D01*
X97549809Y-100364053D01*
X97571250Y-100363000D01*
X98008750Y-100363000D01*
X98030191Y-100364053D01*
X98030191Y-100364053D01*
G37*
D11*
X97790000Y-100838000D03*
G04 #@! TD*
M02*
