G04 #@! TF.GenerationSoftware,KiCad,Pcbnew,5.0.1-33cea8e~66~ubuntu18.04.1*
G04 #@! TF.CreationDate,2018-10-18T18:44:20+09:00*
G04 #@! TF.ProjectId,relay_jacks,72656C61795F6A61636B732E6B696361,rev?*
G04 #@! TF.SameCoordinates,Original*
G04 #@! TF.FileFunction,Legend,Bot*
G04 #@! TF.FilePolarity,Positive*
%FSLAX46Y46*%
G04 Gerber Fmt 4.6, Leading zero omitted, Abs format (unit mm)*
G04 Created by KiCad (PCBNEW 5.0.1-33cea8e~66~ubuntu18.04.1) date 2018年10月18日 18時44分20秒*
%MOMM*%
%LPD*%
G01*
G04 APERTURE LIST*
%ADD10C,0.200000*%
%ADD11C,0.225000*%
G04 APERTURE END LIST*
D10*
X101732952Y-115931904D02*
X101999619Y-115550952D01*
X102190095Y-115931904D02*
X102190095Y-115131904D01*
X101885333Y-115131904D01*
X101809142Y-115170000D01*
X101771047Y-115208095D01*
X101732952Y-115284285D01*
X101732952Y-115398571D01*
X101771047Y-115474761D01*
X101809142Y-115512857D01*
X101885333Y-115550952D01*
X102190095Y-115550952D01*
X101085333Y-115893809D02*
X101161523Y-115931904D01*
X101313904Y-115931904D01*
X101390095Y-115893809D01*
X101428190Y-115817619D01*
X101428190Y-115512857D01*
X101390095Y-115436666D01*
X101313904Y-115398571D01*
X101161523Y-115398571D01*
X101085333Y-115436666D01*
X101047238Y-115512857D01*
X101047238Y-115589047D01*
X101428190Y-115665238D01*
X100780571Y-115398571D02*
X100590095Y-115931904D01*
X100399619Y-115398571D01*
X99523428Y-115208095D02*
X99485333Y-115170000D01*
X99409142Y-115131904D01*
X99218666Y-115131904D01*
X99142476Y-115170000D01*
X99104380Y-115208095D01*
X99066285Y-115284285D01*
X99066285Y-115360476D01*
X99104380Y-115474761D01*
X99561523Y-115931904D01*
X99066285Y-115931904D01*
X98571047Y-115131904D02*
X98494857Y-115131904D01*
X98418666Y-115170000D01*
X98380571Y-115208095D01*
X98342476Y-115284285D01*
X98304380Y-115436666D01*
X98304380Y-115627142D01*
X98342476Y-115779523D01*
X98380571Y-115855714D01*
X98418666Y-115893809D01*
X98494857Y-115931904D01*
X98571047Y-115931904D01*
X98647238Y-115893809D01*
X98685333Y-115855714D01*
X98723428Y-115779523D01*
X98761523Y-115627142D01*
X98761523Y-115436666D01*
X98723428Y-115284285D01*
X98685333Y-115208095D01*
X98647238Y-115170000D01*
X98571047Y-115131904D01*
X97542476Y-115931904D02*
X97999619Y-115931904D01*
X97771047Y-115931904D02*
X97771047Y-115131904D01*
X97847238Y-115246190D01*
X97923428Y-115322380D01*
X97999619Y-115360476D01*
X97085333Y-115474761D02*
X97161523Y-115436666D01*
X97199619Y-115398571D01*
X97237714Y-115322380D01*
X97237714Y-115284285D01*
X97199619Y-115208095D01*
X97161523Y-115170000D01*
X97085333Y-115131904D01*
X96932952Y-115131904D01*
X96856761Y-115170000D01*
X96818666Y-115208095D01*
X96780571Y-115284285D01*
X96780571Y-115322380D01*
X96818666Y-115398571D01*
X96856761Y-115436666D01*
X96932952Y-115474761D01*
X97085333Y-115474761D01*
X97161523Y-115512857D01*
X97199619Y-115550952D01*
X97237714Y-115627142D01*
X97237714Y-115779523D01*
X97199619Y-115855714D01*
X97161523Y-115893809D01*
X97085333Y-115931904D01*
X96932952Y-115931904D01*
X96856761Y-115893809D01*
X96818666Y-115855714D01*
X96780571Y-115779523D01*
X96780571Y-115627142D01*
X96818666Y-115550952D01*
X96856761Y-115512857D01*
X96932952Y-115474761D01*
X96437714Y-115855714D02*
X96399619Y-115893809D01*
X96437714Y-115931904D01*
X96475809Y-115893809D01*
X96437714Y-115855714D01*
X96437714Y-115931904D01*
X95637714Y-115931904D02*
X96094857Y-115931904D01*
X95866285Y-115931904D02*
X95866285Y-115131904D01*
X95942476Y-115246190D01*
X96018666Y-115322380D01*
X96094857Y-115360476D01*
X95142476Y-115131904D02*
X95066285Y-115131904D01*
X94990095Y-115170000D01*
X94952000Y-115208095D01*
X94913904Y-115284285D01*
X94875809Y-115436666D01*
X94875809Y-115627142D01*
X94913904Y-115779523D01*
X94952000Y-115855714D01*
X94990095Y-115893809D01*
X95066285Y-115931904D01*
X95142476Y-115931904D01*
X95218666Y-115893809D01*
X95256761Y-115855714D01*
X95294857Y-115779523D01*
X95332952Y-115627142D01*
X95332952Y-115436666D01*
X95294857Y-115284285D01*
X95256761Y-115208095D01*
X95218666Y-115170000D01*
X95142476Y-115131904D01*
D11*
X102384857Y-114199142D02*
X102384857Y-113299142D01*
X101999142Y-114199142D02*
X101999142Y-113727714D01*
X102042000Y-113642000D01*
X102127714Y-113599142D01*
X102256285Y-113599142D01*
X102342000Y-113642000D01*
X102384857Y-113684857D01*
X101699142Y-113599142D02*
X101356285Y-113599142D01*
X101570571Y-113299142D02*
X101570571Y-114070571D01*
X101527714Y-114156285D01*
X101442000Y-114199142D01*
X101356285Y-114199142D01*
X101184857Y-113599142D02*
X100842000Y-113599142D01*
X101056285Y-113299142D02*
X101056285Y-114070571D01*
X101013428Y-114156285D01*
X100927714Y-114199142D01*
X100842000Y-114199142D01*
X100542000Y-113599142D02*
X100542000Y-114499142D01*
X100542000Y-113642000D02*
X100456285Y-113599142D01*
X100284857Y-113599142D01*
X100199142Y-113642000D01*
X100156285Y-113684857D01*
X100113428Y-113770571D01*
X100113428Y-114027714D01*
X100156285Y-114113428D01*
X100199142Y-114156285D01*
X100284857Y-114199142D01*
X100456285Y-114199142D01*
X100542000Y-114156285D01*
X99770571Y-114156285D02*
X99684857Y-114199142D01*
X99513428Y-114199142D01*
X99427714Y-114156285D01*
X99384857Y-114070571D01*
X99384857Y-114027714D01*
X99427714Y-113942000D01*
X99513428Y-113899142D01*
X99642000Y-113899142D01*
X99727714Y-113856285D01*
X99770571Y-113770571D01*
X99770571Y-113727714D01*
X99727714Y-113642000D01*
X99642000Y-113599142D01*
X99513428Y-113599142D01*
X99427714Y-113642000D01*
X98999142Y-114113428D02*
X98956285Y-114156285D01*
X98999142Y-114199142D01*
X99042000Y-114156285D01*
X98999142Y-114113428D01*
X98999142Y-114199142D01*
X98999142Y-113642000D02*
X98956285Y-113684857D01*
X98999142Y-113727714D01*
X99042000Y-113684857D01*
X98999142Y-113642000D01*
X98999142Y-113727714D01*
X97927714Y-113256285D02*
X98699142Y-114413428D01*
X96984857Y-113256285D02*
X97756285Y-114413428D01*
X96299142Y-113599142D02*
X96299142Y-114327714D01*
X96342000Y-114413428D01*
X96384857Y-114456285D01*
X96470571Y-114499142D01*
X96599142Y-114499142D01*
X96684857Y-114456285D01*
X96299142Y-114156285D02*
X96384857Y-114199142D01*
X96556285Y-114199142D01*
X96642000Y-114156285D01*
X96684857Y-114113428D01*
X96727714Y-114027714D01*
X96727714Y-113770571D01*
X96684857Y-113684857D01*
X96642000Y-113642000D01*
X96556285Y-113599142D01*
X96384857Y-113599142D01*
X96299142Y-113642000D01*
X95870571Y-114199142D02*
X95870571Y-113599142D01*
X95870571Y-113299142D02*
X95913428Y-113342000D01*
X95870571Y-113384857D01*
X95827714Y-113342000D01*
X95870571Y-113299142D01*
X95870571Y-113384857D01*
X95570571Y-113599142D02*
X95227714Y-113599142D01*
X95442000Y-113299142D02*
X95442000Y-114070571D01*
X95399142Y-114156285D01*
X95313428Y-114199142D01*
X95227714Y-114199142D01*
X94927714Y-114199142D02*
X94927714Y-113299142D01*
X94542000Y-114199142D02*
X94542000Y-113727714D01*
X94584857Y-113642000D01*
X94670571Y-113599142D01*
X94799142Y-113599142D01*
X94884857Y-113642000D01*
X94927714Y-113684857D01*
X93727714Y-113599142D02*
X93727714Y-114199142D01*
X94113428Y-113599142D02*
X94113428Y-114070571D01*
X94070571Y-114156285D01*
X93984857Y-114199142D01*
X93856285Y-114199142D01*
X93770571Y-114156285D01*
X93727714Y-114113428D01*
X93299142Y-114199142D02*
X93299142Y-113299142D01*
X93299142Y-113642000D02*
X93213428Y-113599142D01*
X93042000Y-113599142D01*
X92956285Y-113642000D01*
X92913428Y-113684857D01*
X92870571Y-113770571D01*
X92870571Y-114027714D01*
X92913428Y-114113428D01*
X92956285Y-114156285D01*
X93042000Y-114199142D01*
X93213428Y-114199142D01*
X93299142Y-114156285D01*
X92484857Y-114113428D02*
X92442000Y-114156285D01*
X92484857Y-114199142D01*
X92527714Y-114156285D01*
X92484857Y-114113428D01*
X92484857Y-114199142D01*
X91670571Y-114156285D02*
X91756285Y-114199142D01*
X91927714Y-114199142D01*
X92013428Y-114156285D01*
X92056285Y-114113428D01*
X92099142Y-114027714D01*
X92099142Y-113770571D01*
X92056285Y-113684857D01*
X92013428Y-113642000D01*
X91927714Y-113599142D01*
X91756285Y-113599142D01*
X91670571Y-113642000D01*
X91156285Y-114199142D02*
X91242000Y-114156285D01*
X91284857Y-114113428D01*
X91327714Y-114027714D01*
X91327714Y-113770571D01*
X91284857Y-113684857D01*
X91242000Y-113642000D01*
X91156285Y-113599142D01*
X91027714Y-113599142D01*
X90942000Y-113642000D01*
X90899142Y-113684857D01*
X90856285Y-113770571D01*
X90856285Y-114027714D01*
X90899142Y-114113428D01*
X90942000Y-114156285D01*
X91027714Y-114199142D01*
X91156285Y-114199142D01*
X90470571Y-114199142D02*
X90470571Y-113599142D01*
X90470571Y-113684857D02*
X90427714Y-113642000D01*
X90342000Y-113599142D01*
X90213428Y-113599142D01*
X90127714Y-113642000D01*
X90084857Y-113727714D01*
X90084857Y-114199142D01*
X90084857Y-113727714D02*
X90042000Y-113642000D01*
X89956285Y-113599142D01*
X89827714Y-113599142D01*
X89742000Y-113642000D01*
X89699142Y-113727714D01*
X89699142Y-114199142D01*
X88627714Y-113256285D02*
X89399142Y-114413428D01*
X87942000Y-114199142D02*
X87942000Y-113727714D01*
X87984857Y-113642000D01*
X88070571Y-113599142D01*
X88242000Y-113599142D01*
X88327714Y-113642000D01*
X87942000Y-114156285D02*
X88027714Y-114199142D01*
X88242000Y-114199142D01*
X88327714Y-114156285D01*
X88370571Y-114070571D01*
X88370571Y-113984857D01*
X88327714Y-113899142D01*
X88242000Y-113856285D01*
X88027714Y-113856285D01*
X87942000Y-113813428D01*
X87556285Y-114156285D02*
X87470571Y-114199142D01*
X87299142Y-114199142D01*
X87213428Y-114156285D01*
X87170571Y-114070571D01*
X87170571Y-114027714D01*
X87213428Y-113942000D01*
X87299142Y-113899142D01*
X87427714Y-113899142D01*
X87513428Y-113856285D01*
X87556285Y-113770571D01*
X87556285Y-113727714D01*
X87513428Y-113642000D01*
X87427714Y-113599142D01*
X87299142Y-113599142D01*
X87213428Y-113642000D01*
X86399142Y-113599142D02*
X86399142Y-114199142D01*
X86784857Y-113599142D02*
X86784857Y-114070571D01*
X86742000Y-114156285D01*
X86656285Y-114199142D01*
X86527714Y-114199142D01*
X86442000Y-114156285D01*
X86399142Y-114113428D01*
X85970571Y-114199142D02*
X85970571Y-113299142D01*
X85884857Y-113856285D02*
X85627714Y-114199142D01*
X85627714Y-113599142D02*
X85970571Y-113942000D01*
X85242000Y-114199142D02*
X85242000Y-113599142D01*
X85242000Y-113299142D02*
X85284857Y-113342000D01*
X85242000Y-113384857D01*
X85199142Y-113342000D01*
X85242000Y-113299142D01*
X85242000Y-113384857D01*
X84427714Y-114199142D02*
X84427714Y-113727714D01*
X84470571Y-113642000D01*
X84556285Y-113599142D01*
X84727714Y-113599142D01*
X84813428Y-113642000D01*
X84427714Y-114156285D02*
X84513428Y-114199142D01*
X84727714Y-114199142D01*
X84813428Y-114156285D01*
X84856285Y-114070571D01*
X84856285Y-113984857D01*
X84813428Y-113899142D01*
X84727714Y-113856285D01*
X84513428Y-113856285D01*
X84427714Y-113813428D01*
X83613428Y-114199142D02*
X83613428Y-113727714D01*
X83656285Y-113642000D01*
X83742000Y-113599142D01*
X83913428Y-113599142D01*
X83999142Y-113642000D01*
X83613428Y-114156285D02*
X83699142Y-114199142D01*
X83913428Y-114199142D01*
X83999142Y-114156285D01*
X84042000Y-114070571D01*
X84042000Y-113984857D01*
X83999142Y-113899142D01*
X83913428Y-113856285D01*
X83699142Y-113856285D01*
X83613428Y-113813428D01*
X82799142Y-114199142D02*
X82799142Y-113727714D01*
X82842000Y-113642000D01*
X82927714Y-113599142D01*
X83099142Y-113599142D01*
X83184857Y-113642000D01*
X82799142Y-114156285D02*
X82884857Y-114199142D01*
X83099142Y-114199142D01*
X83184857Y-114156285D01*
X83227714Y-114070571D01*
X83227714Y-113984857D01*
X83184857Y-113899142D01*
X83099142Y-113856285D01*
X82884857Y-113856285D01*
X82799142Y-113813428D01*
X81727714Y-113256285D02*
X82499142Y-114413428D01*
X81427714Y-114199142D02*
X81427714Y-113599142D01*
X81427714Y-113770571D02*
X81384857Y-113684857D01*
X81342000Y-113642000D01*
X81256285Y-113599142D01*
X81170571Y-113599142D01*
X80527714Y-114156285D02*
X80613428Y-114199142D01*
X80784857Y-114199142D01*
X80870571Y-114156285D01*
X80913428Y-114070571D01*
X80913428Y-113727714D01*
X80870571Y-113642000D01*
X80784857Y-113599142D01*
X80613428Y-113599142D01*
X80527714Y-113642000D01*
X80484857Y-113727714D01*
X80484857Y-113813428D01*
X80913428Y-113899142D01*
X79970571Y-114199142D02*
X80056285Y-114156285D01*
X80099142Y-114070571D01*
X80099142Y-113299142D01*
X79242000Y-114199142D02*
X79242000Y-113727714D01*
X79284857Y-113642000D01*
X79370571Y-113599142D01*
X79542000Y-113599142D01*
X79627714Y-113642000D01*
X79242000Y-114156285D02*
X79327714Y-114199142D01*
X79542000Y-114199142D01*
X79627714Y-114156285D01*
X79670571Y-114070571D01*
X79670571Y-113984857D01*
X79627714Y-113899142D01*
X79542000Y-113856285D01*
X79327714Y-113856285D01*
X79242000Y-113813428D01*
X78899142Y-113599142D02*
X78684857Y-114199142D01*
X78470571Y-113599142D02*
X78684857Y-114199142D01*
X78770571Y-114413428D01*
X78813428Y-114456285D01*
X78899142Y-114499142D01*
X78342000Y-114284857D02*
X77656285Y-114284857D01*
X77442000Y-113599142D02*
X77442000Y-114370571D01*
X77484857Y-114456285D01*
X77570571Y-114499142D01*
X77613428Y-114499142D01*
X77442000Y-113299142D02*
X77484857Y-113342000D01*
X77442000Y-113384857D01*
X77399142Y-113342000D01*
X77442000Y-113299142D01*
X77442000Y-113384857D01*
X76627714Y-114199142D02*
X76627714Y-113727714D01*
X76670571Y-113642000D01*
X76756285Y-113599142D01*
X76927714Y-113599142D01*
X77013428Y-113642000D01*
X76627714Y-114156285D02*
X76713428Y-114199142D01*
X76927714Y-114199142D01*
X77013428Y-114156285D01*
X77056285Y-114070571D01*
X77056285Y-113984857D01*
X77013428Y-113899142D01*
X76927714Y-113856285D01*
X76713428Y-113856285D01*
X76627714Y-113813428D01*
X75813428Y-114156285D02*
X75899142Y-114199142D01*
X76070571Y-114199142D01*
X76156285Y-114156285D01*
X76199142Y-114113428D01*
X76242000Y-114027714D01*
X76242000Y-113770571D01*
X76199142Y-113684857D01*
X76156285Y-113642000D01*
X76070571Y-113599142D01*
X75899142Y-113599142D01*
X75813428Y-113642000D01*
X75427714Y-114199142D02*
X75427714Y-113299142D01*
X75342000Y-113856285D02*
X75084857Y-114199142D01*
X75084857Y-113599142D02*
X75427714Y-113942000D01*
X74742000Y-114156285D02*
X74656285Y-114199142D01*
X74484857Y-114199142D01*
X74399142Y-114156285D01*
X74356285Y-114070571D01*
X74356285Y-114027714D01*
X74399142Y-113942000D01*
X74484857Y-113899142D01*
X74613428Y-113899142D01*
X74699142Y-113856285D01*
X74742000Y-113770571D01*
X74742000Y-113727714D01*
X74699142Y-113642000D01*
X74613428Y-113599142D01*
X74484857Y-113599142D01*
X74399142Y-113642000D01*
M02*
