G04 #@! TF.GenerationSoftware,KiCad,Pcbnew,5.0.1-33cea8e~66~ubuntu18.04.1*
G04 #@! TF.CreationDate,2018-10-18T18:44:20+09:00*
G04 #@! TF.ProjectId,relay_jacks,72656C61795F6A61636B732E6B696361,rev?*
G04 #@! TF.SameCoordinates,Original*
G04 #@! TF.FileFunction,Soldermask,Top*
G04 #@! TF.FilePolarity,Negative*
%FSLAX46Y46*%
G04 Gerber Fmt 4.6, Leading zero omitted, Abs format (unit mm)*
G04 Created by KiCad (PCBNEW 5.0.1-33cea8e~66~ubuntu18.04.1) date 2018年10月18日 18時44分20秒*
%MOMM*%
%LPD*%
G01*
G04 APERTURE LIST*
%ADD10C,0.100000*%
G04 APERTURE END LIST*
D10*
G36*
X75820707Y-119607596D02*
X75897836Y-119615193D01*
X76029787Y-119655220D01*
X76095763Y-119675233D01*
X76278172Y-119772733D01*
X76438054Y-119903946D01*
X76569267Y-120063828D01*
X76666767Y-120246237D01*
X76666767Y-120246238D01*
X76726807Y-120444164D01*
X76747080Y-120650000D01*
X76726807Y-120855836D01*
X76686780Y-120987787D01*
X76666767Y-121053763D01*
X76569267Y-121236172D01*
X76438054Y-121396054D01*
X76278172Y-121527267D01*
X76095763Y-121624767D01*
X76029787Y-121644780D01*
X75897836Y-121684807D01*
X75820707Y-121692404D01*
X75743580Y-121700000D01*
X75640420Y-121700000D01*
X75563293Y-121692404D01*
X75486164Y-121684807D01*
X75354213Y-121644780D01*
X75288237Y-121624767D01*
X75105828Y-121527267D01*
X74945946Y-121396054D01*
X74814733Y-121236172D01*
X74717233Y-121053763D01*
X74697220Y-120987787D01*
X74657193Y-120855836D01*
X74636920Y-120650000D01*
X74657193Y-120444164D01*
X74717233Y-120246238D01*
X74717233Y-120246237D01*
X74814733Y-120063828D01*
X74945946Y-119903946D01*
X75105828Y-119772733D01*
X75288237Y-119675233D01*
X75354213Y-119655220D01*
X75486164Y-119615193D01*
X75563293Y-119607596D01*
X75640420Y-119600000D01*
X75743580Y-119600000D01*
X75820707Y-119607596D01*
X75820707Y-119607596D01*
G37*
G36*
X79282000Y-121700000D02*
X77182000Y-121700000D01*
X77182000Y-119600000D01*
X79282000Y-119600000D01*
X79282000Y-121700000D01*
X79282000Y-121700000D01*
G37*
G36*
X91060707Y-119607596D02*
X91137836Y-119615193D01*
X91269787Y-119655220D01*
X91335763Y-119675233D01*
X91518172Y-119772733D01*
X91678054Y-119903946D01*
X91809267Y-120063828D01*
X91906767Y-120246237D01*
X91906767Y-120246238D01*
X91966807Y-120444164D01*
X91987080Y-120650000D01*
X91966807Y-120855836D01*
X91926780Y-120987787D01*
X91906767Y-121053763D01*
X91809267Y-121236172D01*
X91678054Y-121396054D01*
X91518172Y-121527267D01*
X91335763Y-121624767D01*
X91269787Y-121644780D01*
X91137836Y-121684807D01*
X91060707Y-121692404D01*
X90983580Y-121700000D01*
X90880420Y-121700000D01*
X90803293Y-121692404D01*
X90726164Y-121684807D01*
X90594213Y-121644780D01*
X90528237Y-121624767D01*
X90345828Y-121527267D01*
X90185946Y-121396054D01*
X90054733Y-121236172D01*
X89957233Y-121053763D01*
X89937220Y-120987787D01*
X89897193Y-120855836D01*
X89876920Y-120650000D01*
X89897193Y-120444164D01*
X89957233Y-120246238D01*
X89957233Y-120246237D01*
X90054733Y-120063828D01*
X90185946Y-119903946D01*
X90345828Y-119772733D01*
X90528237Y-119675233D01*
X90594213Y-119655220D01*
X90726164Y-119615193D01*
X90803293Y-119607596D01*
X90880420Y-119600000D01*
X90983580Y-119600000D01*
X91060707Y-119607596D01*
X91060707Y-119607596D01*
G37*
G36*
X88520707Y-119607596D02*
X88597836Y-119615193D01*
X88729787Y-119655220D01*
X88795763Y-119675233D01*
X88978172Y-119772733D01*
X89138054Y-119903946D01*
X89269267Y-120063828D01*
X89366767Y-120246237D01*
X89366767Y-120246238D01*
X89426807Y-120444164D01*
X89447080Y-120650000D01*
X89426807Y-120855836D01*
X89386780Y-120987787D01*
X89366767Y-121053763D01*
X89269267Y-121236172D01*
X89138054Y-121396054D01*
X88978172Y-121527267D01*
X88795763Y-121624767D01*
X88729787Y-121644780D01*
X88597836Y-121684807D01*
X88520707Y-121692404D01*
X88443580Y-121700000D01*
X88340420Y-121700000D01*
X88263293Y-121692404D01*
X88186164Y-121684807D01*
X88054213Y-121644780D01*
X87988237Y-121624767D01*
X87805828Y-121527267D01*
X87645946Y-121396054D01*
X87514733Y-121236172D01*
X87417233Y-121053763D01*
X87397220Y-120987787D01*
X87357193Y-120855836D01*
X87336920Y-120650000D01*
X87357193Y-120444164D01*
X87417233Y-120246238D01*
X87417233Y-120246237D01*
X87514733Y-120063828D01*
X87645946Y-119903946D01*
X87805828Y-119772733D01*
X87988237Y-119675233D01*
X88054213Y-119655220D01*
X88186164Y-119615193D01*
X88263293Y-119607596D01*
X88340420Y-119600000D01*
X88443580Y-119600000D01*
X88520707Y-119607596D01*
X88520707Y-119607596D01*
G37*
G36*
X86902000Y-121700000D02*
X84802000Y-121700000D01*
X84802000Y-119600000D01*
X86902000Y-119600000D01*
X86902000Y-121700000D01*
X86902000Y-121700000D01*
G37*
G36*
X102142000Y-121700000D02*
X100042000Y-121700000D01*
X100042000Y-119600000D01*
X102142000Y-119600000D01*
X102142000Y-121700000D01*
X102142000Y-121700000D01*
G37*
G36*
X98680707Y-119607596D02*
X98757836Y-119615193D01*
X98889787Y-119655220D01*
X98955763Y-119675233D01*
X99138172Y-119772733D01*
X99298054Y-119903946D01*
X99429267Y-120063828D01*
X99526767Y-120246237D01*
X99526767Y-120246238D01*
X99586807Y-120444164D01*
X99607080Y-120650000D01*
X99586807Y-120855836D01*
X99546780Y-120987787D01*
X99526767Y-121053763D01*
X99429267Y-121236172D01*
X99298054Y-121396054D01*
X99138172Y-121527267D01*
X98955763Y-121624767D01*
X98889787Y-121644780D01*
X98757836Y-121684807D01*
X98680707Y-121692404D01*
X98603580Y-121700000D01*
X98500420Y-121700000D01*
X98423293Y-121692404D01*
X98346164Y-121684807D01*
X98214213Y-121644780D01*
X98148237Y-121624767D01*
X97965828Y-121527267D01*
X97805946Y-121396054D01*
X97674733Y-121236172D01*
X97577233Y-121053763D01*
X97557220Y-120987787D01*
X97517193Y-120855836D01*
X97496920Y-120650000D01*
X97517193Y-120444164D01*
X97577233Y-120246238D01*
X97577233Y-120246237D01*
X97674733Y-120063828D01*
X97805946Y-119903946D01*
X97965828Y-119772733D01*
X98148237Y-119675233D01*
X98214213Y-119655220D01*
X98346164Y-119615193D01*
X98423293Y-119607596D01*
X98500420Y-119600000D01*
X98603580Y-119600000D01*
X98680707Y-119607596D01*
X98680707Y-119607596D01*
G37*
G36*
X86132603Y-116930968D02*
X86132606Y-116930969D01*
X86132605Y-116930969D01*
X86307678Y-117003486D01*
X86307679Y-117003487D01*
X86465241Y-117108767D01*
X86599233Y-117242759D01*
X86599234Y-117242761D01*
X86704514Y-117400322D01*
X86760603Y-117535734D01*
X86777032Y-117575397D01*
X86814000Y-117761250D01*
X86814000Y-117950750D01*
X86777032Y-118136603D01*
X86777031Y-118136605D01*
X86704514Y-118311678D01*
X86704513Y-118311679D01*
X86599233Y-118469241D01*
X86465241Y-118603233D01*
X86385923Y-118656232D01*
X86307678Y-118708514D01*
X86172266Y-118764603D01*
X86132603Y-118781032D01*
X85946750Y-118818000D01*
X85757250Y-118818000D01*
X85571397Y-118781032D01*
X85531734Y-118764603D01*
X85396322Y-118708514D01*
X85318077Y-118656232D01*
X85238759Y-118603233D01*
X85104767Y-118469241D01*
X84999487Y-118311679D01*
X84999486Y-118311678D01*
X84926969Y-118136605D01*
X84926968Y-118136603D01*
X84890000Y-117950750D01*
X84890000Y-117761250D01*
X84926968Y-117575397D01*
X84943397Y-117535734D01*
X84999486Y-117400322D01*
X85104766Y-117242761D01*
X85104767Y-117242759D01*
X85238759Y-117108767D01*
X85396321Y-117003487D01*
X85396322Y-117003486D01*
X85571395Y-116930969D01*
X85571394Y-116930969D01*
X85571397Y-116930968D01*
X85757250Y-116894000D01*
X85946750Y-116894000D01*
X86132603Y-116930968D01*
X86132603Y-116930968D01*
G37*
G36*
X75972603Y-116930968D02*
X75972606Y-116930969D01*
X75972605Y-116930969D01*
X76147678Y-117003486D01*
X76147679Y-117003487D01*
X76305241Y-117108767D01*
X76439233Y-117242759D01*
X76439234Y-117242761D01*
X76544514Y-117400322D01*
X76600603Y-117535734D01*
X76617032Y-117575397D01*
X76654000Y-117761250D01*
X76654000Y-117950750D01*
X76617032Y-118136603D01*
X76617031Y-118136605D01*
X76544514Y-118311678D01*
X76544513Y-118311679D01*
X76439233Y-118469241D01*
X76305241Y-118603233D01*
X76225923Y-118656232D01*
X76147678Y-118708514D01*
X76012266Y-118764603D01*
X75972603Y-118781032D01*
X75786750Y-118818000D01*
X75597250Y-118818000D01*
X75411397Y-118781032D01*
X75371734Y-118764603D01*
X75236322Y-118708514D01*
X75158077Y-118656232D01*
X75078759Y-118603233D01*
X74944767Y-118469241D01*
X74839487Y-118311679D01*
X74839486Y-118311678D01*
X74766969Y-118136605D01*
X74766968Y-118136603D01*
X74730000Y-117950750D01*
X74730000Y-117761250D01*
X74766968Y-117575397D01*
X74783397Y-117535734D01*
X74839486Y-117400322D01*
X74944766Y-117242761D01*
X74944767Y-117242759D01*
X75078759Y-117108767D01*
X75236321Y-117003487D01*
X75236322Y-117003486D01*
X75411395Y-116930969D01*
X75411394Y-116930969D01*
X75411397Y-116930968D01*
X75597250Y-116894000D01*
X75786750Y-116894000D01*
X75972603Y-116930968D01*
X75972603Y-116930968D01*
G37*
G36*
X81052603Y-116930968D02*
X81052606Y-116930969D01*
X81052605Y-116930969D01*
X81227678Y-117003486D01*
X81227679Y-117003487D01*
X81385241Y-117108767D01*
X81519233Y-117242759D01*
X81519234Y-117242761D01*
X81624514Y-117400322D01*
X81680603Y-117535734D01*
X81697032Y-117575397D01*
X81734000Y-117761250D01*
X81734000Y-117950750D01*
X81697032Y-118136603D01*
X81697031Y-118136605D01*
X81624514Y-118311678D01*
X81624513Y-118311679D01*
X81519233Y-118469241D01*
X81385241Y-118603233D01*
X81305923Y-118656232D01*
X81227678Y-118708514D01*
X81092266Y-118764603D01*
X81052603Y-118781032D01*
X80866750Y-118818000D01*
X80677250Y-118818000D01*
X80491397Y-118781032D01*
X80451734Y-118764603D01*
X80316322Y-118708514D01*
X80238077Y-118656232D01*
X80158759Y-118603233D01*
X80024767Y-118469241D01*
X79919487Y-118311679D01*
X79919486Y-118311678D01*
X79846969Y-118136605D01*
X79846968Y-118136603D01*
X79810000Y-117950750D01*
X79810000Y-117761250D01*
X79846968Y-117575397D01*
X79863397Y-117535734D01*
X79919486Y-117400322D01*
X80024766Y-117242761D01*
X80024767Y-117242759D01*
X80158759Y-117108767D01*
X80316321Y-117003487D01*
X80316322Y-117003486D01*
X80491395Y-116930969D01*
X80491394Y-116930969D01*
X80491397Y-116930968D01*
X80677250Y-116894000D01*
X80866750Y-116894000D01*
X81052603Y-116930968D01*
X81052603Y-116930968D01*
G37*
G36*
X91212603Y-116930968D02*
X91212606Y-116930969D01*
X91212605Y-116930969D01*
X91387678Y-117003486D01*
X91387679Y-117003487D01*
X91545241Y-117108767D01*
X91679233Y-117242759D01*
X91679234Y-117242761D01*
X91784514Y-117400322D01*
X91840603Y-117535734D01*
X91857032Y-117575397D01*
X91894000Y-117761250D01*
X91894000Y-117950750D01*
X91857032Y-118136603D01*
X91857031Y-118136605D01*
X91784514Y-118311678D01*
X91784513Y-118311679D01*
X91679233Y-118469241D01*
X91545241Y-118603233D01*
X91465923Y-118656232D01*
X91387678Y-118708514D01*
X91252266Y-118764603D01*
X91212603Y-118781032D01*
X91026750Y-118818000D01*
X90837250Y-118818000D01*
X90651397Y-118781032D01*
X90611734Y-118764603D01*
X90476322Y-118708514D01*
X90398077Y-118656232D01*
X90318759Y-118603233D01*
X90184767Y-118469241D01*
X90079487Y-118311679D01*
X90079486Y-118311678D01*
X90006969Y-118136605D01*
X90006968Y-118136603D01*
X89970000Y-117950750D01*
X89970000Y-117761250D01*
X90006968Y-117575397D01*
X90023397Y-117535734D01*
X90079486Y-117400322D01*
X90184766Y-117242761D01*
X90184767Y-117242759D01*
X90318759Y-117108767D01*
X90476321Y-117003487D01*
X90476322Y-117003486D01*
X90651395Y-116930969D01*
X90651394Y-116930969D01*
X90651397Y-116930968D01*
X90837250Y-116894000D01*
X91026750Y-116894000D01*
X91212603Y-116930968D01*
X91212603Y-116930968D01*
G37*
G36*
X101372603Y-116930968D02*
X101372606Y-116930969D01*
X101372605Y-116930969D01*
X101547678Y-117003486D01*
X101547679Y-117003487D01*
X101705241Y-117108767D01*
X101839233Y-117242759D01*
X101839234Y-117242761D01*
X101944514Y-117400322D01*
X102000603Y-117535734D01*
X102017032Y-117575397D01*
X102054000Y-117761250D01*
X102054000Y-117950750D01*
X102017032Y-118136603D01*
X102017031Y-118136605D01*
X101944514Y-118311678D01*
X101944513Y-118311679D01*
X101839233Y-118469241D01*
X101705241Y-118603233D01*
X101625923Y-118656232D01*
X101547678Y-118708514D01*
X101412266Y-118764603D01*
X101372603Y-118781032D01*
X101186750Y-118818000D01*
X100997250Y-118818000D01*
X100811397Y-118781032D01*
X100771734Y-118764603D01*
X100636322Y-118708514D01*
X100558077Y-118656232D01*
X100478759Y-118603233D01*
X100344767Y-118469241D01*
X100239487Y-118311679D01*
X100239486Y-118311678D01*
X100166969Y-118136605D01*
X100166968Y-118136603D01*
X100130000Y-117950750D01*
X100130000Y-117761250D01*
X100166968Y-117575397D01*
X100183397Y-117535734D01*
X100239486Y-117400322D01*
X100344766Y-117242761D01*
X100344767Y-117242759D01*
X100478759Y-117108767D01*
X100636321Y-117003487D01*
X100636322Y-117003486D01*
X100811395Y-116930969D01*
X100811394Y-116930969D01*
X100811397Y-116930968D01*
X100997250Y-116894000D01*
X101186750Y-116894000D01*
X101372603Y-116930968D01*
X101372603Y-116930968D01*
G37*
G36*
X96292603Y-116930968D02*
X96292606Y-116930969D01*
X96292605Y-116930969D01*
X96467678Y-117003486D01*
X96467679Y-117003487D01*
X96625241Y-117108767D01*
X96759233Y-117242759D01*
X96759234Y-117242761D01*
X96864514Y-117400322D01*
X96920603Y-117535734D01*
X96937032Y-117575397D01*
X96974000Y-117761250D01*
X96974000Y-117950750D01*
X96937032Y-118136603D01*
X96937031Y-118136605D01*
X96864514Y-118311678D01*
X96864513Y-118311679D01*
X96759233Y-118469241D01*
X96625241Y-118603233D01*
X96545923Y-118656232D01*
X96467678Y-118708514D01*
X96332266Y-118764603D01*
X96292603Y-118781032D01*
X96106750Y-118818000D01*
X95917250Y-118818000D01*
X95731397Y-118781032D01*
X95691734Y-118764603D01*
X95556322Y-118708514D01*
X95478077Y-118656232D01*
X95398759Y-118603233D01*
X95264767Y-118469241D01*
X95159487Y-118311679D01*
X95159486Y-118311678D01*
X95086969Y-118136605D01*
X95086968Y-118136603D01*
X95050000Y-117950750D01*
X95050000Y-117761250D01*
X95086968Y-117575397D01*
X95103397Y-117535734D01*
X95159486Y-117400322D01*
X95264766Y-117242761D01*
X95264767Y-117242759D01*
X95398759Y-117108767D01*
X95556321Y-117003487D01*
X95556322Y-117003486D01*
X95731395Y-116930969D01*
X95731394Y-116930969D01*
X95731397Y-116930968D01*
X95917250Y-116894000D01*
X96106750Y-116894000D01*
X96292603Y-116930968D01*
X96292603Y-116930968D01*
G37*
G36*
X101372603Y-109310968D02*
X101372606Y-109310969D01*
X101372605Y-109310969D01*
X101547678Y-109383486D01*
X101547679Y-109383487D01*
X101705241Y-109488767D01*
X101839233Y-109622759D01*
X101839234Y-109622761D01*
X101944514Y-109780322D01*
X102000603Y-109915734D01*
X102017032Y-109955397D01*
X102054000Y-110141250D01*
X102054000Y-110330750D01*
X102017032Y-110516603D01*
X102017031Y-110516605D01*
X101944514Y-110691678D01*
X101944513Y-110691679D01*
X101839233Y-110849241D01*
X101705241Y-110983233D01*
X101625923Y-111036232D01*
X101547678Y-111088514D01*
X101412266Y-111144603D01*
X101372603Y-111161032D01*
X101186750Y-111198000D01*
X100997250Y-111198000D01*
X100811397Y-111161032D01*
X100771734Y-111144603D01*
X100636322Y-111088514D01*
X100558077Y-111036232D01*
X100478759Y-110983233D01*
X100344767Y-110849241D01*
X100239487Y-110691679D01*
X100239486Y-110691678D01*
X100166969Y-110516605D01*
X100166968Y-110516603D01*
X100130000Y-110330750D01*
X100130000Y-110141250D01*
X100166968Y-109955397D01*
X100183397Y-109915734D01*
X100239486Y-109780322D01*
X100344766Y-109622761D01*
X100344767Y-109622759D01*
X100478759Y-109488767D01*
X100636321Y-109383487D01*
X100636322Y-109383486D01*
X100811395Y-109310969D01*
X100811394Y-109310969D01*
X100811397Y-109310968D01*
X100997250Y-109274000D01*
X101186750Y-109274000D01*
X101372603Y-109310968D01*
X101372603Y-109310968D01*
G37*
G36*
X91212603Y-109310968D02*
X91212606Y-109310969D01*
X91212605Y-109310969D01*
X91387678Y-109383486D01*
X91387679Y-109383487D01*
X91545241Y-109488767D01*
X91679233Y-109622759D01*
X91679234Y-109622761D01*
X91784514Y-109780322D01*
X91840603Y-109915734D01*
X91857032Y-109955397D01*
X91894000Y-110141250D01*
X91894000Y-110330750D01*
X91857032Y-110516603D01*
X91857031Y-110516605D01*
X91784514Y-110691678D01*
X91784513Y-110691679D01*
X91679233Y-110849241D01*
X91545241Y-110983233D01*
X91465923Y-111036232D01*
X91387678Y-111088514D01*
X91252266Y-111144603D01*
X91212603Y-111161032D01*
X91026750Y-111198000D01*
X90837250Y-111198000D01*
X90651397Y-111161032D01*
X90611734Y-111144603D01*
X90476322Y-111088514D01*
X90398077Y-111036232D01*
X90318759Y-110983233D01*
X90184767Y-110849241D01*
X90079487Y-110691679D01*
X90079486Y-110691678D01*
X90006969Y-110516605D01*
X90006968Y-110516603D01*
X89970000Y-110330750D01*
X89970000Y-110141250D01*
X90006968Y-109955397D01*
X90023397Y-109915734D01*
X90079486Y-109780322D01*
X90184766Y-109622761D01*
X90184767Y-109622759D01*
X90318759Y-109488767D01*
X90476321Y-109383487D01*
X90476322Y-109383486D01*
X90651395Y-109310969D01*
X90651394Y-109310969D01*
X90651397Y-109310968D01*
X90837250Y-109274000D01*
X91026750Y-109274000D01*
X91212603Y-109310968D01*
X91212603Y-109310968D01*
G37*
G36*
X75972603Y-109310968D02*
X75972606Y-109310969D01*
X75972605Y-109310969D01*
X76147678Y-109383486D01*
X76147679Y-109383487D01*
X76305241Y-109488767D01*
X76439233Y-109622759D01*
X76439234Y-109622761D01*
X76544514Y-109780322D01*
X76600603Y-109915734D01*
X76617032Y-109955397D01*
X76654000Y-110141250D01*
X76654000Y-110330750D01*
X76617032Y-110516603D01*
X76617031Y-110516605D01*
X76544514Y-110691678D01*
X76544513Y-110691679D01*
X76439233Y-110849241D01*
X76305241Y-110983233D01*
X76225923Y-111036232D01*
X76147678Y-111088514D01*
X76012266Y-111144603D01*
X75972603Y-111161032D01*
X75786750Y-111198000D01*
X75597250Y-111198000D01*
X75411397Y-111161032D01*
X75371734Y-111144603D01*
X75236322Y-111088514D01*
X75158077Y-111036232D01*
X75078759Y-110983233D01*
X74944767Y-110849241D01*
X74839487Y-110691679D01*
X74839486Y-110691678D01*
X74766969Y-110516605D01*
X74766968Y-110516603D01*
X74730000Y-110330750D01*
X74730000Y-110141250D01*
X74766968Y-109955397D01*
X74783397Y-109915734D01*
X74839486Y-109780322D01*
X74944766Y-109622761D01*
X74944767Y-109622759D01*
X75078759Y-109488767D01*
X75236321Y-109383487D01*
X75236322Y-109383486D01*
X75411395Y-109310969D01*
X75411394Y-109310969D01*
X75411397Y-109310968D01*
X75597250Y-109274000D01*
X75786750Y-109274000D01*
X75972603Y-109310968D01*
X75972603Y-109310968D01*
G37*
G36*
X86132603Y-109310968D02*
X86132606Y-109310969D01*
X86132605Y-109310969D01*
X86307678Y-109383486D01*
X86307679Y-109383487D01*
X86465241Y-109488767D01*
X86599233Y-109622759D01*
X86599234Y-109622761D01*
X86704514Y-109780322D01*
X86760603Y-109915734D01*
X86777032Y-109955397D01*
X86814000Y-110141250D01*
X86814000Y-110330750D01*
X86777032Y-110516603D01*
X86777031Y-110516605D01*
X86704514Y-110691678D01*
X86704513Y-110691679D01*
X86599233Y-110849241D01*
X86465241Y-110983233D01*
X86385923Y-111036232D01*
X86307678Y-111088514D01*
X86172266Y-111144603D01*
X86132603Y-111161032D01*
X85946750Y-111198000D01*
X85757250Y-111198000D01*
X85571397Y-111161032D01*
X85531734Y-111144603D01*
X85396322Y-111088514D01*
X85318077Y-111036232D01*
X85238759Y-110983233D01*
X85104767Y-110849241D01*
X84999487Y-110691679D01*
X84999486Y-110691678D01*
X84926969Y-110516605D01*
X84926968Y-110516603D01*
X84890000Y-110330750D01*
X84890000Y-110141250D01*
X84926968Y-109955397D01*
X84943397Y-109915734D01*
X84999486Y-109780322D01*
X85104766Y-109622761D01*
X85104767Y-109622759D01*
X85238759Y-109488767D01*
X85396321Y-109383487D01*
X85396322Y-109383486D01*
X85571395Y-109310969D01*
X85571394Y-109310969D01*
X85571397Y-109310968D01*
X85757250Y-109274000D01*
X85946750Y-109274000D01*
X86132603Y-109310968D01*
X86132603Y-109310968D01*
G37*
G36*
X96292603Y-109310968D02*
X96292606Y-109310969D01*
X96292605Y-109310969D01*
X96467678Y-109383486D01*
X96467679Y-109383487D01*
X96625241Y-109488767D01*
X96759233Y-109622759D01*
X96759234Y-109622761D01*
X96864514Y-109780322D01*
X96920603Y-109915734D01*
X96937032Y-109955397D01*
X96974000Y-110141250D01*
X96974000Y-110330750D01*
X96937032Y-110516603D01*
X96937031Y-110516605D01*
X96864514Y-110691678D01*
X96864513Y-110691679D01*
X96759233Y-110849241D01*
X96625241Y-110983233D01*
X96545923Y-111036232D01*
X96467678Y-111088514D01*
X96332266Y-111144603D01*
X96292603Y-111161032D01*
X96106750Y-111198000D01*
X95917250Y-111198000D01*
X95731397Y-111161032D01*
X95691734Y-111144603D01*
X95556322Y-111088514D01*
X95478077Y-111036232D01*
X95398759Y-110983233D01*
X95264767Y-110849241D01*
X95159487Y-110691679D01*
X95159486Y-110691678D01*
X95086969Y-110516605D01*
X95086968Y-110516603D01*
X95050000Y-110330750D01*
X95050000Y-110141250D01*
X95086968Y-109955397D01*
X95103397Y-109915734D01*
X95159486Y-109780322D01*
X95264766Y-109622761D01*
X95264767Y-109622759D01*
X95398759Y-109488767D01*
X95556321Y-109383487D01*
X95556322Y-109383486D01*
X95731395Y-109310969D01*
X95731394Y-109310969D01*
X95731397Y-109310968D01*
X95917250Y-109274000D01*
X96106750Y-109274000D01*
X96292603Y-109310968D01*
X96292603Y-109310968D01*
G37*
G36*
X81052603Y-109310968D02*
X81052606Y-109310969D01*
X81052605Y-109310969D01*
X81227678Y-109383486D01*
X81227679Y-109383487D01*
X81385241Y-109488767D01*
X81519233Y-109622759D01*
X81519234Y-109622761D01*
X81624514Y-109780322D01*
X81680603Y-109915734D01*
X81697032Y-109955397D01*
X81734000Y-110141250D01*
X81734000Y-110330750D01*
X81697032Y-110516603D01*
X81697031Y-110516605D01*
X81624514Y-110691678D01*
X81624513Y-110691679D01*
X81519233Y-110849241D01*
X81385241Y-110983233D01*
X81305923Y-111036232D01*
X81227678Y-111088514D01*
X81092266Y-111144603D01*
X81052603Y-111161032D01*
X80866750Y-111198000D01*
X80677250Y-111198000D01*
X80491397Y-111161032D01*
X80451734Y-111144603D01*
X80316322Y-111088514D01*
X80238077Y-111036232D01*
X80158759Y-110983233D01*
X80024767Y-110849241D01*
X79919487Y-110691679D01*
X79919486Y-110691678D01*
X79846969Y-110516605D01*
X79846968Y-110516603D01*
X79810000Y-110330750D01*
X79810000Y-110141250D01*
X79846968Y-109955397D01*
X79863397Y-109915734D01*
X79919486Y-109780322D01*
X80024766Y-109622761D01*
X80024767Y-109622759D01*
X80158759Y-109488767D01*
X80316321Y-109383487D01*
X80316322Y-109383486D01*
X80491395Y-109310969D01*
X80491394Y-109310969D01*
X80491397Y-109310968D01*
X80677250Y-109274000D01*
X80866750Y-109274000D01*
X81052603Y-109310968D01*
X81052603Y-109310968D01*
G37*
G36*
X96292603Y-106770968D02*
X96292606Y-106770969D01*
X96292605Y-106770969D01*
X96467678Y-106843486D01*
X96467679Y-106843487D01*
X96625241Y-106948767D01*
X96759233Y-107082759D01*
X96759234Y-107082761D01*
X96864514Y-107240322D01*
X96920603Y-107375734D01*
X96937032Y-107415397D01*
X96974000Y-107601250D01*
X96974000Y-107790750D01*
X96937032Y-107976603D01*
X96937031Y-107976605D01*
X96864514Y-108151678D01*
X96864513Y-108151679D01*
X96759233Y-108309241D01*
X96625241Y-108443233D01*
X96545923Y-108496232D01*
X96467678Y-108548514D01*
X96332266Y-108604603D01*
X96292603Y-108621032D01*
X96106750Y-108658000D01*
X95917250Y-108658000D01*
X95731397Y-108621032D01*
X95691734Y-108604603D01*
X95556322Y-108548514D01*
X95478077Y-108496232D01*
X95398759Y-108443233D01*
X95264767Y-108309241D01*
X95159487Y-108151679D01*
X95159486Y-108151678D01*
X95086969Y-107976605D01*
X95086968Y-107976603D01*
X95050000Y-107790750D01*
X95050000Y-107601250D01*
X95086968Y-107415397D01*
X95103397Y-107375734D01*
X95159486Y-107240322D01*
X95264766Y-107082761D01*
X95264767Y-107082759D01*
X95398759Y-106948767D01*
X95556321Y-106843487D01*
X95556322Y-106843486D01*
X95731395Y-106770969D01*
X95731394Y-106770969D01*
X95731397Y-106770968D01*
X95917250Y-106734000D01*
X96106750Y-106734000D01*
X96292603Y-106770968D01*
X96292603Y-106770968D01*
G37*
G36*
X75972603Y-106770968D02*
X75972606Y-106770969D01*
X75972605Y-106770969D01*
X76147678Y-106843486D01*
X76147679Y-106843487D01*
X76305241Y-106948767D01*
X76439233Y-107082759D01*
X76439234Y-107082761D01*
X76544514Y-107240322D01*
X76600603Y-107375734D01*
X76617032Y-107415397D01*
X76654000Y-107601250D01*
X76654000Y-107790750D01*
X76617032Y-107976603D01*
X76617031Y-107976605D01*
X76544514Y-108151678D01*
X76544513Y-108151679D01*
X76439233Y-108309241D01*
X76305241Y-108443233D01*
X76225923Y-108496232D01*
X76147678Y-108548514D01*
X76012266Y-108604603D01*
X75972603Y-108621032D01*
X75786750Y-108658000D01*
X75597250Y-108658000D01*
X75411397Y-108621032D01*
X75371734Y-108604603D01*
X75236322Y-108548514D01*
X75158077Y-108496232D01*
X75078759Y-108443233D01*
X74944767Y-108309241D01*
X74839487Y-108151679D01*
X74839486Y-108151678D01*
X74766969Y-107976605D01*
X74766968Y-107976603D01*
X74730000Y-107790750D01*
X74730000Y-107601250D01*
X74766968Y-107415397D01*
X74783397Y-107375734D01*
X74839486Y-107240322D01*
X74944766Y-107082761D01*
X74944767Y-107082759D01*
X75078759Y-106948767D01*
X75236321Y-106843487D01*
X75236322Y-106843486D01*
X75411395Y-106770969D01*
X75411394Y-106770969D01*
X75411397Y-106770968D01*
X75597250Y-106734000D01*
X75786750Y-106734000D01*
X75972603Y-106770968D01*
X75972603Y-106770968D01*
G37*
G36*
X81734000Y-108658000D02*
X79810000Y-108658000D01*
X79810000Y-106734000D01*
X81734000Y-106734000D01*
X81734000Y-108658000D01*
X81734000Y-108658000D01*
G37*
G36*
X102054000Y-108658000D02*
X100130000Y-108658000D01*
X100130000Y-106734000D01*
X102054000Y-106734000D01*
X102054000Y-108658000D01*
X102054000Y-108658000D01*
G37*
G36*
X91894000Y-108658000D02*
X89970000Y-108658000D01*
X89970000Y-106734000D01*
X91894000Y-106734000D01*
X91894000Y-108658000D01*
X91894000Y-108658000D01*
G37*
G36*
X86132603Y-106770968D02*
X86132606Y-106770969D01*
X86132605Y-106770969D01*
X86307678Y-106843486D01*
X86307679Y-106843487D01*
X86465241Y-106948767D01*
X86599233Y-107082759D01*
X86599234Y-107082761D01*
X86704514Y-107240322D01*
X86760603Y-107375734D01*
X86777032Y-107415397D01*
X86814000Y-107601250D01*
X86814000Y-107790750D01*
X86777032Y-107976603D01*
X86777031Y-107976605D01*
X86704514Y-108151678D01*
X86704513Y-108151679D01*
X86599233Y-108309241D01*
X86465241Y-108443233D01*
X86385923Y-108496232D01*
X86307678Y-108548514D01*
X86172266Y-108604603D01*
X86132603Y-108621032D01*
X85946750Y-108658000D01*
X85757250Y-108658000D01*
X85571397Y-108621032D01*
X85531734Y-108604603D01*
X85396322Y-108548514D01*
X85318077Y-108496232D01*
X85238759Y-108443233D01*
X85104767Y-108309241D01*
X84999487Y-108151679D01*
X84999486Y-108151678D01*
X84926969Y-107976605D01*
X84926968Y-107976603D01*
X84890000Y-107790750D01*
X84890000Y-107601250D01*
X84926968Y-107415397D01*
X84943397Y-107375734D01*
X84999486Y-107240322D01*
X85104766Y-107082761D01*
X85104767Y-107082759D01*
X85238759Y-106948767D01*
X85396321Y-106843487D01*
X85396322Y-106843486D01*
X85571395Y-106770969D01*
X85571394Y-106770969D01*
X85571397Y-106770968D01*
X85757250Y-106734000D01*
X85946750Y-106734000D01*
X86132603Y-106770968D01*
X86132603Y-106770968D01*
G37*
G36*
X100202000Y-105177166D02*
X100204402Y-105201552D01*
X100211515Y-105225001D01*
X100223066Y-105246612D01*
X100238612Y-105265554D01*
X100257554Y-105281100D01*
X100279165Y-105292651D01*
X100302614Y-105299764D01*
X100327000Y-105302166D01*
X100351386Y-105299764D01*
X100374835Y-105292651D01*
X100396446Y-105281100D01*
X100415388Y-105265554D01*
X100430934Y-105246612D01*
X100437240Y-105236090D01*
X100460686Y-105192225D01*
X100492482Y-105153482D01*
X100531225Y-105121686D01*
X100575415Y-105098066D01*
X100623378Y-105083517D01*
X100679391Y-105078000D01*
X101504609Y-105078000D01*
X101560622Y-105083517D01*
X101608585Y-105098066D01*
X101652775Y-105121686D01*
X101691518Y-105153482D01*
X101723314Y-105192225D01*
X101746934Y-105236415D01*
X101761483Y-105284378D01*
X101767000Y-105340391D01*
X101767000Y-106090609D01*
X101761483Y-106146622D01*
X101746934Y-106194585D01*
X101723314Y-106238775D01*
X101691518Y-106277518D01*
X101652775Y-106309314D01*
X101608585Y-106332934D01*
X101560622Y-106347483D01*
X101504609Y-106353000D01*
X100679391Y-106353000D01*
X100623378Y-106347483D01*
X100575415Y-106332934D01*
X100531225Y-106309314D01*
X100492482Y-106277518D01*
X100460686Y-106238775D01*
X100437240Y-106194910D01*
X100423627Y-106174535D01*
X100406299Y-106157208D01*
X100385925Y-106143594D01*
X100363286Y-106134217D01*
X100339252Y-106129436D01*
X100314748Y-106129436D01*
X100290715Y-106134216D01*
X100268076Y-106143594D01*
X100247701Y-106157207D01*
X100230374Y-106174535D01*
X100216760Y-106194909D01*
X100215480Y-106198000D01*
X98902000Y-106198000D01*
X98902000Y-104998000D01*
X100202000Y-104998000D01*
X100202000Y-105177166D01*
X100202000Y-105177166D01*
G37*
G36*
X79882000Y-106198000D02*
X78582000Y-106198000D01*
X78582000Y-104998000D01*
X79882000Y-104998000D01*
X79882000Y-106198000D01*
X79882000Y-106198000D01*
G37*
G36*
X90042000Y-106198000D02*
X88742000Y-106198000D01*
X88742000Y-104998000D01*
X90042000Y-104998000D01*
X90042000Y-106198000D01*
X90042000Y-106198000D01*
G37*
G36*
X81748622Y-104803517D02*
X81796585Y-104818066D01*
X81840775Y-104841686D01*
X81879518Y-104873482D01*
X81911314Y-104912225D01*
X81934934Y-104956415D01*
X81949483Y-105004378D01*
X81955000Y-105060391D01*
X81955000Y-105810609D01*
X81949483Y-105866622D01*
X81934934Y-105914585D01*
X81911314Y-105958775D01*
X81879518Y-105997518D01*
X81840775Y-106029314D01*
X81796585Y-106052934D01*
X81748622Y-106067483D01*
X81692609Y-106073000D01*
X80867391Y-106073000D01*
X80811378Y-106067483D01*
X80763415Y-106052934D01*
X80719225Y-106029314D01*
X80680482Y-105997518D01*
X80648686Y-105958775D01*
X80625066Y-105914585D01*
X80610517Y-105866622D01*
X80605000Y-105810609D01*
X80605000Y-105060391D01*
X80610517Y-105004378D01*
X80625066Y-104956415D01*
X80648686Y-104912225D01*
X80680482Y-104873482D01*
X80719225Y-104841686D01*
X80763415Y-104818066D01*
X80811378Y-104803517D01*
X80867391Y-104798000D01*
X81692609Y-104798000D01*
X81748622Y-104803517D01*
X81748622Y-104803517D01*
G37*
G36*
X91908622Y-104777517D02*
X91956585Y-104792066D01*
X92000775Y-104815686D01*
X92039518Y-104847482D01*
X92071314Y-104886225D01*
X92094934Y-104930415D01*
X92109483Y-104978378D01*
X92115000Y-105034391D01*
X92115000Y-105784609D01*
X92109483Y-105840622D01*
X92094934Y-105888585D01*
X92071314Y-105932775D01*
X92039518Y-105971518D01*
X92000775Y-106003314D01*
X91956585Y-106026934D01*
X91908622Y-106041483D01*
X91852609Y-106047000D01*
X91027391Y-106047000D01*
X90971378Y-106041483D01*
X90923415Y-106026934D01*
X90879225Y-106003314D01*
X90840482Y-105971518D01*
X90808686Y-105932775D01*
X90785066Y-105888585D01*
X90770517Y-105840622D01*
X90765000Y-105784609D01*
X90765000Y-105034391D01*
X90770517Y-104978378D01*
X90785066Y-104930415D01*
X90808686Y-104886225D01*
X90840482Y-104847482D01*
X90879225Y-104815686D01*
X90923415Y-104792066D01*
X90971378Y-104777517D01*
X91027391Y-104772000D01*
X91852609Y-104772000D01*
X91908622Y-104777517D01*
X91908622Y-104777517D01*
G37*
G36*
X96562000Y-105910000D02*
X95462000Y-105910000D01*
X95462000Y-104910000D01*
X96562000Y-104910000D01*
X96562000Y-105910000D01*
X96562000Y-105910000D01*
G37*
G36*
X86402000Y-105848000D02*
X85302000Y-105848000D01*
X85302000Y-104848000D01*
X86402000Y-104848000D01*
X86402000Y-105848000D01*
X86402000Y-105848000D01*
G37*
G36*
X76242000Y-105786000D02*
X75142000Y-105786000D01*
X75142000Y-104786000D01*
X76242000Y-104786000D01*
X76242000Y-105786000D01*
X76242000Y-105786000D01*
G37*
G36*
X77882000Y-105248000D02*
X76582000Y-105248000D01*
X76582000Y-104048000D01*
X77882000Y-104048000D01*
X77882000Y-105248000D01*
X77882000Y-105248000D01*
G37*
G36*
X98202000Y-105248000D02*
X96902000Y-105248000D01*
X96902000Y-104048000D01*
X98202000Y-104048000D01*
X98202000Y-105248000D01*
X98202000Y-105248000D01*
G37*
G36*
X88042000Y-105248000D02*
X86742000Y-105248000D01*
X86742000Y-104048000D01*
X88042000Y-104048000D01*
X88042000Y-105248000D01*
X88042000Y-105248000D01*
G37*
G36*
X99796122Y-100168517D02*
X99844085Y-100183066D01*
X99888275Y-100206686D01*
X99927018Y-100238482D01*
X99958814Y-100277225D01*
X99982434Y-100321415D01*
X99996983Y-100369378D01*
X100002500Y-100425391D01*
X100002500Y-101250609D01*
X99996983Y-101306622D01*
X99982434Y-101354585D01*
X99958814Y-101398775D01*
X99927018Y-101437518D01*
X99888275Y-101469314D01*
X99843461Y-101493267D01*
X99822119Y-101502108D01*
X99801745Y-101515722D01*
X99784418Y-101533050D01*
X99770805Y-101553425D01*
X99761428Y-101576064D01*
X99756648Y-101600097D01*
X99756648Y-101624602D01*
X99761429Y-101648635D01*
X99770807Y-101671274D01*
X99784421Y-101691648D01*
X99801749Y-101708975D01*
X99822122Y-101722588D01*
X99837279Y-101730689D01*
X99876018Y-101762482D01*
X99907814Y-101801225D01*
X99931434Y-101845415D01*
X99945983Y-101893378D01*
X99951500Y-101949391D01*
X99951500Y-102774609D01*
X99945983Y-102830622D01*
X99931434Y-102878583D01*
X99912463Y-102914077D01*
X99903086Y-102936716D01*
X99898306Y-102960749D01*
X99898306Y-102985254D01*
X99903087Y-103009287D01*
X99912464Y-103031926D01*
X99926079Y-103052300D01*
X99943406Y-103069627D01*
X99963781Y-103083241D01*
X99986420Y-103092618D01*
X100022704Y-103098000D01*
X100202000Y-103098000D01*
X100202000Y-103602166D01*
X100204402Y-103626552D01*
X100211515Y-103650001D01*
X100223066Y-103671612D01*
X100238612Y-103690554D01*
X100257554Y-103706100D01*
X100279165Y-103717651D01*
X100302614Y-103724764D01*
X100327000Y-103727166D01*
X100351386Y-103724764D01*
X100374835Y-103717651D01*
X100396446Y-103706100D01*
X100415388Y-103690554D01*
X100430934Y-103671612D01*
X100437240Y-103661090D01*
X100460686Y-103617225D01*
X100492482Y-103578482D01*
X100531225Y-103546686D01*
X100575415Y-103523066D01*
X100623378Y-103508517D01*
X100679391Y-103503000D01*
X101504609Y-103503000D01*
X101560622Y-103508517D01*
X101608585Y-103523066D01*
X101652775Y-103546686D01*
X101691518Y-103578482D01*
X101723314Y-103617225D01*
X101746934Y-103661415D01*
X101761483Y-103709378D01*
X101767000Y-103765391D01*
X101767000Y-104515609D01*
X101761483Y-104571622D01*
X101746934Y-104619585D01*
X101723314Y-104663775D01*
X101691518Y-104702518D01*
X101652775Y-104734314D01*
X101608585Y-104757934D01*
X101560622Y-104772483D01*
X101504609Y-104778000D01*
X100679391Y-104778000D01*
X100623378Y-104772483D01*
X100575415Y-104757934D01*
X100531225Y-104734314D01*
X100492482Y-104702518D01*
X100460686Y-104663775D01*
X100437066Y-104619585D01*
X100422517Y-104571622D01*
X100417000Y-104515609D01*
X100417000Y-104423000D01*
X100414598Y-104398614D01*
X100407485Y-104375165D01*
X100395934Y-104353554D01*
X100380388Y-104334612D01*
X100361446Y-104319066D01*
X100339835Y-104307515D01*
X100316386Y-104300402D01*
X100292000Y-104298000D01*
X98902000Y-104298000D01*
X98902000Y-103127713D01*
X98899598Y-103103327D01*
X98892485Y-103079878D01*
X98880934Y-103058267D01*
X98865388Y-103039325D01*
X98846446Y-103023779D01*
X98835924Y-103017473D01*
X98790725Y-102993314D01*
X98751982Y-102961518D01*
X98720186Y-102922775D01*
X98696566Y-102878585D01*
X98682017Y-102830622D01*
X98676500Y-102774609D01*
X98676500Y-101949391D01*
X98682017Y-101893378D01*
X98696566Y-101845415D01*
X98720186Y-101801225D01*
X98751982Y-101762482D01*
X98790725Y-101730686D01*
X98835539Y-101706733D01*
X98856881Y-101697892D01*
X98877255Y-101684278D01*
X98894582Y-101666950D01*
X98908195Y-101646575D01*
X98917572Y-101623936D01*
X98922352Y-101599903D01*
X98922352Y-101575398D01*
X98917571Y-101551365D01*
X98908193Y-101528726D01*
X98894579Y-101508352D01*
X98877251Y-101491025D01*
X98856878Y-101477412D01*
X98841721Y-101469311D01*
X98802982Y-101437518D01*
X98771186Y-101398775D01*
X98747566Y-101354585D01*
X98733017Y-101306622D01*
X98727500Y-101250609D01*
X98727500Y-100425391D01*
X98733017Y-100369378D01*
X98747566Y-100321415D01*
X98771186Y-100277225D01*
X98802982Y-100238482D01*
X98841725Y-100206686D01*
X98885915Y-100183066D01*
X98933878Y-100168517D01*
X98989891Y-100163000D01*
X99740109Y-100163000D01*
X99796122Y-100168517D01*
X99796122Y-100168517D01*
G37*
G36*
X96562000Y-104510000D02*
X95462000Y-104510000D01*
X95462000Y-103510000D01*
X96562000Y-103510000D01*
X96562000Y-104510000D01*
X96562000Y-104510000D01*
G37*
G36*
X81748622Y-103228517D02*
X81796585Y-103243066D01*
X81840775Y-103266686D01*
X81879518Y-103298482D01*
X81911314Y-103337225D01*
X81934934Y-103381415D01*
X81949483Y-103429378D01*
X81955000Y-103485391D01*
X81955000Y-104235609D01*
X81949483Y-104291622D01*
X81934934Y-104339585D01*
X81911314Y-104383775D01*
X81879518Y-104422518D01*
X81840775Y-104454314D01*
X81796585Y-104477934D01*
X81748622Y-104492483D01*
X81692609Y-104498000D01*
X80867391Y-104498000D01*
X80811378Y-104492483D01*
X80763415Y-104477934D01*
X80719225Y-104454314D01*
X80680482Y-104422518D01*
X80648686Y-104383775D01*
X80625066Y-104339585D01*
X80610517Y-104291622D01*
X80605000Y-104235609D01*
X80605000Y-103485391D01*
X80610517Y-103429378D01*
X80625066Y-103381415D01*
X80648686Y-103337225D01*
X80680482Y-103298482D01*
X80719225Y-103266686D01*
X80763415Y-103243066D01*
X80811378Y-103228517D01*
X80867391Y-103223000D01*
X81692609Y-103223000D01*
X81748622Y-103228517D01*
X81748622Y-103228517D01*
G37*
G36*
X91908622Y-103202517D02*
X91956585Y-103217066D01*
X92000775Y-103240686D01*
X92039518Y-103272482D01*
X92071314Y-103311225D01*
X92094934Y-103355415D01*
X92109483Y-103403378D01*
X92115000Y-103459391D01*
X92115000Y-104209609D01*
X92109483Y-104265622D01*
X92094934Y-104313585D01*
X92071314Y-104357775D01*
X92039518Y-104396518D01*
X92000775Y-104428314D01*
X91956585Y-104451934D01*
X91908622Y-104466483D01*
X91852609Y-104472000D01*
X91027391Y-104472000D01*
X90971378Y-104466483D01*
X90923415Y-104451934D01*
X90879225Y-104428314D01*
X90840482Y-104396518D01*
X90808686Y-104357775D01*
X90785066Y-104313585D01*
X90770517Y-104265622D01*
X90765000Y-104209609D01*
X90765000Y-103459391D01*
X90770517Y-103403378D01*
X90785066Y-103355415D01*
X90808686Y-103311225D01*
X90840482Y-103272482D01*
X90879225Y-103240686D01*
X90923415Y-103217066D01*
X90971378Y-103202517D01*
X91027391Y-103197000D01*
X91852609Y-103197000D01*
X91908622Y-103202517D01*
X91908622Y-103202517D01*
G37*
G36*
X86402000Y-104448000D02*
X85302000Y-104448000D01*
X85302000Y-103448000D01*
X86402000Y-103448000D01*
X86402000Y-104448000D01*
X86402000Y-104448000D01*
G37*
G36*
X76242000Y-104386000D02*
X75142000Y-104386000D01*
X75142000Y-103386000D01*
X76242000Y-103386000D01*
X76242000Y-104386000D01*
X76242000Y-104386000D01*
G37*
G36*
X79882000Y-104298000D02*
X78582000Y-104298000D01*
X78582000Y-103098000D01*
X79882000Y-103098000D01*
X79882000Y-104298000D01*
X79882000Y-104298000D01*
G37*
G36*
X90042000Y-104298000D02*
X88742000Y-104298000D01*
X88742000Y-103098000D01*
X90042000Y-103098000D01*
X90042000Y-104298000D01*
X90042000Y-104298000D01*
G37*
G36*
X98221122Y-100168517D02*
X98269085Y-100183066D01*
X98313275Y-100206686D01*
X98352018Y-100238482D01*
X98383814Y-100277225D01*
X98407434Y-100321415D01*
X98421983Y-100369378D01*
X98427500Y-100425391D01*
X98427500Y-101250609D01*
X98421983Y-101306622D01*
X98407434Y-101354585D01*
X98383814Y-101398775D01*
X98352018Y-101437518D01*
X98313275Y-101469314D01*
X98268461Y-101493267D01*
X98247119Y-101502108D01*
X98226745Y-101515722D01*
X98209418Y-101533050D01*
X98195805Y-101553425D01*
X98186428Y-101576064D01*
X98181648Y-101600097D01*
X98181648Y-101624602D01*
X98186429Y-101648635D01*
X98195807Y-101671274D01*
X98209421Y-101691648D01*
X98226749Y-101708975D01*
X98247122Y-101722588D01*
X98262279Y-101730689D01*
X98301018Y-101762482D01*
X98332814Y-101801225D01*
X98356434Y-101845415D01*
X98370983Y-101893378D01*
X98376500Y-101949391D01*
X98376500Y-102774609D01*
X98370983Y-102830622D01*
X98356434Y-102878585D01*
X98332814Y-102922775D01*
X98301018Y-102961518D01*
X98262275Y-102993314D01*
X98218085Y-103016934D01*
X98170122Y-103031483D01*
X98114109Y-103037000D01*
X97363891Y-103037000D01*
X97307878Y-103031483D01*
X97259915Y-103016934D01*
X97215725Y-102993314D01*
X97176982Y-102961518D01*
X97145186Y-102922775D01*
X97121566Y-102878585D01*
X97107017Y-102830622D01*
X97101500Y-102774609D01*
X97101500Y-101949391D01*
X97107017Y-101893378D01*
X97121566Y-101845415D01*
X97145186Y-101801225D01*
X97176982Y-101762482D01*
X97215725Y-101730686D01*
X97260539Y-101706733D01*
X97281881Y-101697892D01*
X97302255Y-101684278D01*
X97319582Y-101666950D01*
X97333195Y-101646575D01*
X97342572Y-101623936D01*
X97347352Y-101599903D01*
X97347352Y-101575398D01*
X97342571Y-101551365D01*
X97333193Y-101528726D01*
X97319579Y-101508352D01*
X97302251Y-101491025D01*
X97281878Y-101477412D01*
X97266721Y-101469311D01*
X97227982Y-101437518D01*
X97196186Y-101398775D01*
X97172566Y-101354585D01*
X97158017Y-101306622D01*
X97152500Y-101250609D01*
X97152500Y-100425391D01*
X97158017Y-100369378D01*
X97172566Y-100321415D01*
X97196186Y-100277225D01*
X97227982Y-100238482D01*
X97266725Y-100206686D01*
X97310915Y-100183066D01*
X97358878Y-100168517D01*
X97414891Y-100163000D01*
X98165109Y-100163000D01*
X98221122Y-100168517D01*
X98221122Y-100168517D01*
G37*
G36*
X93724481Y-99815855D02*
X93924118Y-99855565D01*
X94101564Y-99929066D01*
X94206201Y-99972408D01*
X94460071Y-100142038D01*
X94675962Y-100357929D01*
X94845592Y-100611799D01*
X94845592Y-100611800D01*
X94962435Y-100893882D01*
X94962435Y-100893884D01*
X95022000Y-101193337D01*
X95022000Y-101498663D01*
X95020073Y-101508352D01*
X94962435Y-101798118D01*
X94902188Y-101943565D01*
X94845592Y-102080201D01*
X94675962Y-102334071D01*
X94460071Y-102549962D01*
X94206201Y-102719592D01*
X94112173Y-102758540D01*
X93924118Y-102836435D01*
X93724481Y-102876145D01*
X93624663Y-102896000D01*
X93319337Y-102896000D01*
X93219519Y-102876145D01*
X93019882Y-102836435D01*
X92831827Y-102758540D01*
X92737799Y-102719592D01*
X92483929Y-102549962D01*
X92268038Y-102334071D01*
X92098408Y-102080201D01*
X92041812Y-101943565D01*
X91981565Y-101798118D01*
X91923927Y-101508352D01*
X91922000Y-101498663D01*
X91922000Y-101193337D01*
X91981565Y-100893884D01*
X91981565Y-100893882D01*
X92098408Y-100611800D01*
X92098408Y-100611799D01*
X92268038Y-100357929D01*
X92483929Y-100142038D01*
X92737799Y-99972408D01*
X92842436Y-99929066D01*
X93019882Y-99855565D01*
X93219519Y-99815855D01*
X93319337Y-99796000D01*
X93624663Y-99796000D01*
X93724481Y-99815855D01*
X93724481Y-99815855D01*
G37*
G36*
X83564481Y-99815855D02*
X83764118Y-99855565D01*
X83941564Y-99929066D01*
X84046201Y-99972408D01*
X84300071Y-100142038D01*
X84515962Y-100357929D01*
X84685592Y-100611799D01*
X84685592Y-100611800D01*
X84802435Y-100893882D01*
X84802435Y-100893884D01*
X84862000Y-101193337D01*
X84862000Y-101498663D01*
X84860073Y-101508352D01*
X84802435Y-101798118D01*
X84742188Y-101943565D01*
X84685592Y-102080201D01*
X84515962Y-102334071D01*
X84300071Y-102549962D01*
X84046201Y-102719592D01*
X83952173Y-102758540D01*
X83764118Y-102836435D01*
X83564481Y-102876145D01*
X83464663Y-102896000D01*
X83159337Y-102896000D01*
X83059519Y-102876145D01*
X82859882Y-102836435D01*
X82671827Y-102758540D01*
X82577799Y-102719592D01*
X82323929Y-102549962D01*
X82108038Y-102334071D01*
X81938408Y-102080201D01*
X81881812Y-101943565D01*
X81821565Y-101798118D01*
X81763927Y-101508352D01*
X81762000Y-101498663D01*
X81762000Y-101193337D01*
X81821565Y-100893884D01*
X81821565Y-100893882D01*
X81938408Y-100611800D01*
X81938408Y-100611799D01*
X82108038Y-100357929D01*
X82323929Y-100142038D01*
X82577799Y-99972408D01*
X82682436Y-99929066D01*
X82859882Y-99855565D01*
X83059519Y-99815855D01*
X83159337Y-99796000D01*
X83464663Y-99796000D01*
X83564481Y-99815855D01*
X83564481Y-99815855D01*
G37*
G36*
X81632000Y-99852000D02*
X79984342Y-99852000D01*
X79959956Y-99854402D01*
X79936507Y-99861515D01*
X79914896Y-99873066D01*
X79895954Y-99888612D01*
X79880408Y-99907554D01*
X79868857Y-99929165D01*
X79861744Y-99952614D01*
X79859342Y-99977000D01*
X79861744Y-100001386D01*
X79874101Y-100035923D01*
X79890934Y-100067417D01*
X79905483Y-100115378D01*
X79911000Y-100171391D01*
X79911000Y-100996609D01*
X79905483Y-101052622D01*
X79890934Y-101100585D01*
X79867314Y-101144775D01*
X79835518Y-101183518D01*
X79796777Y-101215312D01*
X79758522Y-101235760D01*
X79738148Y-101249374D01*
X79720821Y-101266701D01*
X79707207Y-101287075D01*
X79697829Y-101309714D01*
X79693049Y-101333748D01*
X79693049Y-101358252D01*
X79697829Y-101382286D01*
X79707207Y-101404925D01*
X79720821Y-101425299D01*
X79738148Y-101442626D01*
X79758522Y-101456240D01*
X79796777Y-101476688D01*
X79835518Y-101508482D01*
X79867314Y-101547225D01*
X79890934Y-101591415D01*
X79905483Y-101639378D01*
X79911000Y-101695391D01*
X79911000Y-102520609D01*
X79905483Y-102576622D01*
X79890934Y-102624585D01*
X79867314Y-102668775D01*
X79835518Y-102707518D01*
X79796775Y-102739314D01*
X79752585Y-102762934D01*
X79704622Y-102777483D01*
X79648609Y-102783000D01*
X78898391Y-102783000D01*
X78842378Y-102777483D01*
X78794415Y-102762934D01*
X78750225Y-102739314D01*
X78711482Y-102707518D01*
X78679686Y-102668775D01*
X78656066Y-102624585D01*
X78641517Y-102576622D01*
X78636000Y-102520609D01*
X78636000Y-101695391D01*
X78641517Y-101639378D01*
X78656066Y-101591415D01*
X78679686Y-101547225D01*
X78711482Y-101508482D01*
X78750223Y-101476688D01*
X78788478Y-101456240D01*
X78808852Y-101442626D01*
X78826179Y-101425299D01*
X78839793Y-101404925D01*
X78849171Y-101382286D01*
X78853951Y-101358252D01*
X78853951Y-101333748D01*
X78849171Y-101309714D01*
X78839793Y-101287075D01*
X78826179Y-101266701D01*
X78808852Y-101249374D01*
X78788478Y-101235760D01*
X78750223Y-101215312D01*
X78711482Y-101183518D01*
X78679686Y-101144775D01*
X78656066Y-101100585D01*
X78641517Y-101052622D01*
X78636000Y-100996609D01*
X78636000Y-100171391D01*
X78641517Y-100115378D01*
X78656066Y-100067415D01*
X78679686Y-100023225D01*
X78711482Y-99984482D01*
X78750225Y-99952686D01*
X78794415Y-99929066D01*
X78842378Y-99914517D01*
X78898391Y-99909000D01*
X79207000Y-99909000D01*
X79231386Y-99906598D01*
X79254835Y-99899485D01*
X79276446Y-99887934D01*
X79295388Y-99872388D01*
X79310934Y-99853446D01*
X79322485Y-99831835D01*
X79329598Y-99808386D01*
X79332000Y-99784000D01*
X79332000Y-97552000D01*
X81632000Y-97552000D01*
X81632000Y-99852000D01*
X81632000Y-99852000D01*
G37*
G36*
X88289622Y-99914517D02*
X88337585Y-99929066D01*
X88381775Y-99952686D01*
X88420518Y-99984482D01*
X88452314Y-100023225D01*
X88475934Y-100067415D01*
X88490483Y-100115378D01*
X88496000Y-100171391D01*
X88496000Y-100996609D01*
X88490483Y-101052622D01*
X88475934Y-101100585D01*
X88452314Y-101144775D01*
X88420518Y-101183518D01*
X88381777Y-101215312D01*
X88343522Y-101235760D01*
X88323148Y-101249374D01*
X88305821Y-101266701D01*
X88292207Y-101287075D01*
X88282829Y-101309714D01*
X88278049Y-101333748D01*
X88278049Y-101358252D01*
X88282829Y-101382286D01*
X88292207Y-101404925D01*
X88305821Y-101425299D01*
X88323148Y-101442626D01*
X88343522Y-101456240D01*
X88381777Y-101476688D01*
X88420518Y-101508482D01*
X88452314Y-101547225D01*
X88475934Y-101591415D01*
X88490483Y-101639378D01*
X88496000Y-101695391D01*
X88496000Y-102520609D01*
X88490483Y-102576622D01*
X88475934Y-102624585D01*
X88452314Y-102668775D01*
X88420518Y-102707518D01*
X88381775Y-102739314D01*
X88337585Y-102762934D01*
X88289622Y-102777483D01*
X88233609Y-102783000D01*
X87483391Y-102783000D01*
X87427378Y-102777483D01*
X87379415Y-102762934D01*
X87335225Y-102739314D01*
X87296482Y-102707518D01*
X87264686Y-102668775D01*
X87241066Y-102624585D01*
X87226517Y-102576622D01*
X87221000Y-102520609D01*
X87221000Y-101695391D01*
X87226517Y-101639378D01*
X87241066Y-101591415D01*
X87264686Y-101547225D01*
X87296482Y-101508482D01*
X87335223Y-101476688D01*
X87373478Y-101456240D01*
X87393852Y-101442626D01*
X87411179Y-101425299D01*
X87424793Y-101404925D01*
X87434171Y-101382286D01*
X87438951Y-101358252D01*
X87438951Y-101333748D01*
X87434171Y-101309714D01*
X87424793Y-101287075D01*
X87411179Y-101266701D01*
X87393852Y-101249374D01*
X87373478Y-101235760D01*
X87335223Y-101215312D01*
X87296482Y-101183518D01*
X87264686Y-101144775D01*
X87241066Y-101100585D01*
X87226517Y-101052622D01*
X87221000Y-100996609D01*
X87221000Y-100171391D01*
X87226517Y-100115378D01*
X87241066Y-100067415D01*
X87264686Y-100023225D01*
X87296482Y-99984482D01*
X87335225Y-99952686D01*
X87379415Y-99929066D01*
X87427378Y-99914517D01*
X87483391Y-99909000D01*
X88233609Y-99909000D01*
X88289622Y-99914517D01*
X88289622Y-99914517D01*
G37*
G36*
X78129622Y-99914517D02*
X78177585Y-99929066D01*
X78221775Y-99952686D01*
X78260518Y-99984482D01*
X78292314Y-100023225D01*
X78315934Y-100067415D01*
X78330483Y-100115378D01*
X78336000Y-100171391D01*
X78336000Y-100996609D01*
X78330483Y-101052622D01*
X78315934Y-101100585D01*
X78292314Y-101144775D01*
X78260518Y-101183518D01*
X78221777Y-101215312D01*
X78183522Y-101235760D01*
X78163148Y-101249374D01*
X78145821Y-101266701D01*
X78132207Y-101287075D01*
X78122829Y-101309714D01*
X78118049Y-101333748D01*
X78118049Y-101358252D01*
X78122829Y-101382286D01*
X78132207Y-101404925D01*
X78145821Y-101425299D01*
X78163148Y-101442626D01*
X78183522Y-101456240D01*
X78221777Y-101476688D01*
X78260518Y-101508482D01*
X78292314Y-101547225D01*
X78315934Y-101591415D01*
X78330483Y-101639378D01*
X78336000Y-101695391D01*
X78336000Y-102520609D01*
X78330483Y-102576622D01*
X78315934Y-102624585D01*
X78292314Y-102668775D01*
X78260518Y-102707518D01*
X78221775Y-102739314D01*
X78177585Y-102762934D01*
X78129622Y-102777483D01*
X78073609Y-102783000D01*
X77323391Y-102783000D01*
X77267378Y-102777483D01*
X77219415Y-102762934D01*
X77175225Y-102739314D01*
X77136482Y-102707518D01*
X77104686Y-102668775D01*
X77081066Y-102624585D01*
X77066517Y-102576622D01*
X77061000Y-102520609D01*
X77061000Y-101695391D01*
X77066517Y-101639378D01*
X77081066Y-101591415D01*
X77104686Y-101547225D01*
X77136482Y-101508482D01*
X77175223Y-101476688D01*
X77213478Y-101456240D01*
X77233852Y-101442626D01*
X77251179Y-101425299D01*
X77264793Y-101404925D01*
X77274171Y-101382286D01*
X77278951Y-101358252D01*
X77278951Y-101333748D01*
X77274171Y-101309714D01*
X77264793Y-101287075D01*
X77251179Y-101266701D01*
X77233852Y-101249374D01*
X77213478Y-101235760D01*
X77175223Y-101215312D01*
X77136482Y-101183518D01*
X77104686Y-101144775D01*
X77081066Y-101100585D01*
X77066517Y-101052622D01*
X77061000Y-100996609D01*
X77061000Y-100171391D01*
X77066517Y-100115378D01*
X77081066Y-100067415D01*
X77104686Y-100023225D01*
X77136482Y-99984482D01*
X77175225Y-99952686D01*
X77219415Y-99929066D01*
X77267378Y-99914517D01*
X77323391Y-99909000D01*
X78073609Y-99909000D01*
X78129622Y-99914517D01*
X78129622Y-99914517D01*
G37*
G36*
X91792000Y-99852000D02*
X90144342Y-99852000D01*
X90119956Y-99854402D01*
X90096507Y-99861515D01*
X90074896Y-99873066D01*
X90055954Y-99888612D01*
X90040408Y-99907554D01*
X90028857Y-99929165D01*
X90021744Y-99952614D01*
X90019342Y-99977000D01*
X90021744Y-100001386D01*
X90034101Y-100035923D01*
X90050934Y-100067417D01*
X90065483Y-100115378D01*
X90071000Y-100171391D01*
X90071000Y-100996609D01*
X90065483Y-101052622D01*
X90050934Y-101100585D01*
X90027314Y-101144775D01*
X89995518Y-101183518D01*
X89956777Y-101215312D01*
X89918522Y-101235760D01*
X89898148Y-101249374D01*
X89880821Y-101266701D01*
X89867207Y-101287075D01*
X89857829Y-101309714D01*
X89853049Y-101333748D01*
X89853049Y-101358252D01*
X89857829Y-101382286D01*
X89867207Y-101404925D01*
X89880821Y-101425299D01*
X89898148Y-101442626D01*
X89918522Y-101456240D01*
X89956777Y-101476688D01*
X89995518Y-101508482D01*
X90027314Y-101547225D01*
X90050934Y-101591415D01*
X90065483Y-101639378D01*
X90071000Y-101695391D01*
X90071000Y-102520609D01*
X90065483Y-102576622D01*
X90050934Y-102624585D01*
X90027314Y-102668775D01*
X89995518Y-102707518D01*
X89956775Y-102739314D01*
X89912585Y-102762934D01*
X89864622Y-102777483D01*
X89808609Y-102783000D01*
X89058391Y-102783000D01*
X89002378Y-102777483D01*
X88954415Y-102762934D01*
X88910225Y-102739314D01*
X88871482Y-102707518D01*
X88839686Y-102668775D01*
X88816066Y-102624585D01*
X88801517Y-102576622D01*
X88796000Y-102520609D01*
X88796000Y-101695391D01*
X88801517Y-101639378D01*
X88816066Y-101591415D01*
X88839686Y-101547225D01*
X88871482Y-101508482D01*
X88910223Y-101476688D01*
X88948478Y-101456240D01*
X88968852Y-101442626D01*
X88986179Y-101425299D01*
X88999793Y-101404925D01*
X89009171Y-101382286D01*
X89013951Y-101358252D01*
X89013951Y-101333748D01*
X89009171Y-101309714D01*
X88999793Y-101287075D01*
X88986179Y-101266701D01*
X88968852Y-101249374D01*
X88948478Y-101235760D01*
X88910223Y-101215312D01*
X88871482Y-101183518D01*
X88839686Y-101144775D01*
X88816066Y-101100585D01*
X88801517Y-101052622D01*
X88796000Y-100996609D01*
X88796000Y-100171391D01*
X88801517Y-100115378D01*
X88816066Y-100067415D01*
X88839686Y-100023225D01*
X88871482Y-99984482D01*
X88910225Y-99952686D01*
X88954415Y-99929066D01*
X89002378Y-99914517D01*
X89058391Y-99909000D01*
X89367000Y-99909000D01*
X89391386Y-99906598D01*
X89414835Y-99899485D01*
X89436446Y-99887934D01*
X89455388Y-99872388D01*
X89470934Y-99853446D01*
X89482485Y-99831835D01*
X89489598Y-99808386D01*
X89492000Y-99784000D01*
X89492000Y-97552000D01*
X91792000Y-97552000D01*
X91792000Y-99852000D01*
X91792000Y-99852000D01*
G37*
G36*
X86477443Y-97596194D02*
X86686728Y-97682883D01*
X86875085Y-97808739D01*
X87035261Y-97968915D01*
X87161117Y-98157272D01*
X87247806Y-98366557D01*
X87292000Y-98588734D01*
X87292000Y-98815266D01*
X87247806Y-99037443D01*
X87161117Y-99246728D01*
X87035261Y-99435085D01*
X86875085Y-99595261D01*
X86686728Y-99721117D01*
X86477443Y-99807806D01*
X86255266Y-99852000D01*
X86028734Y-99852000D01*
X85806557Y-99807806D01*
X85597272Y-99721117D01*
X85408915Y-99595261D01*
X85248739Y-99435085D01*
X85122883Y-99246728D01*
X85036194Y-99037443D01*
X84992000Y-98815266D01*
X84992000Y-98588734D01*
X85036194Y-98366557D01*
X85122883Y-98157272D01*
X85248739Y-97968915D01*
X85408915Y-97808739D01*
X85597272Y-97682883D01*
X85806557Y-97596194D01*
X86028734Y-97552000D01*
X86255266Y-97552000D01*
X86477443Y-97596194D01*
X86477443Y-97596194D01*
G37*
G36*
X101952000Y-99852000D02*
X99652000Y-99852000D01*
X99652000Y-97552000D01*
X101952000Y-97552000D01*
X101952000Y-99852000D01*
X101952000Y-99852000D01*
G37*
G36*
X96637443Y-97596194D02*
X96846728Y-97682883D01*
X97035085Y-97808739D01*
X97195261Y-97968915D01*
X97321117Y-98157272D01*
X97407806Y-98366557D01*
X97452000Y-98588734D01*
X97452000Y-98815266D01*
X97407806Y-99037443D01*
X97321117Y-99246728D01*
X97195261Y-99435085D01*
X97035085Y-99595261D01*
X96846728Y-99721117D01*
X96637443Y-99807806D01*
X96415266Y-99852000D01*
X96188734Y-99852000D01*
X95966557Y-99807806D01*
X95757272Y-99721117D01*
X95568915Y-99595261D01*
X95408739Y-99435085D01*
X95282883Y-99246728D01*
X95196194Y-99037443D01*
X95152000Y-98815266D01*
X95152000Y-98588734D01*
X95196194Y-98366557D01*
X95282883Y-98157272D01*
X95408739Y-97968915D01*
X95568915Y-97808739D01*
X95757272Y-97682883D01*
X95966557Y-97596194D01*
X96188734Y-97552000D01*
X96415266Y-97552000D01*
X96637443Y-97596194D01*
X96637443Y-97596194D01*
G37*
G36*
X76317443Y-97596194D02*
X76526728Y-97682883D01*
X76715085Y-97808739D01*
X76875261Y-97968915D01*
X77001117Y-98157272D01*
X77087806Y-98366557D01*
X77132000Y-98588734D01*
X77132000Y-98815266D01*
X77087806Y-99037443D01*
X77001117Y-99246728D01*
X76875261Y-99435085D01*
X76715085Y-99595261D01*
X76526728Y-99721117D01*
X76317443Y-99807806D01*
X76095266Y-99852000D01*
X75868734Y-99852000D01*
X75646557Y-99807806D01*
X75437272Y-99721117D01*
X75248915Y-99595261D01*
X75088739Y-99435085D01*
X74962883Y-99246728D01*
X74876194Y-99037443D01*
X74832000Y-98815266D01*
X74832000Y-98588734D01*
X74876194Y-98366557D01*
X74962883Y-98157272D01*
X75088739Y-97968915D01*
X75248915Y-97808739D01*
X75437272Y-97682883D01*
X75646557Y-97596194D01*
X75868734Y-97552000D01*
X76095266Y-97552000D01*
X76317443Y-97596194D01*
X76317443Y-97596194D01*
G37*
G36*
X101256183Y-94028900D02*
X101383574Y-94081668D01*
X101498225Y-94158275D01*
X101595725Y-94255775D01*
X101672332Y-94370426D01*
X101725100Y-94497817D01*
X101752000Y-94633055D01*
X101752000Y-94770945D01*
X101725100Y-94906183D01*
X101672332Y-95033574D01*
X101595725Y-95148225D01*
X101498225Y-95245725D01*
X101383574Y-95322332D01*
X101256183Y-95375100D01*
X101120945Y-95402000D01*
X100983055Y-95402000D01*
X100847817Y-95375100D01*
X100720426Y-95322332D01*
X100605775Y-95245725D01*
X100508275Y-95148225D01*
X100431668Y-95033574D01*
X100378900Y-94906183D01*
X100352000Y-94770945D01*
X100352000Y-94633055D01*
X100378900Y-94497817D01*
X100431668Y-94370426D01*
X100508275Y-94255775D01*
X100605775Y-94158275D01*
X100720426Y-94081668D01*
X100847817Y-94028900D01*
X100983055Y-94002000D01*
X101120945Y-94002000D01*
X101256183Y-94028900D01*
X101256183Y-94028900D01*
G37*
G36*
X80936183Y-94028900D02*
X81063574Y-94081668D01*
X81178225Y-94158275D01*
X81275725Y-94255775D01*
X81352332Y-94370426D01*
X81405100Y-94497817D01*
X81432000Y-94633055D01*
X81432000Y-94770945D01*
X81405100Y-94906183D01*
X81352332Y-95033574D01*
X81275725Y-95148225D01*
X81178225Y-95245725D01*
X81063574Y-95322332D01*
X80936183Y-95375100D01*
X80800945Y-95402000D01*
X80663055Y-95402000D01*
X80527817Y-95375100D01*
X80400426Y-95322332D01*
X80285775Y-95245725D01*
X80188275Y-95148225D01*
X80111668Y-95033574D01*
X80058900Y-94906183D01*
X80032000Y-94770945D01*
X80032000Y-94633055D01*
X80058900Y-94497817D01*
X80111668Y-94370426D01*
X80188275Y-94255775D01*
X80285775Y-94158275D01*
X80400426Y-94081668D01*
X80527817Y-94028900D01*
X80663055Y-94002000D01*
X80800945Y-94002000D01*
X80936183Y-94028900D01*
X80936183Y-94028900D01*
G37*
G36*
X75936183Y-94028900D02*
X76063574Y-94081668D01*
X76178225Y-94158275D01*
X76275725Y-94255775D01*
X76352332Y-94370426D01*
X76405100Y-94497817D01*
X76432000Y-94633055D01*
X76432000Y-94770945D01*
X76405100Y-94906183D01*
X76352332Y-95033574D01*
X76275725Y-95148225D01*
X76178225Y-95245725D01*
X76063574Y-95322332D01*
X75936183Y-95375100D01*
X75800945Y-95402000D01*
X75663055Y-95402000D01*
X75527817Y-95375100D01*
X75400426Y-95322332D01*
X75285775Y-95245725D01*
X75188275Y-95148225D01*
X75111668Y-95033574D01*
X75058900Y-94906183D01*
X75032000Y-94770945D01*
X75032000Y-94633055D01*
X75058900Y-94497817D01*
X75111668Y-94370426D01*
X75188275Y-94255775D01*
X75285775Y-94158275D01*
X75400426Y-94081668D01*
X75527817Y-94028900D01*
X75663055Y-94002000D01*
X75800945Y-94002000D01*
X75936183Y-94028900D01*
X75936183Y-94028900D01*
G37*
G36*
X96256183Y-94028900D02*
X96383574Y-94081668D01*
X96498225Y-94158275D01*
X96595725Y-94255775D01*
X96672332Y-94370426D01*
X96725100Y-94497817D01*
X96752000Y-94633055D01*
X96752000Y-94770945D01*
X96725100Y-94906183D01*
X96672332Y-95033574D01*
X96595725Y-95148225D01*
X96498225Y-95245725D01*
X96383574Y-95322332D01*
X96256183Y-95375100D01*
X96120945Y-95402000D01*
X95983055Y-95402000D01*
X95847817Y-95375100D01*
X95720426Y-95322332D01*
X95605775Y-95245725D01*
X95508275Y-95148225D01*
X95431668Y-95033574D01*
X95378900Y-94906183D01*
X95352000Y-94770945D01*
X95352000Y-94633055D01*
X95378900Y-94497817D01*
X95431668Y-94370426D01*
X95508275Y-94255775D01*
X95605775Y-94158275D01*
X95720426Y-94081668D01*
X95847817Y-94028900D01*
X95983055Y-94002000D01*
X96120945Y-94002000D01*
X96256183Y-94028900D01*
X96256183Y-94028900D01*
G37*
G36*
X91096183Y-94028900D02*
X91223574Y-94081668D01*
X91338225Y-94158275D01*
X91435725Y-94255775D01*
X91512332Y-94370426D01*
X91565100Y-94497817D01*
X91592000Y-94633055D01*
X91592000Y-94770945D01*
X91565100Y-94906183D01*
X91512332Y-95033574D01*
X91435725Y-95148225D01*
X91338225Y-95245725D01*
X91223574Y-95322332D01*
X91096183Y-95375100D01*
X90960945Y-95402000D01*
X90823055Y-95402000D01*
X90687817Y-95375100D01*
X90560426Y-95322332D01*
X90445775Y-95245725D01*
X90348275Y-95148225D01*
X90271668Y-95033574D01*
X90218900Y-94906183D01*
X90192000Y-94770945D01*
X90192000Y-94633055D01*
X90218900Y-94497817D01*
X90271668Y-94370426D01*
X90348275Y-94255775D01*
X90445775Y-94158275D01*
X90560426Y-94081668D01*
X90687817Y-94028900D01*
X90823055Y-94002000D01*
X90960945Y-94002000D01*
X91096183Y-94028900D01*
X91096183Y-94028900D01*
G37*
G36*
X86096183Y-94028900D02*
X86223574Y-94081668D01*
X86338225Y-94158275D01*
X86435725Y-94255775D01*
X86512332Y-94370426D01*
X86565100Y-94497817D01*
X86592000Y-94633055D01*
X86592000Y-94770945D01*
X86565100Y-94906183D01*
X86512332Y-95033574D01*
X86435725Y-95148225D01*
X86338225Y-95245725D01*
X86223574Y-95322332D01*
X86096183Y-95375100D01*
X85960945Y-95402000D01*
X85823055Y-95402000D01*
X85687817Y-95375100D01*
X85560426Y-95322332D01*
X85445775Y-95245725D01*
X85348275Y-95148225D01*
X85271668Y-95033574D01*
X85218900Y-94906183D01*
X85192000Y-94770945D01*
X85192000Y-94633055D01*
X85218900Y-94497817D01*
X85271668Y-94370426D01*
X85348275Y-94255775D01*
X85445775Y-94158275D01*
X85560426Y-94081668D01*
X85687817Y-94028900D01*
X85823055Y-94002000D01*
X85960945Y-94002000D01*
X86096183Y-94028900D01*
X86096183Y-94028900D01*
G37*
G36*
X85827443Y-90096194D02*
X86036728Y-90182883D01*
X86225085Y-90308739D01*
X86385261Y-90468915D01*
X86511117Y-90657272D01*
X86597806Y-90866557D01*
X86642000Y-91088734D01*
X86642000Y-91315266D01*
X86597806Y-91537443D01*
X86511117Y-91746728D01*
X86385261Y-91935085D01*
X86225085Y-92095261D01*
X86036728Y-92221117D01*
X85827443Y-92307806D01*
X85605266Y-92352000D01*
X85378734Y-92352000D01*
X85156557Y-92307806D01*
X84947272Y-92221117D01*
X84758915Y-92095261D01*
X84598739Y-91935085D01*
X84472883Y-91746728D01*
X84386194Y-91537443D01*
X84342000Y-91315266D01*
X84342000Y-91088734D01*
X84386194Y-90866557D01*
X84472883Y-90657272D01*
X84598739Y-90468915D01*
X84758915Y-90308739D01*
X84947272Y-90182883D01*
X85156557Y-90096194D01*
X85378734Y-90052000D01*
X85605266Y-90052000D01*
X85827443Y-90096194D01*
X85827443Y-90096194D01*
G37*
G36*
X81467443Y-90096194D02*
X81676728Y-90182883D01*
X81865085Y-90308739D01*
X82025261Y-90468915D01*
X82151117Y-90657272D01*
X82237806Y-90866557D01*
X82282000Y-91088734D01*
X82282000Y-91315266D01*
X82237806Y-91537443D01*
X82151117Y-91746728D01*
X82025261Y-91935085D01*
X81865085Y-92095261D01*
X81676728Y-92221117D01*
X81467443Y-92307806D01*
X81245266Y-92352000D01*
X81018734Y-92352000D01*
X80796557Y-92307806D01*
X80587272Y-92221117D01*
X80398915Y-92095261D01*
X80238739Y-91935085D01*
X80112883Y-91746728D01*
X80026194Y-91537443D01*
X79982000Y-91315266D01*
X79982000Y-91088734D01*
X80026194Y-90866557D01*
X80112883Y-90657272D01*
X80238739Y-90468915D01*
X80398915Y-90308739D01*
X80587272Y-90182883D01*
X80796557Y-90096194D01*
X81018734Y-90052000D01*
X81245266Y-90052000D01*
X81467443Y-90096194D01*
X81467443Y-90096194D01*
G37*
G36*
X75667443Y-90096194D02*
X75876728Y-90182883D01*
X76065085Y-90308739D01*
X76225261Y-90468915D01*
X76351117Y-90657272D01*
X76437806Y-90866557D01*
X76482000Y-91088734D01*
X76482000Y-91315266D01*
X76437806Y-91537443D01*
X76351117Y-91746728D01*
X76225261Y-91935085D01*
X76065085Y-92095261D01*
X75876728Y-92221117D01*
X75667443Y-92307806D01*
X75445266Y-92352000D01*
X75218734Y-92352000D01*
X74996557Y-92307806D01*
X74787272Y-92221117D01*
X74598915Y-92095261D01*
X74438739Y-91935085D01*
X74312883Y-91746728D01*
X74226194Y-91537443D01*
X74182000Y-91315266D01*
X74182000Y-91088734D01*
X74226194Y-90866557D01*
X74312883Y-90657272D01*
X74438739Y-90468915D01*
X74598915Y-90308739D01*
X74787272Y-90182883D01*
X74996557Y-90096194D01*
X75218734Y-90052000D01*
X75445266Y-90052000D01*
X75667443Y-90096194D01*
X75667443Y-90096194D01*
G37*
G36*
X91627443Y-90096194D02*
X91836728Y-90182883D01*
X92025085Y-90308739D01*
X92185261Y-90468915D01*
X92311117Y-90657272D01*
X92397806Y-90866557D01*
X92442000Y-91088734D01*
X92442000Y-91315266D01*
X92397806Y-91537443D01*
X92311117Y-91746728D01*
X92185261Y-91935085D01*
X92025085Y-92095261D01*
X91836728Y-92221117D01*
X91627443Y-92307806D01*
X91405266Y-92352000D01*
X91178734Y-92352000D01*
X90956557Y-92307806D01*
X90747272Y-92221117D01*
X90558915Y-92095261D01*
X90398739Y-91935085D01*
X90272883Y-91746728D01*
X90186194Y-91537443D01*
X90142000Y-91315266D01*
X90142000Y-91088734D01*
X90186194Y-90866557D01*
X90272883Y-90657272D01*
X90398739Y-90468915D01*
X90558915Y-90308739D01*
X90747272Y-90182883D01*
X90956557Y-90096194D01*
X91178734Y-90052000D01*
X91405266Y-90052000D01*
X91627443Y-90096194D01*
X91627443Y-90096194D01*
G37*
G36*
X95987443Y-90096194D02*
X96196728Y-90182883D01*
X96385085Y-90308739D01*
X96545261Y-90468915D01*
X96671117Y-90657272D01*
X96757806Y-90866557D01*
X96802000Y-91088734D01*
X96802000Y-91315266D01*
X96757806Y-91537443D01*
X96671117Y-91746728D01*
X96545261Y-91935085D01*
X96385085Y-92095261D01*
X96196728Y-92221117D01*
X95987443Y-92307806D01*
X95765266Y-92352000D01*
X95538734Y-92352000D01*
X95316557Y-92307806D01*
X95107272Y-92221117D01*
X94918915Y-92095261D01*
X94758739Y-91935085D01*
X94632883Y-91746728D01*
X94546194Y-91537443D01*
X94502000Y-91315266D01*
X94502000Y-91088734D01*
X94546194Y-90866557D01*
X94632883Y-90657272D01*
X94758739Y-90468915D01*
X94918915Y-90308739D01*
X95107272Y-90182883D01*
X95316557Y-90096194D01*
X95538734Y-90052000D01*
X95765266Y-90052000D01*
X95987443Y-90096194D01*
X95987443Y-90096194D01*
G37*
G36*
X101787443Y-90096194D02*
X101996728Y-90182883D01*
X102185085Y-90308739D01*
X102345261Y-90468915D01*
X102471117Y-90657272D01*
X102557806Y-90866557D01*
X102602000Y-91088734D01*
X102602000Y-91315266D01*
X102557806Y-91537443D01*
X102471117Y-91746728D01*
X102345261Y-91935085D01*
X102185085Y-92095261D01*
X101996728Y-92221117D01*
X101787443Y-92307806D01*
X101565266Y-92352000D01*
X101338734Y-92352000D01*
X101116557Y-92307806D01*
X100907272Y-92221117D01*
X100718915Y-92095261D01*
X100558739Y-91935085D01*
X100432883Y-91746728D01*
X100346194Y-91537443D01*
X100302000Y-91315266D01*
X100302000Y-91088734D01*
X100346194Y-90866557D01*
X100432883Y-90657272D01*
X100558739Y-90468915D01*
X100718915Y-90308739D01*
X100907272Y-90182883D01*
X101116557Y-90096194D01*
X101338734Y-90052000D01*
X101565266Y-90052000D01*
X101787443Y-90096194D01*
X101787443Y-90096194D01*
G37*
M02*
