G04 #@! TF.GenerationSoftware,KiCad,Pcbnew,5.0.1-33cea8e~68~ubuntu18.04.1*
G04 #@! TF.CreationDate,2018-11-09T17:01:54+09:00*
G04 #@! TF.ProjectId,relay_jacks,72656C61795F6A61636B732E6B696361,rev?*
G04 #@! TF.SameCoordinates,Original*
G04 #@! TF.FileFunction,Soldermask,Bot*
G04 #@! TF.FilePolarity,Negative*
%FSLAX46Y46*%
G04 Gerber Fmt 4.6, Leading zero omitted, Abs format (unit mm)*
G04 Created by KiCad (PCBNEW 5.0.1-33cea8e~68~ubuntu18.04.1) date 2018年11月09日 17時01分54秒*
%MOMM*%
%LPD*%
G01*
G04 APERTURE LIST*
%ADD10C,0.100000*%
G04 APERTURE END LIST*
D10*
G36*
X103006000Y-119617000D02*
X100906000Y-119617000D01*
X100906000Y-117517000D01*
X103006000Y-117517000D01*
X103006000Y-119617000D01*
X103006000Y-119617000D01*
G37*
G36*
X99544707Y-117524596D02*
X99621836Y-117532193D01*
X99753787Y-117572220D01*
X99819763Y-117592233D01*
X100002172Y-117689733D01*
X100162054Y-117820946D01*
X100293267Y-117980828D01*
X100390767Y-118163237D01*
X100390767Y-118163238D01*
X100450807Y-118361164D01*
X100471080Y-118567000D01*
X100450807Y-118772836D01*
X100410780Y-118904787D01*
X100390767Y-118970763D01*
X100293267Y-119153172D01*
X100162054Y-119313054D01*
X100002172Y-119444267D01*
X99819763Y-119541767D01*
X99753787Y-119561780D01*
X99621836Y-119601807D01*
X99544707Y-119609403D01*
X99467580Y-119617000D01*
X99364420Y-119617000D01*
X99287293Y-119609403D01*
X99210164Y-119601807D01*
X99078213Y-119561780D01*
X99012237Y-119541767D01*
X98829828Y-119444267D01*
X98669946Y-119313054D01*
X98538733Y-119153172D01*
X98441233Y-118970763D01*
X98421220Y-118904787D01*
X98381193Y-118772836D01*
X98360920Y-118567000D01*
X98381193Y-118361164D01*
X98441233Y-118163238D01*
X98441233Y-118163237D01*
X98538733Y-117980828D01*
X98669946Y-117820946D01*
X98829828Y-117689733D01*
X99012237Y-117592233D01*
X99078213Y-117572220D01*
X99210164Y-117532193D01*
X99287293Y-117524596D01*
X99364420Y-117517000D01*
X99467580Y-117517000D01*
X99544707Y-117524596D01*
X99544707Y-117524596D01*
G37*
G36*
X74957107Y-117524596D02*
X75034236Y-117532193D01*
X75166187Y-117572220D01*
X75232163Y-117592233D01*
X75414572Y-117689733D01*
X75574454Y-117820946D01*
X75705667Y-117980828D01*
X75803167Y-118163237D01*
X75803167Y-118163238D01*
X75863207Y-118361164D01*
X75883480Y-118567000D01*
X75863207Y-118772836D01*
X75823180Y-118904787D01*
X75803167Y-118970763D01*
X75705667Y-119153172D01*
X75574454Y-119313054D01*
X75414572Y-119444267D01*
X75232163Y-119541767D01*
X75166187Y-119561780D01*
X75034236Y-119601807D01*
X74957107Y-119609403D01*
X74879980Y-119617000D01*
X74776820Y-119617000D01*
X74699693Y-119609403D01*
X74622564Y-119601807D01*
X74490613Y-119561780D01*
X74424637Y-119541767D01*
X74242228Y-119444267D01*
X74082346Y-119313054D01*
X73951133Y-119153172D01*
X73853633Y-118970763D01*
X73833620Y-118904787D01*
X73793593Y-118772836D01*
X73773320Y-118567000D01*
X73793593Y-118361164D01*
X73853633Y-118163238D01*
X73853633Y-118163237D01*
X73951133Y-117980828D01*
X74082346Y-117820946D01*
X74242228Y-117689733D01*
X74424637Y-117592233D01*
X74490613Y-117572220D01*
X74622564Y-117532193D01*
X74699693Y-117524596D01*
X74776820Y-117517000D01*
X74879980Y-117517000D01*
X74957107Y-117524596D01*
X74957107Y-117524596D01*
G37*
G36*
X78418400Y-119617000D02*
X76318400Y-119617000D01*
X76318400Y-117517000D01*
X78418400Y-117517000D01*
X78418400Y-119617000D01*
X78418400Y-119617000D01*
G37*
G36*
X88495307Y-117524596D02*
X88572436Y-117532193D01*
X88704387Y-117572220D01*
X88770363Y-117592233D01*
X88952772Y-117689733D01*
X89112654Y-117820946D01*
X89243867Y-117980828D01*
X89341367Y-118163237D01*
X89341367Y-118163238D01*
X89401407Y-118361164D01*
X89421680Y-118567000D01*
X89401407Y-118772836D01*
X89361380Y-118904787D01*
X89341367Y-118970763D01*
X89243867Y-119153172D01*
X89112654Y-119313054D01*
X88952772Y-119444267D01*
X88770363Y-119541767D01*
X88704387Y-119561780D01*
X88572436Y-119601807D01*
X88495307Y-119609403D01*
X88418180Y-119617000D01*
X88315020Y-119617000D01*
X88237893Y-119609403D01*
X88160764Y-119601807D01*
X88028813Y-119561780D01*
X87962837Y-119541767D01*
X87780428Y-119444267D01*
X87620546Y-119313054D01*
X87489333Y-119153172D01*
X87391833Y-118970763D01*
X87371820Y-118904787D01*
X87331793Y-118772836D01*
X87311520Y-118567000D01*
X87331793Y-118361164D01*
X87391833Y-118163238D01*
X87391833Y-118163237D01*
X87489333Y-117980828D01*
X87620546Y-117820946D01*
X87780428Y-117689733D01*
X87962837Y-117592233D01*
X88028813Y-117572220D01*
X88160764Y-117532193D01*
X88237893Y-117524596D01*
X88315020Y-117517000D01*
X88418180Y-117517000D01*
X88495307Y-117524596D01*
X88495307Y-117524596D01*
G37*
G36*
X86876600Y-119617000D02*
X84776600Y-119617000D01*
X84776600Y-117517000D01*
X86876600Y-117517000D01*
X86876600Y-119617000D01*
X86876600Y-119617000D01*
G37*
G36*
X91035307Y-117524596D02*
X91112436Y-117532193D01*
X91244387Y-117572220D01*
X91310363Y-117592233D01*
X91492772Y-117689733D01*
X91652654Y-117820946D01*
X91783867Y-117980828D01*
X91881367Y-118163237D01*
X91881367Y-118163238D01*
X91941407Y-118361164D01*
X91961680Y-118567000D01*
X91941407Y-118772836D01*
X91901380Y-118904787D01*
X91881367Y-118970763D01*
X91783867Y-119153172D01*
X91652654Y-119313054D01*
X91492772Y-119444267D01*
X91310363Y-119541767D01*
X91244387Y-119561780D01*
X91112436Y-119601807D01*
X91035307Y-119609403D01*
X90958180Y-119617000D01*
X90855020Y-119617000D01*
X90777893Y-119609403D01*
X90700764Y-119601807D01*
X90568813Y-119561780D01*
X90502837Y-119541767D01*
X90320428Y-119444267D01*
X90160546Y-119313054D01*
X90029333Y-119153172D01*
X89931833Y-118970763D01*
X89911820Y-118904787D01*
X89871793Y-118772836D01*
X89851520Y-118567000D01*
X89871793Y-118361164D01*
X89931833Y-118163238D01*
X89931833Y-118163237D01*
X90029333Y-117980828D01*
X90160546Y-117820946D01*
X90320428Y-117689733D01*
X90502837Y-117592233D01*
X90568813Y-117572220D01*
X90700764Y-117532193D01*
X90777893Y-117524596D01*
X90855020Y-117517000D01*
X90958180Y-117517000D01*
X91035307Y-117524596D01*
X91035307Y-117524596D01*
G37*
G36*
X86132603Y-114930968D02*
X86132606Y-114930969D01*
X86132605Y-114930969D01*
X86307678Y-115003486D01*
X86307679Y-115003487D01*
X86465241Y-115108767D01*
X86599233Y-115242759D01*
X86599234Y-115242761D01*
X86704514Y-115400322D01*
X86760603Y-115535734D01*
X86777032Y-115575397D01*
X86814000Y-115761250D01*
X86814000Y-115950750D01*
X86777032Y-116136603D01*
X86777031Y-116136605D01*
X86704514Y-116311678D01*
X86704513Y-116311679D01*
X86599233Y-116469241D01*
X86465241Y-116603233D01*
X86385923Y-116656232D01*
X86307678Y-116708514D01*
X86172266Y-116764603D01*
X86132603Y-116781032D01*
X85946750Y-116818000D01*
X85757250Y-116818000D01*
X85571397Y-116781032D01*
X85531734Y-116764603D01*
X85396322Y-116708514D01*
X85318077Y-116656232D01*
X85238759Y-116603233D01*
X85104767Y-116469241D01*
X84999487Y-116311679D01*
X84999486Y-116311678D01*
X84926969Y-116136605D01*
X84926968Y-116136603D01*
X84890000Y-115950750D01*
X84890000Y-115761250D01*
X84926968Y-115575397D01*
X84943397Y-115535734D01*
X84999486Y-115400322D01*
X85104766Y-115242761D01*
X85104767Y-115242759D01*
X85238759Y-115108767D01*
X85396321Y-115003487D01*
X85396322Y-115003486D01*
X85571395Y-114930969D01*
X85571394Y-114930969D01*
X85571397Y-114930968D01*
X85757250Y-114894000D01*
X85946750Y-114894000D01*
X86132603Y-114930968D01*
X86132603Y-114930968D01*
G37*
G36*
X75132603Y-114930968D02*
X75132606Y-114930969D01*
X75132605Y-114930969D01*
X75307678Y-115003486D01*
X75307679Y-115003487D01*
X75465241Y-115108767D01*
X75599233Y-115242759D01*
X75599234Y-115242761D01*
X75704514Y-115400322D01*
X75760603Y-115535734D01*
X75777032Y-115575397D01*
X75814000Y-115761250D01*
X75814000Y-115950750D01*
X75777032Y-116136603D01*
X75777031Y-116136605D01*
X75704514Y-116311678D01*
X75704513Y-116311679D01*
X75599233Y-116469241D01*
X75465241Y-116603233D01*
X75385923Y-116656232D01*
X75307678Y-116708514D01*
X75172266Y-116764603D01*
X75132603Y-116781032D01*
X74946750Y-116818000D01*
X74757250Y-116818000D01*
X74571397Y-116781032D01*
X74531734Y-116764603D01*
X74396322Y-116708514D01*
X74318077Y-116656232D01*
X74238759Y-116603233D01*
X74104767Y-116469241D01*
X73999487Y-116311679D01*
X73999486Y-116311678D01*
X73926969Y-116136605D01*
X73926968Y-116136603D01*
X73890000Y-115950750D01*
X73890000Y-115761250D01*
X73926968Y-115575397D01*
X73943397Y-115535734D01*
X73999486Y-115400322D01*
X74104766Y-115242761D01*
X74104767Y-115242759D01*
X74238759Y-115108767D01*
X74396321Y-115003487D01*
X74396322Y-115003486D01*
X74571395Y-114930969D01*
X74571394Y-114930969D01*
X74571397Y-114930968D01*
X74757250Y-114894000D01*
X74946750Y-114894000D01*
X75132603Y-114930968D01*
X75132603Y-114930968D01*
G37*
G36*
X80212603Y-114930968D02*
X80212606Y-114930969D01*
X80212605Y-114930969D01*
X80387678Y-115003486D01*
X80387679Y-115003487D01*
X80545241Y-115108767D01*
X80679233Y-115242759D01*
X80679234Y-115242761D01*
X80784514Y-115400322D01*
X80840603Y-115535734D01*
X80857032Y-115575397D01*
X80894000Y-115761250D01*
X80894000Y-115950750D01*
X80857032Y-116136603D01*
X80857031Y-116136605D01*
X80784514Y-116311678D01*
X80784513Y-116311679D01*
X80679233Y-116469241D01*
X80545241Y-116603233D01*
X80465923Y-116656232D01*
X80387678Y-116708514D01*
X80252266Y-116764603D01*
X80212603Y-116781032D01*
X80026750Y-116818000D01*
X79837250Y-116818000D01*
X79651397Y-116781032D01*
X79611734Y-116764603D01*
X79476322Y-116708514D01*
X79398077Y-116656232D01*
X79318759Y-116603233D01*
X79184767Y-116469241D01*
X79079487Y-116311679D01*
X79079486Y-116311678D01*
X79006969Y-116136605D01*
X79006968Y-116136603D01*
X78970000Y-115950750D01*
X78970000Y-115761250D01*
X79006968Y-115575397D01*
X79023397Y-115535734D01*
X79079486Y-115400322D01*
X79184766Y-115242761D01*
X79184767Y-115242759D01*
X79318759Y-115108767D01*
X79476321Y-115003487D01*
X79476322Y-115003486D01*
X79651395Y-114930969D01*
X79651394Y-114930969D01*
X79651397Y-114930968D01*
X79837250Y-114894000D01*
X80026750Y-114894000D01*
X80212603Y-114930968D01*
X80212603Y-114930968D01*
G37*
G36*
X91212603Y-114930968D02*
X91212606Y-114930969D01*
X91212605Y-114930969D01*
X91387678Y-115003486D01*
X91387679Y-115003487D01*
X91545241Y-115108767D01*
X91679233Y-115242759D01*
X91679234Y-115242761D01*
X91784514Y-115400322D01*
X91840603Y-115535734D01*
X91857032Y-115575397D01*
X91894000Y-115761250D01*
X91894000Y-115950750D01*
X91857032Y-116136603D01*
X91857031Y-116136605D01*
X91784514Y-116311678D01*
X91784513Y-116311679D01*
X91679233Y-116469241D01*
X91545241Y-116603233D01*
X91465923Y-116656232D01*
X91387678Y-116708514D01*
X91252266Y-116764603D01*
X91212603Y-116781032D01*
X91026750Y-116818000D01*
X90837250Y-116818000D01*
X90651397Y-116781032D01*
X90611734Y-116764603D01*
X90476322Y-116708514D01*
X90398077Y-116656232D01*
X90318759Y-116603233D01*
X90184767Y-116469241D01*
X90079487Y-116311679D01*
X90079486Y-116311678D01*
X90006969Y-116136605D01*
X90006968Y-116136603D01*
X89970000Y-115950750D01*
X89970000Y-115761250D01*
X90006968Y-115575397D01*
X90023397Y-115535734D01*
X90079486Y-115400322D01*
X90184766Y-115242761D01*
X90184767Y-115242759D01*
X90318759Y-115108767D01*
X90476321Y-115003487D01*
X90476322Y-115003486D01*
X90651395Y-114930969D01*
X90651394Y-114930969D01*
X90651397Y-114930968D01*
X90837250Y-114894000D01*
X91026750Y-114894000D01*
X91212603Y-114930968D01*
X91212603Y-114930968D01*
G37*
G36*
X102212603Y-114930968D02*
X102212606Y-114930969D01*
X102212605Y-114930969D01*
X102387678Y-115003486D01*
X102387679Y-115003487D01*
X102545241Y-115108767D01*
X102679233Y-115242759D01*
X102679234Y-115242761D01*
X102784514Y-115400322D01*
X102840603Y-115535734D01*
X102857032Y-115575397D01*
X102894000Y-115761250D01*
X102894000Y-115950750D01*
X102857032Y-116136603D01*
X102857031Y-116136605D01*
X102784514Y-116311678D01*
X102784513Y-116311679D01*
X102679233Y-116469241D01*
X102545241Y-116603233D01*
X102465923Y-116656232D01*
X102387678Y-116708514D01*
X102252266Y-116764603D01*
X102212603Y-116781032D01*
X102026750Y-116818000D01*
X101837250Y-116818000D01*
X101651397Y-116781032D01*
X101611734Y-116764603D01*
X101476322Y-116708514D01*
X101398077Y-116656232D01*
X101318759Y-116603233D01*
X101184767Y-116469241D01*
X101079487Y-116311679D01*
X101079486Y-116311678D01*
X101006969Y-116136605D01*
X101006968Y-116136603D01*
X100970000Y-115950750D01*
X100970000Y-115761250D01*
X101006968Y-115575397D01*
X101023397Y-115535734D01*
X101079486Y-115400322D01*
X101184766Y-115242761D01*
X101184767Y-115242759D01*
X101318759Y-115108767D01*
X101476321Y-115003487D01*
X101476322Y-115003486D01*
X101651395Y-114930969D01*
X101651394Y-114930969D01*
X101651397Y-114930968D01*
X101837250Y-114894000D01*
X102026750Y-114894000D01*
X102212603Y-114930968D01*
X102212603Y-114930968D01*
G37*
G36*
X97132603Y-114930968D02*
X97132606Y-114930969D01*
X97132605Y-114930969D01*
X97307678Y-115003486D01*
X97307679Y-115003487D01*
X97465241Y-115108767D01*
X97599233Y-115242759D01*
X97599234Y-115242761D01*
X97704514Y-115400322D01*
X97760603Y-115535734D01*
X97777032Y-115575397D01*
X97814000Y-115761250D01*
X97814000Y-115950750D01*
X97777032Y-116136603D01*
X97777031Y-116136605D01*
X97704514Y-116311678D01*
X97704513Y-116311679D01*
X97599233Y-116469241D01*
X97465241Y-116603233D01*
X97385923Y-116656232D01*
X97307678Y-116708514D01*
X97172266Y-116764603D01*
X97132603Y-116781032D01*
X96946750Y-116818000D01*
X96757250Y-116818000D01*
X96571397Y-116781032D01*
X96531734Y-116764603D01*
X96396322Y-116708514D01*
X96318077Y-116656232D01*
X96238759Y-116603233D01*
X96104767Y-116469241D01*
X95999487Y-116311679D01*
X95999486Y-116311678D01*
X95926969Y-116136605D01*
X95926968Y-116136603D01*
X95890000Y-115950750D01*
X95890000Y-115761250D01*
X95926968Y-115575397D01*
X95943397Y-115535734D01*
X95999486Y-115400322D01*
X96104766Y-115242761D01*
X96104767Y-115242759D01*
X96238759Y-115108767D01*
X96396321Y-115003487D01*
X96396322Y-115003486D01*
X96571395Y-114930969D01*
X96571394Y-114930969D01*
X96571397Y-114930968D01*
X96757250Y-114894000D01*
X96946750Y-114894000D01*
X97132603Y-114930968D01*
X97132603Y-114930968D01*
G37*
G36*
X91212603Y-107310968D02*
X91212606Y-107310969D01*
X91212605Y-107310969D01*
X91387678Y-107383486D01*
X91387679Y-107383487D01*
X91545241Y-107488767D01*
X91679233Y-107622759D01*
X91679234Y-107622761D01*
X91784514Y-107780322D01*
X91840603Y-107915734D01*
X91857032Y-107955397D01*
X91894000Y-108141250D01*
X91894000Y-108330750D01*
X91857032Y-108516603D01*
X91857031Y-108516605D01*
X91784514Y-108691678D01*
X91784513Y-108691679D01*
X91679233Y-108849241D01*
X91545241Y-108983233D01*
X91465923Y-109036232D01*
X91387678Y-109088514D01*
X91252266Y-109144603D01*
X91212603Y-109161032D01*
X91026750Y-109198000D01*
X90837250Y-109198000D01*
X90651397Y-109161032D01*
X90611734Y-109144603D01*
X90476322Y-109088514D01*
X90398077Y-109036232D01*
X90318759Y-108983233D01*
X90184767Y-108849241D01*
X90079487Y-108691679D01*
X90079486Y-108691678D01*
X90006969Y-108516605D01*
X90006968Y-108516603D01*
X89970000Y-108330750D01*
X89970000Y-108141250D01*
X90006968Y-107955397D01*
X90023397Y-107915734D01*
X90079486Y-107780322D01*
X90184766Y-107622761D01*
X90184767Y-107622759D01*
X90318759Y-107488767D01*
X90476321Y-107383487D01*
X90476322Y-107383486D01*
X90651395Y-107310969D01*
X90651394Y-107310969D01*
X90651397Y-107310968D01*
X90837250Y-107274000D01*
X91026750Y-107274000D01*
X91212603Y-107310968D01*
X91212603Y-107310968D01*
G37*
G36*
X97132603Y-107310968D02*
X97132606Y-107310969D01*
X97132605Y-107310969D01*
X97307678Y-107383486D01*
X97307679Y-107383487D01*
X97465241Y-107488767D01*
X97599233Y-107622759D01*
X97599234Y-107622761D01*
X97704514Y-107780322D01*
X97760603Y-107915734D01*
X97777032Y-107955397D01*
X97814000Y-108141250D01*
X97814000Y-108330750D01*
X97777032Y-108516603D01*
X97777031Y-108516605D01*
X97704514Y-108691678D01*
X97704513Y-108691679D01*
X97599233Y-108849241D01*
X97465241Y-108983233D01*
X97385923Y-109036232D01*
X97307678Y-109088514D01*
X97172266Y-109144603D01*
X97132603Y-109161032D01*
X96946750Y-109198000D01*
X96757250Y-109198000D01*
X96571397Y-109161032D01*
X96531734Y-109144603D01*
X96396322Y-109088514D01*
X96318077Y-109036232D01*
X96238759Y-108983233D01*
X96104767Y-108849241D01*
X95999487Y-108691679D01*
X95999486Y-108691678D01*
X95926969Y-108516605D01*
X95926968Y-108516603D01*
X95890000Y-108330750D01*
X95890000Y-108141250D01*
X95926968Y-107955397D01*
X95943397Y-107915734D01*
X95999486Y-107780322D01*
X96104766Y-107622761D01*
X96104767Y-107622759D01*
X96238759Y-107488767D01*
X96396321Y-107383487D01*
X96396322Y-107383486D01*
X96571395Y-107310969D01*
X96571394Y-107310969D01*
X96571397Y-107310968D01*
X96757250Y-107274000D01*
X96946750Y-107274000D01*
X97132603Y-107310968D01*
X97132603Y-107310968D01*
G37*
G36*
X75132603Y-107310968D02*
X75132606Y-107310969D01*
X75132605Y-107310969D01*
X75307678Y-107383486D01*
X75307679Y-107383487D01*
X75465241Y-107488767D01*
X75599233Y-107622759D01*
X75599234Y-107622761D01*
X75704514Y-107780322D01*
X75760603Y-107915734D01*
X75777032Y-107955397D01*
X75814000Y-108141250D01*
X75814000Y-108330750D01*
X75777032Y-108516603D01*
X75777031Y-108516605D01*
X75704514Y-108691678D01*
X75704513Y-108691679D01*
X75599233Y-108849241D01*
X75465241Y-108983233D01*
X75385923Y-109036232D01*
X75307678Y-109088514D01*
X75172266Y-109144603D01*
X75132603Y-109161032D01*
X74946750Y-109198000D01*
X74757250Y-109198000D01*
X74571397Y-109161032D01*
X74531734Y-109144603D01*
X74396322Y-109088514D01*
X74318077Y-109036232D01*
X74238759Y-108983233D01*
X74104767Y-108849241D01*
X73999487Y-108691679D01*
X73999486Y-108691678D01*
X73926969Y-108516605D01*
X73926968Y-108516603D01*
X73890000Y-108330750D01*
X73890000Y-108141250D01*
X73926968Y-107955397D01*
X73943397Y-107915734D01*
X73999486Y-107780322D01*
X74104766Y-107622761D01*
X74104767Y-107622759D01*
X74238759Y-107488767D01*
X74396321Y-107383487D01*
X74396322Y-107383486D01*
X74571395Y-107310969D01*
X74571394Y-107310969D01*
X74571397Y-107310968D01*
X74757250Y-107274000D01*
X74946750Y-107274000D01*
X75132603Y-107310968D01*
X75132603Y-107310968D01*
G37*
G36*
X80212603Y-107310968D02*
X80212606Y-107310969D01*
X80212605Y-107310969D01*
X80387678Y-107383486D01*
X80387679Y-107383487D01*
X80545241Y-107488767D01*
X80679233Y-107622759D01*
X80679234Y-107622761D01*
X80784514Y-107780322D01*
X80840603Y-107915734D01*
X80857032Y-107955397D01*
X80894000Y-108141250D01*
X80894000Y-108330750D01*
X80857032Y-108516603D01*
X80857031Y-108516605D01*
X80784514Y-108691678D01*
X80784513Y-108691679D01*
X80679233Y-108849241D01*
X80545241Y-108983233D01*
X80465923Y-109036232D01*
X80387678Y-109088514D01*
X80252266Y-109144603D01*
X80212603Y-109161032D01*
X80026750Y-109198000D01*
X79837250Y-109198000D01*
X79651397Y-109161032D01*
X79611734Y-109144603D01*
X79476322Y-109088514D01*
X79398077Y-109036232D01*
X79318759Y-108983233D01*
X79184767Y-108849241D01*
X79079487Y-108691679D01*
X79079486Y-108691678D01*
X79006969Y-108516605D01*
X79006968Y-108516603D01*
X78970000Y-108330750D01*
X78970000Y-108141250D01*
X79006968Y-107955397D01*
X79023397Y-107915734D01*
X79079486Y-107780322D01*
X79184766Y-107622761D01*
X79184767Y-107622759D01*
X79318759Y-107488767D01*
X79476321Y-107383487D01*
X79476322Y-107383486D01*
X79651395Y-107310969D01*
X79651394Y-107310969D01*
X79651397Y-107310968D01*
X79837250Y-107274000D01*
X80026750Y-107274000D01*
X80212603Y-107310968D01*
X80212603Y-107310968D01*
G37*
G36*
X86132603Y-107310968D02*
X86132606Y-107310969D01*
X86132605Y-107310969D01*
X86307678Y-107383486D01*
X86307679Y-107383487D01*
X86465241Y-107488767D01*
X86599233Y-107622759D01*
X86599234Y-107622761D01*
X86704514Y-107780322D01*
X86760603Y-107915734D01*
X86777032Y-107955397D01*
X86814000Y-108141250D01*
X86814000Y-108330750D01*
X86777032Y-108516603D01*
X86777031Y-108516605D01*
X86704514Y-108691678D01*
X86704513Y-108691679D01*
X86599233Y-108849241D01*
X86465241Y-108983233D01*
X86385923Y-109036232D01*
X86307678Y-109088514D01*
X86172266Y-109144603D01*
X86132603Y-109161032D01*
X85946750Y-109198000D01*
X85757250Y-109198000D01*
X85571397Y-109161032D01*
X85531734Y-109144603D01*
X85396322Y-109088514D01*
X85318077Y-109036232D01*
X85238759Y-108983233D01*
X85104767Y-108849241D01*
X84999487Y-108691679D01*
X84999486Y-108691678D01*
X84926969Y-108516605D01*
X84926968Y-108516603D01*
X84890000Y-108330750D01*
X84890000Y-108141250D01*
X84926968Y-107955397D01*
X84943397Y-107915734D01*
X84999486Y-107780322D01*
X85104766Y-107622761D01*
X85104767Y-107622759D01*
X85238759Y-107488767D01*
X85396321Y-107383487D01*
X85396322Y-107383486D01*
X85571395Y-107310969D01*
X85571394Y-107310969D01*
X85571397Y-107310968D01*
X85757250Y-107274000D01*
X85946750Y-107274000D01*
X86132603Y-107310968D01*
X86132603Y-107310968D01*
G37*
G36*
X102212603Y-107310968D02*
X102212606Y-107310969D01*
X102212605Y-107310969D01*
X102387678Y-107383486D01*
X102387679Y-107383487D01*
X102545241Y-107488767D01*
X102679233Y-107622759D01*
X102679234Y-107622761D01*
X102784514Y-107780322D01*
X102840603Y-107915734D01*
X102857032Y-107955397D01*
X102894000Y-108141250D01*
X102894000Y-108330750D01*
X102857032Y-108516603D01*
X102857031Y-108516605D01*
X102784514Y-108691678D01*
X102784513Y-108691679D01*
X102679233Y-108849241D01*
X102545241Y-108983233D01*
X102465923Y-109036232D01*
X102387678Y-109088514D01*
X102252266Y-109144603D01*
X102212603Y-109161032D01*
X102026750Y-109198000D01*
X101837250Y-109198000D01*
X101651397Y-109161032D01*
X101611734Y-109144603D01*
X101476322Y-109088514D01*
X101398077Y-109036232D01*
X101318759Y-108983233D01*
X101184767Y-108849241D01*
X101079487Y-108691679D01*
X101079486Y-108691678D01*
X101006969Y-108516605D01*
X101006968Y-108516603D01*
X100970000Y-108330750D01*
X100970000Y-108141250D01*
X101006968Y-107955397D01*
X101023397Y-107915734D01*
X101079486Y-107780322D01*
X101184766Y-107622761D01*
X101184767Y-107622759D01*
X101318759Y-107488767D01*
X101476321Y-107383487D01*
X101476322Y-107383486D01*
X101651395Y-107310969D01*
X101651394Y-107310969D01*
X101651397Y-107310968D01*
X101837250Y-107274000D01*
X102026750Y-107274000D01*
X102212603Y-107310968D01*
X102212603Y-107310968D01*
G37*
G36*
X102212603Y-104770968D02*
X102212606Y-104770969D01*
X102212605Y-104770969D01*
X102387678Y-104843486D01*
X102387679Y-104843487D01*
X102545241Y-104948767D01*
X102679233Y-105082759D01*
X102679234Y-105082761D01*
X102784514Y-105240322D01*
X102840603Y-105375734D01*
X102857032Y-105415397D01*
X102894000Y-105601250D01*
X102894000Y-105790750D01*
X102857032Y-105976603D01*
X102857031Y-105976605D01*
X102784514Y-106151678D01*
X102784513Y-106151679D01*
X102679233Y-106309241D01*
X102545241Y-106443233D01*
X102465923Y-106496232D01*
X102387678Y-106548514D01*
X102252266Y-106604603D01*
X102212603Y-106621032D01*
X102026750Y-106658000D01*
X101837250Y-106658000D01*
X101651397Y-106621032D01*
X101611734Y-106604603D01*
X101476322Y-106548514D01*
X101398077Y-106496232D01*
X101318759Y-106443233D01*
X101184767Y-106309241D01*
X101079487Y-106151679D01*
X101079486Y-106151678D01*
X101006969Y-105976605D01*
X101006968Y-105976603D01*
X100970000Y-105790750D01*
X100970000Y-105601250D01*
X101006968Y-105415397D01*
X101023397Y-105375734D01*
X101079486Y-105240322D01*
X101184766Y-105082761D01*
X101184767Y-105082759D01*
X101318759Y-104948767D01*
X101476321Y-104843487D01*
X101476322Y-104843486D01*
X101651395Y-104770969D01*
X101651394Y-104770969D01*
X101651397Y-104770968D01*
X101837250Y-104734000D01*
X102026750Y-104734000D01*
X102212603Y-104770968D01*
X102212603Y-104770968D01*
G37*
G36*
X97814000Y-106658000D02*
X95890000Y-106658000D01*
X95890000Y-104734000D01*
X97814000Y-104734000D01*
X97814000Y-106658000D01*
X97814000Y-106658000D01*
G37*
G36*
X86814000Y-106658000D02*
X84890000Y-106658000D01*
X84890000Y-104734000D01*
X86814000Y-104734000D01*
X86814000Y-106658000D01*
X86814000Y-106658000D01*
G37*
G36*
X80212603Y-104770968D02*
X80212606Y-104770969D01*
X80212605Y-104770969D01*
X80387678Y-104843486D01*
X80387679Y-104843487D01*
X80545241Y-104948767D01*
X80679233Y-105082759D01*
X80679234Y-105082761D01*
X80784514Y-105240322D01*
X80840603Y-105375734D01*
X80857032Y-105415397D01*
X80894000Y-105601250D01*
X80894000Y-105790750D01*
X80857032Y-105976603D01*
X80857031Y-105976605D01*
X80784514Y-106151678D01*
X80784513Y-106151679D01*
X80679233Y-106309241D01*
X80545241Y-106443233D01*
X80465923Y-106496232D01*
X80387678Y-106548514D01*
X80252266Y-106604603D01*
X80212603Y-106621032D01*
X80026750Y-106658000D01*
X79837250Y-106658000D01*
X79651397Y-106621032D01*
X79611734Y-106604603D01*
X79476322Y-106548514D01*
X79398077Y-106496232D01*
X79318759Y-106443233D01*
X79184767Y-106309241D01*
X79079487Y-106151679D01*
X79079486Y-106151678D01*
X79006969Y-105976605D01*
X79006968Y-105976603D01*
X78970000Y-105790750D01*
X78970000Y-105601250D01*
X79006968Y-105415397D01*
X79023397Y-105375734D01*
X79079486Y-105240322D01*
X79184766Y-105082761D01*
X79184767Y-105082759D01*
X79318759Y-104948767D01*
X79476321Y-104843487D01*
X79476322Y-104843486D01*
X79651395Y-104770969D01*
X79651394Y-104770969D01*
X79651397Y-104770968D01*
X79837250Y-104734000D01*
X80026750Y-104734000D01*
X80212603Y-104770968D01*
X80212603Y-104770968D01*
G37*
G36*
X75814000Y-106658000D02*
X73890000Y-106658000D01*
X73890000Y-104734000D01*
X75814000Y-104734000D01*
X75814000Y-106658000D01*
X75814000Y-106658000D01*
G37*
G36*
X91212603Y-104770968D02*
X91212606Y-104770969D01*
X91212605Y-104770969D01*
X91387678Y-104843486D01*
X91387679Y-104843487D01*
X91545241Y-104948767D01*
X91679233Y-105082759D01*
X91679234Y-105082761D01*
X91784514Y-105240322D01*
X91840603Y-105375734D01*
X91857032Y-105415397D01*
X91894000Y-105601250D01*
X91894000Y-105790750D01*
X91857032Y-105976603D01*
X91857031Y-105976605D01*
X91784514Y-106151678D01*
X91784513Y-106151679D01*
X91679233Y-106309241D01*
X91545241Y-106443233D01*
X91465923Y-106496232D01*
X91387678Y-106548514D01*
X91252266Y-106604603D01*
X91212603Y-106621032D01*
X91026750Y-106658000D01*
X90837250Y-106658000D01*
X90651397Y-106621032D01*
X90611734Y-106604603D01*
X90476322Y-106548514D01*
X90398077Y-106496232D01*
X90318759Y-106443233D01*
X90184767Y-106309241D01*
X90079487Y-106151679D01*
X90079486Y-106151678D01*
X90006969Y-105976605D01*
X90006968Y-105976603D01*
X89970000Y-105790750D01*
X89970000Y-105601250D01*
X90006968Y-105415397D01*
X90023397Y-105375734D01*
X90079486Y-105240322D01*
X90184766Y-105082761D01*
X90184767Y-105082759D01*
X90318759Y-104948767D01*
X90476321Y-104843487D01*
X90476322Y-104843486D01*
X90651395Y-104770969D01*
X90651394Y-104770969D01*
X90651397Y-104770968D01*
X90837250Y-104734000D01*
X91026750Y-104734000D01*
X91212603Y-104770968D01*
X91212603Y-104770968D01*
G37*
G36*
X83144481Y-99815855D02*
X83344118Y-99855565D01*
X83532173Y-99933460D01*
X83626201Y-99972408D01*
X83880071Y-100142038D01*
X84095962Y-100357929D01*
X84265592Y-100611799D01*
X84265592Y-100611800D01*
X84382435Y-100893882D01*
X84442000Y-101193338D01*
X84442000Y-101498662D01*
X84382435Y-101798118D01*
X84304540Y-101986173D01*
X84265592Y-102080201D01*
X84095962Y-102334071D01*
X83880071Y-102549962D01*
X83626201Y-102719592D01*
X83532173Y-102758540D01*
X83344118Y-102836435D01*
X83144481Y-102876145D01*
X83044663Y-102896000D01*
X82739337Y-102896000D01*
X82639519Y-102876145D01*
X82439882Y-102836435D01*
X82251827Y-102758540D01*
X82157799Y-102719592D01*
X81903929Y-102549962D01*
X81688038Y-102334071D01*
X81518408Y-102080201D01*
X81479460Y-101986173D01*
X81401565Y-101798118D01*
X81342000Y-101498662D01*
X81342000Y-101193338D01*
X81401565Y-100893882D01*
X81518408Y-100611800D01*
X81518408Y-100611799D01*
X81688038Y-100357929D01*
X81903929Y-100142038D01*
X82157799Y-99972408D01*
X82251827Y-99933460D01*
X82439882Y-99855565D01*
X82639519Y-99815855D01*
X82739337Y-99796000D01*
X83044663Y-99796000D01*
X83144481Y-99815855D01*
X83144481Y-99815855D01*
G37*
G36*
X94144481Y-99815855D02*
X94344118Y-99855565D01*
X94532173Y-99933460D01*
X94626201Y-99972408D01*
X94880071Y-100142038D01*
X95095962Y-100357929D01*
X95265592Y-100611799D01*
X95265592Y-100611800D01*
X95382435Y-100893882D01*
X95442000Y-101193338D01*
X95442000Y-101498662D01*
X95382435Y-101798118D01*
X95304540Y-101986173D01*
X95265592Y-102080201D01*
X95095962Y-102334071D01*
X94880071Y-102549962D01*
X94626201Y-102719592D01*
X94532173Y-102758540D01*
X94344118Y-102836435D01*
X94144481Y-102876145D01*
X94044663Y-102896000D01*
X93739337Y-102896000D01*
X93639519Y-102876145D01*
X93439882Y-102836435D01*
X93251827Y-102758540D01*
X93157799Y-102719592D01*
X92903929Y-102549962D01*
X92688038Y-102334071D01*
X92518408Y-102080201D01*
X92479460Y-101986173D01*
X92401565Y-101798118D01*
X92342000Y-101498662D01*
X92342000Y-101193338D01*
X92401565Y-100893882D01*
X92518408Y-100611800D01*
X92518408Y-100611799D01*
X92688038Y-100357929D01*
X92903929Y-100142038D01*
X93157799Y-99972408D01*
X93251827Y-99933460D01*
X93439882Y-99855565D01*
X93639519Y-99815855D01*
X93739337Y-99796000D01*
X94044663Y-99796000D01*
X94144481Y-99815855D01*
X94144481Y-99815855D01*
G37*
G36*
X90977443Y-97096194D02*
X91186728Y-97182883D01*
X91375085Y-97308739D01*
X91535261Y-97468915D01*
X91661117Y-97657272D01*
X91747806Y-97866557D01*
X91792000Y-98088734D01*
X91792000Y-98315266D01*
X91747806Y-98537443D01*
X91661117Y-98746728D01*
X91535261Y-98935085D01*
X91375085Y-99095261D01*
X91186728Y-99221117D01*
X90977443Y-99307806D01*
X90755266Y-99352000D01*
X90528734Y-99352000D01*
X90306557Y-99307806D01*
X90097272Y-99221117D01*
X89908915Y-99095261D01*
X89748739Y-98935085D01*
X89622883Y-98746728D01*
X89536194Y-98537443D01*
X89492000Y-98315266D01*
X89492000Y-98088734D01*
X89536194Y-97866557D01*
X89622883Y-97657272D01*
X89748739Y-97468915D01*
X89908915Y-97308739D01*
X90097272Y-97182883D01*
X90306557Y-97096194D01*
X90528734Y-97052000D01*
X90755266Y-97052000D01*
X90977443Y-97096194D01*
X90977443Y-97096194D01*
G37*
G36*
X87292000Y-99352000D02*
X84992000Y-99352000D01*
X84992000Y-97052000D01*
X87292000Y-97052000D01*
X87292000Y-99352000D01*
X87292000Y-99352000D01*
G37*
G36*
X101977443Y-97096194D02*
X102186728Y-97182883D01*
X102375085Y-97308739D01*
X102535261Y-97468915D01*
X102661117Y-97657272D01*
X102747806Y-97866557D01*
X102792000Y-98088734D01*
X102792000Y-98315266D01*
X102747806Y-98537443D01*
X102661117Y-98746728D01*
X102535261Y-98935085D01*
X102375085Y-99095261D01*
X102186728Y-99221117D01*
X101977443Y-99307806D01*
X101755266Y-99352000D01*
X101528734Y-99352000D01*
X101306557Y-99307806D01*
X101097272Y-99221117D01*
X100908915Y-99095261D01*
X100748739Y-98935085D01*
X100622883Y-98746728D01*
X100536194Y-98537443D01*
X100492000Y-98315266D01*
X100492000Y-98088734D01*
X100536194Y-97866557D01*
X100622883Y-97657272D01*
X100748739Y-97468915D01*
X100908915Y-97308739D01*
X101097272Y-97182883D01*
X101306557Y-97096194D01*
X101528734Y-97052000D01*
X101755266Y-97052000D01*
X101977443Y-97096194D01*
X101977443Y-97096194D01*
G37*
G36*
X98292000Y-99352000D02*
X95992000Y-99352000D01*
X95992000Y-97052000D01*
X98292000Y-97052000D01*
X98292000Y-99352000D01*
X98292000Y-99352000D01*
G37*
G36*
X79977443Y-97096194D02*
X80186728Y-97182883D01*
X80375085Y-97308739D01*
X80535261Y-97468915D01*
X80661117Y-97657272D01*
X80747806Y-97866557D01*
X80792000Y-98088734D01*
X80792000Y-98315266D01*
X80747806Y-98537443D01*
X80661117Y-98746728D01*
X80535261Y-98935085D01*
X80375085Y-99095261D01*
X80186728Y-99221117D01*
X79977443Y-99307806D01*
X79755266Y-99352000D01*
X79528734Y-99352000D01*
X79306557Y-99307806D01*
X79097272Y-99221117D01*
X78908915Y-99095261D01*
X78748739Y-98935085D01*
X78622883Y-98746728D01*
X78536194Y-98537443D01*
X78492000Y-98315266D01*
X78492000Y-98088734D01*
X78536194Y-97866557D01*
X78622883Y-97657272D01*
X78748739Y-97468915D01*
X78908915Y-97308739D01*
X79097272Y-97182883D01*
X79306557Y-97096194D01*
X79528734Y-97052000D01*
X79755266Y-97052000D01*
X79977443Y-97096194D01*
X79977443Y-97096194D01*
G37*
G36*
X76292000Y-99352000D02*
X73992000Y-99352000D01*
X73992000Y-97052000D01*
X76292000Y-97052000D01*
X76292000Y-99352000D01*
X76292000Y-99352000D01*
G37*
G36*
X102096183Y-93528900D02*
X102223574Y-93581668D01*
X102338225Y-93658275D01*
X102435725Y-93755775D01*
X102512332Y-93870426D01*
X102565100Y-93997817D01*
X102592000Y-94133055D01*
X102592000Y-94270945D01*
X102565100Y-94406183D01*
X102512332Y-94533574D01*
X102435725Y-94648225D01*
X102338225Y-94745725D01*
X102223574Y-94822332D01*
X102096183Y-94875100D01*
X101960945Y-94902000D01*
X101823055Y-94902000D01*
X101687817Y-94875100D01*
X101560426Y-94822332D01*
X101445775Y-94745725D01*
X101348275Y-94648225D01*
X101271668Y-94533574D01*
X101218900Y-94406183D01*
X101192000Y-94270945D01*
X101192000Y-94133055D01*
X101218900Y-93997817D01*
X101271668Y-93870426D01*
X101348275Y-93755775D01*
X101445775Y-93658275D01*
X101560426Y-93581668D01*
X101687817Y-93528900D01*
X101823055Y-93502000D01*
X101960945Y-93502000D01*
X102096183Y-93528900D01*
X102096183Y-93528900D01*
G37*
G36*
X91096183Y-93528900D02*
X91223574Y-93581668D01*
X91338225Y-93658275D01*
X91435725Y-93755775D01*
X91512332Y-93870426D01*
X91565100Y-93997817D01*
X91592000Y-94133055D01*
X91592000Y-94270945D01*
X91565100Y-94406183D01*
X91512332Y-94533574D01*
X91435725Y-94648225D01*
X91338225Y-94745725D01*
X91223574Y-94822332D01*
X91096183Y-94875100D01*
X90960945Y-94902000D01*
X90823055Y-94902000D01*
X90687817Y-94875100D01*
X90560426Y-94822332D01*
X90445775Y-94745725D01*
X90348275Y-94648225D01*
X90271668Y-94533574D01*
X90218900Y-94406183D01*
X90192000Y-94270945D01*
X90192000Y-94133055D01*
X90218900Y-93997817D01*
X90271668Y-93870426D01*
X90348275Y-93755775D01*
X90445775Y-93658275D01*
X90560426Y-93581668D01*
X90687817Y-93528900D01*
X90823055Y-93502000D01*
X90960945Y-93502000D01*
X91096183Y-93528900D01*
X91096183Y-93528900D01*
G37*
G36*
X86096183Y-93528900D02*
X86223574Y-93581668D01*
X86338225Y-93658275D01*
X86435725Y-93755775D01*
X86512332Y-93870426D01*
X86565100Y-93997817D01*
X86592000Y-94133055D01*
X86592000Y-94270945D01*
X86565100Y-94406183D01*
X86512332Y-94533574D01*
X86435725Y-94648225D01*
X86338225Y-94745725D01*
X86223574Y-94822332D01*
X86096183Y-94875100D01*
X85960945Y-94902000D01*
X85823055Y-94902000D01*
X85687817Y-94875100D01*
X85560426Y-94822332D01*
X85445775Y-94745725D01*
X85348275Y-94648225D01*
X85271668Y-94533574D01*
X85218900Y-94406183D01*
X85192000Y-94270945D01*
X85192000Y-94133055D01*
X85218900Y-93997817D01*
X85271668Y-93870426D01*
X85348275Y-93755775D01*
X85445775Y-93658275D01*
X85560426Y-93581668D01*
X85687817Y-93528900D01*
X85823055Y-93502000D01*
X85960945Y-93502000D01*
X86096183Y-93528900D01*
X86096183Y-93528900D01*
G37*
G36*
X97096183Y-93528900D02*
X97223574Y-93581668D01*
X97338225Y-93658275D01*
X97435725Y-93755775D01*
X97512332Y-93870426D01*
X97565100Y-93997817D01*
X97592000Y-94133055D01*
X97592000Y-94270945D01*
X97565100Y-94406183D01*
X97512332Y-94533574D01*
X97435725Y-94648225D01*
X97338225Y-94745725D01*
X97223574Y-94822332D01*
X97096183Y-94875100D01*
X96960945Y-94902000D01*
X96823055Y-94902000D01*
X96687817Y-94875100D01*
X96560426Y-94822332D01*
X96445775Y-94745725D01*
X96348275Y-94648225D01*
X96271668Y-94533574D01*
X96218900Y-94406183D01*
X96192000Y-94270945D01*
X96192000Y-94133055D01*
X96218900Y-93997817D01*
X96271668Y-93870426D01*
X96348275Y-93755775D01*
X96445775Y-93658275D01*
X96560426Y-93581668D01*
X96687817Y-93528900D01*
X96823055Y-93502000D01*
X96960945Y-93502000D01*
X97096183Y-93528900D01*
X97096183Y-93528900D01*
G37*
G36*
X75096183Y-93528900D02*
X75223574Y-93581668D01*
X75338225Y-93658275D01*
X75435725Y-93755775D01*
X75512332Y-93870426D01*
X75565100Y-93997817D01*
X75592000Y-94133055D01*
X75592000Y-94270945D01*
X75565100Y-94406183D01*
X75512332Y-94533574D01*
X75435725Y-94648225D01*
X75338225Y-94745725D01*
X75223574Y-94822332D01*
X75096183Y-94875100D01*
X74960945Y-94902000D01*
X74823055Y-94902000D01*
X74687817Y-94875100D01*
X74560426Y-94822332D01*
X74445775Y-94745725D01*
X74348275Y-94648225D01*
X74271668Y-94533574D01*
X74218900Y-94406183D01*
X74192000Y-94270945D01*
X74192000Y-94133055D01*
X74218900Y-93997817D01*
X74271668Y-93870426D01*
X74348275Y-93755775D01*
X74445775Y-93658275D01*
X74560426Y-93581668D01*
X74687817Y-93528900D01*
X74823055Y-93502000D01*
X74960945Y-93502000D01*
X75096183Y-93528900D01*
X75096183Y-93528900D01*
G37*
G36*
X80096183Y-93528900D02*
X80223574Y-93581668D01*
X80338225Y-93658275D01*
X80435725Y-93755775D01*
X80512332Y-93870426D01*
X80565100Y-93997817D01*
X80592000Y-94133055D01*
X80592000Y-94270945D01*
X80565100Y-94406183D01*
X80512332Y-94533574D01*
X80435725Y-94648225D01*
X80338225Y-94745725D01*
X80223574Y-94822332D01*
X80096183Y-94875100D01*
X79960945Y-94902000D01*
X79823055Y-94902000D01*
X79687817Y-94875100D01*
X79560426Y-94822332D01*
X79445775Y-94745725D01*
X79348275Y-94648225D01*
X79271668Y-94533574D01*
X79218900Y-94406183D01*
X79192000Y-94270945D01*
X79192000Y-94133055D01*
X79218900Y-93997817D01*
X79271668Y-93870426D01*
X79348275Y-93755775D01*
X79445775Y-93658275D01*
X79560426Y-93581668D01*
X79687817Y-93528900D01*
X79823055Y-93502000D01*
X79960945Y-93502000D01*
X80096183Y-93528900D01*
X80096183Y-93528900D01*
G37*
G36*
X96827443Y-89596194D02*
X97036728Y-89682883D01*
X97225085Y-89808739D01*
X97385261Y-89968915D01*
X97511117Y-90157272D01*
X97597806Y-90366557D01*
X97642000Y-90588734D01*
X97642000Y-90815266D01*
X97597806Y-91037443D01*
X97511117Y-91246728D01*
X97385261Y-91435085D01*
X97225085Y-91595261D01*
X97036728Y-91721117D01*
X96827443Y-91807806D01*
X96605266Y-91852000D01*
X96378734Y-91852000D01*
X96156557Y-91807806D01*
X95947272Y-91721117D01*
X95758915Y-91595261D01*
X95598739Y-91435085D01*
X95472883Y-91246728D01*
X95386194Y-91037443D01*
X95342000Y-90815266D01*
X95342000Y-90588734D01*
X95386194Y-90366557D01*
X95472883Y-90157272D01*
X95598739Y-89968915D01*
X95758915Y-89808739D01*
X95947272Y-89682883D01*
X96156557Y-89596194D01*
X96378734Y-89552000D01*
X96605266Y-89552000D01*
X96827443Y-89596194D01*
X96827443Y-89596194D01*
G37*
G36*
X102627443Y-89596194D02*
X102836728Y-89682883D01*
X103025085Y-89808739D01*
X103185261Y-89968915D01*
X103311117Y-90157272D01*
X103397806Y-90366557D01*
X103442000Y-90588734D01*
X103442000Y-90815266D01*
X103397806Y-91037443D01*
X103311117Y-91246728D01*
X103185261Y-91435085D01*
X103025085Y-91595261D01*
X102836728Y-91721117D01*
X102627443Y-91807806D01*
X102405266Y-91852000D01*
X102178734Y-91852000D01*
X101956557Y-91807806D01*
X101747272Y-91721117D01*
X101558915Y-91595261D01*
X101398739Y-91435085D01*
X101272883Y-91246728D01*
X101186194Y-91037443D01*
X101142000Y-90815266D01*
X101142000Y-90588734D01*
X101186194Y-90366557D01*
X101272883Y-90157272D01*
X101398739Y-89968915D01*
X101558915Y-89808739D01*
X101747272Y-89682883D01*
X101956557Y-89596194D01*
X102178734Y-89552000D01*
X102405266Y-89552000D01*
X102627443Y-89596194D01*
X102627443Y-89596194D01*
G37*
G36*
X74827443Y-89596194D02*
X75036728Y-89682883D01*
X75225085Y-89808739D01*
X75385261Y-89968915D01*
X75511117Y-90157272D01*
X75597806Y-90366557D01*
X75642000Y-90588734D01*
X75642000Y-90815266D01*
X75597806Y-91037443D01*
X75511117Y-91246728D01*
X75385261Y-91435085D01*
X75225085Y-91595261D01*
X75036728Y-91721117D01*
X74827443Y-91807806D01*
X74605266Y-91852000D01*
X74378734Y-91852000D01*
X74156557Y-91807806D01*
X73947272Y-91721117D01*
X73758915Y-91595261D01*
X73598739Y-91435085D01*
X73472883Y-91246728D01*
X73386194Y-91037443D01*
X73342000Y-90815266D01*
X73342000Y-90588734D01*
X73386194Y-90366557D01*
X73472883Y-90157272D01*
X73598739Y-89968915D01*
X73758915Y-89808739D01*
X73947272Y-89682883D01*
X74156557Y-89596194D01*
X74378734Y-89552000D01*
X74605266Y-89552000D01*
X74827443Y-89596194D01*
X74827443Y-89596194D01*
G37*
G36*
X80627443Y-89596194D02*
X80836728Y-89682883D01*
X81025085Y-89808739D01*
X81185261Y-89968915D01*
X81311117Y-90157272D01*
X81397806Y-90366557D01*
X81442000Y-90588734D01*
X81442000Y-90815266D01*
X81397806Y-91037443D01*
X81311117Y-91246728D01*
X81185261Y-91435085D01*
X81025085Y-91595261D01*
X80836728Y-91721117D01*
X80627443Y-91807806D01*
X80405266Y-91852000D01*
X80178734Y-91852000D01*
X79956557Y-91807806D01*
X79747272Y-91721117D01*
X79558915Y-91595261D01*
X79398739Y-91435085D01*
X79272883Y-91246728D01*
X79186194Y-91037443D01*
X79142000Y-90815266D01*
X79142000Y-90588734D01*
X79186194Y-90366557D01*
X79272883Y-90157272D01*
X79398739Y-89968915D01*
X79558915Y-89808739D01*
X79747272Y-89682883D01*
X79956557Y-89596194D01*
X80178734Y-89552000D01*
X80405266Y-89552000D01*
X80627443Y-89596194D01*
X80627443Y-89596194D01*
G37*
G36*
X85827443Y-89596194D02*
X86036728Y-89682883D01*
X86225085Y-89808739D01*
X86385261Y-89968915D01*
X86511117Y-90157272D01*
X86597806Y-90366557D01*
X86642000Y-90588734D01*
X86642000Y-90815266D01*
X86597806Y-91037443D01*
X86511117Y-91246728D01*
X86385261Y-91435085D01*
X86225085Y-91595261D01*
X86036728Y-91721117D01*
X85827443Y-91807806D01*
X85605266Y-91852000D01*
X85378734Y-91852000D01*
X85156557Y-91807806D01*
X84947272Y-91721117D01*
X84758915Y-91595261D01*
X84598739Y-91435085D01*
X84472883Y-91246728D01*
X84386194Y-91037443D01*
X84342000Y-90815266D01*
X84342000Y-90588734D01*
X84386194Y-90366557D01*
X84472883Y-90157272D01*
X84598739Y-89968915D01*
X84758915Y-89808739D01*
X84947272Y-89682883D01*
X85156557Y-89596194D01*
X85378734Y-89552000D01*
X85605266Y-89552000D01*
X85827443Y-89596194D01*
X85827443Y-89596194D01*
G37*
G36*
X91627443Y-89596194D02*
X91836728Y-89682883D01*
X92025085Y-89808739D01*
X92185261Y-89968915D01*
X92311117Y-90157272D01*
X92397806Y-90366557D01*
X92442000Y-90588734D01*
X92442000Y-90815266D01*
X92397806Y-91037443D01*
X92311117Y-91246728D01*
X92185261Y-91435085D01*
X92025085Y-91595261D01*
X91836728Y-91721117D01*
X91627443Y-91807806D01*
X91405266Y-91852000D01*
X91178734Y-91852000D01*
X90956557Y-91807806D01*
X90747272Y-91721117D01*
X90558915Y-91595261D01*
X90398739Y-91435085D01*
X90272883Y-91246728D01*
X90186194Y-91037443D01*
X90142000Y-90815266D01*
X90142000Y-90588734D01*
X90186194Y-90366557D01*
X90272883Y-90157272D01*
X90398739Y-89968915D01*
X90558915Y-89808739D01*
X90747272Y-89682883D01*
X90956557Y-89596194D01*
X91178734Y-89552000D01*
X91405266Y-89552000D01*
X91627443Y-89596194D01*
X91627443Y-89596194D01*
G37*
M02*
