G04 #@! TF.GenerationSoftware,KiCad,Pcbnew,5.0.1-33cea8e~66~ubuntu18.04.1*
G04 #@! TF.CreationDate,2018-10-18T18:44:20+09:00*
G04 #@! TF.ProjectId,relay_jacks,72656C61795F6A61636B732E6B696361,rev?*
G04 #@! TF.SameCoordinates,Original*
G04 #@! TF.FileFunction,Copper,L2,Bot,Signal*
G04 #@! TF.FilePolarity,Positive*
%FSLAX46Y46*%
G04 Gerber Fmt 4.6, Leading zero omitted, Abs format (unit mm)*
G04 Created by KiCad (PCBNEW 5.0.1-33cea8e~66~ubuntu18.04.1) date 2018年10月18日 18時44分20秒*
%MOMM*%
%LPD*%
G01*
G04 APERTURE LIST*
G04 #@! TA.AperFunction,ComponentPad*
%ADD10C,1.900000*%
G04 #@! TD*
G04 #@! TA.AperFunction,ComponentPad*
%ADD11R,1.900000X1.900000*%
G04 #@! TD*
G04 #@! TA.AperFunction,ComponentPad*
%ADD12R,1.700000X1.700000*%
G04 #@! TD*
G04 #@! TA.AperFunction,ComponentPad*
%ADD13O,1.700000X1.700000*%
G04 #@! TD*
G04 #@! TA.AperFunction,ComponentPad*
%ADD14R,1.524000X1.524000*%
G04 #@! TD*
G04 #@! TA.AperFunction,ComponentPad*
%ADD15C,1.524000*%
G04 #@! TD*
G04 #@! TA.AperFunction,ViaPad*
%ADD16C,0.800000*%
G04 #@! TD*
G04 #@! TA.AperFunction,Conductor*
%ADD17C,0.250000*%
G04 #@! TD*
G04 #@! TA.AperFunction,Conductor*
%ADD18C,0.254000*%
G04 #@! TD*
G04 APERTURE END LIST*
D10*
G04 #@! TO.P,J6,3*
G04 #@! TO.N,Net-(J6-Pad2)*
X96302000Y-98702000D03*
D11*
G04 #@! TO.P,J6,2*
X100802000Y-98702000D03*
D10*
G04 #@! TO.P,J6,4*
G04 #@! TO.N,Net-(J6-Pad4)*
X95652000Y-91202000D03*
X101452000Y-91202000D03*
G04 #@! TD*
G04 #@! TO.P,J5,3*
G04 #@! TO.N,Net-(J5-Pad2)*
X86142000Y-98702000D03*
D11*
G04 #@! TO.P,J5,2*
X90642000Y-98702000D03*
D10*
G04 #@! TO.P,J5,4*
G04 #@! TO.N,Net-(J5-Pad4)*
X85492000Y-91202000D03*
X91292000Y-91202000D03*
G04 #@! TD*
G04 #@! TO.P,J1,3*
G04 #@! TO.N,Net-(J1-Pad2)*
X75982000Y-98702000D03*
D11*
G04 #@! TO.P,J1,2*
X80482000Y-98702000D03*
D10*
G04 #@! TO.P,J1,4*
G04 #@! TO.N,Net-(J1-Pad4)*
X75332000Y-91202000D03*
X81132000Y-91202000D03*
G04 #@! TD*
D12*
G04 #@! TO.P,J2,1*
G04 #@! TO.N,SIG0*
X85852000Y-120650000D03*
D13*
G04 #@! TO.P,J2,2*
G04 #@! TO.N,SIG1*
X88392000Y-120650000D03*
G04 #@! TO.P,J2,3*
G04 #@! TO.N,SIG2*
X90932000Y-120650000D03*
G04 #@! TD*
D12*
G04 #@! TO.P,J3,1*
G04 #@! TO.N,GND*
X78232000Y-120650000D03*
D13*
G04 #@! TO.P,J3,2*
G04 #@! TO.N,+5V*
X75692000Y-120650000D03*
G04 #@! TD*
G04 #@! TO.P,J4,2*
G04 #@! TO.N,+5V*
X98552000Y-120650000D03*
D12*
G04 #@! TO.P,J4,1*
G04 #@! TO.N,GND*
X101092000Y-120650000D03*
G04 #@! TD*
D14*
G04 #@! TO.P,K1,1*
G04 #@! TO.N,Net-(J1-Pad4)*
X80772000Y-107696000D03*
D15*
G04 #@! TO.P,K1,2*
G04 #@! TO.N,Net-(K1-Pad2)*
X75692000Y-107696000D03*
G04 #@! TO.P,K1,3*
G04 #@! TO.N,Net-(D2-Pad1)*
X80772000Y-110236000D03*
G04 #@! TO.P,K1,4*
G04 #@! TO.N,+5V*
X75692000Y-110236000D03*
G04 #@! TO.P,K1,5*
G04 #@! TO.N,Net-(J1-Pad2)*
X80772000Y-117856000D03*
G04 #@! TO.P,K1,6*
X75692000Y-117856000D03*
G04 #@! TD*
G04 #@! TO.P,K2,6*
G04 #@! TO.N,Net-(J5-Pad2)*
X85852000Y-117856000D03*
G04 #@! TO.P,K2,5*
X90932000Y-117856000D03*
G04 #@! TO.P,K2,4*
G04 #@! TO.N,+5V*
X85852000Y-110236000D03*
G04 #@! TO.P,K2,3*
G04 #@! TO.N,Net-(D4-Pad1)*
X90932000Y-110236000D03*
G04 #@! TO.P,K2,2*
G04 #@! TO.N,Net-(K2-Pad2)*
X85852000Y-107696000D03*
D14*
G04 #@! TO.P,K2,1*
G04 #@! TO.N,Net-(J5-Pad4)*
X90932000Y-107696000D03*
G04 #@! TD*
G04 #@! TO.P,K3,1*
G04 #@! TO.N,Net-(J6-Pad4)*
X101092000Y-107696000D03*
D15*
G04 #@! TO.P,K3,2*
G04 #@! TO.N,Net-(K3-Pad2)*
X96012000Y-107696000D03*
G04 #@! TO.P,K3,3*
G04 #@! TO.N,Net-(D6-Pad1)*
X101092000Y-110236000D03*
G04 #@! TO.P,K3,4*
G04 #@! TO.N,+5V*
X96012000Y-110236000D03*
G04 #@! TO.P,K3,5*
G04 #@! TO.N,Net-(J6-Pad2)*
X101092000Y-117856000D03*
G04 #@! TO.P,K3,6*
X96012000Y-117856000D03*
G04 #@! TD*
D16*
G04 #@! TO.N,GND*
X80007300Y-103698000D03*
X78232000Y-97282000D03*
X83566000Y-96266000D03*
X87630000Y-96266000D03*
X92964000Y-96266000D03*
X99568000Y-96266000D03*
G04 #@! TD*
D17*
G04 #@! TO.N,+5V*
X85852000Y-110236000D02*
X86940900Y-109147100D01*
X86940900Y-109147100D02*
X94923100Y-109147100D01*
X94923100Y-109147100D02*
X96012000Y-110236000D01*
X85852000Y-110236000D02*
X84763300Y-109147300D01*
X84763300Y-109147300D02*
X76780700Y-109147300D01*
X76780700Y-109147300D02*
X75692000Y-110236000D01*
X96012000Y-110236000D02*
X98552000Y-112776000D01*
X98552000Y-112776000D02*
X98552000Y-120650000D01*
G04 #@! TO.N,GND*
X80007300Y-103698000D02*
X78232000Y-101922700D01*
X78232000Y-101922700D02*
X78232000Y-97282000D01*
X83566000Y-96266000D02*
X87630000Y-96266000D01*
X92964000Y-96266000D02*
X99568000Y-96266000D01*
G04 #@! TO.N,Net-(J1-Pad4)*
X81132000Y-91202000D02*
X75332000Y-91202000D01*
X80772000Y-107696000D02*
X80772000Y-101002300D01*
X80772000Y-101002300D02*
X81760000Y-100014300D01*
X81760000Y-100014300D02*
X81760000Y-91830000D01*
X81760000Y-91830000D02*
X81132000Y-91202000D01*
G04 #@! TO.N,Net-(J1-Pad2)*
X75692000Y-117856000D02*
X74602900Y-116766900D01*
X74602900Y-116766900D02*
X74602900Y-100081100D01*
X74602900Y-100081100D02*
X75982000Y-98702000D01*
X75692000Y-117856000D02*
X80772000Y-117856000D01*
G04 #@! TO.N,Net-(J5-Pad2)*
X90932000Y-117856000D02*
X85852000Y-117856000D01*
G04 #@! TO.N,Net-(J5-Pad4)*
X89366600Y-91202000D02*
X85492000Y-91202000D01*
X91292000Y-91202000D02*
X89366600Y-91202000D01*
X89366600Y-91202000D02*
X89366600Y-105043300D01*
X89366600Y-105043300D02*
X90932000Y-106608700D01*
X90932000Y-107696000D02*
X90932000Y-106608700D01*
G04 #@! TO.N,Net-(J6-Pad4)*
X101092000Y-107696000D02*
X101092000Y-106608700D01*
X101092000Y-106608700D02*
X102099100Y-105601600D01*
X102099100Y-105601600D02*
X102099100Y-91849100D01*
X102099100Y-91849100D02*
X101452000Y-91202000D01*
X101452000Y-91202000D02*
X95652000Y-91202000D01*
G04 #@! TO.N,Net-(J6-Pad2)*
X100802000Y-98702000D02*
X96302000Y-98702000D01*
G04 #@! TD*
D18*
G04 #@! TO.N,GND*
G36*
X102897001Y-90548737D02*
X102795698Y-90304170D01*
X102349830Y-89858302D01*
X101767276Y-89617000D01*
X101136724Y-89617000D01*
X100554170Y-89858302D01*
X100108302Y-90304170D01*
X100051211Y-90442000D01*
X97052789Y-90442000D01*
X96995698Y-90304170D01*
X96549830Y-89858302D01*
X95967276Y-89617000D01*
X95336724Y-89617000D01*
X94754170Y-89858302D01*
X94308302Y-90304170D01*
X94067000Y-90886724D01*
X94067000Y-91517276D01*
X94308302Y-92099830D01*
X94754170Y-92545698D01*
X95336724Y-92787000D01*
X95967276Y-92787000D01*
X96549830Y-92545698D01*
X96995698Y-92099830D01*
X97052789Y-91962000D01*
X100051211Y-91962000D01*
X100108302Y-92099830D01*
X100554170Y-92545698D01*
X101136724Y-92787000D01*
X101339101Y-92787000D01*
X101339101Y-93592406D01*
X101277766Y-93567000D01*
X100826234Y-93567000D01*
X100409074Y-93739793D01*
X100089793Y-94059074D01*
X99917000Y-94476234D01*
X99917000Y-94927766D01*
X100089793Y-95344926D01*
X100409074Y-95664207D01*
X100826234Y-95837000D01*
X101277766Y-95837000D01*
X101339101Y-95811594D01*
X101339101Y-97104560D01*
X99852000Y-97104560D01*
X99604235Y-97153843D01*
X99394191Y-97294191D01*
X99253843Y-97504235D01*
X99204560Y-97752000D01*
X99204560Y-97942000D01*
X97702789Y-97942000D01*
X97645698Y-97804170D01*
X97199830Y-97358302D01*
X96617276Y-97117000D01*
X95986724Y-97117000D01*
X95404170Y-97358302D01*
X94958302Y-97804170D01*
X94717000Y-98386724D01*
X94717000Y-99017276D01*
X94958302Y-99599830D01*
X95404170Y-100045698D01*
X95986724Y-100287000D01*
X96617276Y-100287000D01*
X97199830Y-100045698D01*
X97645698Y-99599830D01*
X97702789Y-99462000D01*
X99204560Y-99462000D01*
X99204560Y-99652000D01*
X99253843Y-99899765D01*
X99394191Y-100109809D01*
X99604235Y-100250157D01*
X99852000Y-100299440D01*
X101339100Y-100299440D01*
X101339100Y-105286797D01*
X100607527Y-106018371D01*
X100544072Y-106060771D01*
X100501672Y-106124227D01*
X100501671Y-106124228D01*
X100393204Y-106286560D01*
X100330000Y-106286560D01*
X100082235Y-106335843D01*
X99872191Y-106476191D01*
X99731843Y-106686235D01*
X99682560Y-106934000D01*
X99682560Y-108458000D01*
X99731843Y-108705765D01*
X99872191Y-108915809D01*
X100082235Y-109056157D01*
X100260690Y-109091653D01*
X99907680Y-109444663D01*
X99695000Y-109958119D01*
X99695000Y-110513881D01*
X99907680Y-111027337D01*
X100300663Y-111420320D01*
X100814119Y-111633000D01*
X101369881Y-111633000D01*
X101883337Y-111420320D01*
X102276320Y-111027337D01*
X102489000Y-110513881D01*
X102489000Y-109958119D01*
X102276320Y-109444663D01*
X101923310Y-109091653D01*
X102101765Y-109056157D01*
X102311809Y-108915809D01*
X102452157Y-108705765D01*
X102501440Y-108458000D01*
X102501440Y-106934000D01*
X102452157Y-106686235D01*
X102311809Y-106476191D01*
X102304317Y-106471185D01*
X102583576Y-106191927D01*
X102647029Y-106149529D01*
X102689427Y-106086076D01*
X102689429Y-106086074D01*
X102815003Y-105898138D01*
X102815004Y-105898137D01*
X102859100Y-105676452D01*
X102859100Y-105676448D01*
X102873988Y-105601601D01*
X102859100Y-105526754D01*
X102859100Y-91946764D01*
X102897001Y-91855263D01*
X102897000Y-121947000D01*
X102393025Y-121947000D01*
X102480327Y-121859698D01*
X102577000Y-121626309D01*
X102577000Y-120935750D01*
X102418250Y-120777000D01*
X101219000Y-120777000D01*
X101219000Y-120797000D01*
X100965000Y-120797000D01*
X100965000Y-120777000D01*
X100945000Y-120777000D01*
X100945000Y-120523000D01*
X100965000Y-120523000D01*
X100965000Y-120503000D01*
X101219000Y-120503000D01*
X101219000Y-120523000D01*
X102418250Y-120523000D01*
X102577000Y-120364250D01*
X102577000Y-119673691D01*
X102480327Y-119440302D01*
X102301699Y-119261673D01*
X102068310Y-119165000D01*
X101582332Y-119165000D01*
X101883337Y-119040320D01*
X102276320Y-118647337D01*
X102489000Y-118133881D01*
X102489000Y-117578119D01*
X102276320Y-117064663D01*
X101883337Y-116671680D01*
X101369881Y-116459000D01*
X100814119Y-116459000D01*
X100300663Y-116671680D01*
X99907680Y-117064663D01*
X99695000Y-117578119D01*
X99695000Y-118133881D01*
X99907680Y-118647337D01*
X100300663Y-119040320D01*
X100601668Y-119165000D01*
X100115690Y-119165000D01*
X99882301Y-119261673D01*
X99703673Y-119440302D01*
X99637096Y-119601033D01*
X99622625Y-119579375D01*
X99312000Y-119371822D01*
X99312000Y-112850846D01*
X99326888Y-112775999D01*
X99312000Y-112701152D01*
X99312000Y-112701148D01*
X99267904Y-112479463D01*
X99226102Y-112416902D01*
X99142329Y-112291526D01*
X99142327Y-112291524D01*
X99099929Y-112228071D01*
X99036476Y-112185673D01*
X97396020Y-110545218D01*
X97409000Y-110513881D01*
X97409000Y-109958119D01*
X97196320Y-109444663D01*
X96803337Y-109051680D01*
X96596487Y-108966000D01*
X96803337Y-108880320D01*
X97196320Y-108487337D01*
X97409000Y-107973881D01*
X97409000Y-107418119D01*
X97196320Y-106904663D01*
X96803337Y-106511680D01*
X96289881Y-106299000D01*
X95734119Y-106299000D01*
X95220663Y-106511680D01*
X94827680Y-106904663D01*
X94615000Y-107418119D01*
X94615000Y-107973881D01*
X94786161Y-108387100D01*
X92341440Y-108387100D01*
X92341440Y-106934000D01*
X92292157Y-106686235D01*
X92151809Y-106476191D01*
X91941765Y-106335843D01*
X91694000Y-106286560D01*
X91630797Y-106286560D01*
X91479929Y-106060771D01*
X91416473Y-106018371D01*
X90126600Y-104728499D01*
X90126600Y-100299440D01*
X91592000Y-100299440D01*
X91771762Y-100263683D01*
X91487000Y-100951159D01*
X91487000Y-101740841D01*
X91789199Y-102470412D01*
X92347588Y-103028801D01*
X93077159Y-103331000D01*
X93866841Y-103331000D01*
X94596412Y-103028801D01*
X95154801Y-102470412D01*
X95457000Y-101740841D01*
X95457000Y-100951159D01*
X95154801Y-100221588D01*
X94596412Y-99663199D01*
X93866841Y-99361000D01*
X93077159Y-99361000D01*
X92347588Y-99663199D01*
X92209806Y-99800981D01*
X92239440Y-99652000D01*
X92239440Y-97752000D01*
X92190157Y-97504235D01*
X92049809Y-97294191D01*
X91839765Y-97153843D01*
X91592000Y-97104560D01*
X90126600Y-97104560D01*
X90126600Y-95541733D01*
X90249074Y-95664207D01*
X90666234Y-95837000D01*
X91117766Y-95837000D01*
X91534926Y-95664207D01*
X91854207Y-95344926D01*
X92027000Y-94927766D01*
X92027000Y-94476234D01*
X94917000Y-94476234D01*
X94917000Y-94927766D01*
X95089793Y-95344926D01*
X95409074Y-95664207D01*
X95826234Y-95837000D01*
X96277766Y-95837000D01*
X96694926Y-95664207D01*
X97014207Y-95344926D01*
X97187000Y-94927766D01*
X97187000Y-94476234D01*
X97014207Y-94059074D01*
X96694926Y-93739793D01*
X96277766Y-93567000D01*
X95826234Y-93567000D01*
X95409074Y-93739793D01*
X95089793Y-94059074D01*
X94917000Y-94476234D01*
X92027000Y-94476234D01*
X91854207Y-94059074D01*
X91534926Y-93739793D01*
X91117766Y-93567000D01*
X90666234Y-93567000D01*
X90249074Y-93739793D01*
X90126600Y-93862267D01*
X90126600Y-92278128D01*
X90394170Y-92545698D01*
X90976724Y-92787000D01*
X91607276Y-92787000D01*
X92189830Y-92545698D01*
X92635698Y-92099830D01*
X92877000Y-91517276D01*
X92877000Y-90886724D01*
X92635698Y-90304170D01*
X92189830Y-89858302D01*
X91607276Y-89617000D01*
X90976724Y-89617000D01*
X90394170Y-89858302D01*
X89948302Y-90304170D01*
X89891211Y-90442000D01*
X89441452Y-90442000D01*
X89366600Y-90427111D01*
X89291748Y-90442000D01*
X86892789Y-90442000D01*
X86835698Y-90304170D01*
X86389830Y-89858302D01*
X85807276Y-89617000D01*
X85176724Y-89617000D01*
X84594170Y-89858302D01*
X84148302Y-90304170D01*
X83907000Y-90886724D01*
X83907000Y-91517276D01*
X84148302Y-92099830D01*
X84594170Y-92545698D01*
X85176724Y-92787000D01*
X85807276Y-92787000D01*
X86389830Y-92545698D01*
X86835698Y-92099830D01*
X86892789Y-91962000D01*
X88606600Y-91962000D01*
X88606601Y-104968448D01*
X88591712Y-105043300D01*
X88606601Y-105118152D01*
X88650697Y-105339837D01*
X88818672Y-105591229D01*
X88882128Y-105633629D01*
X89719683Y-106471185D01*
X89712191Y-106476191D01*
X89571843Y-106686235D01*
X89522560Y-106934000D01*
X89522560Y-108387100D01*
X87077839Y-108387100D01*
X87249000Y-107973881D01*
X87249000Y-107418119D01*
X87036320Y-106904663D01*
X86643337Y-106511680D01*
X86129881Y-106299000D01*
X85574119Y-106299000D01*
X85060663Y-106511680D01*
X84667680Y-106904663D01*
X84455000Y-107418119D01*
X84455000Y-107973881D01*
X84626243Y-108387300D01*
X82181440Y-108387300D01*
X82181440Y-106934000D01*
X82132157Y-106686235D01*
X81991809Y-106476191D01*
X81781765Y-106335843D01*
X81534000Y-106286560D01*
X81532000Y-106286560D01*
X81532000Y-102235753D01*
X81629199Y-102470412D01*
X82187588Y-103028801D01*
X82917159Y-103331000D01*
X83706841Y-103331000D01*
X84436412Y-103028801D01*
X84994801Y-102470412D01*
X85297000Y-101740841D01*
X85297000Y-100951159D01*
X84994801Y-100221588D01*
X84436412Y-99663199D01*
X83706841Y-99361000D01*
X82917159Y-99361000D01*
X82520000Y-99525509D01*
X82520000Y-98386724D01*
X84557000Y-98386724D01*
X84557000Y-99017276D01*
X84798302Y-99599830D01*
X85244170Y-100045698D01*
X85826724Y-100287000D01*
X86457276Y-100287000D01*
X87039830Y-100045698D01*
X87485698Y-99599830D01*
X87727000Y-99017276D01*
X87727000Y-98386724D01*
X87485698Y-97804170D01*
X87039830Y-97358302D01*
X86457276Y-97117000D01*
X85826724Y-97117000D01*
X85244170Y-97358302D01*
X84798302Y-97804170D01*
X84557000Y-98386724D01*
X82520000Y-98386724D01*
X82520000Y-94476234D01*
X84757000Y-94476234D01*
X84757000Y-94927766D01*
X84929793Y-95344926D01*
X85249074Y-95664207D01*
X85666234Y-95837000D01*
X86117766Y-95837000D01*
X86534926Y-95664207D01*
X86854207Y-95344926D01*
X87027000Y-94927766D01*
X87027000Y-94476234D01*
X86854207Y-94059074D01*
X86534926Y-93739793D01*
X86117766Y-93567000D01*
X85666234Y-93567000D01*
X85249074Y-93739793D01*
X84929793Y-94059074D01*
X84757000Y-94476234D01*
X82520000Y-94476234D01*
X82520000Y-91992876D01*
X82717000Y-91517276D01*
X82717000Y-90886724D01*
X82475698Y-90304170D01*
X82029830Y-89858302D01*
X81447276Y-89617000D01*
X80816724Y-89617000D01*
X80234170Y-89858302D01*
X79788302Y-90304170D01*
X79731211Y-90442000D01*
X76732789Y-90442000D01*
X76675698Y-90304170D01*
X76229830Y-89858302D01*
X75647276Y-89617000D01*
X75016724Y-89617000D01*
X74434170Y-89858302D01*
X73988302Y-90304170D01*
X73887000Y-90548734D01*
X73887000Y-87603000D01*
X102897001Y-87603000D01*
X102897001Y-90548737D01*
X102897001Y-90548737D01*
G37*
X102897001Y-90548737D02*
X102795698Y-90304170D01*
X102349830Y-89858302D01*
X101767276Y-89617000D01*
X101136724Y-89617000D01*
X100554170Y-89858302D01*
X100108302Y-90304170D01*
X100051211Y-90442000D01*
X97052789Y-90442000D01*
X96995698Y-90304170D01*
X96549830Y-89858302D01*
X95967276Y-89617000D01*
X95336724Y-89617000D01*
X94754170Y-89858302D01*
X94308302Y-90304170D01*
X94067000Y-90886724D01*
X94067000Y-91517276D01*
X94308302Y-92099830D01*
X94754170Y-92545698D01*
X95336724Y-92787000D01*
X95967276Y-92787000D01*
X96549830Y-92545698D01*
X96995698Y-92099830D01*
X97052789Y-91962000D01*
X100051211Y-91962000D01*
X100108302Y-92099830D01*
X100554170Y-92545698D01*
X101136724Y-92787000D01*
X101339101Y-92787000D01*
X101339101Y-93592406D01*
X101277766Y-93567000D01*
X100826234Y-93567000D01*
X100409074Y-93739793D01*
X100089793Y-94059074D01*
X99917000Y-94476234D01*
X99917000Y-94927766D01*
X100089793Y-95344926D01*
X100409074Y-95664207D01*
X100826234Y-95837000D01*
X101277766Y-95837000D01*
X101339101Y-95811594D01*
X101339101Y-97104560D01*
X99852000Y-97104560D01*
X99604235Y-97153843D01*
X99394191Y-97294191D01*
X99253843Y-97504235D01*
X99204560Y-97752000D01*
X99204560Y-97942000D01*
X97702789Y-97942000D01*
X97645698Y-97804170D01*
X97199830Y-97358302D01*
X96617276Y-97117000D01*
X95986724Y-97117000D01*
X95404170Y-97358302D01*
X94958302Y-97804170D01*
X94717000Y-98386724D01*
X94717000Y-99017276D01*
X94958302Y-99599830D01*
X95404170Y-100045698D01*
X95986724Y-100287000D01*
X96617276Y-100287000D01*
X97199830Y-100045698D01*
X97645698Y-99599830D01*
X97702789Y-99462000D01*
X99204560Y-99462000D01*
X99204560Y-99652000D01*
X99253843Y-99899765D01*
X99394191Y-100109809D01*
X99604235Y-100250157D01*
X99852000Y-100299440D01*
X101339100Y-100299440D01*
X101339100Y-105286797D01*
X100607527Y-106018371D01*
X100544072Y-106060771D01*
X100501672Y-106124227D01*
X100501671Y-106124228D01*
X100393204Y-106286560D01*
X100330000Y-106286560D01*
X100082235Y-106335843D01*
X99872191Y-106476191D01*
X99731843Y-106686235D01*
X99682560Y-106934000D01*
X99682560Y-108458000D01*
X99731843Y-108705765D01*
X99872191Y-108915809D01*
X100082235Y-109056157D01*
X100260690Y-109091653D01*
X99907680Y-109444663D01*
X99695000Y-109958119D01*
X99695000Y-110513881D01*
X99907680Y-111027337D01*
X100300663Y-111420320D01*
X100814119Y-111633000D01*
X101369881Y-111633000D01*
X101883337Y-111420320D01*
X102276320Y-111027337D01*
X102489000Y-110513881D01*
X102489000Y-109958119D01*
X102276320Y-109444663D01*
X101923310Y-109091653D01*
X102101765Y-109056157D01*
X102311809Y-108915809D01*
X102452157Y-108705765D01*
X102501440Y-108458000D01*
X102501440Y-106934000D01*
X102452157Y-106686235D01*
X102311809Y-106476191D01*
X102304317Y-106471185D01*
X102583576Y-106191927D01*
X102647029Y-106149529D01*
X102689427Y-106086076D01*
X102689429Y-106086074D01*
X102815003Y-105898138D01*
X102815004Y-105898137D01*
X102859100Y-105676452D01*
X102859100Y-105676448D01*
X102873988Y-105601601D01*
X102859100Y-105526754D01*
X102859100Y-91946764D01*
X102897001Y-91855263D01*
X102897000Y-121947000D01*
X102393025Y-121947000D01*
X102480327Y-121859698D01*
X102577000Y-121626309D01*
X102577000Y-120935750D01*
X102418250Y-120777000D01*
X101219000Y-120777000D01*
X101219000Y-120797000D01*
X100965000Y-120797000D01*
X100965000Y-120777000D01*
X100945000Y-120777000D01*
X100945000Y-120523000D01*
X100965000Y-120523000D01*
X100965000Y-120503000D01*
X101219000Y-120503000D01*
X101219000Y-120523000D01*
X102418250Y-120523000D01*
X102577000Y-120364250D01*
X102577000Y-119673691D01*
X102480327Y-119440302D01*
X102301699Y-119261673D01*
X102068310Y-119165000D01*
X101582332Y-119165000D01*
X101883337Y-119040320D01*
X102276320Y-118647337D01*
X102489000Y-118133881D01*
X102489000Y-117578119D01*
X102276320Y-117064663D01*
X101883337Y-116671680D01*
X101369881Y-116459000D01*
X100814119Y-116459000D01*
X100300663Y-116671680D01*
X99907680Y-117064663D01*
X99695000Y-117578119D01*
X99695000Y-118133881D01*
X99907680Y-118647337D01*
X100300663Y-119040320D01*
X100601668Y-119165000D01*
X100115690Y-119165000D01*
X99882301Y-119261673D01*
X99703673Y-119440302D01*
X99637096Y-119601033D01*
X99622625Y-119579375D01*
X99312000Y-119371822D01*
X99312000Y-112850846D01*
X99326888Y-112775999D01*
X99312000Y-112701152D01*
X99312000Y-112701148D01*
X99267904Y-112479463D01*
X99226102Y-112416902D01*
X99142329Y-112291526D01*
X99142327Y-112291524D01*
X99099929Y-112228071D01*
X99036476Y-112185673D01*
X97396020Y-110545218D01*
X97409000Y-110513881D01*
X97409000Y-109958119D01*
X97196320Y-109444663D01*
X96803337Y-109051680D01*
X96596487Y-108966000D01*
X96803337Y-108880320D01*
X97196320Y-108487337D01*
X97409000Y-107973881D01*
X97409000Y-107418119D01*
X97196320Y-106904663D01*
X96803337Y-106511680D01*
X96289881Y-106299000D01*
X95734119Y-106299000D01*
X95220663Y-106511680D01*
X94827680Y-106904663D01*
X94615000Y-107418119D01*
X94615000Y-107973881D01*
X94786161Y-108387100D01*
X92341440Y-108387100D01*
X92341440Y-106934000D01*
X92292157Y-106686235D01*
X92151809Y-106476191D01*
X91941765Y-106335843D01*
X91694000Y-106286560D01*
X91630797Y-106286560D01*
X91479929Y-106060771D01*
X91416473Y-106018371D01*
X90126600Y-104728499D01*
X90126600Y-100299440D01*
X91592000Y-100299440D01*
X91771762Y-100263683D01*
X91487000Y-100951159D01*
X91487000Y-101740841D01*
X91789199Y-102470412D01*
X92347588Y-103028801D01*
X93077159Y-103331000D01*
X93866841Y-103331000D01*
X94596412Y-103028801D01*
X95154801Y-102470412D01*
X95457000Y-101740841D01*
X95457000Y-100951159D01*
X95154801Y-100221588D01*
X94596412Y-99663199D01*
X93866841Y-99361000D01*
X93077159Y-99361000D01*
X92347588Y-99663199D01*
X92209806Y-99800981D01*
X92239440Y-99652000D01*
X92239440Y-97752000D01*
X92190157Y-97504235D01*
X92049809Y-97294191D01*
X91839765Y-97153843D01*
X91592000Y-97104560D01*
X90126600Y-97104560D01*
X90126600Y-95541733D01*
X90249074Y-95664207D01*
X90666234Y-95837000D01*
X91117766Y-95837000D01*
X91534926Y-95664207D01*
X91854207Y-95344926D01*
X92027000Y-94927766D01*
X92027000Y-94476234D01*
X94917000Y-94476234D01*
X94917000Y-94927766D01*
X95089793Y-95344926D01*
X95409074Y-95664207D01*
X95826234Y-95837000D01*
X96277766Y-95837000D01*
X96694926Y-95664207D01*
X97014207Y-95344926D01*
X97187000Y-94927766D01*
X97187000Y-94476234D01*
X97014207Y-94059074D01*
X96694926Y-93739793D01*
X96277766Y-93567000D01*
X95826234Y-93567000D01*
X95409074Y-93739793D01*
X95089793Y-94059074D01*
X94917000Y-94476234D01*
X92027000Y-94476234D01*
X91854207Y-94059074D01*
X91534926Y-93739793D01*
X91117766Y-93567000D01*
X90666234Y-93567000D01*
X90249074Y-93739793D01*
X90126600Y-93862267D01*
X90126600Y-92278128D01*
X90394170Y-92545698D01*
X90976724Y-92787000D01*
X91607276Y-92787000D01*
X92189830Y-92545698D01*
X92635698Y-92099830D01*
X92877000Y-91517276D01*
X92877000Y-90886724D01*
X92635698Y-90304170D01*
X92189830Y-89858302D01*
X91607276Y-89617000D01*
X90976724Y-89617000D01*
X90394170Y-89858302D01*
X89948302Y-90304170D01*
X89891211Y-90442000D01*
X89441452Y-90442000D01*
X89366600Y-90427111D01*
X89291748Y-90442000D01*
X86892789Y-90442000D01*
X86835698Y-90304170D01*
X86389830Y-89858302D01*
X85807276Y-89617000D01*
X85176724Y-89617000D01*
X84594170Y-89858302D01*
X84148302Y-90304170D01*
X83907000Y-90886724D01*
X83907000Y-91517276D01*
X84148302Y-92099830D01*
X84594170Y-92545698D01*
X85176724Y-92787000D01*
X85807276Y-92787000D01*
X86389830Y-92545698D01*
X86835698Y-92099830D01*
X86892789Y-91962000D01*
X88606600Y-91962000D01*
X88606601Y-104968448D01*
X88591712Y-105043300D01*
X88606601Y-105118152D01*
X88650697Y-105339837D01*
X88818672Y-105591229D01*
X88882128Y-105633629D01*
X89719683Y-106471185D01*
X89712191Y-106476191D01*
X89571843Y-106686235D01*
X89522560Y-106934000D01*
X89522560Y-108387100D01*
X87077839Y-108387100D01*
X87249000Y-107973881D01*
X87249000Y-107418119D01*
X87036320Y-106904663D01*
X86643337Y-106511680D01*
X86129881Y-106299000D01*
X85574119Y-106299000D01*
X85060663Y-106511680D01*
X84667680Y-106904663D01*
X84455000Y-107418119D01*
X84455000Y-107973881D01*
X84626243Y-108387300D01*
X82181440Y-108387300D01*
X82181440Y-106934000D01*
X82132157Y-106686235D01*
X81991809Y-106476191D01*
X81781765Y-106335843D01*
X81534000Y-106286560D01*
X81532000Y-106286560D01*
X81532000Y-102235753D01*
X81629199Y-102470412D01*
X82187588Y-103028801D01*
X82917159Y-103331000D01*
X83706841Y-103331000D01*
X84436412Y-103028801D01*
X84994801Y-102470412D01*
X85297000Y-101740841D01*
X85297000Y-100951159D01*
X84994801Y-100221588D01*
X84436412Y-99663199D01*
X83706841Y-99361000D01*
X82917159Y-99361000D01*
X82520000Y-99525509D01*
X82520000Y-98386724D01*
X84557000Y-98386724D01*
X84557000Y-99017276D01*
X84798302Y-99599830D01*
X85244170Y-100045698D01*
X85826724Y-100287000D01*
X86457276Y-100287000D01*
X87039830Y-100045698D01*
X87485698Y-99599830D01*
X87727000Y-99017276D01*
X87727000Y-98386724D01*
X87485698Y-97804170D01*
X87039830Y-97358302D01*
X86457276Y-97117000D01*
X85826724Y-97117000D01*
X85244170Y-97358302D01*
X84798302Y-97804170D01*
X84557000Y-98386724D01*
X82520000Y-98386724D01*
X82520000Y-94476234D01*
X84757000Y-94476234D01*
X84757000Y-94927766D01*
X84929793Y-95344926D01*
X85249074Y-95664207D01*
X85666234Y-95837000D01*
X86117766Y-95837000D01*
X86534926Y-95664207D01*
X86854207Y-95344926D01*
X87027000Y-94927766D01*
X87027000Y-94476234D01*
X86854207Y-94059074D01*
X86534926Y-93739793D01*
X86117766Y-93567000D01*
X85666234Y-93567000D01*
X85249074Y-93739793D01*
X84929793Y-94059074D01*
X84757000Y-94476234D01*
X82520000Y-94476234D01*
X82520000Y-91992876D01*
X82717000Y-91517276D01*
X82717000Y-90886724D01*
X82475698Y-90304170D01*
X82029830Y-89858302D01*
X81447276Y-89617000D01*
X80816724Y-89617000D01*
X80234170Y-89858302D01*
X79788302Y-90304170D01*
X79731211Y-90442000D01*
X76732789Y-90442000D01*
X76675698Y-90304170D01*
X76229830Y-89858302D01*
X75647276Y-89617000D01*
X75016724Y-89617000D01*
X74434170Y-89858302D01*
X73988302Y-90304170D01*
X73887000Y-90548734D01*
X73887000Y-87603000D01*
X102897001Y-87603000D01*
X102897001Y-90548737D01*
G36*
X89535000Y-109958119D02*
X89535000Y-110513881D01*
X89747680Y-111027337D01*
X90140663Y-111420320D01*
X90654119Y-111633000D01*
X91209881Y-111633000D01*
X91723337Y-111420320D01*
X92116320Y-111027337D01*
X92329000Y-110513881D01*
X92329000Y-109958119D01*
X92307867Y-109907100D01*
X94608299Y-109907100D01*
X94627980Y-109926782D01*
X94615000Y-109958119D01*
X94615000Y-110513881D01*
X94827680Y-111027337D01*
X95220663Y-111420320D01*
X95734119Y-111633000D01*
X96289881Y-111633000D01*
X96321218Y-111620020D01*
X97792000Y-113090803D01*
X97792001Y-119371821D01*
X97481375Y-119579375D01*
X97153161Y-120070582D01*
X97037908Y-120650000D01*
X97153161Y-121229418D01*
X97481375Y-121720625D01*
X97820169Y-121947000D01*
X91663831Y-121947000D01*
X92002625Y-121720625D01*
X92330839Y-121229418D01*
X92446092Y-120650000D01*
X92330839Y-120070582D01*
X92002625Y-119579375D01*
X91511418Y-119251161D01*
X91310706Y-119211237D01*
X91723337Y-119040320D01*
X92116320Y-118647337D01*
X92329000Y-118133881D01*
X92329000Y-117578119D01*
X94615000Y-117578119D01*
X94615000Y-118133881D01*
X94827680Y-118647337D01*
X95220663Y-119040320D01*
X95734119Y-119253000D01*
X96289881Y-119253000D01*
X96803337Y-119040320D01*
X97196320Y-118647337D01*
X97409000Y-118133881D01*
X97409000Y-117578119D01*
X97196320Y-117064663D01*
X96803337Y-116671680D01*
X96289881Y-116459000D01*
X95734119Y-116459000D01*
X95220663Y-116671680D01*
X94827680Y-117064663D01*
X94615000Y-117578119D01*
X92329000Y-117578119D01*
X92116320Y-117064663D01*
X91723337Y-116671680D01*
X91209881Y-116459000D01*
X90654119Y-116459000D01*
X90140663Y-116671680D01*
X89747680Y-117064663D01*
X89734700Y-117096000D01*
X87049300Y-117096000D01*
X87036320Y-117064663D01*
X86643337Y-116671680D01*
X86129881Y-116459000D01*
X85574119Y-116459000D01*
X85060663Y-116671680D01*
X84667680Y-117064663D01*
X84455000Y-117578119D01*
X84455000Y-118133881D01*
X84667680Y-118647337D01*
X85060663Y-119040320D01*
X85331635Y-119152560D01*
X85002000Y-119152560D01*
X84754235Y-119201843D01*
X84544191Y-119342191D01*
X84403843Y-119552235D01*
X84354560Y-119800000D01*
X84354560Y-121500000D01*
X84403843Y-121747765D01*
X84536969Y-121947000D01*
X79533025Y-121947000D01*
X79620327Y-121859698D01*
X79717000Y-121626309D01*
X79717000Y-120935750D01*
X79558250Y-120777000D01*
X78359000Y-120777000D01*
X78359000Y-120797000D01*
X78105000Y-120797000D01*
X78105000Y-120777000D01*
X78085000Y-120777000D01*
X78085000Y-120523000D01*
X78105000Y-120523000D01*
X78105000Y-119323750D01*
X78359000Y-119323750D01*
X78359000Y-120523000D01*
X79558250Y-120523000D01*
X79717000Y-120364250D01*
X79717000Y-119673691D01*
X79620327Y-119440302D01*
X79441699Y-119261673D01*
X79208310Y-119165000D01*
X78517750Y-119165000D01*
X78359000Y-119323750D01*
X78105000Y-119323750D01*
X77946250Y-119165000D01*
X77255690Y-119165000D01*
X77022301Y-119261673D01*
X76843673Y-119440302D01*
X76777096Y-119601033D01*
X76762625Y-119579375D01*
X76271418Y-119251161D01*
X76070706Y-119211237D01*
X76483337Y-119040320D01*
X76876320Y-118647337D01*
X76889300Y-118616000D01*
X79574700Y-118616000D01*
X79587680Y-118647337D01*
X79980663Y-119040320D01*
X80494119Y-119253000D01*
X81049881Y-119253000D01*
X81563337Y-119040320D01*
X81956320Y-118647337D01*
X82169000Y-118133881D01*
X82169000Y-117578119D01*
X81956320Y-117064663D01*
X81563337Y-116671680D01*
X81049881Y-116459000D01*
X80494119Y-116459000D01*
X79980663Y-116671680D01*
X79587680Y-117064663D01*
X79574700Y-117096000D01*
X76889300Y-117096000D01*
X76876320Y-117064663D01*
X76483337Y-116671680D01*
X75969881Y-116459000D01*
X75414119Y-116459000D01*
X75382782Y-116471980D01*
X75362900Y-116452099D01*
X75362900Y-111611784D01*
X75414119Y-111633000D01*
X75969881Y-111633000D01*
X76483337Y-111420320D01*
X76876320Y-111027337D01*
X77089000Y-110513881D01*
X77089000Y-109958119D01*
X77076020Y-109926782D01*
X77095503Y-109907300D01*
X79396050Y-109907300D01*
X79375000Y-109958119D01*
X79375000Y-110513881D01*
X79587680Y-111027337D01*
X79980663Y-111420320D01*
X80494119Y-111633000D01*
X81049881Y-111633000D01*
X81563337Y-111420320D01*
X81956320Y-111027337D01*
X82169000Y-110513881D01*
X82169000Y-109958119D01*
X82147950Y-109907300D01*
X84448499Y-109907300D01*
X84467980Y-109926782D01*
X84455000Y-109958119D01*
X84455000Y-110513881D01*
X84667680Y-111027337D01*
X85060663Y-111420320D01*
X85574119Y-111633000D01*
X86129881Y-111633000D01*
X86643337Y-111420320D01*
X87036320Y-111027337D01*
X87249000Y-110513881D01*
X87249000Y-109958119D01*
X87236020Y-109926782D01*
X87255702Y-109907100D01*
X89556133Y-109907100D01*
X89535000Y-109958119D01*
X89535000Y-109958119D01*
G37*
X89535000Y-109958119D02*
X89535000Y-110513881D01*
X89747680Y-111027337D01*
X90140663Y-111420320D01*
X90654119Y-111633000D01*
X91209881Y-111633000D01*
X91723337Y-111420320D01*
X92116320Y-111027337D01*
X92329000Y-110513881D01*
X92329000Y-109958119D01*
X92307867Y-109907100D01*
X94608299Y-109907100D01*
X94627980Y-109926782D01*
X94615000Y-109958119D01*
X94615000Y-110513881D01*
X94827680Y-111027337D01*
X95220663Y-111420320D01*
X95734119Y-111633000D01*
X96289881Y-111633000D01*
X96321218Y-111620020D01*
X97792000Y-113090803D01*
X97792001Y-119371821D01*
X97481375Y-119579375D01*
X97153161Y-120070582D01*
X97037908Y-120650000D01*
X97153161Y-121229418D01*
X97481375Y-121720625D01*
X97820169Y-121947000D01*
X91663831Y-121947000D01*
X92002625Y-121720625D01*
X92330839Y-121229418D01*
X92446092Y-120650000D01*
X92330839Y-120070582D01*
X92002625Y-119579375D01*
X91511418Y-119251161D01*
X91310706Y-119211237D01*
X91723337Y-119040320D01*
X92116320Y-118647337D01*
X92329000Y-118133881D01*
X92329000Y-117578119D01*
X94615000Y-117578119D01*
X94615000Y-118133881D01*
X94827680Y-118647337D01*
X95220663Y-119040320D01*
X95734119Y-119253000D01*
X96289881Y-119253000D01*
X96803337Y-119040320D01*
X97196320Y-118647337D01*
X97409000Y-118133881D01*
X97409000Y-117578119D01*
X97196320Y-117064663D01*
X96803337Y-116671680D01*
X96289881Y-116459000D01*
X95734119Y-116459000D01*
X95220663Y-116671680D01*
X94827680Y-117064663D01*
X94615000Y-117578119D01*
X92329000Y-117578119D01*
X92116320Y-117064663D01*
X91723337Y-116671680D01*
X91209881Y-116459000D01*
X90654119Y-116459000D01*
X90140663Y-116671680D01*
X89747680Y-117064663D01*
X89734700Y-117096000D01*
X87049300Y-117096000D01*
X87036320Y-117064663D01*
X86643337Y-116671680D01*
X86129881Y-116459000D01*
X85574119Y-116459000D01*
X85060663Y-116671680D01*
X84667680Y-117064663D01*
X84455000Y-117578119D01*
X84455000Y-118133881D01*
X84667680Y-118647337D01*
X85060663Y-119040320D01*
X85331635Y-119152560D01*
X85002000Y-119152560D01*
X84754235Y-119201843D01*
X84544191Y-119342191D01*
X84403843Y-119552235D01*
X84354560Y-119800000D01*
X84354560Y-121500000D01*
X84403843Y-121747765D01*
X84536969Y-121947000D01*
X79533025Y-121947000D01*
X79620327Y-121859698D01*
X79717000Y-121626309D01*
X79717000Y-120935750D01*
X79558250Y-120777000D01*
X78359000Y-120777000D01*
X78359000Y-120797000D01*
X78105000Y-120797000D01*
X78105000Y-120777000D01*
X78085000Y-120777000D01*
X78085000Y-120523000D01*
X78105000Y-120523000D01*
X78105000Y-119323750D01*
X78359000Y-119323750D01*
X78359000Y-120523000D01*
X79558250Y-120523000D01*
X79717000Y-120364250D01*
X79717000Y-119673691D01*
X79620327Y-119440302D01*
X79441699Y-119261673D01*
X79208310Y-119165000D01*
X78517750Y-119165000D01*
X78359000Y-119323750D01*
X78105000Y-119323750D01*
X77946250Y-119165000D01*
X77255690Y-119165000D01*
X77022301Y-119261673D01*
X76843673Y-119440302D01*
X76777096Y-119601033D01*
X76762625Y-119579375D01*
X76271418Y-119251161D01*
X76070706Y-119211237D01*
X76483337Y-119040320D01*
X76876320Y-118647337D01*
X76889300Y-118616000D01*
X79574700Y-118616000D01*
X79587680Y-118647337D01*
X79980663Y-119040320D01*
X80494119Y-119253000D01*
X81049881Y-119253000D01*
X81563337Y-119040320D01*
X81956320Y-118647337D01*
X82169000Y-118133881D01*
X82169000Y-117578119D01*
X81956320Y-117064663D01*
X81563337Y-116671680D01*
X81049881Y-116459000D01*
X80494119Y-116459000D01*
X79980663Y-116671680D01*
X79587680Y-117064663D01*
X79574700Y-117096000D01*
X76889300Y-117096000D01*
X76876320Y-117064663D01*
X76483337Y-116671680D01*
X75969881Y-116459000D01*
X75414119Y-116459000D01*
X75382782Y-116471980D01*
X75362900Y-116452099D01*
X75362900Y-111611784D01*
X75414119Y-111633000D01*
X75969881Y-111633000D01*
X76483337Y-111420320D01*
X76876320Y-111027337D01*
X77089000Y-110513881D01*
X77089000Y-109958119D01*
X77076020Y-109926782D01*
X77095503Y-109907300D01*
X79396050Y-109907300D01*
X79375000Y-109958119D01*
X79375000Y-110513881D01*
X79587680Y-111027337D01*
X79980663Y-111420320D01*
X80494119Y-111633000D01*
X81049881Y-111633000D01*
X81563337Y-111420320D01*
X81956320Y-111027337D01*
X82169000Y-110513881D01*
X82169000Y-109958119D01*
X82147950Y-109907300D01*
X84448499Y-109907300D01*
X84467980Y-109926782D01*
X84455000Y-109958119D01*
X84455000Y-110513881D01*
X84667680Y-111027337D01*
X85060663Y-111420320D01*
X85574119Y-111633000D01*
X86129881Y-111633000D01*
X86643337Y-111420320D01*
X87036320Y-111027337D01*
X87249000Y-110513881D01*
X87249000Y-109958119D01*
X87236020Y-109926782D01*
X87255702Y-109907100D01*
X89556133Y-109907100D01*
X89535000Y-109958119D01*
G36*
X73988302Y-92099830D02*
X74434170Y-92545698D01*
X75016724Y-92787000D01*
X75647276Y-92787000D01*
X76229830Y-92545698D01*
X76675698Y-92099830D01*
X76732789Y-91962000D01*
X79731211Y-91962000D01*
X79788302Y-92099830D01*
X80234170Y-92545698D01*
X80816724Y-92787000D01*
X81000001Y-92787000D01*
X81000001Y-93584494D01*
X80957766Y-93567000D01*
X80506234Y-93567000D01*
X80089074Y-93739793D01*
X79769793Y-94059074D01*
X79597000Y-94476234D01*
X79597000Y-94927766D01*
X79769793Y-95344926D01*
X80089074Y-95664207D01*
X80506234Y-95837000D01*
X80957766Y-95837000D01*
X81000001Y-95819506D01*
X81000000Y-97104560D01*
X79532000Y-97104560D01*
X79284235Y-97153843D01*
X79074191Y-97294191D01*
X78933843Y-97504235D01*
X78884560Y-97752000D01*
X78884560Y-99652000D01*
X78933843Y-99899765D01*
X79074191Y-100109809D01*
X79284235Y-100250157D01*
X79532000Y-100299440D01*
X80400059Y-100299440D01*
X80287528Y-100411971D01*
X80224072Y-100454371D01*
X80056097Y-100705763D01*
X80039503Y-100789189D01*
X79997112Y-101002300D01*
X80012001Y-101077152D01*
X80012000Y-106286560D01*
X80010000Y-106286560D01*
X79762235Y-106335843D01*
X79552191Y-106476191D01*
X79411843Y-106686235D01*
X79362560Y-106934000D01*
X79362560Y-108387300D01*
X76917757Y-108387300D01*
X77089000Y-107973881D01*
X77089000Y-107418119D01*
X76876320Y-106904663D01*
X76483337Y-106511680D01*
X75969881Y-106299000D01*
X75414119Y-106299000D01*
X75362900Y-106320216D01*
X75362900Y-100395901D01*
X75528893Y-100229908D01*
X75666724Y-100287000D01*
X76297276Y-100287000D01*
X76879830Y-100045698D01*
X77325698Y-99599830D01*
X77567000Y-99017276D01*
X77567000Y-98386724D01*
X77325698Y-97804170D01*
X76879830Y-97358302D01*
X76297276Y-97117000D01*
X75666724Y-97117000D01*
X75084170Y-97358302D01*
X74638302Y-97804170D01*
X74397000Y-98386724D01*
X74397000Y-99017276D01*
X74454092Y-99155107D01*
X74118428Y-99490771D01*
X74054972Y-99533171D01*
X74012572Y-99596627D01*
X74012571Y-99596628D01*
X73887000Y-99784559D01*
X73887000Y-94476234D01*
X74597000Y-94476234D01*
X74597000Y-94927766D01*
X74769793Y-95344926D01*
X75089074Y-95664207D01*
X75506234Y-95837000D01*
X75957766Y-95837000D01*
X76374926Y-95664207D01*
X76694207Y-95344926D01*
X76867000Y-94927766D01*
X76867000Y-94476234D01*
X76694207Y-94059074D01*
X76374926Y-93739793D01*
X75957766Y-93567000D01*
X75506234Y-93567000D01*
X75089074Y-93739793D01*
X74769793Y-94059074D01*
X74597000Y-94476234D01*
X73887000Y-94476234D01*
X73887000Y-91855266D01*
X73988302Y-92099830D01*
X73988302Y-92099830D01*
G37*
X73988302Y-92099830D02*
X74434170Y-92545698D01*
X75016724Y-92787000D01*
X75647276Y-92787000D01*
X76229830Y-92545698D01*
X76675698Y-92099830D01*
X76732789Y-91962000D01*
X79731211Y-91962000D01*
X79788302Y-92099830D01*
X80234170Y-92545698D01*
X80816724Y-92787000D01*
X81000001Y-92787000D01*
X81000001Y-93584494D01*
X80957766Y-93567000D01*
X80506234Y-93567000D01*
X80089074Y-93739793D01*
X79769793Y-94059074D01*
X79597000Y-94476234D01*
X79597000Y-94927766D01*
X79769793Y-95344926D01*
X80089074Y-95664207D01*
X80506234Y-95837000D01*
X80957766Y-95837000D01*
X81000001Y-95819506D01*
X81000000Y-97104560D01*
X79532000Y-97104560D01*
X79284235Y-97153843D01*
X79074191Y-97294191D01*
X78933843Y-97504235D01*
X78884560Y-97752000D01*
X78884560Y-99652000D01*
X78933843Y-99899765D01*
X79074191Y-100109809D01*
X79284235Y-100250157D01*
X79532000Y-100299440D01*
X80400059Y-100299440D01*
X80287528Y-100411971D01*
X80224072Y-100454371D01*
X80056097Y-100705763D01*
X80039503Y-100789189D01*
X79997112Y-101002300D01*
X80012001Y-101077152D01*
X80012000Y-106286560D01*
X80010000Y-106286560D01*
X79762235Y-106335843D01*
X79552191Y-106476191D01*
X79411843Y-106686235D01*
X79362560Y-106934000D01*
X79362560Y-108387300D01*
X76917757Y-108387300D01*
X77089000Y-107973881D01*
X77089000Y-107418119D01*
X76876320Y-106904663D01*
X76483337Y-106511680D01*
X75969881Y-106299000D01*
X75414119Y-106299000D01*
X75362900Y-106320216D01*
X75362900Y-100395901D01*
X75528893Y-100229908D01*
X75666724Y-100287000D01*
X76297276Y-100287000D01*
X76879830Y-100045698D01*
X77325698Y-99599830D01*
X77567000Y-99017276D01*
X77567000Y-98386724D01*
X77325698Y-97804170D01*
X76879830Y-97358302D01*
X76297276Y-97117000D01*
X75666724Y-97117000D01*
X75084170Y-97358302D01*
X74638302Y-97804170D01*
X74397000Y-98386724D01*
X74397000Y-99017276D01*
X74454092Y-99155107D01*
X74118428Y-99490771D01*
X74054972Y-99533171D01*
X74012572Y-99596627D01*
X74012571Y-99596628D01*
X73887000Y-99784559D01*
X73887000Y-94476234D01*
X74597000Y-94476234D01*
X74597000Y-94927766D01*
X74769793Y-95344926D01*
X75089074Y-95664207D01*
X75506234Y-95837000D01*
X75957766Y-95837000D01*
X76374926Y-95664207D01*
X76694207Y-95344926D01*
X76867000Y-94927766D01*
X76867000Y-94476234D01*
X76694207Y-94059074D01*
X76374926Y-93739793D01*
X75957766Y-93567000D01*
X75506234Y-93567000D01*
X75089074Y-93739793D01*
X74769793Y-94059074D01*
X74597000Y-94476234D01*
X73887000Y-94476234D01*
X73887000Y-91855266D01*
X73988302Y-92099830D01*
G04 #@! TD*
M02*
