G04 #@! TF.GenerationSoftware,KiCad,Pcbnew,5.0.1-33cea8e~68~ubuntu18.04.1*
G04 #@! TF.CreationDate,2018-11-09T17:01:54+09:00*
G04 #@! TF.ProjectId,relay_jacks,72656C61795F6A61636B732E6B696361,rev?*
G04 #@! TF.SameCoordinates,Original*
G04 #@! TF.FileFunction,Copper,L1,Top,Signal*
G04 #@! TF.FilePolarity,Positive*
%FSLAX46Y46*%
G04 Gerber Fmt 4.6, Leading zero omitted, Abs format (unit mm)*
G04 Created by KiCad (PCBNEW 5.0.1-33cea8e~68~ubuntu18.04.1) date 2018年11月09日 17時01分54秒*
%MOMM*%
%LPD*%
G01*
G04 APERTURE LIST*
G04 #@! TA.AperFunction,ComponentPad*
%ADD10R,1.524000X1.524000*%
G04 #@! TD*
G04 #@! TA.AperFunction,ComponentPad*
%ADD11C,1.524000*%
G04 #@! TD*
G04 #@! TA.AperFunction,ComponentPad*
%ADD12C,1.900000*%
G04 #@! TD*
G04 #@! TA.AperFunction,ComponentPad*
%ADD13R,1.900000X1.900000*%
G04 #@! TD*
G04 #@! TA.AperFunction,Conductor*
%ADD14C,0.100000*%
G04 #@! TD*
G04 #@! TA.AperFunction,SMDPad,CuDef*
%ADD15C,0.875000*%
G04 #@! TD*
G04 #@! TA.AperFunction,SMDPad,CuDef*
%ADD16R,0.600000X0.700000*%
G04 #@! TD*
G04 #@! TA.AperFunction,ComponentPad*
%ADD17R,1.700000X1.700000*%
G04 #@! TD*
G04 #@! TA.AperFunction,ComponentPad*
%ADD18O,1.700000X1.700000*%
G04 #@! TD*
G04 #@! TA.AperFunction,SMDPad,CuDef*
%ADD19R,0.900000X0.800000*%
G04 #@! TD*
G04 #@! TA.AperFunction,ViaPad*
%ADD20C,0.800000*%
G04 #@! TD*
G04 #@! TA.AperFunction,Conductor*
%ADD21C,0.250000*%
G04 #@! TD*
G04 #@! TA.AperFunction,Conductor*
%ADD22C,0.254000*%
G04 #@! TD*
G04 APERTURE END LIST*
D10*
G04 #@! TO.P,K1,1*
G04 #@! TO.N,Net-(J1-Pad4)*
X74852000Y-105696000D03*
D11*
G04 #@! TO.P,K1,2*
G04 #@! TO.N,Net-(K1-Pad2)*
X79932000Y-105696000D03*
G04 #@! TO.P,K1,3*
G04 #@! TO.N,Net-(D2-Pad1)*
X74852000Y-108236000D03*
G04 #@! TO.P,K1,4*
G04 #@! TO.N,+5V*
X79932000Y-108236000D03*
G04 #@! TO.P,K1,5*
G04 #@! TO.N,Net-(J1-Pad2)*
X74852000Y-115856000D03*
G04 #@! TO.P,K1,6*
X79932000Y-115856000D03*
G04 #@! TD*
D12*
G04 #@! TO.P,J5,3*
G04 #@! TO.N,Net-(J5-Pad2)*
X90642000Y-98202000D03*
D13*
G04 #@! TO.P,J5,2*
X86142000Y-98202000D03*
D12*
G04 #@! TO.P,J5,4*
G04 #@! TO.N,Net-(J5-Pad4)*
X91292000Y-90702000D03*
X85492000Y-90702000D03*
G04 #@! TD*
G04 #@! TO.P,J6,3*
G04 #@! TO.N,Net-(J6-Pad2)*
X101642000Y-98202000D03*
D13*
G04 #@! TO.P,J6,2*
X97142000Y-98202000D03*
D12*
G04 #@! TO.P,J6,4*
G04 #@! TO.N,Net-(J6-Pad4)*
X102292000Y-90702000D03*
X96492000Y-90702000D03*
G04 #@! TD*
D11*
G04 #@! TO.P,K2,6*
G04 #@! TO.N,Net-(J5-Pad2)*
X90932000Y-115856000D03*
G04 #@! TO.P,K2,5*
X85852000Y-115856000D03*
G04 #@! TO.P,K2,4*
G04 #@! TO.N,+5V*
X90932000Y-108236000D03*
G04 #@! TO.P,K2,3*
G04 #@! TO.N,Net-(D4-Pad1)*
X85852000Y-108236000D03*
G04 #@! TO.P,K2,2*
G04 #@! TO.N,Net-(K2-Pad2)*
X90932000Y-105696000D03*
D10*
G04 #@! TO.P,K2,1*
G04 #@! TO.N,Net-(J5-Pad4)*
X85852000Y-105696000D03*
G04 #@! TD*
D12*
G04 #@! TO.P,J1,3*
G04 #@! TO.N,Net-(J1-Pad2)*
X79642000Y-98202000D03*
D13*
G04 #@! TO.P,J1,2*
X75142000Y-98202000D03*
D12*
G04 #@! TO.P,J1,4*
G04 #@! TO.N,Net-(J1-Pad4)*
X80292000Y-90702000D03*
X74492000Y-90702000D03*
G04 #@! TD*
D14*
G04 #@! TO.N,Net-(D1-Pad1)*
G04 #@! TO.C,D1*
G36*
X76844691Y-102894053D02*
X76865926Y-102897203D01*
X76886750Y-102902419D01*
X76906962Y-102909651D01*
X76926368Y-102918830D01*
X76944781Y-102929866D01*
X76962024Y-102942654D01*
X76977930Y-102957070D01*
X76992346Y-102972976D01*
X77005134Y-102990219D01*
X77016170Y-103008632D01*
X77025349Y-103028038D01*
X77032581Y-103048250D01*
X77037797Y-103069074D01*
X77040947Y-103090309D01*
X77042000Y-103111750D01*
X77042000Y-103624250D01*
X77040947Y-103645691D01*
X77037797Y-103666926D01*
X77032581Y-103687750D01*
X77025349Y-103707962D01*
X77016170Y-103727368D01*
X77005134Y-103745781D01*
X76992346Y-103763024D01*
X76977930Y-103778930D01*
X76962024Y-103793346D01*
X76944781Y-103806134D01*
X76926368Y-103817170D01*
X76906962Y-103826349D01*
X76886750Y-103833581D01*
X76865926Y-103838797D01*
X76844691Y-103841947D01*
X76823250Y-103843000D01*
X76385750Y-103843000D01*
X76364309Y-103841947D01*
X76343074Y-103838797D01*
X76322250Y-103833581D01*
X76302038Y-103826349D01*
X76282632Y-103817170D01*
X76264219Y-103806134D01*
X76246976Y-103793346D01*
X76231070Y-103778930D01*
X76216654Y-103763024D01*
X76203866Y-103745781D01*
X76192830Y-103727368D01*
X76183651Y-103707962D01*
X76176419Y-103687750D01*
X76171203Y-103666926D01*
X76168053Y-103645691D01*
X76167000Y-103624250D01*
X76167000Y-103111750D01*
X76168053Y-103090309D01*
X76171203Y-103069074D01*
X76176419Y-103048250D01*
X76183651Y-103028038D01*
X76192830Y-103008632D01*
X76203866Y-102990219D01*
X76216654Y-102972976D01*
X76231070Y-102957070D01*
X76246976Y-102942654D01*
X76264219Y-102929866D01*
X76282632Y-102918830D01*
X76302038Y-102909651D01*
X76322250Y-102902419D01*
X76343074Y-102897203D01*
X76364309Y-102894053D01*
X76385750Y-102893000D01*
X76823250Y-102893000D01*
X76844691Y-102894053D01*
X76844691Y-102894053D01*
G37*
D15*
G04 #@! TD*
G04 #@! TO.P,D1,1*
G04 #@! TO.N,Net-(D1-Pad1)*
X76604500Y-103368000D03*
D14*
G04 #@! TO.N,+5V*
G04 #@! TO.C,D1*
G36*
X78419691Y-102894053D02*
X78440926Y-102897203D01*
X78461750Y-102902419D01*
X78481962Y-102909651D01*
X78501368Y-102918830D01*
X78519781Y-102929866D01*
X78537024Y-102942654D01*
X78552930Y-102957070D01*
X78567346Y-102972976D01*
X78580134Y-102990219D01*
X78591170Y-103008632D01*
X78600349Y-103028038D01*
X78607581Y-103048250D01*
X78612797Y-103069074D01*
X78615947Y-103090309D01*
X78617000Y-103111750D01*
X78617000Y-103624250D01*
X78615947Y-103645691D01*
X78612797Y-103666926D01*
X78607581Y-103687750D01*
X78600349Y-103707962D01*
X78591170Y-103727368D01*
X78580134Y-103745781D01*
X78567346Y-103763024D01*
X78552930Y-103778930D01*
X78537024Y-103793346D01*
X78519781Y-103806134D01*
X78501368Y-103817170D01*
X78481962Y-103826349D01*
X78461750Y-103833581D01*
X78440926Y-103838797D01*
X78419691Y-103841947D01*
X78398250Y-103843000D01*
X77960750Y-103843000D01*
X77939309Y-103841947D01*
X77918074Y-103838797D01*
X77897250Y-103833581D01*
X77877038Y-103826349D01*
X77857632Y-103817170D01*
X77839219Y-103806134D01*
X77821976Y-103793346D01*
X77806070Y-103778930D01*
X77791654Y-103763024D01*
X77778866Y-103745781D01*
X77767830Y-103727368D01*
X77758651Y-103707962D01*
X77751419Y-103687750D01*
X77746203Y-103666926D01*
X77743053Y-103645691D01*
X77742000Y-103624250D01*
X77742000Y-103111750D01*
X77743053Y-103090309D01*
X77746203Y-103069074D01*
X77751419Y-103048250D01*
X77758651Y-103028038D01*
X77767830Y-103008632D01*
X77778866Y-102990219D01*
X77791654Y-102972976D01*
X77806070Y-102957070D01*
X77821976Y-102942654D01*
X77839219Y-102929866D01*
X77857632Y-102918830D01*
X77877038Y-102909651D01*
X77897250Y-102902419D01*
X77918074Y-102897203D01*
X77939309Y-102894053D01*
X77960750Y-102893000D01*
X78398250Y-102893000D01*
X78419691Y-102894053D01*
X78419691Y-102894053D01*
G37*
D15*
G04 #@! TD*
G04 #@! TO.P,D1,2*
G04 #@! TO.N,+5V*
X78179500Y-103368000D03*
D16*
G04 #@! TO.P,D2,2*
G04 #@! TO.N,+5V*
X78208100Y-108026000D03*
G04 #@! TO.P,D2,1*
G04 #@! TO.N,Net-(D2-Pad1)*
X76808100Y-108026000D03*
G04 #@! TD*
D17*
G04 #@! TO.P,J2,1*
G04 #@! TO.N,SIG0*
X85826600Y-118567000D03*
D18*
G04 #@! TO.P,J2,2*
G04 #@! TO.N,SIG1*
X88366600Y-118567000D03*
G04 #@! TO.P,J2,3*
G04 #@! TO.N,SIG2*
X90906600Y-118567000D03*
G04 #@! TD*
D17*
G04 #@! TO.P,J3,1*
G04 #@! TO.N,GND*
X77368400Y-118567000D03*
D18*
G04 #@! TO.P,J3,2*
G04 #@! TO.N,+5V*
X74828400Y-118567000D03*
G04 #@! TD*
G04 #@! TO.P,J4,2*
G04 #@! TO.N,+5V*
X99416000Y-118567000D03*
D17*
G04 #@! TO.P,J4,1*
G04 #@! TO.N,GND*
X101956000Y-118567000D03*
G04 #@! TD*
D19*
G04 #@! TO.P,Q1,1*
G04 #@! TO.N,SIG0*
X78330300Y-111630000D03*
G04 #@! TO.P,Q1,2*
G04 #@! TO.N,GND*
X78330300Y-109730000D03*
G04 #@! TO.P,Q1,3*
G04 #@! TO.N,Net-(D2-Pad1)*
X76330300Y-110680000D03*
G04 #@! TD*
D14*
G04 #@! TO.N,Net-(D1-Pad1)*
G04 #@! TO.C,R1*
G36*
X76871791Y-101190053D02*
X76893026Y-101193203D01*
X76913850Y-101198419D01*
X76934062Y-101205651D01*
X76953468Y-101214830D01*
X76971881Y-101225866D01*
X76989124Y-101238654D01*
X77005030Y-101253070D01*
X77019446Y-101268976D01*
X77032234Y-101286219D01*
X77043270Y-101304632D01*
X77052449Y-101324038D01*
X77059681Y-101344250D01*
X77064897Y-101365074D01*
X77068047Y-101386309D01*
X77069100Y-101407750D01*
X77069100Y-101920250D01*
X77068047Y-101941691D01*
X77064897Y-101962926D01*
X77059681Y-101983750D01*
X77052449Y-102003962D01*
X77043270Y-102023368D01*
X77032234Y-102041781D01*
X77019446Y-102059024D01*
X77005030Y-102074930D01*
X76989124Y-102089346D01*
X76971881Y-102102134D01*
X76953468Y-102113170D01*
X76934062Y-102122349D01*
X76913850Y-102129581D01*
X76893026Y-102134797D01*
X76871791Y-102137947D01*
X76850350Y-102139000D01*
X76412850Y-102139000D01*
X76391409Y-102137947D01*
X76370174Y-102134797D01*
X76349350Y-102129581D01*
X76329138Y-102122349D01*
X76309732Y-102113170D01*
X76291319Y-102102134D01*
X76274076Y-102089346D01*
X76258170Y-102074930D01*
X76243754Y-102059024D01*
X76230966Y-102041781D01*
X76219930Y-102023368D01*
X76210751Y-102003962D01*
X76203519Y-101983750D01*
X76198303Y-101962926D01*
X76195153Y-101941691D01*
X76194100Y-101920250D01*
X76194100Y-101407750D01*
X76195153Y-101386309D01*
X76198303Y-101365074D01*
X76203519Y-101344250D01*
X76210751Y-101324038D01*
X76219930Y-101304632D01*
X76230966Y-101286219D01*
X76243754Y-101268976D01*
X76258170Y-101253070D01*
X76274076Y-101238654D01*
X76291319Y-101225866D01*
X76309732Y-101214830D01*
X76329138Y-101205651D01*
X76349350Y-101198419D01*
X76370174Y-101193203D01*
X76391409Y-101190053D01*
X76412850Y-101189000D01*
X76850350Y-101189000D01*
X76871791Y-101190053D01*
X76871791Y-101190053D01*
G37*
D15*
G04 #@! TD*
G04 #@! TO.P,R1,2*
G04 #@! TO.N,Net-(D1-Pad1)*
X76631600Y-101664000D03*
D14*
G04 #@! TO.N,Net-(D2-Pad1)*
G04 #@! TO.C,R1*
G36*
X78446791Y-101190053D02*
X78468026Y-101193203D01*
X78488850Y-101198419D01*
X78509062Y-101205651D01*
X78528468Y-101214830D01*
X78546881Y-101225866D01*
X78564124Y-101238654D01*
X78580030Y-101253070D01*
X78594446Y-101268976D01*
X78607234Y-101286219D01*
X78618270Y-101304632D01*
X78627449Y-101324038D01*
X78634681Y-101344250D01*
X78639897Y-101365074D01*
X78643047Y-101386309D01*
X78644100Y-101407750D01*
X78644100Y-101920250D01*
X78643047Y-101941691D01*
X78639897Y-101962926D01*
X78634681Y-101983750D01*
X78627449Y-102003962D01*
X78618270Y-102023368D01*
X78607234Y-102041781D01*
X78594446Y-102059024D01*
X78580030Y-102074930D01*
X78564124Y-102089346D01*
X78546881Y-102102134D01*
X78528468Y-102113170D01*
X78509062Y-102122349D01*
X78488850Y-102129581D01*
X78468026Y-102134797D01*
X78446791Y-102137947D01*
X78425350Y-102139000D01*
X77987850Y-102139000D01*
X77966409Y-102137947D01*
X77945174Y-102134797D01*
X77924350Y-102129581D01*
X77904138Y-102122349D01*
X77884732Y-102113170D01*
X77866319Y-102102134D01*
X77849076Y-102089346D01*
X77833170Y-102074930D01*
X77818754Y-102059024D01*
X77805966Y-102041781D01*
X77794930Y-102023368D01*
X77785751Y-102003962D01*
X77778519Y-101983750D01*
X77773303Y-101962926D01*
X77770153Y-101941691D01*
X77769100Y-101920250D01*
X77769100Y-101407750D01*
X77770153Y-101386309D01*
X77773303Y-101365074D01*
X77778519Y-101344250D01*
X77785751Y-101324038D01*
X77794930Y-101304632D01*
X77805966Y-101286219D01*
X77818754Y-101268976D01*
X77833170Y-101253070D01*
X77849076Y-101238654D01*
X77866319Y-101225866D01*
X77884732Y-101214830D01*
X77904138Y-101205651D01*
X77924350Y-101198419D01*
X77945174Y-101193203D01*
X77966409Y-101190053D01*
X77987850Y-101189000D01*
X78425350Y-101189000D01*
X78446791Y-101190053D01*
X78446791Y-101190053D01*
G37*
D15*
G04 #@! TD*
G04 #@! TO.P,R1,1*
G04 #@! TO.N,Net-(D2-Pad1)*
X78206600Y-101664000D03*
D14*
G04 #@! TO.N,SIG0*
G04 #@! TO.C,R2*
G36*
X80211491Y-111285053D02*
X80232726Y-111288203D01*
X80253550Y-111293419D01*
X80273762Y-111300651D01*
X80293168Y-111309830D01*
X80311581Y-111320866D01*
X80328824Y-111333654D01*
X80344730Y-111348070D01*
X80359146Y-111363976D01*
X80371934Y-111381219D01*
X80382970Y-111399632D01*
X80392149Y-111419038D01*
X80399381Y-111439250D01*
X80404597Y-111460074D01*
X80407747Y-111481309D01*
X80408800Y-111502750D01*
X80408800Y-111940250D01*
X80407747Y-111961691D01*
X80404597Y-111982926D01*
X80399381Y-112003750D01*
X80392149Y-112023962D01*
X80382970Y-112043368D01*
X80371934Y-112061781D01*
X80359146Y-112079024D01*
X80344730Y-112094930D01*
X80328824Y-112109346D01*
X80311581Y-112122134D01*
X80293168Y-112133170D01*
X80273762Y-112142349D01*
X80253550Y-112149581D01*
X80232726Y-112154797D01*
X80211491Y-112157947D01*
X80190050Y-112159000D01*
X79677550Y-112159000D01*
X79656109Y-112157947D01*
X79634874Y-112154797D01*
X79614050Y-112149581D01*
X79593838Y-112142349D01*
X79574432Y-112133170D01*
X79556019Y-112122134D01*
X79538776Y-112109346D01*
X79522870Y-112094930D01*
X79508454Y-112079024D01*
X79495666Y-112061781D01*
X79484630Y-112043368D01*
X79475451Y-112023962D01*
X79468219Y-112003750D01*
X79463003Y-111982926D01*
X79459853Y-111961691D01*
X79458800Y-111940250D01*
X79458800Y-111502750D01*
X79459853Y-111481309D01*
X79463003Y-111460074D01*
X79468219Y-111439250D01*
X79475451Y-111419038D01*
X79484630Y-111399632D01*
X79495666Y-111381219D01*
X79508454Y-111363976D01*
X79522870Y-111348070D01*
X79538776Y-111333654D01*
X79556019Y-111320866D01*
X79574432Y-111309830D01*
X79593838Y-111300651D01*
X79614050Y-111293419D01*
X79634874Y-111288203D01*
X79656109Y-111285053D01*
X79677550Y-111284000D01*
X80190050Y-111284000D01*
X80211491Y-111285053D01*
X80211491Y-111285053D01*
G37*
D15*
G04 #@! TD*
G04 #@! TO.P,R2,1*
G04 #@! TO.N,SIG0*
X79933800Y-111721500D03*
D14*
G04 #@! TO.N,GND*
G04 #@! TO.C,R2*
G36*
X80211491Y-109710053D02*
X80232726Y-109713203D01*
X80253550Y-109718419D01*
X80273762Y-109725651D01*
X80293168Y-109734830D01*
X80311581Y-109745866D01*
X80328824Y-109758654D01*
X80344730Y-109773070D01*
X80359146Y-109788976D01*
X80371934Y-109806219D01*
X80382970Y-109824632D01*
X80392149Y-109844038D01*
X80399381Y-109864250D01*
X80404597Y-109885074D01*
X80407747Y-109906309D01*
X80408800Y-109927750D01*
X80408800Y-110365250D01*
X80407747Y-110386691D01*
X80404597Y-110407926D01*
X80399381Y-110428750D01*
X80392149Y-110448962D01*
X80382970Y-110468368D01*
X80371934Y-110486781D01*
X80359146Y-110504024D01*
X80344730Y-110519930D01*
X80328824Y-110534346D01*
X80311581Y-110547134D01*
X80293168Y-110558170D01*
X80273762Y-110567349D01*
X80253550Y-110574581D01*
X80232726Y-110579797D01*
X80211491Y-110582947D01*
X80190050Y-110584000D01*
X79677550Y-110584000D01*
X79656109Y-110582947D01*
X79634874Y-110579797D01*
X79614050Y-110574581D01*
X79593838Y-110567349D01*
X79574432Y-110558170D01*
X79556019Y-110547134D01*
X79538776Y-110534346D01*
X79522870Y-110519930D01*
X79508454Y-110504024D01*
X79495666Y-110486781D01*
X79484630Y-110468368D01*
X79475451Y-110448962D01*
X79468219Y-110428750D01*
X79463003Y-110407926D01*
X79459853Y-110386691D01*
X79458800Y-110365250D01*
X79458800Y-109927750D01*
X79459853Y-109906309D01*
X79463003Y-109885074D01*
X79468219Y-109864250D01*
X79475451Y-109844038D01*
X79484630Y-109824632D01*
X79495666Y-109806219D01*
X79508454Y-109788976D01*
X79522870Y-109773070D01*
X79538776Y-109758654D01*
X79556019Y-109745866D01*
X79574432Y-109734830D01*
X79593838Y-109725651D01*
X79614050Y-109718419D01*
X79634874Y-109713203D01*
X79656109Y-109710053D01*
X79677550Y-109709000D01*
X80190050Y-109709000D01*
X80211491Y-109710053D01*
X80211491Y-109710053D01*
G37*
D15*
G04 #@! TD*
G04 #@! TO.P,R2,2*
G04 #@! TO.N,GND*
X79933800Y-110146500D03*
D14*
G04 #@! TO.N,Net-(D3-Pad1)*
G04 #@! TO.C,D3*
G36*
X87844691Y-102894053D02*
X87865926Y-102897203D01*
X87886750Y-102902419D01*
X87906962Y-102909651D01*
X87926368Y-102918830D01*
X87944781Y-102929866D01*
X87962024Y-102942654D01*
X87977930Y-102957070D01*
X87992346Y-102972976D01*
X88005134Y-102990219D01*
X88016170Y-103008632D01*
X88025349Y-103028038D01*
X88032581Y-103048250D01*
X88037797Y-103069074D01*
X88040947Y-103090309D01*
X88042000Y-103111750D01*
X88042000Y-103624250D01*
X88040947Y-103645691D01*
X88037797Y-103666926D01*
X88032581Y-103687750D01*
X88025349Y-103707962D01*
X88016170Y-103727368D01*
X88005134Y-103745781D01*
X87992346Y-103763024D01*
X87977930Y-103778930D01*
X87962024Y-103793346D01*
X87944781Y-103806134D01*
X87926368Y-103817170D01*
X87906962Y-103826349D01*
X87886750Y-103833581D01*
X87865926Y-103838797D01*
X87844691Y-103841947D01*
X87823250Y-103843000D01*
X87385750Y-103843000D01*
X87364309Y-103841947D01*
X87343074Y-103838797D01*
X87322250Y-103833581D01*
X87302038Y-103826349D01*
X87282632Y-103817170D01*
X87264219Y-103806134D01*
X87246976Y-103793346D01*
X87231070Y-103778930D01*
X87216654Y-103763024D01*
X87203866Y-103745781D01*
X87192830Y-103727368D01*
X87183651Y-103707962D01*
X87176419Y-103687750D01*
X87171203Y-103666926D01*
X87168053Y-103645691D01*
X87167000Y-103624250D01*
X87167000Y-103111750D01*
X87168053Y-103090309D01*
X87171203Y-103069074D01*
X87176419Y-103048250D01*
X87183651Y-103028038D01*
X87192830Y-103008632D01*
X87203866Y-102990219D01*
X87216654Y-102972976D01*
X87231070Y-102957070D01*
X87246976Y-102942654D01*
X87264219Y-102929866D01*
X87282632Y-102918830D01*
X87302038Y-102909651D01*
X87322250Y-102902419D01*
X87343074Y-102897203D01*
X87364309Y-102894053D01*
X87385750Y-102893000D01*
X87823250Y-102893000D01*
X87844691Y-102894053D01*
X87844691Y-102894053D01*
G37*
D15*
G04 #@! TD*
G04 #@! TO.P,D3,1*
G04 #@! TO.N,Net-(D3-Pad1)*
X87604500Y-103368000D03*
D14*
G04 #@! TO.N,+5V*
G04 #@! TO.C,D3*
G36*
X89419691Y-102894053D02*
X89440926Y-102897203D01*
X89461750Y-102902419D01*
X89481962Y-102909651D01*
X89501368Y-102918830D01*
X89519781Y-102929866D01*
X89537024Y-102942654D01*
X89552930Y-102957070D01*
X89567346Y-102972976D01*
X89580134Y-102990219D01*
X89591170Y-103008632D01*
X89600349Y-103028038D01*
X89607581Y-103048250D01*
X89612797Y-103069074D01*
X89615947Y-103090309D01*
X89617000Y-103111750D01*
X89617000Y-103624250D01*
X89615947Y-103645691D01*
X89612797Y-103666926D01*
X89607581Y-103687750D01*
X89600349Y-103707962D01*
X89591170Y-103727368D01*
X89580134Y-103745781D01*
X89567346Y-103763024D01*
X89552930Y-103778930D01*
X89537024Y-103793346D01*
X89519781Y-103806134D01*
X89501368Y-103817170D01*
X89481962Y-103826349D01*
X89461750Y-103833581D01*
X89440926Y-103838797D01*
X89419691Y-103841947D01*
X89398250Y-103843000D01*
X88960750Y-103843000D01*
X88939309Y-103841947D01*
X88918074Y-103838797D01*
X88897250Y-103833581D01*
X88877038Y-103826349D01*
X88857632Y-103817170D01*
X88839219Y-103806134D01*
X88821976Y-103793346D01*
X88806070Y-103778930D01*
X88791654Y-103763024D01*
X88778866Y-103745781D01*
X88767830Y-103727368D01*
X88758651Y-103707962D01*
X88751419Y-103687750D01*
X88746203Y-103666926D01*
X88743053Y-103645691D01*
X88742000Y-103624250D01*
X88742000Y-103111750D01*
X88743053Y-103090309D01*
X88746203Y-103069074D01*
X88751419Y-103048250D01*
X88758651Y-103028038D01*
X88767830Y-103008632D01*
X88778866Y-102990219D01*
X88791654Y-102972976D01*
X88806070Y-102957070D01*
X88821976Y-102942654D01*
X88839219Y-102929866D01*
X88857632Y-102918830D01*
X88877038Y-102909651D01*
X88897250Y-102902419D01*
X88918074Y-102897203D01*
X88939309Y-102894053D01*
X88960750Y-102893000D01*
X89398250Y-102893000D01*
X89419691Y-102894053D01*
X89419691Y-102894053D01*
G37*
D15*
G04 #@! TD*
G04 #@! TO.P,D3,2*
G04 #@! TO.N,+5V*
X89179500Y-103368000D03*
D16*
G04 #@! TO.P,D4,2*
G04 #@! TO.N,+5V*
X89077800Y-107950000D03*
G04 #@! TO.P,D4,1*
G04 #@! TO.N,Net-(D4-Pad1)*
X87677800Y-107950000D03*
G04 #@! TD*
D14*
G04 #@! TO.N,+5V*
G04 #@! TO.C,D5*
G36*
X100419691Y-102894053D02*
X100440926Y-102897203D01*
X100461750Y-102902419D01*
X100481962Y-102909651D01*
X100501368Y-102918830D01*
X100519781Y-102929866D01*
X100537024Y-102942654D01*
X100552930Y-102957070D01*
X100567346Y-102972976D01*
X100580134Y-102990219D01*
X100591170Y-103008632D01*
X100600349Y-103028038D01*
X100607581Y-103048250D01*
X100612797Y-103069074D01*
X100615947Y-103090309D01*
X100617000Y-103111750D01*
X100617000Y-103624250D01*
X100615947Y-103645691D01*
X100612797Y-103666926D01*
X100607581Y-103687750D01*
X100600349Y-103707962D01*
X100591170Y-103727368D01*
X100580134Y-103745781D01*
X100567346Y-103763024D01*
X100552930Y-103778930D01*
X100537024Y-103793346D01*
X100519781Y-103806134D01*
X100501368Y-103817170D01*
X100481962Y-103826349D01*
X100461750Y-103833581D01*
X100440926Y-103838797D01*
X100419691Y-103841947D01*
X100398250Y-103843000D01*
X99960750Y-103843000D01*
X99939309Y-103841947D01*
X99918074Y-103838797D01*
X99897250Y-103833581D01*
X99877038Y-103826349D01*
X99857632Y-103817170D01*
X99839219Y-103806134D01*
X99821976Y-103793346D01*
X99806070Y-103778930D01*
X99791654Y-103763024D01*
X99778866Y-103745781D01*
X99767830Y-103727368D01*
X99758651Y-103707962D01*
X99751419Y-103687750D01*
X99746203Y-103666926D01*
X99743053Y-103645691D01*
X99742000Y-103624250D01*
X99742000Y-103111750D01*
X99743053Y-103090309D01*
X99746203Y-103069074D01*
X99751419Y-103048250D01*
X99758651Y-103028038D01*
X99767830Y-103008632D01*
X99778866Y-102990219D01*
X99791654Y-102972976D01*
X99806070Y-102957070D01*
X99821976Y-102942654D01*
X99839219Y-102929866D01*
X99857632Y-102918830D01*
X99877038Y-102909651D01*
X99897250Y-102902419D01*
X99918074Y-102897203D01*
X99939309Y-102894053D01*
X99960750Y-102893000D01*
X100398250Y-102893000D01*
X100419691Y-102894053D01*
X100419691Y-102894053D01*
G37*
D15*
G04 #@! TD*
G04 #@! TO.P,D5,2*
G04 #@! TO.N,+5V*
X100179500Y-103368000D03*
D14*
G04 #@! TO.N,Net-(D5-Pad1)*
G04 #@! TO.C,D5*
G36*
X98844691Y-102894053D02*
X98865926Y-102897203D01*
X98886750Y-102902419D01*
X98906962Y-102909651D01*
X98926368Y-102918830D01*
X98944781Y-102929866D01*
X98962024Y-102942654D01*
X98977930Y-102957070D01*
X98992346Y-102972976D01*
X99005134Y-102990219D01*
X99016170Y-103008632D01*
X99025349Y-103028038D01*
X99032581Y-103048250D01*
X99037797Y-103069074D01*
X99040947Y-103090309D01*
X99042000Y-103111750D01*
X99042000Y-103624250D01*
X99040947Y-103645691D01*
X99037797Y-103666926D01*
X99032581Y-103687750D01*
X99025349Y-103707962D01*
X99016170Y-103727368D01*
X99005134Y-103745781D01*
X98992346Y-103763024D01*
X98977930Y-103778930D01*
X98962024Y-103793346D01*
X98944781Y-103806134D01*
X98926368Y-103817170D01*
X98906962Y-103826349D01*
X98886750Y-103833581D01*
X98865926Y-103838797D01*
X98844691Y-103841947D01*
X98823250Y-103843000D01*
X98385750Y-103843000D01*
X98364309Y-103841947D01*
X98343074Y-103838797D01*
X98322250Y-103833581D01*
X98302038Y-103826349D01*
X98282632Y-103817170D01*
X98264219Y-103806134D01*
X98246976Y-103793346D01*
X98231070Y-103778930D01*
X98216654Y-103763024D01*
X98203866Y-103745781D01*
X98192830Y-103727368D01*
X98183651Y-103707962D01*
X98176419Y-103687750D01*
X98171203Y-103666926D01*
X98168053Y-103645691D01*
X98167000Y-103624250D01*
X98167000Y-103111750D01*
X98168053Y-103090309D01*
X98171203Y-103069074D01*
X98176419Y-103048250D01*
X98183651Y-103028038D01*
X98192830Y-103008632D01*
X98203866Y-102990219D01*
X98216654Y-102972976D01*
X98231070Y-102957070D01*
X98246976Y-102942654D01*
X98264219Y-102929866D01*
X98282632Y-102918830D01*
X98302038Y-102909651D01*
X98322250Y-102902419D01*
X98343074Y-102897203D01*
X98364309Y-102894053D01*
X98385750Y-102893000D01*
X98823250Y-102893000D01*
X98844691Y-102894053D01*
X98844691Y-102894053D01*
G37*
D15*
G04 #@! TD*
G04 #@! TO.P,D5,1*
G04 #@! TO.N,Net-(D5-Pad1)*
X98604500Y-103368000D03*
D16*
G04 #@! TO.P,D6,1*
G04 #@! TO.N,Net-(D6-Pad1)*
X98677500Y-108229000D03*
G04 #@! TO.P,D6,2*
G04 #@! TO.N,+5V*
X100077500Y-108229000D03*
G04 #@! TD*
D10*
G04 #@! TO.P,K3,1*
G04 #@! TO.N,Net-(J6-Pad4)*
X96852000Y-105696000D03*
D11*
G04 #@! TO.P,K3,2*
G04 #@! TO.N,Net-(K3-Pad2)*
X101932000Y-105696000D03*
G04 #@! TO.P,K3,3*
G04 #@! TO.N,Net-(D6-Pad1)*
X96852000Y-108236000D03*
G04 #@! TO.P,K3,4*
G04 #@! TO.N,+5V*
X101932000Y-108236000D03*
G04 #@! TO.P,K3,5*
G04 #@! TO.N,Net-(J6-Pad2)*
X96852000Y-115856000D03*
G04 #@! TO.P,K3,6*
X101932000Y-115856000D03*
G04 #@! TD*
D19*
G04 #@! TO.P,Q2,1*
G04 #@! TO.N,SIG1*
X89404700Y-111554000D03*
G04 #@! TO.P,Q2,2*
G04 #@! TO.N,GND*
X89404700Y-109654000D03*
G04 #@! TO.P,Q2,3*
G04 #@! TO.N,Net-(D4-Pad1)*
X87404700Y-110604000D03*
G04 #@! TD*
G04 #@! TO.P,Q3,3*
G04 #@! TO.N,Net-(D6-Pad1)*
X98225100Y-111074000D03*
G04 #@! TO.P,Q3,2*
G04 #@! TO.N,GND*
X100225100Y-110124000D03*
G04 #@! TO.P,Q3,1*
G04 #@! TO.N,SIG2*
X100225100Y-112024000D03*
G04 #@! TD*
D14*
G04 #@! TO.N,GND*
G04 #@! TO.C,R3*
G36*
X91336691Y-109609053D02*
X91357926Y-109612203D01*
X91378750Y-109617419D01*
X91398962Y-109624651D01*
X91418368Y-109633830D01*
X91436781Y-109644866D01*
X91454024Y-109657654D01*
X91469930Y-109672070D01*
X91484346Y-109687976D01*
X91497134Y-109705219D01*
X91508170Y-109723632D01*
X91517349Y-109743038D01*
X91524581Y-109763250D01*
X91529797Y-109784074D01*
X91532947Y-109805309D01*
X91534000Y-109826750D01*
X91534000Y-110264250D01*
X91532947Y-110285691D01*
X91529797Y-110306926D01*
X91524581Y-110327750D01*
X91517349Y-110347962D01*
X91508170Y-110367368D01*
X91497134Y-110385781D01*
X91484346Y-110403024D01*
X91469930Y-110418930D01*
X91454024Y-110433346D01*
X91436781Y-110446134D01*
X91418368Y-110457170D01*
X91398962Y-110466349D01*
X91378750Y-110473581D01*
X91357926Y-110478797D01*
X91336691Y-110481947D01*
X91315250Y-110483000D01*
X90802750Y-110483000D01*
X90781309Y-110481947D01*
X90760074Y-110478797D01*
X90739250Y-110473581D01*
X90719038Y-110466349D01*
X90699632Y-110457170D01*
X90681219Y-110446134D01*
X90663976Y-110433346D01*
X90648070Y-110418930D01*
X90633654Y-110403024D01*
X90620866Y-110385781D01*
X90609830Y-110367368D01*
X90600651Y-110347962D01*
X90593419Y-110327750D01*
X90588203Y-110306926D01*
X90585053Y-110285691D01*
X90584000Y-110264250D01*
X90584000Y-109826750D01*
X90585053Y-109805309D01*
X90588203Y-109784074D01*
X90593419Y-109763250D01*
X90600651Y-109743038D01*
X90609830Y-109723632D01*
X90620866Y-109705219D01*
X90633654Y-109687976D01*
X90648070Y-109672070D01*
X90663976Y-109657654D01*
X90681219Y-109644866D01*
X90699632Y-109633830D01*
X90719038Y-109624651D01*
X90739250Y-109617419D01*
X90760074Y-109612203D01*
X90781309Y-109609053D01*
X90802750Y-109608000D01*
X91315250Y-109608000D01*
X91336691Y-109609053D01*
X91336691Y-109609053D01*
G37*
D15*
G04 #@! TD*
G04 #@! TO.P,R3,2*
G04 #@! TO.N,GND*
X91059000Y-110045500D03*
D14*
G04 #@! TO.N,SIG1*
G04 #@! TO.C,R3*
G36*
X91336691Y-111184053D02*
X91357926Y-111187203D01*
X91378750Y-111192419D01*
X91398962Y-111199651D01*
X91418368Y-111208830D01*
X91436781Y-111219866D01*
X91454024Y-111232654D01*
X91469930Y-111247070D01*
X91484346Y-111262976D01*
X91497134Y-111280219D01*
X91508170Y-111298632D01*
X91517349Y-111318038D01*
X91524581Y-111338250D01*
X91529797Y-111359074D01*
X91532947Y-111380309D01*
X91534000Y-111401750D01*
X91534000Y-111839250D01*
X91532947Y-111860691D01*
X91529797Y-111881926D01*
X91524581Y-111902750D01*
X91517349Y-111922962D01*
X91508170Y-111942368D01*
X91497134Y-111960781D01*
X91484346Y-111978024D01*
X91469930Y-111993930D01*
X91454024Y-112008346D01*
X91436781Y-112021134D01*
X91418368Y-112032170D01*
X91398962Y-112041349D01*
X91378750Y-112048581D01*
X91357926Y-112053797D01*
X91336691Y-112056947D01*
X91315250Y-112058000D01*
X90802750Y-112058000D01*
X90781309Y-112056947D01*
X90760074Y-112053797D01*
X90739250Y-112048581D01*
X90719038Y-112041349D01*
X90699632Y-112032170D01*
X90681219Y-112021134D01*
X90663976Y-112008346D01*
X90648070Y-111993930D01*
X90633654Y-111978024D01*
X90620866Y-111960781D01*
X90609830Y-111942368D01*
X90600651Y-111922962D01*
X90593419Y-111902750D01*
X90588203Y-111881926D01*
X90585053Y-111860691D01*
X90584000Y-111839250D01*
X90584000Y-111401750D01*
X90585053Y-111380309D01*
X90588203Y-111359074D01*
X90593419Y-111338250D01*
X90600651Y-111318038D01*
X90609830Y-111298632D01*
X90620866Y-111280219D01*
X90633654Y-111262976D01*
X90648070Y-111247070D01*
X90663976Y-111232654D01*
X90681219Y-111219866D01*
X90699632Y-111208830D01*
X90719038Y-111199651D01*
X90739250Y-111192419D01*
X90760074Y-111187203D01*
X90781309Y-111184053D01*
X90802750Y-111183000D01*
X91315250Y-111183000D01*
X91336691Y-111184053D01*
X91336691Y-111184053D01*
G37*
D15*
G04 #@! TD*
G04 #@! TO.P,R3,1*
G04 #@! TO.N,SIG1*
X91059000Y-111620500D03*
D14*
G04 #@! TO.N,Net-(D4-Pad1)*
G04 #@! TO.C,R4*
G36*
X89394291Y-101190053D02*
X89415526Y-101193203D01*
X89436350Y-101198419D01*
X89456562Y-101205651D01*
X89475968Y-101214830D01*
X89494381Y-101225866D01*
X89511624Y-101238654D01*
X89527530Y-101253070D01*
X89541946Y-101268976D01*
X89554734Y-101286219D01*
X89565770Y-101304632D01*
X89574949Y-101324038D01*
X89582181Y-101344250D01*
X89587397Y-101365074D01*
X89590547Y-101386309D01*
X89591600Y-101407750D01*
X89591600Y-101920250D01*
X89590547Y-101941691D01*
X89587397Y-101962926D01*
X89582181Y-101983750D01*
X89574949Y-102003962D01*
X89565770Y-102023368D01*
X89554734Y-102041781D01*
X89541946Y-102059024D01*
X89527530Y-102074930D01*
X89511624Y-102089346D01*
X89494381Y-102102134D01*
X89475968Y-102113170D01*
X89456562Y-102122349D01*
X89436350Y-102129581D01*
X89415526Y-102134797D01*
X89394291Y-102137947D01*
X89372850Y-102139000D01*
X88935350Y-102139000D01*
X88913909Y-102137947D01*
X88892674Y-102134797D01*
X88871850Y-102129581D01*
X88851638Y-102122349D01*
X88832232Y-102113170D01*
X88813819Y-102102134D01*
X88796576Y-102089346D01*
X88780670Y-102074930D01*
X88766254Y-102059024D01*
X88753466Y-102041781D01*
X88742430Y-102023368D01*
X88733251Y-102003962D01*
X88726019Y-101983750D01*
X88720803Y-101962926D01*
X88717653Y-101941691D01*
X88716600Y-101920250D01*
X88716600Y-101407750D01*
X88717653Y-101386309D01*
X88720803Y-101365074D01*
X88726019Y-101344250D01*
X88733251Y-101324038D01*
X88742430Y-101304632D01*
X88753466Y-101286219D01*
X88766254Y-101268976D01*
X88780670Y-101253070D01*
X88796576Y-101238654D01*
X88813819Y-101225866D01*
X88832232Y-101214830D01*
X88851638Y-101205651D01*
X88871850Y-101198419D01*
X88892674Y-101193203D01*
X88913909Y-101190053D01*
X88935350Y-101189000D01*
X89372850Y-101189000D01*
X89394291Y-101190053D01*
X89394291Y-101190053D01*
G37*
D15*
G04 #@! TD*
G04 #@! TO.P,R4,1*
G04 #@! TO.N,Net-(D4-Pad1)*
X89154100Y-101664000D03*
D14*
G04 #@! TO.N,Net-(D3-Pad1)*
G04 #@! TO.C,R4*
G36*
X87819291Y-101190053D02*
X87840526Y-101193203D01*
X87861350Y-101198419D01*
X87881562Y-101205651D01*
X87900968Y-101214830D01*
X87919381Y-101225866D01*
X87936624Y-101238654D01*
X87952530Y-101253070D01*
X87966946Y-101268976D01*
X87979734Y-101286219D01*
X87990770Y-101304632D01*
X87999949Y-101324038D01*
X88007181Y-101344250D01*
X88012397Y-101365074D01*
X88015547Y-101386309D01*
X88016600Y-101407750D01*
X88016600Y-101920250D01*
X88015547Y-101941691D01*
X88012397Y-101962926D01*
X88007181Y-101983750D01*
X87999949Y-102003962D01*
X87990770Y-102023368D01*
X87979734Y-102041781D01*
X87966946Y-102059024D01*
X87952530Y-102074930D01*
X87936624Y-102089346D01*
X87919381Y-102102134D01*
X87900968Y-102113170D01*
X87881562Y-102122349D01*
X87861350Y-102129581D01*
X87840526Y-102134797D01*
X87819291Y-102137947D01*
X87797850Y-102139000D01*
X87360350Y-102139000D01*
X87338909Y-102137947D01*
X87317674Y-102134797D01*
X87296850Y-102129581D01*
X87276638Y-102122349D01*
X87257232Y-102113170D01*
X87238819Y-102102134D01*
X87221576Y-102089346D01*
X87205670Y-102074930D01*
X87191254Y-102059024D01*
X87178466Y-102041781D01*
X87167430Y-102023368D01*
X87158251Y-102003962D01*
X87151019Y-101983750D01*
X87145803Y-101962926D01*
X87142653Y-101941691D01*
X87141600Y-101920250D01*
X87141600Y-101407750D01*
X87142653Y-101386309D01*
X87145803Y-101365074D01*
X87151019Y-101344250D01*
X87158251Y-101324038D01*
X87167430Y-101304632D01*
X87178466Y-101286219D01*
X87191254Y-101268976D01*
X87205670Y-101253070D01*
X87221576Y-101238654D01*
X87238819Y-101225866D01*
X87257232Y-101214830D01*
X87276638Y-101205651D01*
X87296850Y-101198419D01*
X87317674Y-101193203D01*
X87338909Y-101190053D01*
X87360350Y-101189000D01*
X87797850Y-101189000D01*
X87819291Y-101190053D01*
X87819291Y-101190053D01*
G37*
D15*
G04 #@! TD*
G04 #@! TO.P,R4,2*
G04 #@! TO.N,Net-(D3-Pad1)*
X87579100Y-101664000D03*
D14*
G04 #@! TO.N,GND*
G04 #@! TO.C,R5*
G36*
X102271691Y-109812053D02*
X102292926Y-109815203D01*
X102313750Y-109820419D01*
X102333962Y-109827651D01*
X102353368Y-109836830D01*
X102371781Y-109847866D01*
X102389024Y-109860654D01*
X102404930Y-109875070D01*
X102419346Y-109890976D01*
X102432134Y-109908219D01*
X102443170Y-109926632D01*
X102452349Y-109946038D01*
X102459581Y-109966250D01*
X102464797Y-109987074D01*
X102467947Y-110008309D01*
X102469000Y-110029750D01*
X102469000Y-110467250D01*
X102467947Y-110488691D01*
X102464797Y-110509926D01*
X102459581Y-110530750D01*
X102452349Y-110550962D01*
X102443170Y-110570368D01*
X102432134Y-110588781D01*
X102419346Y-110606024D01*
X102404930Y-110621930D01*
X102389024Y-110636346D01*
X102371781Y-110649134D01*
X102353368Y-110660170D01*
X102333962Y-110669349D01*
X102313750Y-110676581D01*
X102292926Y-110681797D01*
X102271691Y-110684947D01*
X102250250Y-110686000D01*
X101737750Y-110686000D01*
X101716309Y-110684947D01*
X101695074Y-110681797D01*
X101674250Y-110676581D01*
X101654038Y-110669349D01*
X101634632Y-110660170D01*
X101616219Y-110649134D01*
X101598976Y-110636346D01*
X101583070Y-110621930D01*
X101568654Y-110606024D01*
X101555866Y-110588781D01*
X101544830Y-110570368D01*
X101535651Y-110550962D01*
X101528419Y-110530750D01*
X101523203Y-110509926D01*
X101520053Y-110488691D01*
X101519000Y-110467250D01*
X101519000Y-110029750D01*
X101520053Y-110008309D01*
X101523203Y-109987074D01*
X101528419Y-109966250D01*
X101535651Y-109946038D01*
X101544830Y-109926632D01*
X101555866Y-109908219D01*
X101568654Y-109890976D01*
X101583070Y-109875070D01*
X101598976Y-109860654D01*
X101616219Y-109847866D01*
X101634632Y-109836830D01*
X101654038Y-109827651D01*
X101674250Y-109820419D01*
X101695074Y-109815203D01*
X101716309Y-109812053D01*
X101737750Y-109811000D01*
X102250250Y-109811000D01*
X102271691Y-109812053D01*
X102271691Y-109812053D01*
G37*
D15*
G04 #@! TD*
G04 #@! TO.P,R5,2*
G04 #@! TO.N,GND*
X101994000Y-110248500D03*
D14*
G04 #@! TO.N,SIG2*
G04 #@! TO.C,R5*
G36*
X102271691Y-111387053D02*
X102292926Y-111390203D01*
X102313750Y-111395419D01*
X102333962Y-111402651D01*
X102353368Y-111411830D01*
X102371781Y-111422866D01*
X102389024Y-111435654D01*
X102404930Y-111450070D01*
X102419346Y-111465976D01*
X102432134Y-111483219D01*
X102443170Y-111501632D01*
X102452349Y-111521038D01*
X102459581Y-111541250D01*
X102464797Y-111562074D01*
X102467947Y-111583309D01*
X102469000Y-111604750D01*
X102469000Y-112042250D01*
X102467947Y-112063691D01*
X102464797Y-112084926D01*
X102459581Y-112105750D01*
X102452349Y-112125962D01*
X102443170Y-112145368D01*
X102432134Y-112163781D01*
X102419346Y-112181024D01*
X102404930Y-112196930D01*
X102389024Y-112211346D01*
X102371781Y-112224134D01*
X102353368Y-112235170D01*
X102333962Y-112244349D01*
X102313750Y-112251581D01*
X102292926Y-112256797D01*
X102271691Y-112259947D01*
X102250250Y-112261000D01*
X101737750Y-112261000D01*
X101716309Y-112259947D01*
X101695074Y-112256797D01*
X101674250Y-112251581D01*
X101654038Y-112244349D01*
X101634632Y-112235170D01*
X101616219Y-112224134D01*
X101598976Y-112211346D01*
X101583070Y-112196930D01*
X101568654Y-112181024D01*
X101555866Y-112163781D01*
X101544830Y-112145368D01*
X101535651Y-112125962D01*
X101528419Y-112105750D01*
X101523203Y-112084926D01*
X101520053Y-112063691D01*
X101519000Y-112042250D01*
X101519000Y-111604750D01*
X101520053Y-111583309D01*
X101523203Y-111562074D01*
X101528419Y-111541250D01*
X101535651Y-111521038D01*
X101544830Y-111501632D01*
X101555866Y-111483219D01*
X101568654Y-111465976D01*
X101583070Y-111450070D01*
X101598976Y-111435654D01*
X101616219Y-111422866D01*
X101634632Y-111411830D01*
X101654038Y-111402651D01*
X101674250Y-111395419D01*
X101695074Y-111390203D01*
X101716309Y-111387053D01*
X101737750Y-111386000D01*
X102250250Y-111386000D01*
X102271691Y-111387053D01*
X102271691Y-111387053D01*
G37*
D15*
G04 #@! TD*
G04 #@! TO.P,R5,1*
G04 #@! TO.N,SIG2*
X101994000Y-111823500D03*
D14*
G04 #@! TO.N,Net-(D6-Pad1)*
G04 #@! TO.C,R6*
G36*
X100405191Y-101240053D02*
X100426426Y-101243203D01*
X100447250Y-101248419D01*
X100467462Y-101255651D01*
X100486868Y-101264830D01*
X100505281Y-101275866D01*
X100522524Y-101288654D01*
X100538430Y-101303070D01*
X100552846Y-101318976D01*
X100565634Y-101336219D01*
X100576670Y-101354632D01*
X100585849Y-101374038D01*
X100593081Y-101394250D01*
X100598297Y-101415074D01*
X100601447Y-101436309D01*
X100602500Y-101457750D01*
X100602500Y-101970250D01*
X100601447Y-101991691D01*
X100598297Y-102012926D01*
X100593081Y-102033750D01*
X100585849Y-102053962D01*
X100576670Y-102073368D01*
X100565634Y-102091781D01*
X100552846Y-102109024D01*
X100538430Y-102124930D01*
X100522524Y-102139346D01*
X100505281Y-102152134D01*
X100486868Y-102163170D01*
X100467462Y-102172349D01*
X100447250Y-102179581D01*
X100426426Y-102184797D01*
X100405191Y-102187947D01*
X100383750Y-102189000D01*
X99946250Y-102189000D01*
X99924809Y-102187947D01*
X99903574Y-102184797D01*
X99882750Y-102179581D01*
X99862538Y-102172349D01*
X99843132Y-102163170D01*
X99824719Y-102152134D01*
X99807476Y-102139346D01*
X99791570Y-102124930D01*
X99777154Y-102109024D01*
X99764366Y-102091781D01*
X99753330Y-102073368D01*
X99744151Y-102053962D01*
X99736919Y-102033750D01*
X99731703Y-102012926D01*
X99728553Y-101991691D01*
X99727500Y-101970250D01*
X99727500Y-101457750D01*
X99728553Y-101436309D01*
X99731703Y-101415074D01*
X99736919Y-101394250D01*
X99744151Y-101374038D01*
X99753330Y-101354632D01*
X99764366Y-101336219D01*
X99777154Y-101318976D01*
X99791570Y-101303070D01*
X99807476Y-101288654D01*
X99824719Y-101275866D01*
X99843132Y-101264830D01*
X99862538Y-101255651D01*
X99882750Y-101248419D01*
X99903574Y-101243203D01*
X99924809Y-101240053D01*
X99946250Y-101239000D01*
X100383750Y-101239000D01*
X100405191Y-101240053D01*
X100405191Y-101240053D01*
G37*
D15*
G04 #@! TD*
G04 #@! TO.P,R6,1*
G04 #@! TO.N,Net-(D6-Pad1)*
X100165000Y-101714000D03*
D14*
G04 #@! TO.N,Net-(D5-Pad1)*
G04 #@! TO.C,R6*
G36*
X98830191Y-101240053D02*
X98851426Y-101243203D01*
X98872250Y-101248419D01*
X98892462Y-101255651D01*
X98911868Y-101264830D01*
X98930281Y-101275866D01*
X98947524Y-101288654D01*
X98963430Y-101303070D01*
X98977846Y-101318976D01*
X98990634Y-101336219D01*
X99001670Y-101354632D01*
X99010849Y-101374038D01*
X99018081Y-101394250D01*
X99023297Y-101415074D01*
X99026447Y-101436309D01*
X99027500Y-101457750D01*
X99027500Y-101970250D01*
X99026447Y-101991691D01*
X99023297Y-102012926D01*
X99018081Y-102033750D01*
X99010849Y-102053962D01*
X99001670Y-102073368D01*
X98990634Y-102091781D01*
X98977846Y-102109024D01*
X98963430Y-102124930D01*
X98947524Y-102139346D01*
X98930281Y-102152134D01*
X98911868Y-102163170D01*
X98892462Y-102172349D01*
X98872250Y-102179581D01*
X98851426Y-102184797D01*
X98830191Y-102187947D01*
X98808750Y-102189000D01*
X98371250Y-102189000D01*
X98349809Y-102187947D01*
X98328574Y-102184797D01*
X98307750Y-102179581D01*
X98287538Y-102172349D01*
X98268132Y-102163170D01*
X98249719Y-102152134D01*
X98232476Y-102139346D01*
X98216570Y-102124930D01*
X98202154Y-102109024D01*
X98189366Y-102091781D01*
X98178330Y-102073368D01*
X98169151Y-102053962D01*
X98161919Y-102033750D01*
X98156703Y-102012926D01*
X98153553Y-101991691D01*
X98152500Y-101970250D01*
X98152500Y-101457750D01*
X98153553Y-101436309D01*
X98156703Y-101415074D01*
X98161919Y-101394250D01*
X98169151Y-101374038D01*
X98178330Y-101354632D01*
X98189366Y-101336219D01*
X98202154Y-101318976D01*
X98216570Y-101303070D01*
X98232476Y-101288654D01*
X98249719Y-101275866D01*
X98268132Y-101264830D01*
X98287538Y-101255651D01*
X98307750Y-101248419D01*
X98328574Y-101243203D01*
X98349809Y-101240053D01*
X98371250Y-101239000D01*
X98808750Y-101239000D01*
X98830191Y-101240053D01*
X98830191Y-101240053D01*
G37*
D15*
G04 #@! TD*
G04 #@! TO.P,R6,2*
G04 #@! TO.N,Net-(D5-Pad1)*
X98590000Y-101714000D03*
D20*
G04 #@! TO.N,GND*
X100088700Y-110705900D03*
X90594052Y-110585915D03*
X85467200Y-111188500D03*
X78879700Y-110401100D03*
X76794200Y-112699800D03*
X74549000Y-112636300D03*
G04 #@! TD*
D21*
G04 #@! TO.N,Net-(D1-Pad1)*
X76631600Y-101664000D02*
X76604500Y-101691100D01*
X76604500Y-101691100D02*
X76604500Y-103368000D01*
G04 #@! TO.N,+5V*
X100077500Y-108229000D02*
X100077500Y-107553700D01*
X100179500Y-103368000D02*
X100179500Y-107451700D01*
X100179500Y-107451700D02*
X100077500Y-107553700D01*
X100077500Y-108229000D02*
X101925000Y-108229000D01*
X101925000Y-108229000D02*
X101932000Y-108236000D01*
X89077800Y-107950000D02*
X89703100Y-107950000D01*
X90932000Y-108236000D02*
X89989100Y-108236000D01*
X89989100Y-108236000D02*
X89703100Y-107950000D01*
X78208100Y-108026000D02*
X78833400Y-108026000D01*
X79932000Y-108236000D02*
X79043400Y-108236000D01*
X79043400Y-108236000D02*
X78833400Y-108026000D01*
X74828400Y-118567000D02*
X74828400Y-117391700D01*
X78208100Y-108026000D02*
X77582800Y-108026000D01*
X77582800Y-108026000D02*
X77519200Y-108089600D01*
X77519200Y-108089600D02*
X77519200Y-114774400D01*
X77519200Y-114774400D02*
X74901900Y-117391700D01*
X74901900Y-117391700D02*
X74828400Y-117391700D01*
X78208100Y-107751100D02*
X78208100Y-108026000D01*
X78208100Y-107751100D02*
X78208100Y-107350700D01*
X78179500Y-103368000D02*
X78179500Y-107322100D01*
X78179500Y-107322100D02*
X78208100Y-107350700D01*
X89077800Y-107950000D02*
X89077800Y-107274700D01*
X89179500Y-103368000D02*
X89179500Y-107173000D01*
X89179500Y-107173000D02*
X89077800Y-107274700D01*
X99416000Y-118567000D02*
X99416000Y-116801100D01*
X99416000Y-116801100D02*
X102810100Y-113407000D01*
X102810100Y-113407000D02*
X102810100Y-109114100D01*
X102810100Y-109114100D02*
X101932000Y-108236000D01*
G04 #@! TO.N,Net-(D2-Pad1)*
X76330300Y-109179100D02*
X76808100Y-108701300D01*
X76330300Y-110680000D02*
X76330300Y-109179100D01*
X76330300Y-109179100D02*
X75795100Y-109179100D01*
X75795100Y-109179100D02*
X74852000Y-108236000D01*
X76808100Y-108026000D02*
X76808100Y-108701300D01*
X76808100Y-108026000D02*
X76808100Y-107350700D01*
X78206600Y-101664000D02*
X77392000Y-102478600D01*
X77392000Y-102478600D02*
X77392000Y-106766800D01*
X77392000Y-106766800D02*
X76808100Y-107350700D01*
G04 #@! TO.N,SIG0*
X85826600Y-118567000D02*
X85826600Y-117391700D01*
X79933800Y-111721500D02*
X85604000Y-117391700D01*
X85604000Y-117391700D02*
X85826600Y-117391700D01*
X79105600Y-111630000D02*
X79197100Y-111721500D01*
X79197100Y-111721500D02*
X79933800Y-111721500D01*
X78330300Y-111630000D02*
X79105600Y-111630000D01*
G04 #@! TO.N,SIG1*
X89680600Y-111554000D02*
X88366600Y-112868000D01*
X88366600Y-112868000D02*
X88366600Y-118567000D01*
X89680600Y-111554000D02*
X90180000Y-111554000D01*
X89404700Y-111554000D02*
X89680600Y-111554000D01*
X91059000Y-111620500D02*
X90246500Y-111620500D01*
X90246500Y-111620500D02*
X90180000Y-111554000D01*
G04 #@! TO.N,SIG2*
X100225100Y-112024000D02*
X98624900Y-112024000D01*
X98624900Y-112024000D02*
X92081900Y-118567000D01*
X101994000Y-111823500D02*
X101793500Y-112024000D01*
X101793500Y-112024000D02*
X100225100Y-112024000D01*
X90906600Y-118567000D02*
X92081900Y-118567000D01*
G04 #@! TO.N,GND*
X101994000Y-110248500D02*
X100546100Y-110248500D01*
X100546100Y-110248500D02*
X100088700Y-110705900D01*
X90594052Y-110510448D02*
X91059000Y-110045500D01*
X90594052Y-110585915D02*
X90594052Y-110510448D01*
X89796200Y-110045500D02*
X89404700Y-109654000D01*
X91059000Y-110045500D02*
X89796200Y-110045500D01*
X79517300Y-109730000D02*
X79933800Y-110146500D01*
X78330300Y-109730000D02*
X79517300Y-109730000D01*
X79933800Y-110146500D02*
X79134300Y-110146500D01*
X79134300Y-110146500D02*
X78879700Y-110401100D01*
X76794200Y-112699800D02*
X74612500Y-112699800D01*
X74612500Y-112699800D02*
X74549000Y-112636300D01*
G04 #@! TO.N,Net-(J1-Pad2)*
X75142000Y-98202000D02*
X76417300Y-98202000D01*
X79206700Y-98702000D02*
X76917300Y-98702000D01*
X76917300Y-98702000D02*
X76417300Y-98202000D01*
X79844400Y-98702000D02*
X79206700Y-98702000D01*
X79844400Y-98702000D02*
X79642000Y-98499600D01*
X79642000Y-98499600D02*
X79642000Y-98202000D01*
X80482000Y-98702000D02*
X79844400Y-98702000D01*
G04 #@! TO.N,Net-(D3-Pad1)*
X87579100Y-101664000D02*
X87604500Y-101689400D01*
X87604500Y-101689400D02*
X87604500Y-103368000D01*
G04 #@! TO.N,Net-(D4-Pad1)*
X87677800Y-107950000D02*
X88303100Y-107950000D01*
X89154100Y-101664000D02*
X88392100Y-102426000D01*
X88392100Y-102426000D02*
X88392100Y-107861000D01*
X88392100Y-107861000D02*
X88303100Y-107950000D01*
X87677800Y-107950000D02*
X87052500Y-107950000D01*
X86907900Y-108236000D02*
X86907900Y-109381900D01*
X86907900Y-109381900D02*
X87404700Y-109878700D01*
X87052500Y-107950000D02*
X87052500Y-108091400D01*
X87052500Y-108091400D02*
X86907900Y-108236000D01*
X86907900Y-108236000D02*
X85852000Y-108236000D01*
X87404700Y-110604000D02*
X87404700Y-109878700D01*
G04 #@! TO.N,Net-(D5-Pad1)*
X98604500Y-103368000D02*
X98590000Y-103353500D01*
X98590000Y-103353500D02*
X98590000Y-101714000D01*
G04 #@! TO.N,Net-(D6-Pad1)*
X98677500Y-108229000D02*
X99302800Y-108229000D01*
X100165000Y-101714000D02*
X99392000Y-102487000D01*
X99392000Y-102487000D02*
X99392000Y-108139800D01*
X99392000Y-108139800D02*
X99302800Y-108229000D01*
X98225100Y-109356700D02*
X98677500Y-108904300D01*
X98225100Y-111074000D02*
X98225100Y-109356700D01*
X98225100Y-109356700D02*
X97972700Y-109356700D01*
X97972700Y-109356700D02*
X96852000Y-108236000D01*
X98677500Y-108229000D02*
X98677500Y-108904300D01*
G04 #@! TO.N,Net-(J5-Pad2)*
X85852000Y-115856000D02*
X84742200Y-114746200D01*
X84742200Y-114746200D02*
X84742200Y-107783200D01*
X84742200Y-107783200D02*
X85423400Y-107102000D01*
X85423400Y-107102000D02*
X86465700Y-107102000D01*
X86465700Y-107102000D02*
X86939400Y-106628300D01*
X86939400Y-106628300D02*
X86939400Y-104437300D01*
X86939400Y-104437300D02*
X86142000Y-103639900D01*
X86142000Y-103639900D02*
X86142000Y-98202000D01*
G04 #@! TO.N,Net-(J5-Pad4)*
X85852000Y-105696000D02*
X85852000Y-104608700D01*
X85852000Y-104608700D02*
X84866600Y-103623300D01*
X84866600Y-103623300D02*
X84866600Y-91327400D01*
X84866600Y-91327400D02*
X85492000Y-90702000D01*
G04 #@! TD*
D22*
G04 #@! TO.N,GND*
G36*
X79346073Y-112740505D02*
X79677550Y-112806440D01*
X79943939Y-112806440D01*
X84469884Y-117332386D01*
X84378443Y-117469235D01*
X84329160Y-117717000D01*
X84329160Y-119133000D01*
X78853400Y-119133000D01*
X78853400Y-118852750D01*
X78694650Y-118694000D01*
X77495400Y-118694000D01*
X77495400Y-118714000D01*
X77241400Y-118714000D01*
X77241400Y-118694000D01*
X77221400Y-118694000D01*
X77221400Y-118440000D01*
X77241400Y-118440000D01*
X77241400Y-117240750D01*
X77495400Y-117240750D01*
X77495400Y-118440000D01*
X78694650Y-118440000D01*
X78853400Y-118281250D01*
X78853400Y-117590691D01*
X78756727Y-117357302D01*
X78578099Y-117178673D01*
X78344710Y-117082000D01*
X77654150Y-117082000D01*
X77495400Y-117240750D01*
X77241400Y-117240750D01*
X77082650Y-117082000D01*
X76392090Y-117082000D01*
X76211668Y-117156733D01*
X77790282Y-115578119D01*
X78535000Y-115578119D01*
X78535000Y-116133881D01*
X78747680Y-116647337D01*
X79140663Y-117040320D01*
X79654119Y-117253000D01*
X80209881Y-117253000D01*
X80723337Y-117040320D01*
X81116320Y-116647337D01*
X81329000Y-116133881D01*
X81329000Y-115578119D01*
X81116320Y-115064663D01*
X80723337Y-114671680D01*
X80209881Y-114459000D01*
X79654119Y-114459000D01*
X79140663Y-114671680D01*
X78747680Y-115064663D01*
X78535000Y-115578119D01*
X77790282Y-115578119D01*
X78003673Y-115364729D01*
X78067129Y-115322329D01*
X78235104Y-115070937D01*
X78279200Y-114849252D01*
X78279200Y-114849248D01*
X78294088Y-114774401D01*
X78279200Y-114699554D01*
X78279200Y-112677440D01*
X78780300Y-112677440D01*
X79028065Y-112628157D01*
X79102998Y-112578088D01*
X79346073Y-112740505D01*
X79346073Y-112740505D01*
G37*
X79346073Y-112740505D02*
X79677550Y-112806440D01*
X79943939Y-112806440D01*
X84469884Y-117332386D01*
X84378443Y-117469235D01*
X84329160Y-117717000D01*
X84329160Y-119133000D01*
X78853400Y-119133000D01*
X78853400Y-118852750D01*
X78694650Y-118694000D01*
X77495400Y-118694000D01*
X77495400Y-118714000D01*
X77241400Y-118714000D01*
X77241400Y-118694000D01*
X77221400Y-118694000D01*
X77221400Y-118440000D01*
X77241400Y-118440000D01*
X77241400Y-117240750D01*
X77495400Y-117240750D01*
X77495400Y-118440000D01*
X78694650Y-118440000D01*
X78853400Y-118281250D01*
X78853400Y-117590691D01*
X78756727Y-117357302D01*
X78578099Y-117178673D01*
X78344710Y-117082000D01*
X77654150Y-117082000D01*
X77495400Y-117240750D01*
X77241400Y-117240750D01*
X77082650Y-117082000D01*
X76392090Y-117082000D01*
X76211668Y-117156733D01*
X77790282Y-115578119D01*
X78535000Y-115578119D01*
X78535000Y-116133881D01*
X78747680Y-116647337D01*
X79140663Y-117040320D01*
X79654119Y-117253000D01*
X80209881Y-117253000D01*
X80723337Y-117040320D01*
X81116320Y-116647337D01*
X81329000Y-116133881D01*
X81329000Y-115578119D01*
X81116320Y-115064663D01*
X80723337Y-114671680D01*
X80209881Y-114459000D01*
X79654119Y-114459000D01*
X79140663Y-114671680D01*
X78747680Y-115064663D01*
X78535000Y-115578119D01*
X77790282Y-115578119D01*
X78003673Y-115364729D01*
X78067129Y-115322329D01*
X78235104Y-115070937D01*
X78279200Y-114849252D01*
X78279200Y-114849248D01*
X78294088Y-114774401D01*
X78279200Y-114699554D01*
X78279200Y-112677440D01*
X78780300Y-112677440D01*
X79028065Y-112628157D01*
X79102998Y-112578088D01*
X79346073Y-112740505D01*
G36*
X103657001Y-89855600D02*
X103635698Y-89804170D01*
X103189830Y-89358302D01*
X102607276Y-89117000D01*
X101976724Y-89117000D01*
X101394170Y-89358302D01*
X100948302Y-89804170D01*
X100707000Y-90386724D01*
X100707000Y-91017276D01*
X100948302Y-91599830D01*
X101394170Y-92045698D01*
X101976724Y-92287000D01*
X102607276Y-92287000D01*
X103189830Y-92045698D01*
X103635698Y-91599830D01*
X103657001Y-91548400D01*
X103657000Y-119133000D01*
X103441000Y-119133000D01*
X103441000Y-118852750D01*
X103282250Y-118694000D01*
X102083000Y-118694000D01*
X102083000Y-118714000D01*
X101829000Y-118714000D01*
X101829000Y-118694000D01*
X101809000Y-118694000D01*
X101809000Y-118440000D01*
X101829000Y-118440000D01*
X101829000Y-118420000D01*
X102083000Y-118420000D01*
X102083000Y-118440000D01*
X103282250Y-118440000D01*
X103441000Y-118281250D01*
X103441000Y-117590691D01*
X103344327Y-117357302D01*
X103165699Y-117178673D01*
X102932310Y-117082000D01*
X102622712Y-117082000D01*
X102723337Y-117040320D01*
X103116320Y-116647337D01*
X103329000Y-116133881D01*
X103329000Y-115578119D01*
X103116320Y-115064663D01*
X102723337Y-114671680D01*
X102650423Y-114641478D01*
X103294573Y-113997329D01*
X103358029Y-113954929D01*
X103526004Y-113703537D01*
X103570100Y-113481852D01*
X103570100Y-113481848D01*
X103584988Y-113407001D01*
X103570100Y-113332154D01*
X103570100Y-109188947D01*
X103584988Y-109114100D01*
X103570100Y-109039253D01*
X103570100Y-109039248D01*
X103526004Y-108817563D01*
X103358029Y-108566171D01*
X103318329Y-108539644D01*
X103329000Y-108513881D01*
X103329000Y-107958119D01*
X103116320Y-107444663D01*
X102723337Y-107051680D01*
X102516487Y-106966000D01*
X102723337Y-106880320D01*
X103116320Y-106487337D01*
X103329000Y-105973881D01*
X103329000Y-105418119D01*
X103116320Y-104904663D01*
X102723337Y-104511680D01*
X102209881Y-104299000D01*
X101654119Y-104299000D01*
X101140663Y-104511680D01*
X100939500Y-104712843D01*
X100939500Y-104284339D01*
X101010739Y-104236739D01*
X101198505Y-103955727D01*
X101264440Y-103624250D01*
X101264440Y-103111750D01*
X101198505Y-102780273D01*
X101031378Y-102530150D01*
X101184005Y-102301727D01*
X101249940Y-101970250D01*
X101249940Y-101457750D01*
X101184005Y-101126273D01*
X100996239Y-100845261D01*
X100715227Y-100657495D01*
X100383750Y-100591560D01*
X99946250Y-100591560D01*
X99614773Y-100657495D01*
X99377500Y-100816036D01*
X99140227Y-100657495D01*
X98808750Y-100591560D01*
X98371250Y-100591560D01*
X98039773Y-100657495D01*
X97758761Y-100845261D01*
X97570995Y-101126273D01*
X97505060Y-101457750D01*
X97505060Y-101970250D01*
X97570995Y-102301727D01*
X97738122Y-102551850D01*
X97585495Y-102780273D01*
X97519560Y-103111750D01*
X97519560Y-103624250D01*
X97585495Y-103955727D01*
X97773261Y-104236739D01*
X98054273Y-104424505D01*
X98385750Y-104490440D01*
X98632000Y-104490440D01*
X98632001Y-107231560D01*
X98377500Y-107231560D01*
X98129735Y-107280843D01*
X97975534Y-107383877D01*
X97683310Y-107091653D01*
X97861765Y-107056157D01*
X98071809Y-106915809D01*
X98212157Y-106705765D01*
X98261440Y-106458000D01*
X98261440Y-104934000D01*
X98212157Y-104686235D01*
X98071809Y-104476191D01*
X97861765Y-104335843D01*
X97614000Y-104286560D01*
X96090000Y-104286560D01*
X95842235Y-104335843D01*
X95632191Y-104476191D01*
X95491843Y-104686235D01*
X95442560Y-104934000D01*
X95442560Y-106458000D01*
X95491843Y-106705765D01*
X95632191Y-106915809D01*
X95842235Y-107056157D01*
X96020690Y-107091653D01*
X95667680Y-107444663D01*
X95455000Y-107958119D01*
X95455000Y-108513881D01*
X95667680Y-109027337D01*
X96060663Y-109420320D01*
X96574119Y-109633000D01*
X97129881Y-109633000D01*
X97161218Y-109620020D01*
X97382371Y-109841173D01*
X97424771Y-109904629D01*
X97465101Y-109931576D01*
X97465101Y-110117427D01*
X97317291Y-110216191D01*
X97176943Y-110426235D01*
X97127660Y-110674000D01*
X97127660Y-111474000D01*
X97176943Y-111721765D01*
X97317291Y-111931809D01*
X97512112Y-112061985D01*
X92017479Y-117556620D01*
X91977225Y-117496375D01*
X91486018Y-117168161D01*
X91437838Y-117158577D01*
X91723337Y-117040320D01*
X92116320Y-116647337D01*
X92329000Y-116133881D01*
X92329000Y-115578119D01*
X92116320Y-115064663D01*
X91723337Y-114671680D01*
X91209881Y-114459000D01*
X90654119Y-114459000D01*
X90140663Y-114671680D01*
X89747680Y-115064663D01*
X89535000Y-115578119D01*
X89535000Y-116133881D01*
X89747680Y-116647337D01*
X90140663Y-117040320D01*
X90409682Y-117151751D01*
X90327182Y-117168161D01*
X89835975Y-117496375D01*
X89636600Y-117794761D01*
X89437225Y-117496375D01*
X89126600Y-117288822D01*
X89126600Y-113182801D01*
X89707962Y-112601440D01*
X89854700Y-112601440D01*
X90102465Y-112552157D01*
X90221506Y-112472616D01*
X90471273Y-112639505D01*
X90802750Y-112705440D01*
X91315250Y-112705440D01*
X91646727Y-112639505D01*
X91927739Y-112451739D01*
X92115505Y-112170727D01*
X92181440Y-111839250D01*
X92181440Y-111401750D01*
X92115505Y-111070273D01*
X92007057Y-110907969D01*
X92072327Y-110842698D01*
X92169000Y-110609309D01*
X92169000Y-110331250D01*
X92010250Y-110172500D01*
X91186000Y-110172500D01*
X91186000Y-110192500D01*
X90932000Y-110192500D01*
X90932000Y-110172500D01*
X90912000Y-110172500D01*
X90912000Y-109918500D01*
X90932000Y-109918500D01*
X90932000Y-109898500D01*
X91186000Y-109898500D01*
X91186000Y-109918500D01*
X92010250Y-109918500D01*
X92169000Y-109759750D01*
X92169000Y-109481691D01*
X92072327Y-109248302D01*
X91983841Y-109159816D01*
X92116320Y-109027337D01*
X92329000Y-108513881D01*
X92329000Y-107958119D01*
X92116320Y-107444663D01*
X91723337Y-107051680D01*
X91516487Y-106966000D01*
X91723337Y-106880320D01*
X92116320Y-106487337D01*
X92329000Y-105973881D01*
X92329000Y-105418119D01*
X92116320Y-104904663D01*
X91723337Y-104511680D01*
X91209881Y-104299000D01*
X90654119Y-104299000D01*
X90140663Y-104511680D01*
X89939500Y-104712843D01*
X89939500Y-104284339D01*
X90010739Y-104236739D01*
X90198505Y-103955727D01*
X90264440Y-103624250D01*
X90264440Y-103111750D01*
X90198505Y-102780273D01*
X90010739Y-102499261D01*
X90008644Y-102497861D01*
X90173105Y-102251727D01*
X90239040Y-101920250D01*
X90239040Y-101407750D01*
X90173105Y-101076273D01*
X90089507Y-100951159D01*
X91907000Y-100951159D01*
X91907000Y-101740841D01*
X92209199Y-102470412D01*
X92767588Y-103028801D01*
X93497159Y-103331000D01*
X94286841Y-103331000D01*
X95016412Y-103028801D01*
X95574801Y-102470412D01*
X95877000Y-101740841D01*
X95877000Y-100951159D01*
X95574801Y-100221588D01*
X95016412Y-99663199D01*
X94286841Y-99361000D01*
X93497159Y-99361000D01*
X92767588Y-99663199D01*
X92209199Y-100221588D01*
X91907000Y-100951159D01*
X90089507Y-100951159D01*
X89985339Y-100795261D01*
X89704327Y-100607495D01*
X89372850Y-100541560D01*
X88935350Y-100541560D01*
X88603873Y-100607495D01*
X88366600Y-100766036D01*
X88129327Y-100607495D01*
X87797850Y-100541560D01*
X87360350Y-100541560D01*
X87028873Y-100607495D01*
X86902000Y-100692269D01*
X86902000Y-99799440D01*
X87092000Y-99799440D01*
X87339765Y-99750157D01*
X87549809Y-99609809D01*
X87690157Y-99399765D01*
X87739440Y-99152000D01*
X87739440Y-97886724D01*
X89057000Y-97886724D01*
X89057000Y-98517276D01*
X89298302Y-99099830D01*
X89744170Y-99545698D01*
X90326724Y-99787000D01*
X90957276Y-99787000D01*
X91539830Y-99545698D01*
X91985698Y-99099830D01*
X92227000Y-98517276D01*
X92227000Y-97886724D01*
X91985698Y-97304170D01*
X91933528Y-97252000D01*
X95544560Y-97252000D01*
X95544560Y-99152000D01*
X95593843Y-99399765D01*
X95734191Y-99609809D01*
X95944235Y-99750157D01*
X96192000Y-99799440D01*
X98092000Y-99799440D01*
X98339765Y-99750157D01*
X98549809Y-99609809D01*
X98690157Y-99399765D01*
X98739440Y-99152000D01*
X98739440Y-97886724D01*
X100057000Y-97886724D01*
X100057000Y-98517276D01*
X100298302Y-99099830D01*
X100744170Y-99545698D01*
X101326724Y-99787000D01*
X101957276Y-99787000D01*
X102539830Y-99545698D01*
X102985698Y-99099830D01*
X103227000Y-98517276D01*
X103227000Y-97886724D01*
X102985698Y-97304170D01*
X102539830Y-96858302D01*
X101957276Y-96617000D01*
X101326724Y-96617000D01*
X100744170Y-96858302D01*
X100298302Y-97304170D01*
X100057000Y-97886724D01*
X98739440Y-97886724D01*
X98739440Y-97252000D01*
X98690157Y-97004235D01*
X98549809Y-96794191D01*
X98339765Y-96653843D01*
X98092000Y-96604560D01*
X96192000Y-96604560D01*
X95944235Y-96653843D01*
X95734191Y-96794191D01*
X95593843Y-97004235D01*
X95544560Y-97252000D01*
X91933528Y-97252000D01*
X91539830Y-96858302D01*
X90957276Y-96617000D01*
X90326724Y-96617000D01*
X89744170Y-96858302D01*
X89298302Y-97304170D01*
X89057000Y-97886724D01*
X87739440Y-97886724D01*
X87739440Y-97252000D01*
X87690157Y-97004235D01*
X87549809Y-96794191D01*
X87339765Y-96653843D01*
X87092000Y-96604560D01*
X85626600Y-96604560D01*
X85626600Y-95320583D01*
X85666234Y-95337000D01*
X86117766Y-95337000D01*
X86534926Y-95164207D01*
X86854207Y-94844926D01*
X87027000Y-94427766D01*
X87027000Y-93976234D01*
X89757000Y-93976234D01*
X89757000Y-94427766D01*
X89929793Y-94844926D01*
X90249074Y-95164207D01*
X90666234Y-95337000D01*
X91117766Y-95337000D01*
X91534926Y-95164207D01*
X91854207Y-94844926D01*
X92027000Y-94427766D01*
X92027000Y-93976234D01*
X95757000Y-93976234D01*
X95757000Y-94427766D01*
X95929793Y-94844926D01*
X96249074Y-95164207D01*
X96666234Y-95337000D01*
X97117766Y-95337000D01*
X97534926Y-95164207D01*
X97854207Y-94844926D01*
X98027000Y-94427766D01*
X98027000Y-93976234D01*
X100757000Y-93976234D01*
X100757000Y-94427766D01*
X100929793Y-94844926D01*
X101249074Y-95164207D01*
X101666234Y-95337000D01*
X102117766Y-95337000D01*
X102534926Y-95164207D01*
X102854207Y-94844926D01*
X103027000Y-94427766D01*
X103027000Y-93976234D01*
X102854207Y-93559074D01*
X102534926Y-93239793D01*
X102117766Y-93067000D01*
X101666234Y-93067000D01*
X101249074Y-93239793D01*
X100929793Y-93559074D01*
X100757000Y-93976234D01*
X98027000Y-93976234D01*
X97854207Y-93559074D01*
X97534926Y-93239793D01*
X97117766Y-93067000D01*
X96666234Y-93067000D01*
X96249074Y-93239793D01*
X95929793Y-93559074D01*
X95757000Y-93976234D01*
X92027000Y-93976234D01*
X91854207Y-93559074D01*
X91534926Y-93239793D01*
X91117766Y-93067000D01*
X90666234Y-93067000D01*
X90249074Y-93239793D01*
X89929793Y-93559074D01*
X89757000Y-93976234D01*
X87027000Y-93976234D01*
X86854207Y-93559074D01*
X86534926Y-93239793D01*
X86117766Y-93067000D01*
X85666234Y-93067000D01*
X85626600Y-93083417D01*
X85626600Y-92287000D01*
X85807276Y-92287000D01*
X86389830Y-92045698D01*
X86835698Y-91599830D01*
X87077000Y-91017276D01*
X87077000Y-90386724D01*
X89707000Y-90386724D01*
X89707000Y-91017276D01*
X89948302Y-91599830D01*
X90394170Y-92045698D01*
X90976724Y-92287000D01*
X91607276Y-92287000D01*
X92189830Y-92045698D01*
X92635698Y-91599830D01*
X92877000Y-91017276D01*
X92877000Y-90386724D01*
X94907000Y-90386724D01*
X94907000Y-91017276D01*
X95148302Y-91599830D01*
X95594170Y-92045698D01*
X96176724Y-92287000D01*
X96807276Y-92287000D01*
X97389830Y-92045698D01*
X97835698Y-91599830D01*
X98077000Y-91017276D01*
X98077000Y-90386724D01*
X97835698Y-89804170D01*
X97389830Y-89358302D01*
X96807276Y-89117000D01*
X96176724Y-89117000D01*
X95594170Y-89358302D01*
X95148302Y-89804170D01*
X94907000Y-90386724D01*
X92877000Y-90386724D01*
X92635698Y-89804170D01*
X92189830Y-89358302D01*
X91607276Y-89117000D01*
X90976724Y-89117000D01*
X90394170Y-89358302D01*
X89948302Y-89804170D01*
X89707000Y-90386724D01*
X87077000Y-90386724D01*
X86835698Y-89804170D01*
X86389830Y-89358302D01*
X85807276Y-89117000D01*
X85176724Y-89117000D01*
X84594170Y-89358302D01*
X84148302Y-89804170D01*
X83907000Y-90386724D01*
X83907000Y-91017276D01*
X84106601Y-91499155D01*
X84106600Y-99753387D01*
X84016412Y-99663199D01*
X83286841Y-99361000D01*
X82497159Y-99361000D01*
X81767588Y-99663199D01*
X81209199Y-100221588D01*
X80907000Y-100951159D01*
X80907000Y-101740841D01*
X81209199Y-102470412D01*
X81767588Y-103028801D01*
X82497159Y-103331000D01*
X83286841Y-103331000D01*
X84016412Y-103028801D01*
X84106600Y-102938613D01*
X84106600Y-103548453D01*
X84091712Y-103623300D01*
X84106600Y-103698147D01*
X84106600Y-103698151D01*
X84150696Y-103919836D01*
X84318671Y-104171229D01*
X84382130Y-104213631D01*
X84639683Y-104471185D01*
X84632191Y-104476191D01*
X84491843Y-104686235D01*
X84442560Y-104934000D01*
X84442560Y-106458000D01*
X84491843Y-106705765D01*
X84593177Y-106857421D01*
X84257728Y-107192871D01*
X84194272Y-107235271D01*
X84151872Y-107298727D01*
X84151871Y-107298728D01*
X84026297Y-107486663D01*
X83967312Y-107783200D01*
X83982201Y-107858052D01*
X83982200Y-114671353D01*
X83978260Y-114691159D01*
X81056240Y-111769139D01*
X81056240Y-111502750D01*
X80990305Y-111171273D01*
X80881857Y-111008969D01*
X80947127Y-110943698D01*
X81043800Y-110710309D01*
X81043800Y-110432250D01*
X80885050Y-110273500D01*
X80060800Y-110273500D01*
X80060800Y-110293500D01*
X79806800Y-110293500D01*
X79806800Y-110273500D01*
X79786800Y-110273500D01*
X79786800Y-110019500D01*
X79806800Y-110019500D01*
X79806800Y-109999500D01*
X80060800Y-109999500D01*
X80060800Y-110019500D01*
X80885050Y-110019500D01*
X81043800Y-109860750D01*
X81043800Y-109582691D01*
X80947127Y-109349302D01*
X80870741Y-109272916D01*
X81116320Y-109027337D01*
X81329000Y-108513881D01*
X81329000Y-107958119D01*
X81116320Y-107444663D01*
X80723337Y-107051680D01*
X80516487Y-106966000D01*
X80723337Y-106880320D01*
X81116320Y-106487337D01*
X81329000Y-105973881D01*
X81329000Y-105418119D01*
X81116320Y-104904663D01*
X80723337Y-104511680D01*
X80209881Y-104299000D01*
X79654119Y-104299000D01*
X79140663Y-104511680D01*
X78939500Y-104712843D01*
X78939500Y-104284339D01*
X79010739Y-104236739D01*
X79198505Y-103955727D01*
X79264440Y-103624250D01*
X79264440Y-103111750D01*
X79198505Y-102780273D01*
X79034568Y-102534924D01*
X79037839Y-102532739D01*
X79225605Y-102251727D01*
X79291540Y-101920250D01*
X79291540Y-101407750D01*
X79225605Y-101076273D01*
X79037839Y-100795261D01*
X78756827Y-100607495D01*
X78425350Y-100541560D01*
X77987850Y-100541560D01*
X77656373Y-100607495D01*
X77419100Y-100766036D01*
X77181827Y-100607495D01*
X76850350Y-100541560D01*
X76412850Y-100541560D01*
X76081373Y-100607495D01*
X75800361Y-100795261D01*
X75612595Y-101076273D01*
X75546660Y-101407750D01*
X75546660Y-101920250D01*
X75612595Y-102251727D01*
X75776532Y-102497076D01*
X75773261Y-102499261D01*
X75585495Y-102780273D01*
X75519560Y-103111750D01*
X75519560Y-103624250D01*
X75585495Y-103955727D01*
X75773261Y-104236739D01*
X76054273Y-104424505D01*
X76385750Y-104490440D01*
X76632000Y-104490440D01*
X76632001Y-106451997D01*
X76323627Y-106760372D01*
X76260172Y-106802771D01*
X76217772Y-106866227D01*
X76217771Y-106866228D01*
X76122834Y-107008311D01*
X76092197Y-107054163D01*
X76060991Y-107211041D01*
X76050291Y-107218191D01*
X75953983Y-107362326D01*
X75683310Y-107091653D01*
X75861765Y-107056157D01*
X76071809Y-106915809D01*
X76212157Y-106705765D01*
X76261440Y-106458000D01*
X76261440Y-104934000D01*
X76212157Y-104686235D01*
X76071809Y-104476191D01*
X75861765Y-104335843D01*
X75614000Y-104286560D01*
X74090000Y-104286560D01*
X73842235Y-104335843D01*
X73632191Y-104476191D01*
X73491843Y-104686235D01*
X73442560Y-104934000D01*
X73442560Y-106458000D01*
X73491843Y-106705765D01*
X73632191Y-106915809D01*
X73842235Y-107056157D01*
X74020690Y-107091653D01*
X73667680Y-107444663D01*
X73455000Y-107958119D01*
X73455000Y-108513881D01*
X73667680Y-109027337D01*
X74060663Y-109420320D01*
X74574119Y-109633000D01*
X75129881Y-109633000D01*
X75161218Y-109620020D01*
X75204771Y-109663573D01*
X75247171Y-109727029D01*
X75310627Y-109769429D01*
X75412336Y-109837389D01*
X75282143Y-110032235D01*
X75232860Y-110280000D01*
X75232860Y-111080000D01*
X75282143Y-111327765D01*
X75422491Y-111537809D01*
X75632535Y-111678157D01*
X75880300Y-111727440D01*
X76759201Y-111727440D01*
X76759201Y-114459597D01*
X76070827Y-115147971D01*
X76036320Y-115064663D01*
X75643337Y-114671680D01*
X75129881Y-114459000D01*
X74574119Y-114459000D01*
X74060663Y-114671680D01*
X73667680Y-115064663D01*
X73455000Y-115578119D01*
X73455000Y-116133881D01*
X73667680Y-116647337D01*
X74060663Y-117040320D01*
X74129961Y-117069024D01*
X74112496Y-117095163D01*
X74074829Y-117284526D01*
X73757775Y-117496375D01*
X73429561Y-117987582D01*
X73314308Y-118567000D01*
X73426892Y-119133000D01*
X73127000Y-119133000D01*
X73127000Y-97252000D01*
X73544560Y-97252000D01*
X73544560Y-99152000D01*
X73593843Y-99399765D01*
X73734191Y-99609809D01*
X73944235Y-99750157D01*
X74192000Y-99799440D01*
X76092000Y-99799440D01*
X76339765Y-99750157D01*
X76549809Y-99609809D01*
X76671318Y-99427960D01*
X76842448Y-99462000D01*
X76842452Y-99462000D01*
X76917300Y-99476888D01*
X76992148Y-99462000D01*
X78660472Y-99462000D01*
X78744170Y-99545698D01*
X79326724Y-99787000D01*
X79957276Y-99787000D01*
X80539830Y-99545698D01*
X80640084Y-99445444D01*
X80778537Y-99417904D01*
X81029929Y-99249929D01*
X81197904Y-98998537D01*
X81256889Y-98702000D01*
X81222369Y-98528456D01*
X81227000Y-98517276D01*
X81227000Y-97886724D01*
X80985698Y-97304170D01*
X80539830Y-96858302D01*
X79957276Y-96617000D01*
X79326724Y-96617000D01*
X78744170Y-96858302D01*
X78298302Y-97304170D01*
X78057000Y-97886724D01*
X78057000Y-97942000D01*
X77232102Y-97942000D01*
X77007631Y-97717529D01*
X76965229Y-97654071D01*
X76739440Y-97503203D01*
X76739440Y-97252000D01*
X76690157Y-97004235D01*
X76549809Y-96794191D01*
X76339765Y-96653843D01*
X76092000Y-96604560D01*
X74192000Y-96604560D01*
X73944235Y-96653843D01*
X73734191Y-96794191D01*
X73593843Y-97004235D01*
X73544560Y-97252000D01*
X73127000Y-97252000D01*
X73127000Y-93976234D01*
X73757000Y-93976234D01*
X73757000Y-94427766D01*
X73929793Y-94844926D01*
X74249074Y-95164207D01*
X74666234Y-95337000D01*
X75117766Y-95337000D01*
X75534926Y-95164207D01*
X75854207Y-94844926D01*
X76027000Y-94427766D01*
X76027000Y-93976234D01*
X78757000Y-93976234D01*
X78757000Y-94427766D01*
X78929793Y-94844926D01*
X79249074Y-95164207D01*
X79666234Y-95337000D01*
X80117766Y-95337000D01*
X80534926Y-95164207D01*
X80854207Y-94844926D01*
X81027000Y-94427766D01*
X81027000Y-93976234D01*
X80854207Y-93559074D01*
X80534926Y-93239793D01*
X80117766Y-93067000D01*
X79666234Y-93067000D01*
X79249074Y-93239793D01*
X78929793Y-93559074D01*
X78757000Y-93976234D01*
X76027000Y-93976234D01*
X75854207Y-93559074D01*
X75534926Y-93239793D01*
X75117766Y-93067000D01*
X74666234Y-93067000D01*
X74249074Y-93239793D01*
X73929793Y-93559074D01*
X73757000Y-93976234D01*
X73127000Y-93976234D01*
X73127000Y-91548402D01*
X73148302Y-91599830D01*
X73594170Y-92045698D01*
X74176724Y-92287000D01*
X74807276Y-92287000D01*
X75389830Y-92045698D01*
X75835698Y-91599830D01*
X76077000Y-91017276D01*
X76077000Y-90386724D01*
X78707000Y-90386724D01*
X78707000Y-91017276D01*
X78948302Y-91599830D01*
X79394170Y-92045698D01*
X79976724Y-92287000D01*
X80607276Y-92287000D01*
X81189830Y-92045698D01*
X81635698Y-91599830D01*
X81877000Y-91017276D01*
X81877000Y-90386724D01*
X81635698Y-89804170D01*
X81189830Y-89358302D01*
X80607276Y-89117000D01*
X79976724Y-89117000D01*
X79394170Y-89358302D01*
X78948302Y-89804170D01*
X78707000Y-90386724D01*
X76077000Y-90386724D01*
X75835698Y-89804170D01*
X75389830Y-89358302D01*
X74807276Y-89117000D01*
X74176724Y-89117000D01*
X73594170Y-89358302D01*
X73148302Y-89804170D01*
X73127000Y-89855598D01*
X73127000Y-87603000D01*
X103657001Y-87603000D01*
X103657001Y-89855600D01*
X103657001Y-89855600D01*
G37*
X103657001Y-89855600D02*
X103635698Y-89804170D01*
X103189830Y-89358302D01*
X102607276Y-89117000D01*
X101976724Y-89117000D01*
X101394170Y-89358302D01*
X100948302Y-89804170D01*
X100707000Y-90386724D01*
X100707000Y-91017276D01*
X100948302Y-91599830D01*
X101394170Y-92045698D01*
X101976724Y-92287000D01*
X102607276Y-92287000D01*
X103189830Y-92045698D01*
X103635698Y-91599830D01*
X103657001Y-91548400D01*
X103657000Y-119133000D01*
X103441000Y-119133000D01*
X103441000Y-118852750D01*
X103282250Y-118694000D01*
X102083000Y-118694000D01*
X102083000Y-118714000D01*
X101829000Y-118714000D01*
X101829000Y-118694000D01*
X101809000Y-118694000D01*
X101809000Y-118440000D01*
X101829000Y-118440000D01*
X101829000Y-118420000D01*
X102083000Y-118420000D01*
X102083000Y-118440000D01*
X103282250Y-118440000D01*
X103441000Y-118281250D01*
X103441000Y-117590691D01*
X103344327Y-117357302D01*
X103165699Y-117178673D01*
X102932310Y-117082000D01*
X102622712Y-117082000D01*
X102723337Y-117040320D01*
X103116320Y-116647337D01*
X103329000Y-116133881D01*
X103329000Y-115578119D01*
X103116320Y-115064663D01*
X102723337Y-114671680D01*
X102650423Y-114641478D01*
X103294573Y-113997329D01*
X103358029Y-113954929D01*
X103526004Y-113703537D01*
X103570100Y-113481852D01*
X103570100Y-113481848D01*
X103584988Y-113407001D01*
X103570100Y-113332154D01*
X103570100Y-109188947D01*
X103584988Y-109114100D01*
X103570100Y-109039253D01*
X103570100Y-109039248D01*
X103526004Y-108817563D01*
X103358029Y-108566171D01*
X103318329Y-108539644D01*
X103329000Y-108513881D01*
X103329000Y-107958119D01*
X103116320Y-107444663D01*
X102723337Y-107051680D01*
X102516487Y-106966000D01*
X102723337Y-106880320D01*
X103116320Y-106487337D01*
X103329000Y-105973881D01*
X103329000Y-105418119D01*
X103116320Y-104904663D01*
X102723337Y-104511680D01*
X102209881Y-104299000D01*
X101654119Y-104299000D01*
X101140663Y-104511680D01*
X100939500Y-104712843D01*
X100939500Y-104284339D01*
X101010739Y-104236739D01*
X101198505Y-103955727D01*
X101264440Y-103624250D01*
X101264440Y-103111750D01*
X101198505Y-102780273D01*
X101031378Y-102530150D01*
X101184005Y-102301727D01*
X101249940Y-101970250D01*
X101249940Y-101457750D01*
X101184005Y-101126273D01*
X100996239Y-100845261D01*
X100715227Y-100657495D01*
X100383750Y-100591560D01*
X99946250Y-100591560D01*
X99614773Y-100657495D01*
X99377500Y-100816036D01*
X99140227Y-100657495D01*
X98808750Y-100591560D01*
X98371250Y-100591560D01*
X98039773Y-100657495D01*
X97758761Y-100845261D01*
X97570995Y-101126273D01*
X97505060Y-101457750D01*
X97505060Y-101970250D01*
X97570995Y-102301727D01*
X97738122Y-102551850D01*
X97585495Y-102780273D01*
X97519560Y-103111750D01*
X97519560Y-103624250D01*
X97585495Y-103955727D01*
X97773261Y-104236739D01*
X98054273Y-104424505D01*
X98385750Y-104490440D01*
X98632000Y-104490440D01*
X98632001Y-107231560D01*
X98377500Y-107231560D01*
X98129735Y-107280843D01*
X97975534Y-107383877D01*
X97683310Y-107091653D01*
X97861765Y-107056157D01*
X98071809Y-106915809D01*
X98212157Y-106705765D01*
X98261440Y-106458000D01*
X98261440Y-104934000D01*
X98212157Y-104686235D01*
X98071809Y-104476191D01*
X97861765Y-104335843D01*
X97614000Y-104286560D01*
X96090000Y-104286560D01*
X95842235Y-104335843D01*
X95632191Y-104476191D01*
X95491843Y-104686235D01*
X95442560Y-104934000D01*
X95442560Y-106458000D01*
X95491843Y-106705765D01*
X95632191Y-106915809D01*
X95842235Y-107056157D01*
X96020690Y-107091653D01*
X95667680Y-107444663D01*
X95455000Y-107958119D01*
X95455000Y-108513881D01*
X95667680Y-109027337D01*
X96060663Y-109420320D01*
X96574119Y-109633000D01*
X97129881Y-109633000D01*
X97161218Y-109620020D01*
X97382371Y-109841173D01*
X97424771Y-109904629D01*
X97465101Y-109931576D01*
X97465101Y-110117427D01*
X97317291Y-110216191D01*
X97176943Y-110426235D01*
X97127660Y-110674000D01*
X97127660Y-111474000D01*
X97176943Y-111721765D01*
X97317291Y-111931809D01*
X97512112Y-112061985D01*
X92017479Y-117556620D01*
X91977225Y-117496375D01*
X91486018Y-117168161D01*
X91437838Y-117158577D01*
X91723337Y-117040320D01*
X92116320Y-116647337D01*
X92329000Y-116133881D01*
X92329000Y-115578119D01*
X92116320Y-115064663D01*
X91723337Y-114671680D01*
X91209881Y-114459000D01*
X90654119Y-114459000D01*
X90140663Y-114671680D01*
X89747680Y-115064663D01*
X89535000Y-115578119D01*
X89535000Y-116133881D01*
X89747680Y-116647337D01*
X90140663Y-117040320D01*
X90409682Y-117151751D01*
X90327182Y-117168161D01*
X89835975Y-117496375D01*
X89636600Y-117794761D01*
X89437225Y-117496375D01*
X89126600Y-117288822D01*
X89126600Y-113182801D01*
X89707962Y-112601440D01*
X89854700Y-112601440D01*
X90102465Y-112552157D01*
X90221506Y-112472616D01*
X90471273Y-112639505D01*
X90802750Y-112705440D01*
X91315250Y-112705440D01*
X91646727Y-112639505D01*
X91927739Y-112451739D01*
X92115505Y-112170727D01*
X92181440Y-111839250D01*
X92181440Y-111401750D01*
X92115505Y-111070273D01*
X92007057Y-110907969D01*
X92072327Y-110842698D01*
X92169000Y-110609309D01*
X92169000Y-110331250D01*
X92010250Y-110172500D01*
X91186000Y-110172500D01*
X91186000Y-110192500D01*
X90932000Y-110192500D01*
X90932000Y-110172500D01*
X90912000Y-110172500D01*
X90912000Y-109918500D01*
X90932000Y-109918500D01*
X90932000Y-109898500D01*
X91186000Y-109898500D01*
X91186000Y-109918500D01*
X92010250Y-109918500D01*
X92169000Y-109759750D01*
X92169000Y-109481691D01*
X92072327Y-109248302D01*
X91983841Y-109159816D01*
X92116320Y-109027337D01*
X92329000Y-108513881D01*
X92329000Y-107958119D01*
X92116320Y-107444663D01*
X91723337Y-107051680D01*
X91516487Y-106966000D01*
X91723337Y-106880320D01*
X92116320Y-106487337D01*
X92329000Y-105973881D01*
X92329000Y-105418119D01*
X92116320Y-104904663D01*
X91723337Y-104511680D01*
X91209881Y-104299000D01*
X90654119Y-104299000D01*
X90140663Y-104511680D01*
X89939500Y-104712843D01*
X89939500Y-104284339D01*
X90010739Y-104236739D01*
X90198505Y-103955727D01*
X90264440Y-103624250D01*
X90264440Y-103111750D01*
X90198505Y-102780273D01*
X90010739Y-102499261D01*
X90008644Y-102497861D01*
X90173105Y-102251727D01*
X90239040Y-101920250D01*
X90239040Y-101407750D01*
X90173105Y-101076273D01*
X90089507Y-100951159D01*
X91907000Y-100951159D01*
X91907000Y-101740841D01*
X92209199Y-102470412D01*
X92767588Y-103028801D01*
X93497159Y-103331000D01*
X94286841Y-103331000D01*
X95016412Y-103028801D01*
X95574801Y-102470412D01*
X95877000Y-101740841D01*
X95877000Y-100951159D01*
X95574801Y-100221588D01*
X95016412Y-99663199D01*
X94286841Y-99361000D01*
X93497159Y-99361000D01*
X92767588Y-99663199D01*
X92209199Y-100221588D01*
X91907000Y-100951159D01*
X90089507Y-100951159D01*
X89985339Y-100795261D01*
X89704327Y-100607495D01*
X89372850Y-100541560D01*
X88935350Y-100541560D01*
X88603873Y-100607495D01*
X88366600Y-100766036D01*
X88129327Y-100607495D01*
X87797850Y-100541560D01*
X87360350Y-100541560D01*
X87028873Y-100607495D01*
X86902000Y-100692269D01*
X86902000Y-99799440D01*
X87092000Y-99799440D01*
X87339765Y-99750157D01*
X87549809Y-99609809D01*
X87690157Y-99399765D01*
X87739440Y-99152000D01*
X87739440Y-97886724D01*
X89057000Y-97886724D01*
X89057000Y-98517276D01*
X89298302Y-99099830D01*
X89744170Y-99545698D01*
X90326724Y-99787000D01*
X90957276Y-99787000D01*
X91539830Y-99545698D01*
X91985698Y-99099830D01*
X92227000Y-98517276D01*
X92227000Y-97886724D01*
X91985698Y-97304170D01*
X91933528Y-97252000D01*
X95544560Y-97252000D01*
X95544560Y-99152000D01*
X95593843Y-99399765D01*
X95734191Y-99609809D01*
X95944235Y-99750157D01*
X96192000Y-99799440D01*
X98092000Y-99799440D01*
X98339765Y-99750157D01*
X98549809Y-99609809D01*
X98690157Y-99399765D01*
X98739440Y-99152000D01*
X98739440Y-97886724D01*
X100057000Y-97886724D01*
X100057000Y-98517276D01*
X100298302Y-99099830D01*
X100744170Y-99545698D01*
X101326724Y-99787000D01*
X101957276Y-99787000D01*
X102539830Y-99545698D01*
X102985698Y-99099830D01*
X103227000Y-98517276D01*
X103227000Y-97886724D01*
X102985698Y-97304170D01*
X102539830Y-96858302D01*
X101957276Y-96617000D01*
X101326724Y-96617000D01*
X100744170Y-96858302D01*
X100298302Y-97304170D01*
X100057000Y-97886724D01*
X98739440Y-97886724D01*
X98739440Y-97252000D01*
X98690157Y-97004235D01*
X98549809Y-96794191D01*
X98339765Y-96653843D01*
X98092000Y-96604560D01*
X96192000Y-96604560D01*
X95944235Y-96653843D01*
X95734191Y-96794191D01*
X95593843Y-97004235D01*
X95544560Y-97252000D01*
X91933528Y-97252000D01*
X91539830Y-96858302D01*
X90957276Y-96617000D01*
X90326724Y-96617000D01*
X89744170Y-96858302D01*
X89298302Y-97304170D01*
X89057000Y-97886724D01*
X87739440Y-97886724D01*
X87739440Y-97252000D01*
X87690157Y-97004235D01*
X87549809Y-96794191D01*
X87339765Y-96653843D01*
X87092000Y-96604560D01*
X85626600Y-96604560D01*
X85626600Y-95320583D01*
X85666234Y-95337000D01*
X86117766Y-95337000D01*
X86534926Y-95164207D01*
X86854207Y-94844926D01*
X87027000Y-94427766D01*
X87027000Y-93976234D01*
X89757000Y-93976234D01*
X89757000Y-94427766D01*
X89929793Y-94844926D01*
X90249074Y-95164207D01*
X90666234Y-95337000D01*
X91117766Y-95337000D01*
X91534926Y-95164207D01*
X91854207Y-94844926D01*
X92027000Y-94427766D01*
X92027000Y-93976234D01*
X95757000Y-93976234D01*
X95757000Y-94427766D01*
X95929793Y-94844926D01*
X96249074Y-95164207D01*
X96666234Y-95337000D01*
X97117766Y-95337000D01*
X97534926Y-95164207D01*
X97854207Y-94844926D01*
X98027000Y-94427766D01*
X98027000Y-93976234D01*
X100757000Y-93976234D01*
X100757000Y-94427766D01*
X100929793Y-94844926D01*
X101249074Y-95164207D01*
X101666234Y-95337000D01*
X102117766Y-95337000D01*
X102534926Y-95164207D01*
X102854207Y-94844926D01*
X103027000Y-94427766D01*
X103027000Y-93976234D01*
X102854207Y-93559074D01*
X102534926Y-93239793D01*
X102117766Y-93067000D01*
X101666234Y-93067000D01*
X101249074Y-93239793D01*
X100929793Y-93559074D01*
X100757000Y-93976234D01*
X98027000Y-93976234D01*
X97854207Y-93559074D01*
X97534926Y-93239793D01*
X97117766Y-93067000D01*
X96666234Y-93067000D01*
X96249074Y-93239793D01*
X95929793Y-93559074D01*
X95757000Y-93976234D01*
X92027000Y-93976234D01*
X91854207Y-93559074D01*
X91534926Y-93239793D01*
X91117766Y-93067000D01*
X90666234Y-93067000D01*
X90249074Y-93239793D01*
X89929793Y-93559074D01*
X89757000Y-93976234D01*
X87027000Y-93976234D01*
X86854207Y-93559074D01*
X86534926Y-93239793D01*
X86117766Y-93067000D01*
X85666234Y-93067000D01*
X85626600Y-93083417D01*
X85626600Y-92287000D01*
X85807276Y-92287000D01*
X86389830Y-92045698D01*
X86835698Y-91599830D01*
X87077000Y-91017276D01*
X87077000Y-90386724D01*
X89707000Y-90386724D01*
X89707000Y-91017276D01*
X89948302Y-91599830D01*
X90394170Y-92045698D01*
X90976724Y-92287000D01*
X91607276Y-92287000D01*
X92189830Y-92045698D01*
X92635698Y-91599830D01*
X92877000Y-91017276D01*
X92877000Y-90386724D01*
X94907000Y-90386724D01*
X94907000Y-91017276D01*
X95148302Y-91599830D01*
X95594170Y-92045698D01*
X96176724Y-92287000D01*
X96807276Y-92287000D01*
X97389830Y-92045698D01*
X97835698Y-91599830D01*
X98077000Y-91017276D01*
X98077000Y-90386724D01*
X97835698Y-89804170D01*
X97389830Y-89358302D01*
X96807276Y-89117000D01*
X96176724Y-89117000D01*
X95594170Y-89358302D01*
X95148302Y-89804170D01*
X94907000Y-90386724D01*
X92877000Y-90386724D01*
X92635698Y-89804170D01*
X92189830Y-89358302D01*
X91607276Y-89117000D01*
X90976724Y-89117000D01*
X90394170Y-89358302D01*
X89948302Y-89804170D01*
X89707000Y-90386724D01*
X87077000Y-90386724D01*
X86835698Y-89804170D01*
X86389830Y-89358302D01*
X85807276Y-89117000D01*
X85176724Y-89117000D01*
X84594170Y-89358302D01*
X84148302Y-89804170D01*
X83907000Y-90386724D01*
X83907000Y-91017276D01*
X84106601Y-91499155D01*
X84106600Y-99753387D01*
X84016412Y-99663199D01*
X83286841Y-99361000D01*
X82497159Y-99361000D01*
X81767588Y-99663199D01*
X81209199Y-100221588D01*
X80907000Y-100951159D01*
X80907000Y-101740841D01*
X81209199Y-102470412D01*
X81767588Y-103028801D01*
X82497159Y-103331000D01*
X83286841Y-103331000D01*
X84016412Y-103028801D01*
X84106600Y-102938613D01*
X84106600Y-103548453D01*
X84091712Y-103623300D01*
X84106600Y-103698147D01*
X84106600Y-103698151D01*
X84150696Y-103919836D01*
X84318671Y-104171229D01*
X84382130Y-104213631D01*
X84639683Y-104471185D01*
X84632191Y-104476191D01*
X84491843Y-104686235D01*
X84442560Y-104934000D01*
X84442560Y-106458000D01*
X84491843Y-106705765D01*
X84593177Y-106857421D01*
X84257728Y-107192871D01*
X84194272Y-107235271D01*
X84151872Y-107298727D01*
X84151871Y-107298728D01*
X84026297Y-107486663D01*
X83967312Y-107783200D01*
X83982201Y-107858052D01*
X83982200Y-114671353D01*
X83978260Y-114691159D01*
X81056240Y-111769139D01*
X81056240Y-111502750D01*
X80990305Y-111171273D01*
X80881857Y-111008969D01*
X80947127Y-110943698D01*
X81043800Y-110710309D01*
X81043800Y-110432250D01*
X80885050Y-110273500D01*
X80060800Y-110273500D01*
X80060800Y-110293500D01*
X79806800Y-110293500D01*
X79806800Y-110273500D01*
X79786800Y-110273500D01*
X79786800Y-110019500D01*
X79806800Y-110019500D01*
X79806800Y-109999500D01*
X80060800Y-109999500D01*
X80060800Y-110019500D01*
X80885050Y-110019500D01*
X81043800Y-109860750D01*
X81043800Y-109582691D01*
X80947127Y-109349302D01*
X80870741Y-109272916D01*
X81116320Y-109027337D01*
X81329000Y-108513881D01*
X81329000Y-107958119D01*
X81116320Y-107444663D01*
X80723337Y-107051680D01*
X80516487Y-106966000D01*
X80723337Y-106880320D01*
X81116320Y-106487337D01*
X81329000Y-105973881D01*
X81329000Y-105418119D01*
X81116320Y-104904663D01*
X80723337Y-104511680D01*
X80209881Y-104299000D01*
X79654119Y-104299000D01*
X79140663Y-104511680D01*
X78939500Y-104712843D01*
X78939500Y-104284339D01*
X79010739Y-104236739D01*
X79198505Y-103955727D01*
X79264440Y-103624250D01*
X79264440Y-103111750D01*
X79198505Y-102780273D01*
X79034568Y-102534924D01*
X79037839Y-102532739D01*
X79225605Y-102251727D01*
X79291540Y-101920250D01*
X79291540Y-101407750D01*
X79225605Y-101076273D01*
X79037839Y-100795261D01*
X78756827Y-100607495D01*
X78425350Y-100541560D01*
X77987850Y-100541560D01*
X77656373Y-100607495D01*
X77419100Y-100766036D01*
X77181827Y-100607495D01*
X76850350Y-100541560D01*
X76412850Y-100541560D01*
X76081373Y-100607495D01*
X75800361Y-100795261D01*
X75612595Y-101076273D01*
X75546660Y-101407750D01*
X75546660Y-101920250D01*
X75612595Y-102251727D01*
X75776532Y-102497076D01*
X75773261Y-102499261D01*
X75585495Y-102780273D01*
X75519560Y-103111750D01*
X75519560Y-103624250D01*
X75585495Y-103955727D01*
X75773261Y-104236739D01*
X76054273Y-104424505D01*
X76385750Y-104490440D01*
X76632000Y-104490440D01*
X76632001Y-106451997D01*
X76323627Y-106760372D01*
X76260172Y-106802771D01*
X76217772Y-106866227D01*
X76217771Y-106866228D01*
X76122834Y-107008311D01*
X76092197Y-107054163D01*
X76060991Y-107211041D01*
X76050291Y-107218191D01*
X75953983Y-107362326D01*
X75683310Y-107091653D01*
X75861765Y-107056157D01*
X76071809Y-106915809D01*
X76212157Y-106705765D01*
X76261440Y-106458000D01*
X76261440Y-104934000D01*
X76212157Y-104686235D01*
X76071809Y-104476191D01*
X75861765Y-104335843D01*
X75614000Y-104286560D01*
X74090000Y-104286560D01*
X73842235Y-104335843D01*
X73632191Y-104476191D01*
X73491843Y-104686235D01*
X73442560Y-104934000D01*
X73442560Y-106458000D01*
X73491843Y-106705765D01*
X73632191Y-106915809D01*
X73842235Y-107056157D01*
X74020690Y-107091653D01*
X73667680Y-107444663D01*
X73455000Y-107958119D01*
X73455000Y-108513881D01*
X73667680Y-109027337D01*
X74060663Y-109420320D01*
X74574119Y-109633000D01*
X75129881Y-109633000D01*
X75161218Y-109620020D01*
X75204771Y-109663573D01*
X75247171Y-109727029D01*
X75310627Y-109769429D01*
X75412336Y-109837389D01*
X75282143Y-110032235D01*
X75232860Y-110280000D01*
X75232860Y-111080000D01*
X75282143Y-111327765D01*
X75422491Y-111537809D01*
X75632535Y-111678157D01*
X75880300Y-111727440D01*
X76759201Y-111727440D01*
X76759201Y-114459597D01*
X76070827Y-115147971D01*
X76036320Y-115064663D01*
X75643337Y-114671680D01*
X75129881Y-114459000D01*
X74574119Y-114459000D01*
X74060663Y-114671680D01*
X73667680Y-115064663D01*
X73455000Y-115578119D01*
X73455000Y-116133881D01*
X73667680Y-116647337D01*
X74060663Y-117040320D01*
X74129961Y-117069024D01*
X74112496Y-117095163D01*
X74074829Y-117284526D01*
X73757775Y-117496375D01*
X73429561Y-117987582D01*
X73314308Y-118567000D01*
X73426892Y-119133000D01*
X73127000Y-119133000D01*
X73127000Y-97252000D01*
X73544560Y-97252000D01*
X73544560Y-99152000D01*
X73593843Y-99399765D01*
X73734191Y-99609809D01*
X73944235Y-99750157D01*
X74192000Y-99799440D01*
X76092000Y-99799440D01*
X76339765Y-99750157D01*
X76549809Y-99609809D01*
X76671318Y-99427960D01*
X76842448Y-99462000D01*
X76842452Y-99462000D01*
X76917300Y-99476888D01*
X76992148Y-99462000D01*
X78660472Y-99462000D01*
X78744170Y-99545698D01*
X79326724Y-99787000D01*
X79957276Y-99787000D01*
X80539830Y-99545698D01*
X80640084Y-99445444D01*
X80778537Y-99417904D01*
X81029929Y-99249929D01*
X81197904Y-98998537D01*
X81256889Y-98702000D01*
X81222369Y-98528456D01*
X81227000Y-98517276D01*
X81227000Y-97886724D01*
X80985698Y-97304170D01*
X80539830Y-96858302D01*
X79957276Y-96617000D01*
X79326724Y-96617000D01*
X78744170Y-96858302D01*
X78298302Y-97304170D01*
X78057000Y-97886724D01*
X78057000Y-97942000D01*
X77232102Y-97942000D01*
X77007631Y-97717529D01*
X76965229Y-97654071D01*
X76739440Y-97503203D01*
X76739440Y-97252000D01*
X76690157Y-97004235D01*
X76549809Y-96794191D01*
X76339765Y-96653843D01*
X76092000Y-96604560D01*
X74192000Y-96604560D01*
X73944235Y-96653843D01*
X73734191Y-96794191D01*
X73593843Y-97004235D01*
X73544560Y-97252000D01*
X73127000Y-97252000D01*
X73127000Y-93976234D01*
X73757000Y-93976234D01*
X73757000Y-94427766D01*
X73929793Y-94844926D01*
X74249074Y-95164207D01*
X74666234Y-95337000D01*
X75117766Y-95337000D01*
X75534926Y-95164207D01*
X75854207Y-94844926D01*
X76027000Y-94427766D01*
X76027000Y-93976234D01*
X78757000Y-93976234D01*
X78757000Y-94427766D01*
X78929793Y-94844926D01*
X79249074Y-95164207D01*
X79666234Y-95337000D01*
X80117766Y-95337000D01*
X80534926Y-95164207D01*
X80854207Y-94844926D01*
X81027000Y-94427766D01*
X81027000Y-93976234D01*
X80854207Y-93559074D01*
X80534926Y-93239793D01*
X80117766Y-93067000D01*
X79666234Y-93067000D01*
X79249074Y-93239793D01*
X78929793Y-93559074D01*
X78757000Y-93976234D01*
X76027000Y-93976234D01*
X75854207Y-93559074D01*
X75534926Y-93239793D01*
X75117766Y-93067000D01*
X74666234Y-93067000D01*
X74249074Y-93239793D01*
X73929793Y-93559074D01*
X73757000Y-93976234D01*
X73127000Y-93976234D01*
X73127000Y-91548402D01*
X73148302Y-91599830D01*
X73594170Y-92045698D01*
X74176724Y-92287000D01*
X74807276Y-92287000D01*
X75389830Y-92045698D01*
X75835698Y-91599830D01*
X76077000Y-91017276D01*
X76077000Y-90386724D01*
X78707000Y-90386724D01*
X78707000Y-91017276D01*
X78948302Y-91599830D01*
X79394170Y-92045698D01*
X79976724Y-92287000D01*
X80607276Y-92287000D01*
X81189830Y-92045698D01*
X81635698Y-91599830D01*
X81877000Y-91017276D01*
X81877000Y-90386724D01*
X81635698Y-89804170D01*
X81189830Y-89358302D01*
X80607276Y-89117000D01*
X79976724Y-89117000D01*
X79394170Y-89358302D01*
X78948302Y-89804170D01*
X78707000Y-90386724D01*
X76077000Y-90386724D01*
X75835698Y-89804170D01*
X75389830Y-89358302D01*
X74807276Y-89117000D01*
X74176724Y-89117000D01*
X73594170Y-89358302D01*
X73148302Y-89804170D01*
X73127000Y-89855598D01*
X73127000Y-87603000D01*
X103657001Y-87603000D01*
X103657001Y-89855600D01*
G36*
X85574119Y-109633000D02*
X86129881Y-109633000D01*
X86178919Y-109612688D01*
X86191997Y-109678437D01*
X86260528Y-109781000D01*
X86359972Y-109929829D01*
X86369799Y-109936395D01*
X86356543Y-109956235D01*
X86307260Y-110204000D01*
X86307260Y-111004000D01*
X86356543Y-111251765D01*
X86496891Y-111461809D01*
X86706935Y-111602157D01*
X86954700Y-111651440D01*
X87854700Y-111651440D01*
X88102465Y-111602157D01*
X88307260Y-111465316D01*
X88307260Y-111852539D01*
X87882130Y-112277669D01*
X87818671Y-112320071D01*
X87650696Y-112571464D01*
X87606600Y-112793149D01*
X87606600Y-112793153D01*
X87591712Y-112868000D01*
X87606600Y-112942847D01*
X87606601Y-117288822D01*
X87295975Y-117496375D01*
X87283784Y-117514619D01*
X87274757Y-117469235D01*
X87134409Y-117259191D01*
X86924365Y-117118843D01*
X86676600Y-117069560D01*
X86572745Y-117069560D01*
X86643337Y-117040320D01*
X87036320Y-116647337D01*
X87249000Y-116133881D01*
X87249000Y-115578119D01*
X87036320Y-115064663D01*
X86643337Y-114671680D01*
X86129881Y-114459000D01*
X85574119Y-114459000D01*
X85542782Y-114471980D01*
X85502200Y-114431399D01*
X85502200Y-109603210D01*
X85574119Y-109633000D01*
X85574119Y-109633000D01*
G37*
X85574119Y-109633000D02*
X86129881Y-109633000D01*
X86178919Y-109612688D01*
X86191997Y-109678437D01*
X86260528Y-109781000D01*
X86359972Y-109929829D01*
X86369799Y-109936395D01*
X86356543Y-109956235D01*
X86307260Y-110204000D01*
X86307260Y-111004000D01*
X86356543Y-111251765D01*
X86496891Y-111461809D01*
X86706935Y-111602157D01*
X86954700Y-111651440D01*
X87854700Y-111651440D01*
X88102465Y-111602157D01*
X88307260Y-111465316D01*
X88307260Y-111852539D01*
X87882130Y-112277669D01*
X87818671Y-112320071D01*
X87650696Y-112571464D01*
X87606600Y-112793149D01*
X87606600Y-112793153D01*
X87591712Y-112868000D01*
X87606600Y-112942847D01*
X87606601Y-117288822D01*
X87295975Y-117496375D01*
X87283784Y-117514619D01*
X87274757Y-117469235D01*
X87134409Y-117259191D01*
X86924365Y-117118843D01*
X86676600Y-117069560D01*
X86572745Y-117069560D01*
X86643337Y-117040320D01*
X87036320Y-116647337D01*
X87249000Y-116133881D01*
X87249000Y-115578119D01*
X87036320Y-115064663D01*
X86643337Y-114671680D01*
X86129881Y-114459000D01*
X85574119Y-114459000D01*
X85542782Y-114471980D01*
X85502200Y-114431399D01*
X85502200Y-109603210D01*
X85574119Y-109633000D01*
G36*
X99140100Y-109597690D02*
X99140100Y-109838250D01*
X99298850Y-109997000D01*
X100098100Y-109997000D01*
X100098100Y-109977000D01*
X100352100Y-109977000D01*
X100352100Y-109997000D01*
X100918250Y-109997000D01*
X101042750Y-110121500D01*
X101867000Y-110121500D01*
X101867000Y-110101500D01*
X102050101Y-110101500D01*
X102050101Y-110395500D01*
X101867000Y-110395500D01*
X101867000Y-110375500D01*
X101275850Y-110375500D01*
X101151350Y-110251000D01*
X100352100Y-110251000D01*
X100352100Y-110271000D01*
X100098100Y-110271000D01*
X100098100Y-110251000D01*
X99298850Y-110251000D01*
X99213319Y-110336531D01*
X99132909Y-110216191D01*
X98985100Y-110117427D01*
X98985100Y-109671501D01*
X99161970Y-109494631D01*
X99190755Y-109475397D01*
X99140100Y-109597690D01*
X99140100Y-109597690D01*
G37*
X99140100Y-109597690D02*
X99140100Y-109838250D01*
X99298850Y-109997000D01*
X100098100Y-109997000D01*
X100098100Y-109977000D01*
X100352100Y-109977000D01*
X100352100Y-109997000D01*
X100918250Y-109997000D01*
X101042750Y-110121500D01*
X101867000Y-110121500D01*
X101867000Y-110101500D01*
X102050101Y-110101500D01*
X102050101Y-110395500D01*
X101867000Y-110395500D01*
X101867000Y-110375500D01*
X101275850Y-110375500D01*
X101151350Y-110251000D01*
X100352100Y-110251000D01*
X100352100Y-110271000D01*
X100098100Y-110271000D01*
X100098100Y-110251000D01*
X99298850Y-110251000D01*
X99213319Y-110336531D01*
X99132909Y-110216191D01*
X98985100Y-110117427D01*
X98985100Y-109671501D01*
X99161970Y-109494631D01*
X99190755Y-109475397D01*
X99140100Y-109597690D01*
G36*
X78457300Y-109603000D02*
X78477300Y-109603000D01*
X78477300Y-109857000D01*
X78457300Y-109857000D01*
X78457300Y-109877000D01*
X78279200Y-109877000D01*
X78279200Y-109583000D01*
X78457300Y-109583000D01*
X78457300Y-109603000D01*
X78457300Y-109603000D01*
G37*
X78457300Y-109603000D02*
X78477300Y-109603000D01*
X78477300Y-109857000D01*
X78457300Y-109857000D01*
X78457300Y-109877000D01*
X78279200Y-109877000D01*
X78279200Y-109583000D01*
X78457300Y-109583000D01*
X78457300Y-109603000D01*
G36*
X88459588Y-108851086D02*
X88416373Y-108894301D01*
X88319700Y-109127690D01*
X88319700Y-109368250D01*
X88478450Y-109527000D01*
X89277700Y-109527000D01*
X89277700Y-109507000D01*
X89531700Y-109507000D01*
X89531700Y-109527000D01*
X89551700Y-109527000D01*
X89551700Y-109781000D01*
X89531700Y-109781000D01*
X89531700Y-109801000D01*
X89277700Y-109801000D01*
X89277700Y-109781000D01*
X88478450Y-109781000D01*
X88392919Y-109866531D01*
X88312509Y-109746191D01*
X88128817Y-109623451D01*
X88120604Y-109582163D01*
X88053471Y-109481691D01*
X87995029Y-109394226D01*
X87995027Y-109394224D01*
X87952629Y-109330771D01*
X87889175Y-109288372D01*
X87667900Y-109067098D01*
X87667900Y-108947440D01*
X87977800Y-108947440D01*
X88225565Y-108898157D01*
X88377800Y-108796436D01*
X88459588Y-108851086D01*
X88459588Y-108851086D01*
G37*
X88459588Y-108851086D02*
X88416373Y-108894301D01*
X88319700Y-109127690D01*
X88319700Y-109368250D01*
X88478450Y-109527000D01*
X89277700Y-109527000D01*
X89277700Y-109507000D01*
X89531700Y-109507000D01*
X89531700Y-109527000D01*
X89551700Y-109527000D01*
X89551700Y-109781000D01*
X89531700Y-109781000D01*
X89531700Y-109801000D01*
X89277700Y-109801000D01*
X89277700Y-109781000D01*
X88478450Y-109781000D01*
X88392919Y-109866531D01*
X88312509Y-109746191D01*
X88128817Y-109623451D01*
X88120604Y-109582163D01*
X88053471Y-109481691D01*
X87995029Y-109394226D01*
X87995027Y-109394224D01*
X87952629Y-109330771D01*
X87889175Y-109288372D01*
X87667900Y-109067098D01*
X87667900Y-108947440D01*
X87977800Y-108947440D01*
X88225565Y-108898157D01*
X88377800Y-108796436D01*
X88459588Y-108851086D01*
G04 #@! TD*
M02*
